<svg width="313" height="275" viewBox="0 0 313 275" fill="none" xmlns="http://www.w3.org/2000/svg">
<path d="M80.95 19.09H81.734V23.514H86.914V24.242H81.734V30.514H88.216V31.256H75.826V30.514H80.95V19.09ZM94.978 20.994C94.446 21.8807 93.8627 22.6273 93.228 23.234L92.738 22.646C93.718 21.7033 94.5067 20.49 95.104 19.006L95.846 19.188C95.7153 19.5053 95.552 19.8693 95.356 20.28H101.992V20.994H94.978ZM92.57 25.628H94.124C94.236 24.5453 94.306 23.4487 94.334 22.338H101.264L101.138 25.628H102.398V26.342H101.11L100.97 29.1H102.174V29.786H100.914C100.858 30.206 100.816 30.4673 100.788 30.57C100.648 31.0087 100.382 31.34 99.99 31.564C99.598 31.7507 99.0333 31.844 98.296 31.844H97.148L96.924 31.158C97.54 31.1767 97.96 31.186 98.184 31.186C98.5853 31.186 98.9633 31.1487 99.318 31.074C99.6633 30.962 99.9153 30.7287 100.074 30.374C100.111 30.262 100.149 30.066 100.186 29.786H93.508C93.732 28.666 93.914 27.518 94.054 26.342H92.57V25.628ZM94.768 26.342C94.656 27.3313 94.516 28.2507 94.348 29.1H100.242C100.27 28.708 100.321 27.7887 100.396 26.342H94.768ZM100.424 25.628L100.522 23.01H95.006C94.9593 23.9527 94.9033 24.8253 94.838 25.628H100.424ZM96.966 23.416C97.694 23.9013 98.2913 24.3773 98.758 24.844L98.268 25.334C97.82 24.8767 97.2227 24.3913 96.476 23.878L96.966 23.416ZM96.854 26.734C97.5353 27.238 98.1187 27.7607 98.604 28.302L98.114 28.792C97.6847 28.2973 97.1013 27.7653 96.364 27.196L96.854 26.734ZM90.498 19.384C91.394 19.9813 92.1267 20.5553 92.696 21.106L92.15 21.638C91.6367 21.106 90.904 20.532 89.952 19.916L90.498 19.384ZM90.288 22.8C91.156 23.388 91.884 23.976 92.472 24.564L91.94 25.11C91.38 24.5313 90.652 23.934 89.756 23.318L90.288 22.8ZM92.57 27.056C92.0007 28.6333 91.338 30.1733 90.582 31.676L89.868 31.368C90.6147 29.9587 91.296 28.4373 91.912 26.804L92.57 27.056ZM103.84 20.784H109.692C109.459 20.168 109.197 19.5987 108.908 19.076L109.706 18.936C109.977 19.468 110.229 20.084 110.462 20.784H116.16V21.526H110.378V23.598H114.942V28.582C114.942 29.394 114.555 29.8 113.78 29.8H112.394L112.184 29.072L113.528 29.1C113.967 29.1 114.186 28.8713 114.186 28.414V24.312H110.378V31.83H109.622V24.312H105.982V29.884H105.24V23.598H109.622V21.526H103.84V20.784ZM130.3 26.762L130.426 27.518L128.914 27.77V31.83H128.158V27.896L123.678 28.624L123.566 27.868L128.158 27.112V19.146H128.914V26.986L130.3 26.762ZM124.7 19.874C125.792 20.6487 126.674 21.4 127.346 22.128L126.828 22.66C126.175 21.9413 125.293 21.1853 124.182 20.392L124.7 19.874ZM124.28 23.108C125.344 23.8827 126.245 24.6667 126.982 25.46L126.436 25.992C125.773 25.264 124.877 24.4753 123.748 23.626L124.28 23.108ZM117.924 22.954H120.276V20.644C119.791 20.7187 119.058 20.812 118.078 20.924L117.924 20.21C119.707 20.0513 121.321 19.7527 122.768 19.314L123.034 20.028C122.483 20.1867 121.821 20.3453 121.046 20.504V22.954H123.076V23.696H121.046V24.466C121.886 25.1567 122.721 25.9267 123.552 26.776L123.132 27.406C122.301 26.4633 121.606 25.726 121.046 25.194V31.83H120.276V24.942C119.716 26.4073 118.918 27.728 117.882 28.904L117.546 28.092C118.797 26.8133 119.683 25.348 120.206 23.696H117.924V22.954ZM132.036 31.704L131.882 31.004C132.246 31.032 132.596 31.046 132.932 31.046C133.352 31.046 133.562 30.822 133.562 30.374V26.748C132.965 27 132.349 27.224 131.714 27.42L131.518 26.678C132.237 26.4727 132.918 26.2487 133.562 26.006V22.492H131.784V21.75H133.562V19.118H134.318V21.75H135.872V22.492H134.318V25.684C134.841 25.4413 135.377 25.1613 135.928 24.844V25.586C135.461 25.8567 134.925 26.132 134.318 26.412V30.556C134.318 31.3213 133.945 31.704 133.198 31.704H132.036ZM136.46 21.218H139.89V19.132H140.646V21.218H144.076V21.932H140.646V24.438H143.516V25.124C142.984 26.7387 142.135 28.1013 140.968 29.212C141.901 29.9773 143.077 30.6587 144.496 31.256L144.104 31.872C142.629 31.2187 141.411 30.4813 140.45 29.66C139.321 30.5933 137.958 31.34 136.362 31.9L135.998 31.256C137.557 30.724 138.863 30.0333 139.918 29.184C138.705 28.008 137.888 26.6687 137.468 25.166H136.712V24.438H139.89V21.932H136.46V21.218ZM138.182 25.166C138.574 26.5007 139.321 27.6907 140.422 28.736C141.486 27.728 142.27 26.538 142.774 25.166H138.182ZM146.344 19.79H152.84V20.49H151.342V22.786H153.134V23.514H151.342V26.664H150.614V23.514H148.556C148.397 25.0167 147.847 26.1273 146.904 26.846L146.344 26.342C147.203 25.7073 147.693 24.7647 147.814 23.514H145.98V22.786H147.856V20.49H146.344V19.79ZM148.598 20.49V22.786H150.614V20.49H148.598ZM154.142 20.056H154.856V24.858H154.142V20.056ZM146.68 28.176H151.678V26.818H152.434V28.176H157.334V28.89H152.434V30.766H158.118V31.48H145.882V30.766H151.678V28.89H146.68V28.176ZM154.52 26.762L154.352 26.048C155.173 26.0853 155.766 26.104 156.13 26.104C156.485 26.104 156.662 25.9127 156.662 25.53V19.272H157.404V25.712C157.404 26.412 157.063 26.762 156.382 26.762H154.52ZM165.608 19.034H166.392V21.624H171.46V28.064H170.69V27.126H166.392V31.97H165.608V27.126H161.324V28.064H160.554V21.624H165.608V19.034ZM161.324 26.384H165.608V22.38H161.324V26.384ZM166.392 26.384H170.69V22.38H166.392V26.384ZM177.158 31.704L176.976 30.934C177.891 30.9713 178.539 30.99 178.922 30.99C179.529 30.99 179.832 30.6727 179.832 30.038V19.314H180.616V30.234C180.616 31.214 180.145 31.704 179.202 31.704H177.158ZM176.892 22.856C176.201 25.628 175.301 27.7327 174.19 29.17L173.532 28.61C174.689 27.1073 175.562 25.0913 176.15 22.562L176.892 22.856ZM183.724 22.24C184.919 24.7973 185.829 27.014 186.454 28.89L185.768 29.366C185.087 27.3313 184.177 25.096 183.038 22.66L183.724 22.24ZM194.28 19.146C196.063 21.134 198.121 22.702 200.454 23.85L200.048 24.578C197.687 23.3553 195.671 21.7733 194 19.832C192.441 21.6707 190.407 23.2573 187.896 24.592L187.504 23.864C189.977 22.6133 192.049 21.0407 193.72 19.146H194.28ZM194.028 22.8H194.77V26.062H198.704V26.804H194.77V30.528H199.712V31.27H188.12V30.528H190.318V24.816H191.06V30.528H194.028V22.8ZM206.11 19.258H206.852V30.472H209.12V19.258H209.862V30.472H214.16V31.214H201.84V30.472H206.11V19.258ZM213.726 21.946C213.166 24.41 212.447 26.5613 211.57 28.4L210.884 28.148C211.715 26.4493 212.438 24.3213 213.054 21.764L213.726 21.946ZM202.876 21.722C203.604 23.6073 204.267 25.8053 204.864 28.316L204.164 28.484C203.669 26.2813 203.021 24.102 202.218 21.946L202.876 21.722Z" fill="#4E5969"/>
<path d="M76.6001 52.504H77.4541V62.5H76.6001V52.504ZM82.8807 52.308C83.9727 52.308 84.8407 52.574 85.4847 53.106C86.1473 53.638 86.5207 54.422 86.6047 55.458H85.7507C85.6387 54.6833 85.3447 54.0907 84.8687 53.68C84.402 53.2787 83.73 53.078 82.8527 53.078C82.05 53.078 81.4153 53.218 80.9487 53.498C80.426 53.7967 80.1647 54.268 80.1647 54.912C80.1647 55.4627 80.4773 55.906 81.1027 56.242C81.4387 56.4007 82.078 56.6153 83.0207 56.886C84.318 57.2593 85.1767 57.5767 85.5967 57.838C86.4273 58.3327 86.8427 59.0327 86.8427 59.938C86.8427 60.7967 86.4833 61.478 85.7647 61.982C85.0833 62.458 84.1733 62.696 83.0347 62.696C81.8867 62.696 80.9813 62.4347 80.3187 61.912C79.5627 61.3147 79.1427 60.4093 79.0587 59.196H79.8987C80.0013 60.1387 80.328 60.8387 80.8787 61.296C81.392 61.7067 82.106 61.912 83.0207 61.912C83.8887 61.912 84.6027 61.7393 85.1627 61.394C85.704 61.0393 85.9747 60.568 85.9747 59.98C85.9747 59.2987 85.634 58.7667 84.9527 58.384C84.5793 58.1693 83.8467 57.9127 82.7547 57.614C81.56 57.278 80.7947 57.012 80.4587 56.816C79.6933 56.3867 79.3107 55.7613 79.3107 54.94C79.3107 54.072 79.67 53.4093 80.3887 52.952C81.0233 52.5227 81.854 52.308 82.8807 52.308ZM92.6537 52.308C94.119 52.308 95.2857 52.812 96.1537 53.82C96.9657 54.772 97.3717 55.9993 97.3717 57.502C97.3717 59.014 96.9657 60.246 96.1537 61.198C95.2857 62.1967 94.1143 62.696 92.6397 62.696C91.1557 62.696 89.9843 62.192 89.1257 61.184C88.3137 60.232 87.9077 59.0047 87.9077 57.502C87.9077 55.9993 88.3137 54.772 89.1257 53.82C89.9937 52.812 91.1697 52.308 92.6537 52.308ZM92.6537 53.092C91.431 53.092 90.4697 53.512 89.7697 54.352C89.0977 55.164 88.7617 56.214 88.7617 57.502C88.7617 58.818 89.093 59.868 89.7557 60.652C90.4557 61.492 91.417 61.912 92.6397 61.912C93.853 61.912 94.8097 61.4967 95.5097 60.666C96.1817 59.8633 96.5177 58.8087 96.5177 57.502C96.5177 56.1767 96.1817 55.122 95.5097 54.338C94.819 53.5073 93.867 53.092 92.6537 53.092ZM102.044 52.308C103.257 52.308 104.162 52.7653 104.76 53.68C105.31 54.5293 105.586 55.7193 105.586 57.25C105.586 58.79 105.287 60.0733 104.69 61.1C104.046 62.164 103.159 62.696 102.03 62.696C100.247 62.696 99.2157 61.8187 98.9357 60.064H99.7897C100.014 61.324 100.765 61.954 102.044 61.954C102.884 61.954 103.551 61.5293 104.046 60.68C104.512 59.8587 104.746 58.8273 104.746 57.586V57.096H104.69C104.456 57.6653 104.092 58.1273 103.598 58.482C103.112 58.818 102.552 58.986 101.918 58.986C100.966 58.986 100.2 58.678 99.6217 58.062C99.0524 57.4647 98.7677 56.6807 98.7677 55.71C98.7677 54.73 99.0757 53.918 99.6917 53.274C100.308 52.63 101.092 52.308 102.044 52.308ZM102.072 53.05C101.334 53.05 100.742 53.302 100.294 53.806C99.8457 54.31 99.6217 54.9447 99.6217 55.71C99.6217 56.4753 99.8411 57.0913 100.28 57.558C100.728 58.0247 101.32 58.258 102.058 58.258C102.739 58.258 103.327 58.0107 103.822 57.516C104.307 57.012 104.55 56.4053 104.55 55.696C104.55 54.9773 104.335 54.3613 103.906 53.848C103.43 53.316 102.818 53.05 102.072 53.05ZM110.564 52.308C111.768 52.308 112.664 52.8587 113.252 53.96C113.738 54.856 113.98 56.0367 113.98 57.502C113.98 58.9487 113.738 60.1293 113.252 61.044C112.655 62.1453 111.759 62.696 110.564 62.696C109.37 62.696 108.474 62.1453 107.876 61.044C107.391 60.1573 107.148 58.9767 107.148 57.502C107.148 56.018 107.391 54.8373 107.876 53.96C108.464 52.8587 109.36 52.308 110.564 52.308ZM110.564 53.064C109.594 53.064 108.898 53.5587 108.478 54.548C108.17 55.276 108.016 56.2607 108.016 57.502C108.016 58.7247 108.17 59.7093 108.478 60.456C108.898 61.4453 109.594 61.94 110.564 61.94C111.516 61.94 112.212 61.4453 112.65 60.456C112.968 59.6907 113.126 58.706 113.126 57.502C113.126 56.2793 112.968 55.2947 112.65 54.548C112.221 53.5587 111.526 53.064 110.564 53.064ZM118.959 52.308C120.163 52.308 121.059 52.8587 121.647 53.96C122.132 54.856 122.375 56.0367 122.375 57.502C122.375 58.9487 122.132 60.1293 121.647 61.044C121.049 62.1453 120.153 62.696 118.959 62.696C117.764 62.696 116.868 62.1453 116.271 61.044C115.785 60.1573 115.543 58.9767 115.543 57.502C115.543 56.018 115.785 54.8373 116.271 53.96C116.859 52.8587 117.755 52.308 118.959 52.308ZM118.959 53.064C117.988 53.064 117.293 53.5587 116.873 54.548C116.565 55.276 116.411 56.2607 116.411 57.502C116.411 58.7247 116.565 59.7093 116.873 60.456C117.293 61.4453 117.988 61.94 118.959 61.94C119.911 61.94 120.606 61.4453 121.045 60.456C121.362 59.6907 121.521 58.706 121.521 57.502C121.521 56.2793 121.362 55.2947 121.045 54.548C120.615 53.5587 119.92 53.064 118.959 53.064ZM128.053 52.504V62.5H127.199V53.568C126.555 54.268 125.757 54.758 124.805 55.038V54.17C125.281 54.03 125.743 53.82 126.191 53.54C126.63 53.2507 127.022 52.9053 127.367 52.504H128.053ZM134.6 54.324H139.374C139.421 54.016 139.481 53.554 139.556 52.938L140.298 53.036C140.261 53.3907 140.209 53.82 140.144 54.324H144.694V55.052H140.018C139.878 55.7147 139.761 56.2233 139.668 56.578H143.322V61.268H142.58V57.306H136.826V61.352H136.084V56.578H138.884C138.987 56.2047 139.108 55.696 139.248 55.052H134.6V54.324ZM144.05 51.916C141.147 52.4013 137.955 52.672 134.474 52.728V56.382C134.399 59.4527 133.793 61.8933 132.654 63.704L132.122 63.144C133.111 61.5293 133.648 59.2753 133.732 56.382V52.07C137.372 52.0327 140.69 51.7573 143.686 51.244L144.05 51.916ZM140.452 61.03C141.983 61.6087 143.401 62.332 144.708 63.2L144.288 63.858C142.907 62.8967 141.497 62.1453 140.06 61.604L140.452 61.03ZM140.312 57.978C140.144 59.6393 139.64 60.9087 138.8 61.786C137.932 62.6633 136.621 63.354 134.866 63.858L134.474 63.172C136.154 62.724 137.386 62.108 138.17 61.324C138.945 60.5307 139.416 59.4013 139.584 57.936L140.312 57.978ZM147.788 56.942H157.336V60.456H152.912V61.366H157.756V61.912H152.912V62.864H158.792V63.48H146.304V62.864H152.156V61.912H147.368V61.366H152.156V60.456H147.788V56.942ZM156.622 59.952V58.958H152.912V59.952H156.622ZM152.156 59.952V58.958H148.502V59.952H152.156ZM148.502 58.482H152.156V57.446H148.502V58.482ZM152.912 57.446V58.482H156.622V57.446H152.912ZM148.096 51.342H157.042V54.73H148.096V51.342ZM156.314 54.226V53.274H148.824V54.226H156.314ZM148.824 52.784H156.314V51.846H148.824V52.784ZM146.304 55.556H158.792V56.144H146.304V55.556ZM161.928 55.976C161.48 56.6573 160.957 57.3433 160.36 58.034L160.122 57.292C161.625 55.4533 162.712 53.372 163.384 51.048L164.07 51.37C163.687 52.5927 163.221 53.7127 162.67 54.73V63.886H161.928V55.976ZM163.888 53.61H167.738V51.076H168.48V53.61H172.4V54.338H169.32C169.992 56.7553 171.201 58.9067 172.946 60.792L172.456 61.394C170.655 59.294 169.418 56.942 168.746 54.338H168.48V60.176H170.804V60.904H168.48V63.872H167.738V60.904H165.456V60.176H167.738V54.338H167.486C166.758 57.2593 165.503 59.6533 163.72 61.52L163.328 60.876C165.017 59.1867 166.217 57.0073 166.926 54.338H163.888V53.61ZM178.462 63.816L178.294 63.088C178.966 63.1253 179.451 63.144 179.75 63.144C180.142 63.144 180.338 62.9527 180.338 62.57V58.874L175.872 59.112L175.662 58.44C175.933 58.412 176.157 58.3653 176.334 58.3C177.641 57.7493 179.059 56.886 180.59 55.71C179.563 55.7847 178.159 55.8733 176.376 55.976L176.208 55.29C176.413 55.262 176.591 55.2153 176.74 55.15C177.571 54.758 178.518 53.974 179.582 52.798C178.238 52.8727 176.894 52.91 175.55 52.91L175.326 52.252C179.377 52.2333 182.685 51.9207 185.252 51.314L185.63 51.958C184.23 52.3127 182.536 52.5693 180.548 52.728C179.559 53.8573 178.569 54.7253 177.58 55.332C178.868 55.2573 180.137 55.1733 181.388 55.08C182.032 54.548 182.704 53.974 183.404 53.358L184.104 53.694C181.621 55.9153 179.442 57.4833 177.566 58.398C180.086 58.258 182.247 58.09 184.048 57.894C183.647 57.3713 183.255 56.886 182.872 56.438L183.432 56.074C184.599 57.418 185.476 58.58 186.064 59.56L185.462 59.98C185.182 59.504 184.86 59.014 184.496 58.51C183.619 58.6033 182.48 58.706 181.08 58.818V62.752C181.08 63.4613 180.725 63.816 180.016 63.816H178.462ZM183.054 59.826C184.454 60.862 185.644 61.9073 186.624 62.962L186.078 63.508C185.229 62.5187 184.048 61.4547 182.536 60.316L183.054 59.826ZM178.462 60.428C177.51 61.5573 176.32 62.5607 174.892 63.438L174.416 62.808C175.779 62.0147 176.945 61.058 177.916 59.938L178.462 60.428ZM197.222 51.146C197.222 52.2287 197.185 53.302 197.11 54.366C197.875 58.062 199.187 60.9927 201.044 63.158L200.512 63.774C198.888 61.7487 197.689 59.2333 196.914 56.228C196.83 56.7973 196.732 57.3433 196.62 57.866C196.088 60.2927 194.889 62.2713 193.022 63.802L192.518 63.172C194.179 61.7907 195.281 60.0453 195.822 57.936C196.233 56.1627 196.447 53.8993 196.466 51.146H197.222ZM189.704 51.244C190.656 51.972 191.473 52.714 192.154 53.47L191.636 54.002C190.992 53.274 190.166 52.5273 189.158 51.762L189.704 51.244ZM188.206 55.458H191.09V61.786C191.641 61.3473 192.233 60.8247 192.868 60.218L193.078 61.002C192.257 61.7953 191.356 62.5233 190.376 63.186L190.082 62.5C190.259 62.3227 190.348 62.15 190.348 61.982V56.2H188.206V55.458ZM210.956 52.588H206.938V51.846H214.722V52.588H211.726V56.774H214.54V57.488H211.726V62.64H215.016V63.382H206.518V62.64H208.002V55.066H208.744V62.64H210.956V52.588ZM203.746 51.258C204.661 51.9673 205.449 52.7047 206.112 53.47L205.594 54.002C204.969 53.2553 204.175 52.5087 203.214 51.762L203.746 51.258ZM202.192 55.458H205.034V61.758C205.594 61.2913 206.14 60.792 206.672 60.26L206.868 61.058C206.065 61.8607 205.23 62.5607 204.362 63.158L204.068 62.458C204.236 62.2993 204.32 62.1407 204.32 61.982V56.2H202.192V55.458Z" fill="#4E5969"/>
<path d="M76.4029 84.504H77.2569V94.5H76.4029V84.504ZM82.6834 84.308C83.7754 84.308 84.6434 84.574 85.2874 85.106C85.9501 85.638 86.3234 86.422 86.4074 87.458H85.5534C85.4414 86.6833 85.1474 86.0907 84.6714 85.68C84.2047 85.2787 83.5327 85.078 82.6554 85.078C81.8527 85.078 81.2181 85.218 80.7514 85.498C80.2287 85.7967 79.9674 86.268 79.9674 86.912C79.9674 87.4627 80.2801 87.906 80.9054 88.242C81.2414 88.4007 81.8807 88.6153 82.8234 88.886C84.1207 89.2593 84.9794 89.5767 85.3994 89.838C86.2301 90.3327 86.6454 91.0327 86.6454 91.938C86.6454 92.7967 86.2861 93.478 85.5674 93.982C84.8861 94.458 83.9761 94.696 82.8374 94.696C81.6894 94.696 80.7841 94.4347 80.1214 93.912C79.3654 93.3147 78.9454 92.4093 78.8614 91.196H79.7014C79.8041 92.1387 80.1307 92.8387 80.6814 93.296C81.1947 93.7067 81.9087 93.912 82.8234 93.912C83.6914 93.912 84.4054 93.7393 84.9654 93.394C85.5067 93.0393 85.7774 92.568 85.7774 91.98C85.7774 91.2987 85.4367 90.7667 84.7554 90.384C84.3821 90.1693 83.6494 89.9127 82.5574 89.614C81.3627 89.278 80.5974 89.012 80.2614 88.816C79.4961 88.3867 79.1134 87.7613 79.1134 86.94C79.1134 86.072 79.4727 85.4093 80.1914 84.952C80.8261 84.5227 81.6567 84.308 82.6834 84.308ZM92.4564 84.308C93.9217 84.308 95.0884 84.812 95.9564 85.82C96.7684 86.772 97.1744 87.9993 97.1744 89.502C97.1744 91.014 96.7684 92.246 95.9564 93.198C95.0884 94.1967 93.9171 94.696 92.4424 94.696C90.9584 94.696 89.7871 94.192 88.9284 93.184C88.1164 92.232 87.7104 91.0047 87.7104 89.502C87.7104 87.9993 88.1164 86.772 88.9284 85.82C89.7964 84.812 90.9724 84.308 92.4564 84.308ZM92.4564 85.092C91.2337 85.092 90.2724 85.512 89.5724 86.352C88.9004 87.164 88.5644 88.214 88.5644 89.502C88.5644 90.818 88.8957 91.868 89.5584 92.652C90.2584 93.492 91.2197 93.912 92.4424 93.912C93.6557 93.912 94.6124 93.4967 95.3124 92.666C95.9844 91.8633 96.3204 90.8087 96.3204 89.502C96.3204 88.1767 95.9844 87.122 95.3124 86.338C94.6217 85.5073 93.6697 85.092 92.4564 85.092ZM102.098 84.308C103.004 84.308 103.746 84.5693 104.324 85.092C104.912 85.6053 105.206 86.296 105.206 87.164C105.206 88.0227 104.875 88.8067 104.212 89.516C103.886 89.8613 103.195 90.3933 102.14 91.112C100.722 92.0733 99.9331 92.9413 99.7745 93.716H105.22V94.5H98.7245C98.7245 93.6413 99.0558 92.848 99.7185 92.12C100.129 91.6533 100.829 91.0793 101.818 90.398C102.658 89.8007 103.223 89.3573 103.512 89.068C104.063 88.4707 104.338 87.8313 104.338 87.15C104.338 86.4873 104.133 85.974 103.722 85.61C103.321 85.246 102.775 85.064 102.084 85.064C101.356 85.064 100.782 85.3067 100.362 85.792C99.9145 86.2773 99.6905 86.9867 99.6905 87.92H98.8225C98.8225 86.8 99.1305 85.918 99.7465 85.274C100.334 84.63 101.118 84.308 102.098 84.308ZM110.367 84.308C111.571 84.308 112.467 84.8587 113.055 85.96C113.54 86.856 113.783 88.0367 113.783 89.502C113.783 90.9487 113.54 92.1293 113.055 93.044C112.458 94.1453 111.562 94.696 110.367 94.696C109.172 94.696 108.276 94.1453 107.679 93.044C107.194 92.1573 106.951 90.9767 106.951 89.502C106.951 88.018 107.194 86.8373 107.679 85.96C108.267 84.8587 109.163 84.308 110.367 84.308ZM110.367 85.064C109.396 85.064 108.701 85.5587 108.281 86.548C107.973 87.276 107.819 88.2607 107.819 89.502C107.819 90.7247 107.973 91.7093 108.281 92.456C108.701 93.4453 109.396 93.94 110.367 93.94C111.319 93.94 112.014 93.4453 112.453 92.456C112.77 91.6907 112.929 90.706 112.929 89.502C112.929 88.2793 112.77 87.2947 112.453 86.548C112.024 85.5587 111.328 85.064 110.367 85.064ZM118.762 84.308C119.966 84.308 120.862 84.8587 121.45 85.96C121.935 86.856 122.178 88.0367 122.178 89.502C122.178 90.9487 121.935 92.1293 121.45 93.044C120.852 94.1453 119.956 94.696 118.762 94.696C117.567 94.696 116.671 94.1453 116.074 93.044C115.588 92.1573 115.346 90.9767 115.346 89.502C115.346 88.018 115.588 86.8373 116.074 85.96C116.662 84.8587 117.558 84.308 118.762 84.308ZM118.762 85.064C117.791 85.064 117.096 85.5587 116.676 86.548C116.368 87.276 116.214 88.2607 116.214 89.502C116.214 90.7247 116.368 91.7093 116.676 92.456C117.096 93.4453 117.791 93.94 118.762 93.94C119.714 93.94 120.409 93.4453 120.848 92.456C121.165 91.6907 121.324 90.706 121.324 89.502C121.324 88.2793 121.165 87.2947 120.848 86.548C120.418 85.5587 119.723 85.064 118.762 85.064ZM127.156 84.308C128.36 84.308 129.256 84.8587 129.844 85.96C130.329 86.856 130.572 88.0367 130.572 89.502C130.572 90.9487 130.329 92.1293 129.844 93.044C129.247 94.1453 128.351 94.696 127.156 94.696C125.961 94.696 125.065 94.1453 124.468 93.044C123.983 92.1573 123.74 90.9767 123.74 89.502C123.74 88.018 123.983 86.8373 124.468 85.96C125.056 84.8587 125.952 84.308 127.156 84.308ZM127.156 85.064C126.185 85.064 125.49 85.5587 125.07 86.548C124.762 87.276 124.608 88.2607 124.608 89.502C124.608 90.7247 124.762 91.7093 125.07 92.456C125.49 93.4453 126.185 93.94 127.156 93.94C128.108 93.94 128.803 93.4453 129.242 92.456C129.559 91.6907 129.718 90.706 129.718 89.502C129.718 88.2793 129.559 87.2947 129.242 86.548C128.813 85.5587 128.117 85.064 127.156 85.064ZM135.551 84.308C136.755 84.308 137.651 84.8587 138.239 85.96C138.724 86.856 138.967 88.0367 138.967 89.502C138.967 90.9487 138.724 92.1293 138.239 93.044C137.641 94.1453 136.745 94.696 135.551 94.696C134.356 94.696 133.46 94.1453 132.863 93.044C132.377 92.1573 132.135 90.9767 132.135 89.502C132.135 88.018 132.377 86.8373 132.863 85.96C133.451 84.8587 134.347 84.308 135.551 84.308ZM135.551 85.064C134.58 85.064 133.885 85.5587 133.465 86.548C133.157 87.276 133.003 88.2607 133.003 89.502C133.003 90.7247 133.157 91.7093 133.465 92.456C133.885 93.4453 134.58 93.94 135.551 93.94C136.503 93.94 137.198 93.4453 137.637 92.456C137.954 91.6907 138.113 90.706 138.113 89.502C138.113 88.2793 137.954 87.2947 137.637 86.548C137.207 85.5587 136.512 85.064 135.551 85.064ZM142.181 87.738V90.286H144.673V87.738H142.181ZM144.673 87.052V84.476H142.181V87.052H144.673ZM142.167 91C142.102 92.9693 141.784 94.598 141.215 95.886L140.627 95.368C141.196 94.0427 141.486 92.3813 141.495 90.384V83.762H145.387V94.654C145.387 95.438 145.023 95.83 144.295 95.83H143.175L142.993 95.158C143.516 95.1767 143.875 95.186 144.071 95.186C144.472 95.186 144.673 94.9247 144.673 94.402V91H142.167ZM147.431 89.614V95.872H146.717V83.762H152.233C152.233 85.414 152.149 86.5153 151.981 87.066C151.832 87.626 151.309 87.906 150.413 87.906H149.335L149.125 87.248H150.063C150.427 87.248 150.698 87.22 150.875 87.164C151.052 87.108 151.188 86.968 151.281 86.744C151.402 86.3613 151.468 85.6007 151.477 84.462H147.431V88.928H152.233V89.572C151.934 91.0933 151.44 92.3673 150.749 93.394C151.421 94.066 152.224 94.6633 153.157 95.186L152.793 95.816C151.804 95.2467 150.982 94.6307 150.329 93.968C149.704 94.7333 148.948 95.354 148.061 95.83L147.669 95.228C148.537 94.7333 149.256 94.136 149.825 93.436C148.873 92.316 148.229 91.042 147.893 89.614H147.431ZM148.551 89.614C148.859 90.818 149.424 91.9007 150.245 92.862C150.842 91.938 151.276 90.8553 151.547 89.614H148.551ZM159.471 83.16C159.312 83.5333 159.112 83.9207 158.869 84.322H165.071V84.938C164.138 86.0207 162.99 86.9353 161.627 87.682C163.251 88.41 165.08 88.886 167.115 89.11L166.779 89.824C164.548 89.5627 162.556 88.9887 160.801 88.102C159.074 88.8953 157.049 89.474 154.725 89.838L154.375 89.138C156.522 88.8393 158.398 88.3493 160.003 87.668C159.116 87.136 158.304 86.5433 157.567 85.89C156.998 86.422 156.368 86.8887 155.677 87.29L155.215 86.688C156.932 85.708 158.094 84.4947 158.701 83.048L159.471 83.16ZM160.815 87.29C162.047 86.6647 163.106 85.9133 163.993 85.036H158.351C158.22 85.1853 158.127 85.2973 158.071 85.372C158.883 86.1093 159.798 86.7487 160.815 87.29ZM160.801 89.222C160.801 89.8007 160.75 90.37 160.647 90.93H165.631C165.603 93.2447 165.388 94.6213 164.987 95.06C164.576 95.5173 163.867 95.746 162.859 95.746C162.439 95.746 161.926 95.732 161.319 95.704L161.123 95.004C161.963 95.0413 162.486 95.06 162.691 95.06C163.624 95.0413 164.208 94.8547 164.441 94.5C164.674 94.1267 164.819 93.1653 164.875 91.616H160.479C160.33 92.064 160.166 92.4467 159.989 92.764C159.242 94.024 157.6 95.06 155.061 95.872L154.557 95.27C156.853 94.5887 158.393 93.7113 159.177 92.638C159.354 92.3487 159.518 92.008 159.667 91.616H155.341V90.93H159.877C159.998 90.3513 160.059 89.782 160.059 89.222H160.801ZM178.693 88.634V91.252H171.567V92.386H179.337V95.858H178.581V95.228H171.567V95.844H170.811V88.634H178.693ZM171.567 94.542H178.581V93.016H171.567V94.542ZM171.567 90.622H177.951V89.278H171.567V90.622ZM180.611 86.996V89.404H179.869V87.654H169.621V89.404H168.879V86.996H174.535C174.376 86.6413 174.208 86.3007 174.031 85.974L174.773 85.834C174.95 86.1607 175.118 86.548 175.277 86.996H180.611ZM170.377 84.854C170.022 85.4233 169.621 85.946 169.173 86.422L168.529 86.016C169.406 85.1107 170.046 84.112 170.447 83.02L171.189 83.174C171.002 83.622 170.858 83.9533 170.755 84.168H174.689V84.854H172.155C172.51 85.33 172.794 85.7827 173.009 86.212L172.323 86.478C172.09 86.002 171.763 85.4607 171.343 84.854H170.377ZM176.425 84.854C176.154 85.3767 175.856 85.8387 175.529 86.24L174.885 85.82C175.576 84.9893 176.08 84.0607 176.397 83.034L177.111 83.188C176.999 83.5147 176.878 83.8413 176.747 84.168H180.933V84.854H178.287C178.642 85.3207 178.908 85.736 179.085 86.1L178.399 86.338C178.11 85.7873 177.797 85.2927 177.461 84.854H176.425ZM187.765 83.706H194.359V90.02H191.447V91.938H194.639V92.666H191.447V94.682H195.087V95.424H187.051V94.682H190.691V92.666H187.471V91.938H190.691V90.02H187.765V83.706ZM193.617 89.334V87.192H191.447V89.334H193.617ZM190.691 89.334V87.192H188.507V89.334H190.691ZM188.507 86.52H190.691V84.392H188.507V86.52ZM191.447 84.392V86.52H193.617V84.392H191.447ZM182.697 88.368H184.293V84.812H182.487V84.084H186.841V84.812H185.049V88.368H186.673V89.096H185.049V92.526C185.656 92.3113 186.262 92.0733 186.869 91.812V92.54C185.534 93.128 184.069 93.618 182.473 94.01L182.291 93.296C182.898 93.1747 183.565 93.002 184.293 92.778V89.096H182.697V88.368ZM198.125 87.976C197.677 88.6573 197.154 89.3433 196.557 90.034L196.319 89.292C197.822 87.4533 198.909 85.372 199.581 83.048L200.267 83.37C199.884 84.5927 199.418 85.7127 198.867 86.73V95.886H198.125V87.976ZM200.085 85.61H203.935V83.076H204.677V85.61H208.597V86.338H205.517C206.189 88.7553 207.398 90.9067 209.143 92.792L208.653 93.394C206.852 91.294 205.615 88.942 204.943 86.338H204.677V92.176H207.001V92.904H204.677V95.872H203.935V92.904H201.653V92.176H203.935V86.338H203.683C202.955 89.2593 201.7 91.6533 199.917 93.52L199.525 92.876C201.214 91.1867 202.414 89.0073 203.123 86.338H200.085V85.61ZM214.659 95.816L214.491 95.088C215.163 95.1253 215.648 95.144 215.947 95.144C216.339 95.144 216.535 94.9527 216.535 94.57V90.874L212.069 91.112L211.859 90.44C212.13 90.412 212.354 90.3653 212.531 90.3C213.838 89.7493 215.256 88.886 216.787 87.71C215.76 87.7847 214.356 87.8733 212.573 87.976L212.405 87.29C212.61 87.262 212.788 87.2153 212.937 87.15C213.768 86.758 214.715 85.974 215.779 84.798C214.435 84.8727 213.091 84.91 211.747 84.91L211.523 84.252C215.574 84.2333 218.882 83.9207 221.449 83.314L221.827 83.958C220.427 84.3127 218.733 84.5693 216.745 84.728C215.756 85.8573 214.766 86.7253 213.777 87.332C215.065 87.2573 216.334 87.1733 217.585 87.08C218.229 86.548 218.901 85.974 219.601 85.358L220.301 85.694C217.818 87.9153 215.639 89.4833 213.763 90.398C216.283 90.258 218.444 90.09 220.245 89.894C219.844 89.3713 219.452 88.886 219.069 88.438L219.629 88.074C220.796 89.418 221.673 90.58 222.261 91.56L221.659 91.98C221.379 91.504 221.057 91.014 220.693 90.51C219.816 90.6033 218.677 90.706 217.277 90.818V94.752C217.277 95.4613 216.922 95.816 216.213 95.816H214.659ZM219.251 91.826C220.651 92.862 221.841 93.9073 222.821 94.962L222.275 95.508C221.426 94.5187 220.245 93.4547 218.733 92.316L219.251 91.826ZM214.659 92.428C213.707 93.5573 212.517 94.5607 211.089 95.438L210.613 94.808C211.976 94.0147 213.142 93.058 214.113 91.938L214.659 92.428ZM233.419 83.146C233.419 84.2287 233.382 85.302 233.307 86.366C234.072 90.062 235.384 92.9927 237.241 95.158L236.709 95.774C235.085 93.7487 233.886 91.2333 233.111 88.228C233.027 88.7973 232.929 89.3433 232.817 89.866C232.285 92.2927 231.086 94.2713 229.219 95.802L228.715 95.172C230.376 93.7907 231.478 92.0453 232.019 89.936C232.43 88.1627 232.644 85.8993 232.663 83.146H233.419ZM225.901 83.244C226.853 83.972 227.67 84.714 228.351 85.47L227.833 86.002C227.189 85.274 226.363 84.5273 225.355 83.762L225.901 83.244ZM224.403 87.458H227.287V93.786C227.838 93.3473 228.43 92.8247 229.065 92.218L229.275 93.002C228.454 93.7953 227.553 94.5233 226.573 95.186L226.279 94.5C226.456 94.3227 226.545 94.15 226.545 93.982V88.2H224.403V87.458ZM247.153 84.588H243.135V83.846H250.919V84.588H247.923V88.774H250.737V89.488H247.923V94.64H251.213V95.382H242.715V94.64H244.199V87.066H244.941V94.64H247.153V84.588ZM239.943 83.258C240.858 83.9673 241.646 84.7047 242.309 85.47L241.791 86.002C241.166 85.2553 240.372 84.5087 239.411 83.762L239.943 83.258ZM238.389 87.458H241.231V93.758C241.791 93.2913 242.337 92.792 242.869 92.26L243.065 93.058C242.262 93.8607 241.427 94.5607 240.559 95.158L240.265 94.458C240.433 94.2993 240.517 94.1407 240.517 93.982V88.2H238.389V87.458Z" fill="#4E5969"/>
<path d="M76.3117 116.504H77.8237V126.5H76.3117V116.504ZM83.3111 116.308C84.4871 116.308 85.3971 116.555 86.0411 117.05C86.7411 117.563 87.1377 118.366 87.2311 119.458H85.7191C85.5791 118.795 85.3177 118.329 84.9351 118.058C84.5524 117.769 83.9831 117.624 83.2271 117.624C82.5737 117.624 82.0697 117.722 81.7151 117.918C81.2857 118.142 81.0711 118.506 81.0711 119.01C81.0711 119.458 81.3184 119.813 81.8131 120.074C82.0557 120.214 82.6344 120.419 83.5491 120.69C84.9304 121.119 85.8031 121.446 86.1671 121.67C87.0257 122.193 87.4551 122.911 87.4551 123.826C87.4551 124.713 87.1051 125.417 86.4051 125.94C85.7051 126.444 84.7251 126.696 83.4651 126.696C82.2611 126.696 81.3091 126.453 80.6091 125.968C79.7877 125.38 79.3351 124.456 79.2511 123.196H80.7631C80.8751 123.989 81.1551 124.554 81.6031 124.89C82.0137 125.198 82.6344 125.352 83.4651 125.352C84.2024 125.352 84.8044 125.221 85.2711 124.96C85.7191 124.708 85.9431 124.358 85.9431 123.91C85.9431 123.359 85.6257 122.921 84.9911 122.594C84.7577 122.482 84.0951 122.258 83.0031 121.922C81.7524 121.521 80.9871 121.245 80.7071 121.096C79.9417 120.639 79.5591 119.971 79.5591 119.094C79.5591 118.217 79.9277 117.526 80.6651 117.022C81.3651 116.546 82.2471 116.308 83.3111 116.308ZM93.2995 116.308C94.8208 116.308 96.0202 116.803 96.8975 117.792C97.7375 118.725 98.1575 119.967 98.1575 121.516C98.1575 123.037 97.7375 124.274 96.8975 125.226C96.0202 126.206 94.8208 126.696 93.2995 126.696C91.7782 126.696 90.5788 126.201 89.7015 125.212C88.8708 124.269 88.4555 123.037 88.4555 121.516C88.4555 119.985 88.8708 118.749 89.7015 117.806C90.5602 116.807 91.7595 116.308 93.2995 116.308ZM93.2995 117.652C92.2262 117.652 91.4002 118.011 90.8215 118.73C90.2615 119.411 89.9815 120.34 89.9815 121.516C89.9815 122.673 90.2615 123.597 90.8215 124.288C91.4188 124.997 92.2448 125.352 93.2995 125.352C94.3635 125.352 95.1848 125.007 95.7635 124.316C96.3328 123.635 96.6175 122.701 96.6175 121.516C96.6175 120.331 96.3328 119.388 95.7635 118.688C95.1942 117.997 94.3728 117.652 93.2995 117.652ZM103.078 116.308C104.048 116.308 104.837 116.583 105.444 117.134C106.05 117.694 106.354 118.413 106.354 119.29C106.354 120.139 106.027 120.928 105.374 121.656C104.982 122.057 104.291 122.594 103.302 123.266C102.228 123.975 101.584 124.605 101.37 125.156H106.368V126.5H99.4796C99.4796 125.501 99.811 124.629 100.474 123.882C100.819 123.471 101.57 122.865 102.728 122.062C103.409 121.577 103.885 121.194 104.156 120.914C104.613 120.401 104.842 119.855 104.842 119.276C104.842 118.716 104.688 118.296 104.38 118.016C104.072 117.736 103.619 117.596 103.022 117.596C102.387 117.596 101.911 117.811 101.594 118.24C101.267 118.651 101.09 119.262 101.062 120.074H99.5356C99.5543 118.954 99.8763 118.058 100.502 117.386C101.136 116.667 101.995 116.308 103.078 116.308ZM107.972 116.504H114.678V117.736L111.136 126.5H109.526L113.138 117.89H107.972V116.504ZM119.713 116.308C120.889 116.308 121.799 116.803 122.443 117.792C123.031 118.716 123.325 119.953 123.325 121.502C123.325 123.051 123.031 124.288 122.443 125.212C121.789 126.201 120.879 126.696 119.713 126.696C118.546 126.696 117.636 126.201 116.983 125.212C116.395 124.288 116.101 123.051 116.101 121.502C116.101 119.934 116.395 118.697 116.983 117.792C117.627 116.803 118.537 116.308 119.713 116.308ZM119.713 117.596C118.891 117.596 118.313 118.049 117.977 118.954C117.734 119.551 117.613 120.401 117.613 121.502C117.613 122.594 117.734 123.443 117.977 124.05C118.313 124.955 118.891 125.408 119.713 125.408C120.534 125.408 121.113 124.955 121.449 124.05C121.691 123.406 121.813 122.557 121.813 121.502C121.813 120.429 121.691 119.579 121.449 118.954C121.113 118.049 120.534 117.596 119.713 117.596ZM128.107 116.308C129.283 116.308 130.193 116.803 130.837 117.792C131.425 118.716 131.719 119.953 131.719 121.502C131.719 123.051 131.425 124.288 130.837 125.212C130.184 126.201 129.274 126.696 128.107 126.696C126.941 126.696 126.031 126.201 125.377 125.212C124.789 124.288 124.495 123.051 124.495 121.502C124.495 119.934 124.789 118.697 125.377 117.792C126.021 116.803 126.931 116.308 128.107 116.308ZM128.107 117.596C127.286 117.596 126.707 118.049 126.371 118.954C126.129 119.551 126.007 120.401 126.007 121.502C126.007 122.594 126.129 123.443 126.371 124.05C126.707 124.955 127.286 125.408 128.107 125.408C128.929 125.408 129.507 124.955 129.843 124.05C130.086 123.406 130.207 122.557 130.207 121.502C130.207 120.429 130.086 119.579 129.843 118.954C129.507 118.049 128.929 117.596 128.107 117.596ZM137.552 116.504V126.5H136.026V118.338C135.41 118.917 134.644 119.337 133.73 119.598V118.086C134.178 117.974 134.654 117.778 135.158 117.498C135.662 117.181 136.072 116.849 136.39 116.504H137.552ZM142.698 120.564C142.278 121.115 141.891 121.591 141.536 121.992L141.102 120.564C142.39 118.94 143.352 117.045 143.986 114.88L145.232 115.468C144.896 116.541 144.486 117.545 144 118.478V127.97H142.698V120.564ZM144.98 116.714H149.082C148.905 116.238 148.695 115.776 148.452 115.328L149.726 114.978C150.025 115.613 150.249 116.191 150.398 116.714H154.178V117.96H144.98V116.714ZM146.254 118.814H152.988V120.004H146.254V118.814ZM146.254 120.788H152.988V121.992H146.254V120.788ZM153.282 122.874V127.942H151.994V127.214H147.234V127.942H145.946V122.874H153.282ZM147.234 125.968H151.994V124.106H147.234V125.968ZM157.272 115.972H160.366C160.525 115.636 160.656 115.281 160.758 114.908L162.144 115.09C162.07 115.361 161.953 115.655 161.794 115.972H166.232V123.042H157.272V115.972ZM164.944 121.908V120.998H158.56V121.908H164.944ZM158.56 119.934H164.944V119.052H158.56V119.934ZM158.56 118.002H164.944V117.106H158.56V118.002ZM157.776 124.106C157.44 125.422 156.983 126.547 156.404 127.48L155.284 126.766C155.863 125.889 156.274 124.918 156.516 123.854L157.776 124.106ZM159.932 127.732C159.008 127.732 158.546 127.289 158.546 126.402V123.826H159.89V126.108C159.89 126.397 160.03 126.542 160.31 126.542H163.236C163.507 126.542 163.689 126.472 163.782 126.332C163.941 126.164 164.039 125.669 164.076 124.848L165.35 125.254C165.238 126.43 165.033 127.149 164.734 127.41C164.445 127.625 164.03 127.732 163.488 127.732H159.932ZM161.766 123.28C162.485 124.017 163.012 124.629 163.348 125.114L162.354 125.814C161.953 125.207 161.43 124.563 160.786 123.882L161.766 123.28ZM166.246 123.574C167.04 124.601 167.679 125.557 168.164 126.444L167.114 127.186C166.648 126.299 166.013 125.31 165.21 124.218L166.246 123.574ZM181.66 116.294V119.458H180.316V117.582H171.062V119.444H169.718V116.294H174.94C174.744 115.865 174.544 115.487 174.338 115.16L175.836 114.908C176.032 115.328 176.228 115.79 176.424 116.294H181.66ZM169.494 120.172H173.372C173.83 119.323 174.208 118.599 174.506 118.002L175.878 118.408C175.664 118.8 175.351 119.388 174.94 120.172H181.926V121.46H179.224C178.655 122.851 178.053 123.947 177.418 124.75C178.697 125.291 180.116 125.982 181.674 126.822L180.764 127.998C179.299 127.149 177.862 126.397 176.452 125.744C174.866 127.125 172.798 127.849 170.25 127.914L169.48 126.682C171.767 126.673 173.629 126.159 175.066 125.142C173.732 124.582 172.476 124.115 171.3 123.742C171.748 123.014 172.201 122.253 172.658 121.46H169.494V120.172ZM174.226 121.46C173.797 122.188 173.447 122.771 173.176 123.21C174.24 123.527 175.216 123.859 176.102 124.204C176.774 123.448 177.33 122.533 177.768 121.46H174.226ZM190.172 115.006C191.927 116.817 193.943 118.24 196.22 119.276L195.562 120.466C194.844 120.121 194.19 119.761 193.602 119.388V120.648H190.368V122.748H194.302V124.036H190.368V126.248H195.576V127.55H183.83V126.248H189.024V124.036H185.076V122.748H189.024V120.648H185.79V119.388C185.193 119.752 184.521 120.121 183.774 120.494L183.13 119.332C185.566 118.165 187.596 116.723 189.22 115.006H190.172ZM193.574 119.374C192.118 118.478 190.826 117.423 189.696 116.21C188.651 117.358 187.358 118.413 185.818 119.374H193.574ZM207.784 120.522V123.462H200.966V124.204H208.442V127.942H207.112V127.438H200.966V127.928H199.636V120.522H207.784ZM200.966 126.262H207.112V125.254H200.966V126.262ZM200.966 122.398H206.482V121.586H200.966V122.398ZM209.716 118.772V121.446H208.414V119.892H198.978V121.446H197.676V118.772H203.094C202.992 118.52 202.87 118.268 202.73 118.016L203.906 117.82L203.668 117.666C204.331 116.807 204.798 115.907 205.068 114.964L206.342 115.244L206.104 115.93H209.996V117.092H207.714C207.901 117.344 208.088 117.643 208.274 117.988L207.098 118.422C206.865 117.955 206.599 117.512 206.3 117.092H205.586C205.344 117.568 205.078 117.997 204.788 118.38L204.116 117.946C204.154 118.021 204.261 118.296 204.438 118.772H209.716ZM199.566 117.092C199.249 117.615 198.913 118.086 198.558 118.506L197.396 117.778C198.199 116.919 198.778 115.977 199.132 114.95L200.406 115.23L200.14 115.93H203.668V117.092H201.568C201.858 117.493 202.072 117.829 202.212 118.1L200.994 118.562C200.742 118.03 200.472 117.54 200.182 117.092H199.566ZM216.548 115.482H223.478V122.188H220.678V123.602H223.632V124.834H220.678V126.276H224.08V127.55H215.96V126.276H219.362V124.834H216.38V123.602H219.362V122.188H216.548V115.482ZM222.204 121.012V119.416H220.678V121.012H222.204ZM219.362 121.012V119.416H217.822V121.012H219.362ZM217.822 118.268H219.362V116.658H217.822V118.268ZM220.678 116.658V118.268H222.204V116.658H220.678ZM211.564 120.088H212.95V117.106H211.368V115.846H215.862V117.106H214.294V120.088H215.708V121.376H214.294V124.134C214.92 123.901 215.428 123.695 215.82 123.518V124.792C214.476 125.352 213.048 125.828 211.536 126.22L211.214 124.946C211.849 124.825 212.428 124.694 212.95 124.554V121.376H211.564V120.088ZM226.796 120.83C226.395 121.362 225.994 121.857 225.592 122.314L225.2 120.984C226.582 119.248 227.594 117.237 228.238 114.95L229.428 115.51C229.102 116.611 228.658 117.694 228.098 118.758V127.956H226.796V120.83ZM229.078 117.274H232.62V115.006H233.922V117.274H237.632V118.548H234.874C235.528 120.76 236.629 122.711 238.178 124.4L237.324 125.478C235.7 123.434 234.566 121.143 233.922 118.604V123.896H235.924V125.17H233.922V127.942H232.62V125.17H230.66V123.896H232.62V118.548C231.92 121.432 230.744 123.798 229.092 125.646L228.406 124.512C229.909 122.935 230.996 120.947 231.668 118.548H229.078V117.274ZM243.624 127.9L243.316 126.598C243.82 126.654 244.296 126.682 244.744 126.682C245.043 126.682 245.192 126.528 245.192 126.22V123.126C244.1 123.191 242.663 123.266 240.88 123.35L240.516 122.188C240.927 122.151 241.31 122.071 241.664 121.95C242.719 121.493 243.853 120.816 245.066 119.92C243.732 120.023 242.537 120.102 241.482 120.158L241.202 118.982C241.51 118.954 241.809 118.875 242.098 118.744C242.658 118.464 243.33 117.89 244.114 117.022C242.882 117.069 241.716 117.092 240.614 117.092L240.222 115.944C244.18 115.944 247.563 115.673 250.372 115.132L251.03 116.238C249.584 116.555 247.829 116.784 245.766 116.924C245.038 117.764 244.282 118.464 243.498 119.024C244.805 118.949 245.785 118.889 246.438 118.842C247.082 118.31 247.694 117.778 248.272 117.246L249.504 117.848C247.311 119.752 245.379 121.175 243.708 122.118C245.566 121.997 247.26 121.847 248.79 121.67C248.38 121.129 248.062 120.723 247.838 120.452L248.818 119.836C249.976 121.18 250.867 122.361 251.492 123.378L250.428 124.12C250.195 123.709 249.906 123.247 249.56 122.734C248.627 122.846 247.614 122.944 246.522 123.028V126.542C246.522 127.447 246.084 127.9 245.206 127.9H243.624ZM248.412 123.672C249.794 124.671 250.96 125.679 251.912 126.696L250.96 127.648C250.158 126.696 249.014 125.66 247.53 124.54L248.412 123.672ZM243.764 124.61C242.803 125.758 241.632 126.752 240.25 127.592L239.41 126.5C240.773 125.707 241.912 124.797 242.826 123.77L243.764 124.61ZM262.664 115.118C262.664 116.331 262.622 117.456 262.538 118.492C263.266 121.936 264.526 124.68 266.318 126.724L265.366 127.844C263.985 126.061 262.916 123.905 262.16 121.376L262.048 121.922C261.544 124.321 260.354 126.304 258.478 127.872L257.582 126.78C259.169 125.417 260.214 123.723 260.718 121.698C261.101 120.027 261.302 117.834 261.32 115.118H262.664ZM255.118 115.132C256.042 115.832 256.812 116.523 257.428 117.204L256.518 118.128C255.94 117.447 255.165 116.751 254.194 116.042L255.118 115.132ZM253.27 119.192H256.504V125.044C256.896 124.717 257.363 124.297 257.904 123.784L258.24 125.156C257.354 125.977 256.397 126.724 255.37 127.396L254.866 126.206C255.109 126.01 255.23 125.767 255.23 125.478V120.466H253.27V119.192ZM275.838 116.868H272.016V115.566H279.954V116.868H277.196V120.466H279.758V121.712H277.196V126.164H280.234V127.466H271.582V126.164H272.898V118.982H274.2V126.164H275.838V116.868ZM269.174 115.132C270.089 115.869 270.836 116.56 271.414 117.204L270.504 118.128C269.972 117.475 269.221 116.77 268.25 116.014L269.174 115.132ZM267.256 119.192H270.462V124.946C270.724 124.713 271.13 124.33 271.68 123.798L272.03 125.212C271.19 126.024 270.294 126.752 269.342 127.396L268.838 126.192C269.072 125.987 269.188 125.749 269.188 125.478V120.466H267.256V119.192Z" fill="#165DFF"/>
<path d="M82.7654 147.146C84.548 149.134 86.606 150.702 88.9394 151.85L88.5334 152.578C86.172 151.355 84.156 149.773 82.4854 147.832C80.9267 149.671 78.892 151.257 76.3814 152.592L75.9894 151.864C78.4627 150.613 80.5347 149.041 82.2054 147.146H82.7654ZM82.5134 150.8H83.2554V154.062H87.1894V154.804H83.2554V158.528H88.1974V159.27H76.6054V158.528H78.8034V152.816H79.5454V158.528H82.5134V150.8ZM94.5954 147.258H95.3374V158.472H97.6054V147.258H98.3474V158.472H102.645V159.214H90.3254V158.472H94.5954V147.258ZM102.211 149.946C101.651 152.41 100.933 154.561 100.055 156.4L99.3694 156.148C100.2 154.449 100.923 152.321 101.539 149.764L102.211 149.946ZM91.3614 149.722C92.0894 151.607 92.752 153.805 93.3494 156.316L92.6494 156.484C92.1547 154.281 91.506 152.102 90.7034 149.946L91.3614 149.722ZM105.767 151.654C105.254 152.438 104.731 153.129 104.199 153.726L103.947 152.928C105.385 151.155 106.416 149.171 107.041 146.978L107.755 147.314C107.438 148.359 107.023 149.377 106.509 150.366V159.9H105.767V151.654ZM107.839 149.064H116.883V149.792H107.839V149.064ZM109.141 151.136H115.665V151.822H109.141V151.136ZM109.141 153.11H115.665V153.81H109.141V153.11ZM115.903 155.168V159.858H115.161V159.088H109.659V159.858H108.903V155.168H115.903ZM109.659 158.36H115.161V155.882H109.659V158.36ZM112.235 147.062C112.543 147.65 112.781 148.196 112.949 148.7L112.277 148.966C112.053 148.341 111.797 147.771 111.507 147.258L112.235 147.062ZM120.327 151.822V154.398L120.313 154.51H124.163V151.822H120.327ZM120.271 155.224C120.131 157.035 119.604 158.533 118.689 159.718L118.129 159.2C119.053 157.931 119.529 156.311 119.557 154.342V147.706H129.777V158.178C129.777 159.093 129.32 159.55 128.405 159.55H126.795L126.599 158.808C127.159 158.836 127.677 158.85 128.153 158.85C128.732 158.85 129.021 158.533 129.021 157.898V155.224H124.919V159.396H124.163V155.224H120.271ZM129.021 154.51V151.822H124.919V154.51H129.021ZM129.021 151.122V148.448H124.919V151.122H129.021ZM124.163 148.448H120.327V151.122H124.163V148.448ZM133.879 151.346H138.107V150.366H138.863V151.346H143.035V152.018H138.863V153.544H144.645V154.216H141.873V155.798H144.029V156.484H141.873V158.822C141.873 159.513 141.509 159.858 140.781 159.858H138.723L138.555 159.144C139.47 159.181 140.128 159.2 140.529 159.2C140.921 159.2 141.117 159.018 141.117 158.654V156.484H133.165V155.798H141.117V154.216H132.311V153.544H138.107V152.018H133.879V151.346ZM135.195 157.03C136.054 157.795 136.712 158.467 137.169 159.046L136.581 159.48C136.096 158.845 135.429 158.159 134.579 157.422L135.195 157.03ZM134.117 148.812C133.753 149.512 133.333 150.142 132.857 150.702L132.213 150.282C133.081 149.293 133.725 148.163 134.145 146.894L134.873 147.048C134.715 147.477 134.57 147.846 134.439 148.154H138.219V148.812H135.545C136.003 149.363 136.362 149.867 136.623 150.324L135.937 150.576C135.611 149.979 135.209 149.391 134.733 148.812H134.117ZM139.871 148.798C139.601 149.349 139.279 149.857 138.905 150.324L138.289 149.932C138.989 149.036 139.507 148.019 139.843 146.88L140.571 147.034C140.487 147.323 140.357 147.692 140.179 148.14H144.407V148.798H141.649C142.097 149.349 142.443 149.853 142.685 150.31L142.013 150.562C141.696 149.955 141.304 149.367 140.837 148.798H139.871ZM150.357 157.786C149.079 158.309 147.688 158.719 146.185 159.018L146.073 158.262C147.679 157.973 149.107 157.571 150.357 157.058V157.786ZM149.503 147.398C148.729 149.227 147.945 150.679 147.151 151.752C147.833 151.687 148.598 151.593 149.447 151.472C149.522 151.351 149.667 151.099 149.881 150.716C150.077 150.389 150.231 150.123 150.343 149.918L151.015 150.184C149.606 152.601 148.472 154.277 147.613 155.21C148.705 155.023 149.797 154.757 150.889 154.412V155.126C149.405 155.565 147.996 155.868 146.661 156.036L146.451 155.322C146.582 155.266 146.699 155.196 146.801 155.112C147.427 154.533 148.169 153.558 149.027 152.186C147.767 152.345 146.895 152.447 146.409 152.494L146.227 151.794C146.339 151.747 146.447 151.654 146.549 151.514C147.408 150.254 148.15 148.784 148.775 147.104L149.503 147.398ZM152.583 148.476H151.127V147.748H157.119V148.224C156.886 149.503 156.653 150.627 156.419 151.598H158.239V152.046C157.95 153.987 157.283 155.635 156.237 156.988C156.984 157.828 157.866 158.57 158.883 159.214L158.407 159.844C157.381 159.181 156.499 158.416 155.761 157.548C154.903 158.491 153.853 159.265 152.611 159.872L152.177 159.186C153.437 158.561 154.469 157.814 155.271 156.946C154.301 155.686 153.591 154.225 153.143 152.564C152.751 155.709 151.804 158.127 150.301 159.816L149.727 159.326C151.603 157.254 152.555 153.927 152.583 149.344V148.476ZM155.733 156.4C156.629 155.224 157.217 153.852 157.497 152.284H155.537C155.78 151.397 156.046 150.128 156.335 148.476H153.339V149.344C153.339 149.811 153.325 150.268 153.297 150.716C153.652 152.909 154.464 154.804 155.733 156.4ZM163.489 148.504H164.497L168.501 158.5H167.563L166.401 155.518H161.585L160.423 158.5H159.485L163.489 148.504ZM161.865 154.79H166.121L164.021 149.428H163.979L161.865 154.79ZM172.499 148.504H173.507L177.511 158.5H176.573L175.411 155.518H170.595L169.433 158.5H168.495L172.499 148.504ZM170.875 154.79H175.131L173.031 149.428H172.989L170.875 154.79ZM181.509 148.504H182.517L186.521 158.5H185.583L184.421 155.518H179.605L178.443 158.5H177.505L181.509 148.504ZM179.885 154.79H184.141L182.041 149.428H181.999L179.885 154.79ZM195.923 148.588H191.905V147.846H199.689V148.588H196.693V152.774H199.507V153.488H196.693V158.64H199.983V159.382H191.485V158.64H192.969V151.066H193.711V158.64H195.923V148.588ZM188.713 147.258C189.627 147.967 190.416 148.705 191.079 149.47L190.561 150.002C189.935 149.255 189.142 148.509 188.181 147.762L188.713 147.258ZM187.159 151.458H190.001V157.758C190.561 157.291 191.107 156.792 191.639 156.26L191.835 157.058C191.032 157.861 190.197 158.561 189.329 159.158L189.035 158.458C189.203 158.299 189.287 158.141 189.287 157.982V152.2H187.159V151.458ZM206.353 147.034H207.109V149.568H211.225V149.932L210.917 153.334H212.933C212.933 155.947 212.723 157.478 212.303 157.926C212.107 158.131 211.831 158.276 211.477 158.36C211.197 158.407 210.921 158.435 210.651 158.444H209.727L209.517 157.73H210.777C211.253 157.721 211.589 157.599 211.785 157.366C212.009 157.077 212.144 155.98 212.191 154.076H207.109V159.886H206.353V154.076H201.271V153.334H206.353V150.31H202.083V149.568H206.353V147.034ZM207.109 153.334H210.189L210.469 150.31H207.109V153.334ZM210.693 147.118C211.757 147.669 212.718 148.341 213.577 149.134L213.157 149.75C212.233 148.882 211.281 148.196 210.301 147.692L210.693 147.118Z" fill="#4E5969"/>
<path d="M80.95 179.09H81.734V183.514H86.914V184.242H81.734V190.514H88.216V191.256H75.826V190.514H80.95V179.09ZM94.978 180.994C94.446 181.881 93.8627 182.627 93.228 183.234L92.738 182.646C93.718 181.703 94.5067 180.49 95.104 179.006L95.846 179.188C95.7153 179.505 95.552 179.869 95.356 180.28H101.992V180.994H94.978ZM92.57 185.628H94.124C94.236 184.545 94.306 183.449 94.334 182.338H101.264L101.138 185.628H102.398V186.342H101.11L100.97 189.1H102.174V189.786H100.914C100.858 190.206 100.816 190.467 100.788 190.57C100.648 191.009 100.382 191.34 99.99 191.564C99.598 191.751 99.0333 191.844 98.296 191.844H97.148L96.924 191.158C97.54 191.177 97.96 191.186 98.184 191.186C98.5853 191.186 98.9633 191.149 99.318 191.074C99.6633 190.962 99.9153 190.729 100.074 190.374C100.111 190.262 100.149 190.066 100.186 189.786H93.508C93.732 188.666 93.914 187.518 94.054 186.342H92.57V185.628ZM94.768 186.342C94.656 187.331 94.516 188.251 94.348 189.1H100.242C100.27 188.708 100.321 187.789 100.396 186.342H94.768ZM100.424 185.628L100.522 183.01H95.006C94.9593 183.953 94.9033 184.825 94.838 185.628H100.424ZM96.966 183.416C97.694 183.901 98.2913 184.377 98.758 184.844L98.268 185.334C97.82 184.877 97.2227 184.391 96.476 183.878L96.966 183.416ZM96.854 186.734C97.5353 187.238 98.1187 187.761 98.604 188.302L98.114 188.792C97.6847 188.297 97.1013 187.765 96.364 187.196L96.854 186.734ZM90.498 179.384C91.394 179.981 92.1267 180.555 92.696 181.106L92.15 181.638C91.6367 181.106 90.904 180.532 89.952 179.916L90.498 179.384ZM90.288 182.8C91.156 183.388 91.884 183.976 92.472 184.564L91.94 185.11C91.38 184.531 90.652 183.934 89.756 183.318L90.288 182.8ZM92.57 187.056C92.0007 188.633 91.338 190.173 90.582 191.676L89.868 191.368C90.6147 189.959 91.296 188.437 91.912 186.804L92.57 187.056ZM103.84 180.784H109.692C109.459 180.168 109.197 179.599 108.908 179.076L109.706 178.936C109.977 179.468 110.229 180.084 110.462 180.784H116.16V181.526H110.378V183.598H114.942V188.582C114.942 189.394 114.555 189.8 113.78 189.8H112.394L112.184 189.072L113.528 189.1C113.967 189.1 114.186 188.871 114.186 188.414V184.312H110.378V191.83H109.622V184.312H105.982V189.884H105.24V183.598H109.622V181.526H103.84V180.784ZM119.282 183.654C118.769 184.438 118.246 185.129 117.714 185.726L117.462 184.928C118.899 183.155 119.931 181.171 120.556 178.978L121.27 179.314C120.953 180.359 120.537 181.377 120.024 182.366V191.9H119.282V183.654ZM121.354 181.064H130.398V181.792H121.354V181.064ZM122.656 183.136H129.18V183.822H122.656V183.136ZM122.656 185.11H129.18V185.81H122.656V185.11ZM129.418 187.168V191.858H128.676V191.088H123.174V191.858H122.418V187.168H129.418ZM123.174 190.36H128.676V187.882H123.174V190.36ZM125.75 179.062C126.058 179.65 126.296 180.196 126.464 180.7L125.792 180.966C125.568 180.341 125.311 179.771 125.022 179.258L125.75 179.062ZM133.744 180.21H136.81C137.015 179.846 137.174 179.454 137.286 179.034L138.07 179.146C137.949 179.547 137.799 179.902 137.622 180.21H142.368V186.874H133.744V180.21ZM141.626 186.202V184.816H134.486V186.202H141.626ZM134.486 184.186H141.626V182.87H134.486V184.186ZM134.486 182.226H141.626V180.868H134.486V182.226ZM133.814 188.064C133.459 189.352 132.979 190.463 132.372 191.396L131.742 190.976C132.358 190.08 132.806 189.063 133.086 187.924L133.814 188.064ZM136.04 191.648C135.331 191.648 134.976 191.312 134.976 190.64V187.84H135.746V190.472C135.746 190.808 135.914 190.976 136.25 190.976H139.526C139.881 190.976 140.128 190.897 140.268 190.738C140.464 190.533 140.59 189.935 140.646 188.946L141.374 189.184C141.29 190.323 141.103 191.037 140.814 191.326C140.571 191.541 140.189 191.648 139.666 191.648H136.04ZM137.678 187.364C138.481 188.12 139.097 188.778 139.526 189.338L138.952 189.744C138.523 189.156 137.911 188.479 137.118 187.714L137.678 187.364ZM142.214 187.686C143.175 188.862 143.903 189.875 144.398 190.724L143.796 191.144C143.227 190.155 142.503 189.128 141.626 188.064L142.214 187.686ZM151.706 188.722C151.211 187.957 150.707 187.21 150.194 186.482C149.671 187.901 149.023 189.137 148.248 190.192L147.758 189.604C148.542 188.512 149.186 187.233 149.69 185.768C148.934 184.76 148.248 183.915 147.632 183.234L148.108 182.758C148.677 183.355 149.289 184.093 149.942 184.97C150.231 183.981 150.479 182.833 150.684 181.526L151.398 181.652C151.165 183.136 150.857 184.48 150.474 185.684C150.978 186.365 151.557 187.215 152.21 188.232L151.706 188.722ZM155.864 189.366C155.369 188.535 154.842 187.681 154.282 186.804C153.703 188.241 153.003 189.483 152.182 190.528L151.706 189.94C152.527 188.867 153.218 187.574 153.778 186.062C153.078 185.035 152.401 184.135 151.748 183.36L152.238 182.884C152.854 183.593 153.461 184.382 154.058 185.25C154.413 184.158 154.697 182.931 154.912 181.568L155.626 181.694C155.365 183.271 155.015 184.709 154.576 186.006C155.173 186.911 155.771 187.863 156.368 188.862L155.864 189.366ZM154.926 191.774L154.73 191.032L156.116 191.074C156.527 191.074 156.732 190.864 156.732 190.444V180.462H147.268V191.83H146.512V179.72H157.488V190.612C157.488 191.387 157.11 191.774 156.354 191.774H154.926ZM164.642 189.954C163.261 190.486 161.697 190.92 159.952 191.256L159.854 190.528C161.674 190.201 163.27 189.767 164.642 189.226V189.954ZM162.99 179.37C162.271 181.246 161.534 182.735 160.778 183.836C161.394 183.761 162.108 183.631 162.92 183.444L163.676 181.946L164.334 182.198C163.083 184.681 162.038 186.426 161.198 187.434C162.243 187.229 163.303 186.939 164.376 186.566V187.252C162.929 187.747 161.571 188.087 160.302 188.274L160.092 187.56C160.223 187.504 160.339 187.434 160.442 187.35C161.021 186.725 161.721 185.665 162.542 184.172C161.571 184.368 160.741 184.513 160.05 184.606L159.868 183.906C159.999 183.841 160.106 183.747 160.19 183.626C161.002 182.319 161.697 180.807 162.276 179.09L162.99 179.37ZM171.166 186.734V191.788H170.438V191.13H166.28V191.788H165.552V186.734H171.166ZM166.28 190.43H170.438V187.42H166.28V190.43ZM167.694 179.188C167.563 179.599 167.409 180.009 167.232 180.42H171.152V180.994C170.611 182.179 169.831 183.234 168.814 184.158C169.822 184.933 171.059 185.53 172.524 185.95L172.09 186.566C170.569 186.109 169.295 185.455 168.268 184.606C167.213 185.418 165.991 186.099 164.6 186.65L164.124 186.034C165.505 185.511 166.7 184.872 167.708 184.116C167.111 183.547 166.597 182.898 166.168 182.17C165.748 182.674 165.3 183.131 164.824 183.542L164.376 182.954C165.664 181.881 166.527 180.583 166.966 179.062L167.694 179.188ZM166.588 181.596C167.045 182.399 167.596 183.094 168.24 183.682C169.127 182.917 169.822 182.063 170.326 181.12H166.882L166.588 181.596ZM185.67 180.532V183.416H184.914V181.274H175.072V183.402H174.316V180.532H179.678C179.473 180.028 179.249 179.561 179.006 179.132L179.846 178.992C180.079 179.459 180.299 179.972 180.504 180.532H185.67ZM173.882 184.452H177.83C178.185 183.817 178.609 183.024 179.104 182.072L179.874 182.31L178.726 184.452H186.146V185.18H183.346C182.758 186.729 182.063 187.957 181.26 188.862C182.632 189.469 184.135 190.229 185.768 191.144L185.264 191.788C183.752 190.901 182.231 190.117 180.7 189.436C179.151 190.845 177.06 191.592 174.428 191.676L173.98 190.962C176.407 190.953 178.39 190.337 179.93 189.114C179.93 189.105 179.939 189.1 179.958 189.1C178.595 188.503 177.256 187.999 175.94 187.588C176.491 186.729 176.981 185.927 177.41 185.18H173.882V184.452ZM178.306 185.18C177.671 186.225 177.242 186.916 177.018 187.252C178.138 187.588 179.309 188.022 180.532 188.554C181.372 187.677 182.039 186.552 182.534 185.18H178.306ZM194.266 179.174C196.049 181.059 198.093 182.539 200.398 183.612L200.02 184.27C197.687 183.141 195.68 181.675 194 179.874C192.451 181.619 190.425 183.117 187.924 184.368L187.56 183.696C190.015 182.492 192.073 180.985 193.734 179.174H194.266ZM190.108 183.64H197.92V184.382H194.378V187.056H198.536V187.798H194.378V190.682H199.81V191.424H188.204V190.682H193.622V187.798H189.45V187.056H193.622V184.382H190.108V183.64ZM211.948 184.634V187.252H204.822V188.386H212.592V191.858H211.836V191.228H204.822V191.844H204.066V184.634H211.948ZM204.822 190.542H211.836V189.016H204.822V190.542ZM204.822 186.622H211.206V185.278H204.822V186.622ZM213.866 182.996V185.404H213.124V183.654H202.876V185.404H202.134V182.996H207.79C207.631 182.641 207.463 182.301 207.286 181.974L208.028 181.834C208.205 182.161 208.373 182.548 208.532 182.996H213.866ZM203.632 180.854C203.277 181.423 202.876 181.946 202.428 182.422L201.784 182.016C202.661 181.111 203.301 180.112 203.702 179.02L204.444 179.174C204.257 179.622 204.113 179.953 204.01 180.168H207.944V180.854H205.41C205.765 181.33 206.049 181.783 206.264 182.212L205.578 182.478C205.345 182.002 205.018 181.461 204.598 180.854H203.632ZM209.68 180.854C209.409 181.377 209.111 181.839 208.784 182.24L208.14 181.82C208.831 180.989 209.335 180.061 209.652 179.034L210.366 179.188C210.254 179.515 210.133 179.841 210.002 180.168H214.188V180.854H211.542C211.897 181.321 212.163 181.736 212.34 182.1L211.654 182.338C211.365 181.787 211.052 181.293 210.716 180.854H209.68ZM221.02 179.706H227.614V186.02H224.702V187.938H227.894V188.666H224.702V190.682H228.342V191.424H220.306V190.682H223.946V188.666H220.726V187.938H223.946V186.02H221.02V179.706ZM226.872 185.334V183.192H224.702V185.334H226.872ZM223.946 185.334V183.192H221.762V185.334H223.946ZM221.762 182.52H223.946V180.392H221.762V182.52ZM224.702 180.392V182.52H226.872V180.392H224.702ZM215.952 184.368H217.548V180.812H215.742V180.084H220.096V180.812H218.304V184.368H219.928V185.096H218.304V188.526C218.911 188.311 219.517 188.073 220.124 187.812V188.54C218.789 189.128 217.324 189.618 215.728 190.01L215.546 189.296C216.153 189.175 216.82 189.002 217.548 188.778V185.096H215.952V184.368ZM229.798 182.17H231.408V179.202H232.164V182.17H233.858V182.926H232.164V191.872H231.408V182.926H229.798V182.17ZM241.194 184.466C241.726 185.549 242.165 186.645 242.51 187.756L241.922 188.022C241.511 186.734 241.073 185.609 240.606 184.648L241.194 184.466ZM236.812 179.216H237.568V181.694H240.41C240.41 186.211 240.34 189.011 240.2 190.094C240.088 191.167 239.537 191.704 238.548 191.704C238.305 191.704 237.881 191.69 237.274 191.662L237.092 190.976C237.615 191.004 238.072 191.018 238.464 191.018C239.052 191.018 239.393 190.626 239.486 189.842C239.57 189.002 239.626 186.538 239.654 182.45H237.568V182.8C237.512 186.925 236.401 189.94 234.236 191.844L233.662 191.34C235.734 189.557 236.784 186.711 236.812 182.8V182.45H234.362V181.694H236.812V179.216ZM235.3 184.536C234.88 186.207 234.292 187.499 233.536 188.414L233.004 187.924C233.76 187.009 234.32 185.829 234.684 184.382L235.3 184.536ZM250.28 179.104C252.063 181.139 254.121 182.744 256.454 183.92L256.048 184.648C253.668 183.379 251.652 181.759 250 179.79C248.46 181.666 246.425 183.29 243.896 184.662L243.504 183.934C245.996 182.646 248.068 181.036 249.72 179.104H250.28ZM246.626 183.472H253.416V184.2H246.626V183.472ZM244.428 186.286H255.6V187.042H248.95C248.241 188.451 247.363 189.707 246.318 190.808C248.875 190.668 251.237 190.439 253.402 190.122C252.805 189.319 252.235 188.615 251.694 188.008L252.282 187.644C253.57 189.1 254.545 190.36 255.208 191.424L254.592 191.872C254.34 191.452 254.074 191.051 253.794 190.668C251.722 191.013 248.931 191.303 245.422 191.536L245.212 190.864C245.389 190.808 245.52 190.738 245.604 190.654C246.64 189.497 247.475 188.293 248.11 187.042H244.428V186.286ZM264.28 179.104C266.063 181.139 268.121 182.744 270.454 183.92L270.048 184.648C267.668 183.379 265.652 181.759 264 179.79C262.46 181.666 260.425 183.29 257.896 184.662L257.504 183.934C259.996 182.646 262.068 181.036 263.72 179.104H264.28ZM260.626 183.472H267.416V184.2H260.626V183.472ZM258.428 186.286H269.6V187.042H262.95C262.241 188.451 261.363 189.707 260.318 190.808C262.875 190.668 265.237 190.439 267.402 190.122C266.805 189.319 266.235 188.615 265.694 188.008L266.282 187.644C267.57 189.1 268.545 190.36 269.208 191.424L268.592 191.872C268.34 191.452 268.074 191.051 267.794 190.668C265.722 191.013 262.931 191.303 259.422 191.536L259.212 190.864C259.389 190.808 259.52 190.738 259.604 190.654C260.64 189.497 261.475 188.293 262.11 187.042H258.428V186.286ZM282.438 184.214V189.184H281.668V184.914H274.444V189.394H273.688V184.214H282.438ZM274.416 179.664H281.57V182.926H274.416V179.664ZM280.814 182.212V180.378H275.158V182.212H280.814ZM278.518 186.048C278.322 188.083 277.883 189.459 277.202 190.178C276.437 191.065 274.808 191.62 272.316 191.844L272.008 191.158C274.313 190.999 275.835 190.523 276.572 189.73C277.244 188.974 277.636 187.719 277.748 185.964L278.518 186.048ZM278.938 189.282C280.739 189.861 282.363 190.551 283.81 191.354L283.39 191.998C281.813 191.093 280.193 190.383 278.532 189.87L278.938 189.282ZM287.408 181.33H293.218C293.675 180.593 294.063 179.823 294.38 179.02L295.108 179.272C294.763 180.084 294.389 180.77 293.988 181.33H296.606V186.986H292.392V188.414H298.188V189.142H292.392V191.9H291.622V189.142H285.812V188.414H291.622V186.986H287.408V181.33ZM295.864 186.286V184.508H292.392V186.286H295.864ZM291.622 186.286V184.508H288.164V186.286H291.622ZM288.164 183.822H291.622V182.016H288.164V183.822ZM292.392 182.016V183.822H295.864V182.016H292.392ZM289.424 179.09C289.9 179.641 290.353 180.271 290.782 180.98L290.138 181.302C289.718 180.602 289.261 179.972 288.766 179.412L289.424 179.09ZM303.592 179.356C303.228 180.439 302.771 181.47 302.22 182.45V191.9H301.464V183.654C300.951 184.391 300.395 185.068 299.798 185.684L299.546 184.886C301.114 183.141 302.229 181.185 302.892 179.02L303.592 179.356ZM303.662 181.442H307.568C307.335 180.611 307.092 179.879 306.84 179.244L307.638 179.118C307.871 179.771 308.095 180.546 308.31 181.442H312.034V182.156H303.662V181.442ZM303.438 190.388H308.282C309.019 188.456 309.659 186.062 310.2 183.206L310.928 183.388C310.415 186.095 309.789 188.428 309.052 190.388H312.398V191.13H303.438V190.388ZM305.23 183.36C305.781 185.18 306.275 187.289 306.714 189.688L306.014 189.87C305.622 187.667 305.127 185.572 304.53 183.584L305.23 183.36Z" fill="#4E5969"/>
<path d="M80.95 211.09H81.734V215.514H86.914V216.242H81.734V222.514H88.216V223.256H75.826V222.514H80.95V211.09ZM94.978 212.994C94.446 213.881 93.8627 214.627 93.228 215.234L92.738 214.646C93.718 213.703 94.5067 212.49 95.104 211.006L95.846 211.188C95.7153 211.505 95.552 211.869 95.356 212.28H101.992V212.994H94.978ZM92.57 217.628H94.124C94.236 216.545 94.306 215.449 94.334 214.338H101.264L101.138 217.628H102.398V218.342H101.11L100.97 221.1H102.174V221.786H100.914C100.858 222.206 100.816 222.467 100.788 222.57C100.648 223.009 100.382 223.34 99.99 223.564C99.598 223.751 99.0333 223.844 98.296 223.844H97.148L96.924 223.158C97.54 223.177 97.96 223.186 98.184 223.186C98.5853 223.186 98.9633 223.149 99.318 223.074C99.6633 222.962 99.9153 222.729 100.074 222.374C100.111 222.262 100.149 222.066 100.186 221.786H93.508C93.732 220.666 93.914 219.518 94.054 218.342H92.57V217.628ZM94.768 218.342C94.656 219.331 94.516 220.251 94.348 221.1H100.242C100.27 220.708 100.321 219.789 100.396 218.342H94.768ZM100.424 217.628L100.522 215.01H95.006C94.9593 215.953 94.9033 216.825 94.838 217.628H100.424ZM96.966 215.416C97.694 215.901 98.2913 216.377 98.758 216.844L98.268 217.334C97.82 216.877 97.2227 216.391 96.476 215.878L96.966 215.416ZM96.854 218.734C97.5353 219.238 98.1187 219.761 98.604 220.302L98.114 220.792C97.6847 220.297 97.1013 219.765 96.364 219.196L96.854 218.734ZM90.498 211.384C91.394 211.981 92.1267 212.555 92.696 213.106L92.15 213.638C91.6367 213.106 90.904 212.532 89.952 211.916L90.498 211.384ZM90.288 214.8C91.156 215.388 91.884 215.976 92.472 216.564L91.94 217.11C91.38 216.531 90.652 215.934 89.756 215.318L90.288 214.8ZM92.57 219.056C92.0007 220.633 91.338 222.173 90.582 223.676L89.868 223.368C90.6147 221.959 91.296 220.437 91.912 218.804L92.57 219.056ZM103.84 212.784H109.692C109.459 212.168 109.197 211.599 108.908 211.076L109.706 210.936C109.977 211.468 110.229 212.084 110.462 212.784H116.16V213.526H110.378V215.598H114.942V220.582C114.942 221.394 114.555 221.8 113.78 221.8H112.394L112.184 221.072L113.528 221.1C113.967 221.1 114.186 220.871 114.186 220.414V216.312H110.378V223.83H109.622V216.312H105.982V221.884H105.24V215.598H109.622V213.526H103.84V212.784ZM119.282 215.654C118.769 216.438 118.246 217.129 117.714 217.726L117.462 216.928C118.899 215.155 119.931 213.171 120.556 210.978L121.27 211.314C120.953 212.359 120.537 213.377 120.024 214.366V223.9H119.282V215.654ZM121.354 213.064H130.398V213.792H121.354V213.064ZM122.656 215.136H129.18V215.822H122.656V215.136ZM122.656 217.11H129.18V217.81H122.656V217.11ZM129.418 219.168V223.858H128.676V223.088H123.174V223.858H122.418V219.168H129.418ZM123.174 222.36H128.676V219.882H123.174V222.36ZM125.75 211.062C126.058 211.65 126.296 212.196 126.464 212.7L125.792 212.966C125.568 212.341 125.311 211.771 125.022 211.258L125.75 211.062ZM133.744 212.21H136.81C137.015 211.846 137.174 211.454 137.286 211.034L138.07 211.146C137.949 211.547 137.799 211.902 137.622 212.21H142.368V218.874H133.744V212.21ZM141.626 218.202V216.816H134.486V218.202H141.626ZM134.486 216.186H141.626V214.87H134.486V216.186ZM134.486 214.226H141.626V212.868H134.486V214.226ZM133.814 220.064C133.459 221.352 132.979 222.463 132.372 223.396L131.742 222.976C132.358 222.08 132.806 221.063 133.086 219.924L133.814 220.064ZM136.04 223.648C135.331 223.648 134.976 223.312 134.976 222.64V219.84H135.746V222.472C135.746 222.808 135.914 222.976 136.25 222.976H139.526C139.881 222.976 140.128 222.897 140.268 222.738C140.464 222.533 140.59 221.935 140.646 220.946L141.374 221.184C141.29 222.323 141.103 223.037 140.814 223.326C140.571 223.541 140.189 223.648 139.666 223.648H136.04ZM137.678 219.364C138.481 220.12 139.097 220.778 139.526 221.338L138.952 221.744C138.523 221.156 137.911 220.479 137.118 219.714L137.678 219.364ZM142.214 219.686C143.175 220.862 143.903 221.875 144.398 222.724L143.796 223.144C143.227 222.155 142.503 221.128 141.626 220.064L142.214 219.686ZM157.67 212.532V215.416H156.914V213.274H147.072V215.402H146.316V212.532H151.678C151.473 212.028 151.249 211.561 151.006 211.132L151.846 210.992C152.079 211.459 152.299 211.972 152.504 212.532H157.67ZM145.882 216.452H149.83C150.185 215.817 150.609 215.024 151.104 214.072L151.874 214.31L150.726 216.452H158.146V217.18H155.346C154.758 218.729 154.063 219.957 153.26 220.862C154.632 221.469 156.135 222.229 157.768 223.144L157.264 223.788C155.752 222.901 154.231 222.117 152.7 221.436C151.151 222.845 149.06 223.592 146.428 223.676L145.98 222.962C148.407 222.953 150.39 222.337 151.93 221.114C151.93 221.105 151.939 221.1 151.958 221.1C150.595 220.503 149.256 219.999 147.94 219.588C148.491 218.729 148.981 217.927 149.41 217.18H145.882V216.452ZM150.306 217.18C149.671 218.225 149.242 218.916 149.018 219.252C150.138 219.588 151.309 220.022 152.532 220.554C153.372 219.677 154.039 218.552 154.534 217.18H150.306ZM166.266 211.174C168.049 213.059 170.093 214.539 172.398 215.612L172.02 216.27C169.687 215.141 167.68 213.675 166 211.874C164.451 213.619 162.425 215.117 159.924 216.368L159.56 215.696C162.015 214.492 164.073 212.985 165.734 211.174H166.266ZM162.108 215.64H169.92V216.382H166.378V219.056H170.536V219.798H166.378V222.682H171.81V223.424H160.204V222.682H165.622V219.798H161.45V219.056H165.622V216.382H162.108V215.64ZM178.992 212.084H185.6V212.826H178.992V212.084ZM178.586 215.682H186.244V216.424H183.92V222.514C183.92 223.373 183.486 223.802 182.618 223.802H180.588L180.42 223.074C181.316 223.111 181.96 223.13 182.352 223.13C182.884 223.13 183.15 222.864 183.15 222.332V216.424H178.586V215.682ZM177.606 211.552C176.803 213.129 175.553 214.497 173.854 215.654L173.616 214.898C175.156 213.815 176.257 212.593 176.92 211.23L177.606 211.552ZM178.264 214.744C177.825 215.593 177.289 216.377 176.654 217.096V223.872H175.912V217.866C175.259 218.454 174.596 218.981 173.924 219.448L173.686 218.692C175.497 217.423 176.799 215.999 177.592 214.422L178.264 214.744ZM192.11 211.258H192.852V222.472H195.12V211.258H195.862V222.472H200.16V223.214H187.84V222.472H192.11V211.258ZM199.726 213.946C199.166 216.41 198.447 218.561 197.57 220.4L196.884 220.148C197.715 218.449 198.438 216.321 199.054 213.764L199.726 213.946ZM188.876 213.722C189.604 215.607 190.267 217.805 190.864 220.316L190.164 220.484C189.669 218.281 189.021 216.102 188.218 213.946L188.876 213.722ZM201.798 214.17H203.408V211.202H204.164V214.17H205.858V214.926H204.164V223.872H203.408V214.926H201.798V214.17ZM213.194 216.466C213.726 217.549 214.165 218.645 214.51 219.756L213.922 220.022C213.511 218.734 213.073 217.609 212.606 216.648L213.194 216.466ZM208.812 211.216H209.568V213.694H212.41C212.41 218.211 212.34 221.011 212.2 222.094C212.088 223.167 211.537 223.704 210.548 223.704C210.305 223.704 209.881 223.69 209.274 223.662L209.092 222.976C209.615 223.004 210.072 223.018 210.464 223.018C211.052 223.018 211.393 222.626 211.486 221.842C211.57 221.002 211.626 218.538 211.654 214.45H209.568V214.8C209.512 218.925 208.401 221.94 206.236 223.844L205.662 223.34C207.734 221.557 208.784 218.711 208.812 214.8V214.45H206.362V213.694H208.812V211.216ZM207.3 216.536C206.88 218.207 206.292 219.499 205.536 220.414L205.004 219.924C205.76 219.009 206.32 217.829 206.684 216.382L207.3 216.536ZM222.28 211.104C224.063 213.139 226.121 214.744 228.454 215.92L228.048 216.648C225.668 215.379 223.652 213.759 222 211.79C220.46 213.666 218.425 215.29 215.896 216.662L215.504 215.934C217.996 214.646 220.068 213.036 221.72 211.104H222.28ZM218.626 215.472H225.416V216.2H218.626V215.472ZM216.428 218.286H227.6V219.042H220.95C220.241 220.451 219.363 221.707 218.318 222.808C220.875 222.668 223.237 222.439 225.402 222.122C224.805 221.319 224.235 220.615 223.694 220.008L224.282 219.644C225.57 221.1 226.545 222.36 227.208 223.424L226.592 223.872C226.34 223.452 226.074 223.051 225.794 222.668C223.722 223.013 220.931 223.303 217.422 223.536L217.212 222.864C217.389 222.808 217.52 222.738 217.604 222.654C218.64 221.497 219.475 220.293 220.11 219.042H216.428V218.286ZM236.28 211.104C238.063 213.139 240.121 214.744 242.454 215.92L242.048 216.648C239.668 215.379 237.652 213.759 236 211.79C234.46 213.666 232.425 215.29 229.896 216.662L229.504 215.934C231.996 214.646 234.068 213.036 235.72 211.104H236.28ZM232.626 215.472H239.416V216.2H232.626V215.472ZM230.428 218.286H241.6V219.042H234.95C234.241 220.451 233.363 221.707 232.318 222.808C234.875 222.668 237.237 222.439 239.402 222.122C238.805 221.319 238.235 220.615 237.694 220.008L238.282 219.644C239.57 221.1 240.545 222.36 241.208 223.424L240.592 223.872C240.34 223.452 240.074 223.051 239.794 222.668C237.722 223.013 234.931 223.303 231.422 223.536L231.212 222.864C231.389 222.808 231.52 222.738 231.604 222.654C232.64 221.497 233.475 220.293 234.11 219.042H230.428V218.286ZM254.438 216.214V221.184H253.668V216.914H246.444V221.394H245.688V216.214H254.438ZM246.416 211.664H253.57V214.926H246.416V211.664ZM252.814 214.212V212.378H247.158V214.212H252.814ZM250.518 218.048C250.322 220.083 249.883 221.459 249.202 222.178C248.437 223.065 246.808 223.62 244.316 223.844L244.008 223.158C246.313 222.999 247.835 222.523 248.572 221.73C249.244 220.974 249.636 219.719 249.748 217.964L250.518 218.048ZM250.938 221.282C252.739 221.861 254.363 222.551 255.81 223.354L255.39 223.998C253.813 223.093 252.193 222.383 250.532 221.87L250.938 221.282ZM259.408 213.33H265.218C265.675 212.593 266.063 211.823 266.38 211.02L267.108 211.272C266.763 212.084 266.389 212.77 265.988 213.33H268.606V218.986H264.392V220.414H270.188V221.142H264.392V223.9H263.622V221.142H257.812V220.414H263.622V218.986H259.408V213.33ZM267.864 218.286V216.508H264.392V218.286H267.864ZM263.622 218.286V216.508H260.164V218.286H263.622ZM260.164 215.822H263.622V214.016H260.164V215.822ZM264.392 214.016V215.822H267.864V214.016H264.392ZM261.424 211.09C261.9 211.641 262.353 212.271 262.782 212.98L262.138 213.302C261.718 212.602 261.261 211.972 260.766 211.412L261.424 211.09ZM275.592 211.356C275.228 212.439 274.771 213.47 274.22 214.45V223.9H273.464V215.654C272.951 216.391 272.395 217.068 271.798 217.684L271.546 216.886C273.114 215.141 274.229 213.185 274.892 211.02L275.592 211.356ZM275.662 213.442H279.568C279.335 212.611 279.092 211.879 278.84 211.244L279.638 211.118C279.871 211.771 280.095 212.546 280.31 213.442H284.034V214.156H275.662V213.442ZM275.438 222.388H280.282C281.019 220.456 281.659 218.062 282.2 215.206L282.928 215.388C282.415 218.095 281.789 220.428 281.052 222.388H284.398V223.13H275.438V222.388ZM277.23 215.36C277.781 217.18 278.275 219.289 278.714 221.688L278.014 221.87C277.622 219.667 277.127 217.572 276.53 215.584L277.23 215.36Z" fill="#4E5969"/>
<path d="M7.24788 21.308C8.15321 21.308 8.89521 21.5693 9.47388 22.092C10.0619 22.6053 10.3559 23.296 10.3559 24.164C10.3559 25.0227 10.0245 25.8067 9.36188 26.516C9.03521 26.8613 8.34454 27.3933 7.28988 28.112C5.87121 29.0733 5.08254 29.9413 4.92388 30.716H10.3699V31.5H3.87388C3.87388 30.6413 4.20521 29.848 4.86788 29.12C5.27854 28.6533 5.97854 28.0793 6.96788 27.398C7.80788 26.8007 8.37254 26.3573 8.66188 26.068C9.21254 25.4707 9.48788 24.8313 9.48788 24.15C9.48788 23.4873 9.28254 22.974 8.87188 22.61C8.47054 22.246 7.92454 22.064 7.23388 22.064C6.50588 22.064 5.93188 22.3067 5.51188 22.792C5.06388 23.2773 4.83988 23.9867 4.83988 24.92H3.97188C3.97188 23.8 4.27988 22.918 4.89588 22.274C5.48388 21.63 6.26788 21.308 7.24788 21.308ZM15.5164 21.308C16.7204 21.308 17.6164 21.8587 18.2044 22.96C18.6897 23.856 18.9324 25.0367 18.9324 26.502C18.9324 27.9487 18.6897 29.1293 18.2044 30.044C17.6071 31.1453 16.7111 31.696 15.5164 31.696C14.3217 31.696 13.4257 31.1453 12.8284 30.044C12.3431 29.1573 12.1004 27.9767 12.1004 26.502C12.1004 25.018 12.3431 23.8373 12.8284 22.96C13.4164 21.8587 14.3124 21.308 15.5164 21.308ZM15.5164 22.064C14.5457 22.064 13.8504 22.5587 13.4304 23.548C13.1224 24.276 12.9684 25.2607 12.9684 26.502C12.9684 27.7247 13.1224 28.7093 13.4304 29.456C13.8504 30.4453 14.5457 30.94 15.5164 30.94C16.4684 30.94 17.1637 30.4453 17.6024 29.456C17.9197 28.6907 18.0784 27.706 18.0784 26.502C18.0784 25.2793 17.9197 24.2947 17.6024 23.548C17.1731 22.5587 16.4777 22.064 15.5164 22.064ZM24.0369 21.308C24.9423 21.308 25.6843 21.5693 26.2629 22.092C26.8509 22.6053 27.1449 23.296 27.1449 24.164C27.1449 25.0227 26.8136 25.8067 26.1509 26.516C25.8243 26.8613 25.1336 27.3933 24.0789 28.112C22.6603 29.0733 21.8716 29.9413 21.7129 30.716H27.1589V31.5H20.6629C20.6629 30.6413 20.9943 29.848 21.6569 29.12C22.0676 28.6533 22.7676 28.0793 23.7569 27.398C24.5969 26.8007 25.1616 26.3573 25.4509 26.068C26.0016 25.4707 26.2769 24.8313 26.2769 24.15C26.2769 23.4873 26.0716 22.974 25.6609 22.61C25.2596 22.246 24.7136 22.064 24.0229 22.064C23.2949 22.064 22.7209 22.3067 22.3009 22.792C21.8529 23.2773 21.6289 23.9867 21.6289 24.92H20.7609C20.7609 23.8 21.0689 22.918 21.6849 22.274C22.2729 21.63 23.0569 21.308 24.0369 21.308ZM33.0055 21.504V31.5H32.1515V22.568C31.5075 23.268 30.7095 23.758 29.7575 24.038V23.17C30.2335 23.03 30.6955 22.82 31.1435 22.54C31.5821 22.2507 31.9741 21.9053 32.3195 21.504H33.0055Z" fill="#4E5969"/>
<path d="M7.24788 53.308C8.15321 53.308 8.89521 53.5693 9.47388 54.092C10.0619 54.6053 10.3559 55.296 10.3559 56.164C10.3559 57.0227 10.0245 57.8067 9.36188 58.516C9.03521 58.8613 8.34454 59.3933 7.28988 60.112C5.87121 61.0733 5.08254 61.9413 4.92388 62.716H10.3699V63.5H3.87388C3.87388 62.6413 4.20521 61.848 4.86788 61.12C5.27854 60.6533 5.97854 60.0793 6.96788 59.398C7.80788 58.8007 8.37254 58.3573 8.66188 58.068C9.21254 57.4707 9.48788 56.8313 9.48788 56.15C9.48788 55.4873 9.28254 54.974 8.87188 54.61C8.47054 54.246 7.92454 54.064 7.23388 54.064C6.50588 54.064 5.93188 54.3067 5.51188 54.792C5.06388 55.2773 4.83988 55.9867 4.83988 56.92H3.97188C3.97188 55.8 4.27988 54.918 4.89588 54.274C5.48388 53.63 6.26788 53.308 7.24788 53.308ZM15.5164 53.308C16.7204 53.308 17.6164 53.8587 18.2044 54.96C18.6897 55.856 18.9324 57.0367 18.9324 58.502C18.9324 59.9487 18.6897 61.1293 18.2044 62.044C17.6071 63.1453 16.7111 63.696 15.5164 63.696C14.3217 63.696 13.4257 63.1453 12.8284 62.044C12.3431 61.1573 12.1004 59.9767 12.1004 58.502C12.1004 57.018 12.3431 55.8373 12.8284 54.96C13.4164 53.8587 14.3124 53.308 15.5164 53.308ZM15.5164 54.064C14.5457 54.064 13.8504 54.5587 13.4304 55.548C13.1224 56.276 12.9684 57.2607 12.9684 58.502C12.9684 59.7247 13.1224 60.7093 13.4304 61.456C13.8504 62.4453 14.5457 62.94 15.5164 62.94C16.4684 62.94 17.1637 62.4453 17.6024 61.456C17.9197 60.6907 18.0784 59.706 18.0784 58.502C18.0784 57.2793 17.9197 56.2947 17.6024 55.548C17.1731 54.5587 16.4777 54.064 15.5164 54.064ZM24.0369 53.308C24.9423 53.308 25.6843 53.5693 26.2629 54.092C26.8509 54.6053 27.1449 55.296 27.1449 56.164C27.1449 57.0227 26.8136 57.8067 26.1509 58.516C25.8243 58.8613 25.1336 59.3933 24.0789 60.112C22.6603 61.0733 21.8716 61.9413 21.7129 62.716H27.1589V63.5H20.6629C20.6629 62.6413 20.9943 61.848 21.6569 61.12C22.0676 60.6533 22.7676 60.0793 23.7569 59.398C24.5969 58.8007 25.1616 58.3573 25.4509 58.068C26.0016 57.4707 26.2769 56.8313 26.2769 56.15C26.2769 55.4873 26.0716 54.974 25.6609 54.61C25.2596 54.246 24.7136 54.064 24.0229 54.064C23.2949 54.064 22.7209 54.3067 22.3009 54.792C21.8529 55.2773 21.6289 55.9867 21.6289 56.92H20.7609C20.7609 55.8 21.0689 54.918 21.6849 54.274C22.2729 53.63 23.0569 53.308 24.0369 53.308ZM33.0055 53.504V63.5H32.1515V54.568C31.5075 55.268 30.7095 55.758 29.7575 56.038V55.17C30.2335 55.03 30.6955 54.82 31.1435 54.54C31.5821 54.2507 31.9741 53.9053 32.3195 53.504H33.0055Z" fill="#4E5969"/>
<path d="M7.24788 85.308C8.15321 85.308 8.89521 85.5693 9.47388 86.092C10.0619 86.6053 10.3559 87.296 10.3559 88.164C10.3559 89.0227 10.0245 89.8067 9.36188 90.516C9.03521 90.8613 8.34454 91.3933 7.28988 92.112C5.87121 93.0733 5.08254 93.9413 4.92388 94.716H10.3699V95.5H3.87388C3.87388 94.6413 4.20521 93.848 4.86788 93.12C5.27854 92.6533 5.97854 92.0793 6.96788 91.398C7.80788 90.8007 8.37254 90.3573 8.66188 90.068C9.21254 89.4707 9.48788 88.8313 9.48788 88.15C9.48788 87.4873 9.28254 86.974 8.87188 86.61C8.47054 86.246 7.92454 86.064 7.23388 86.064C6.50588 86.064 5.93188 86.3067 5.51188 86.792C5.06388 87.2773 4.83988 87.9867 4.83988 88.92H3.97188C3.97188 87.8 4.27988 86.918 4.89588 86.274C5.48388 85.63 6.26788 85.308 7.24788 85.308ZM15.5164 85.308C16.7204 85.308 17.6164 85.8587 18.2044 86.96C18.6897 87.856 18.9324 89.0367 18.9324 90.502C18.9324 91.9487 18.6897 93.1293 18.2044 94.044C17.6071 95.1453 16.7111 95.696 15.5164 95.696C14.3217 95.696 13.4257 95.1453 12.8284 94.044C12.3431 93.1573 12.1004 91.9767 12.1004 90.502C12.1004 89.018 12.3431 87.8373 12.8284 86.96C13.4164 85.8587 14.3124 85.308 15.5164 85.308ZM15.5164 86.064C14.5457 86.064 13.8504 86.5587 13.4304 87.548C13.1224 88.276 12.9684 89.2607 12.9684 90.502C12.9684 91.7247 13.1224 92.7093 13.4304 93.456C13.8504 94.4453 14.5457 94.94 15.5164 94.94C16.4684 94.94 17.1637 94.4453 17.6024 93.456C17.9197 92.6907 18.0784 91.706 18.0784 90.502C18.0784 89.2793 17.9197 88.2947 17.6024 87.548C17.1731 86.5587 16.4777 86.064 15.5164 86.064ZM24.0369 85.308C24.9423 85.308 25.6843 85.5693 26.2629 86.092C26.8509 86.6053 27.1449 87.296 27.1449 88.164C27.1449 89.0227 26.8136 89.8067 26.1509 90.516C25.8243 90.8613 25.1336 91.3933 24.0789 92.112C22.6603 93.0733 21.8716 93.9413 21.7129 94.716H27.1589V95.5H20.6629C20.6629 94.6413 20.9943 93.848 21.6569 93.12C22.0676 92.6533 22.7676 92.0793 23.7569 91.398C24.5969 90.8007 25.1616 90.3573 25.4509 90.068C26.0016 89.4707 26.2769 88.8313 26.2769 88.15C26.2769 87.4873 26.0716 86.974 25.6609 86.61C25.2596 86.246 24.7136 86.064 24.0229 86.064C23.2949 86.064 22.7209 86.3067 22.3009 86.792C21.8529 87.2773 21.6289 87.9867 21.6289 88.92H20.7609C20.7609 87.8 21.0689 86.918 21.6849 86.274C22.2729 85.63 23.0569 85.308 24.0369 85.308ZM32.4315 85.308C33.3368 85.308 34.0788 85.5693 34.6575 86.092C35.2455 86.6053 35.5395 87.296 35.5395 88.164C35.5395 89.0227 35.2081 89.8067 34.5455 90.516C34.2188 90.8613 33.5281 91.3933 32.4735 92.112C31.0548 93.0733 30.2661 93.9413 30.1075 94.716H35.5535V95.5H29.0575C29.0575 94.6413 29.3888 93.848 30.0515 93.12C30.4621 92.6533 31.1621 92.0793 32.1515 91.398C32.9915 90.8007 33.5561 90.3573 33.8455 90.068C34.3961 89.4707 34.6715 88.8313 34.6715 88.15C34.6715 87.4873 34.4661 86.974 34.0555 86.61C33.6541 86.246 33.1081 86.064 32.4175 86.064C31.6895 86.064 31.1155 86.3067 30.6955 86.792C30.2475 87.2773 30.0235 87.9867 30.0235 88.92H29.1555C29.1555 87.8 29.4635 86.918 30.0795 86.274C30.6675 85.63 31.4515 85.308 32.4315 85.308Z" fill="#4E5969"/>
<path d="M5.601 117.852C6.71033 117.852 7.61167 118.167 8.305 118.796C8.99833 119.436 9.345 120.257 9.345 121.26C9.345 122.231 8.97167 123.132 8.225 123.964C7.777 124.423 6.98767 125.036 5.857 125.804C4.63033 126.615 3.89433 127.335 3.649 127.964H9.361V129.5H1.489C1.489 128.359 1.86767 127.361 2.625 126.508C3.01967 126.039 3.87833 125.345 5.201 124.428C5.97967 123.873 6.52367 123.436 6.833 123.116C7.35567 122.529 7.617 121.905 7.617 121.244C7.617 120.604 7.441 120.124 7.089 119.804C6.737 119.484 6.21967 119.324 5.537 119.324C4.81167 119.324 4.26767 119.569 3.905 120.06C3.53167 120.529 3.329 121.228 3.297 122.156H1.553C1.57433 120.876 1.94233 119.852 2.657 119.084C3.38233 118.263 4.36367 117.852 5.601 117.852ZM15.0188 117.852C16.3628 117.852 17.4028 118.417 18.1388 119.548C18.8108 120.604 19.1468 122.017 19.1468 123.788C19.1468 125.559 18.8108 126.972 18.1388 128.028C17.3921 129.159 16.3521 129.724 15.0188 129.724C13.6854 129.724 12.6454 129.159 11.8988 128.028C11.2268 126.972 10.8908 125.559 10.8908 123.788C10.8908 121.996 11.2268 120.583 11.8988 119.548C12.6348 118.417 13.6748 117.852 15.0188 117.852ZM15.0188 119.324C14.0801 119.324 13.4188 119.841 13.0348 120.876C12.7574 121.559 12.6188 122.529 12.6188 123.788C12.6188 125.036 12.7574 126.007 13.0348 126.7C13.4188 127.735 14.0801 128.252 15.0188 128.252C15.9574 128.252 16.6188 127.735 17.0028 126.7C17.2801 125.964 17.4188 124.993 17.4188 123.788C17.4188 122.561 17.2801 121.591 17.0028 120.876C16.6188 119.841 15.9574 119.324 15.0188 119.324ZM24.7885 117.852C25.8978 117.852 26.7992 118.167 27.4925 118.796C28.1858 119.436 28.5325 120.257 28.5325 121.26C28.5325 122.231 28.1592 123.132 27.4125 123.964C26.9645 124.423 26.1752 125.036 25.0445 125.804C23.8178 126.615 23.0818 127.335 22.8365 127.964H28.5485V129.5H20.6765C20.6765 128.359 21.0552 127.361 21.8125 126.508C22.2072 126.039 23.0658 125.345 24.3885 124.428C25.1672 123.873 25.7112 123.436 26.0205 123.116C26.5432 122.529 26.8045 121.905 26.8045 121.244C26.8045 120.604 26.6285 120.124 26.2765 119.804C25.9245 119.484 25.4072 119.324 24.7245 119.324C23.9992 119.324 23.4552 119.569 23.0925 120.06C22.7192 120.529 22.5165 121.228 22.4845 122.156H20.7405C20.7618 120.876 21.1298 119.852 21.8445 119.084C22.5698 118.263 23.5512 117.852 24.7885 117.852ZM34.3823 117.852C35.4916 117.852 36.3929 118.167 37.0863 118.796C37.7796 119.436 38.1263 120.257 38.1263 121.26C38.1263 122.231 37.7529 123.132 37.0063 123.964C36.5583 124.423 35.7689 125.036 34.6383 125.804C33.4116 126.615 32.6756 127.335 32.4303 127.964H38.1423V129.5H30.2703C30.2703 128.359 30.6489 127.361 31.4062 126.508C31.8009 126.039 32.6596 125.345 33.9823 124.428C34.7609 123.873 35.3049 123.436 35.6143 123.116C36.1369 122.529 36.3983 121.905 36.3983 121.244C36.3983 120.604 36.2223 120.124 35.8703 119.804C35.5183 119.484 35.0009 119.324 34.3183 119.324C33.5929 119.324 33.0489 119.569 32.6863 120.06C32.3129 120.529 32.1103 121.228 32.0783 122.156H30.3343C30.3556 120.876 30.7236 119.852 31.4383 119.084C32.1636 118.263 33.1449 117.852 34.3823 117.852Z" fill="#165DFF"/>
<path d="M7.24788 151.308C8.15321 151.308 8.89521 151.569 9.47388 152.092C10.0619 152.605 10.3559 153.296 10.3559 154.164C10.3559 155.023 10.0245 155.807 9.36188 156.516C9.03521 156.861 8.34454 157.393 7.28988 158.112C5.87121 159.073 5.08254 159.941 4.92388 160.716H10.3699V161.5H3.87388C3.87388 160.641 4.20521 159.848 4.86788 159.12C5.27854 158.653 5.97854 158.079 6.96788 157.398C7.80788 156.801 8.37254 156.357 8.66188 156.068C9.21254 155.471 9.48788 154.831 9.48788 154.15C9.48788 153.487 9.28254 152.974 8.87188 152.61C8.47054 152.246 7.92454 152.064 7.23388 152.064C6.50588 152.064 5.93188 152.307 5.51188 152.792C5.06388 153.277 4.83988 153.987 4.83988 154.92H3.97188C3.97188 153.8 4.27988 152.918 4.89588 152.274C5.48388 151.63 6.26788 151.308 7.24788 151.308ZM15.5164 151.308C16.7204 151.308 17.6164 151.859 18.2044 152.96C18.6897 153.856 18.9324 155.037 18.9324 156.502C18.9324 157.949 18.6897 159.129 18.2044 160.044C17.6071 161.145 16.7111 161.696 15.5164 161.696C14.3217 161.696 13.4257 161.145 12.8284 160.044C12.3431 159.157 12.1004 157.977 12.1004 156.502C12.1004 155.018 12.3431 153.837 12.8284 152.96C13.4164 151.859 14.3124 151.308 15.5164 151.308ZM15.5164 152.064C14.5457 152.064 13.8504 152.559 13.4304 153.548C13.1224 154.276 12.9684 155.261 12.9684 156.502C12.9684 157.725 13.1224 158.709 13.4304 159.456C13.8504 160.445 14.5457 160.94 15.5164 160.94C16.4684 160.94 17.1637 160.445 17.6024 159.456C17.9197 158.691 18.0784 157.706 18.0784 156.502C18.0784 155.279 17.9197 154.295 17.6024 153.548C17.1731 152.559 16.4777 152.064 15.5164 152.064ZM24.0369 151.308C24.9423 151.308 25.6843 151.569 26.2629 152.092C26.8509 152.605 27.1449 153.296 27.1449 154.164C27.1449 155.023 26.8136 155.807 26.1509 156.516C25.8243 156.861 25.1336 157.393 24.0789 158.112C22.6603 159.073 21.8716 159.941 21.7129 160.716H27.1589V161.5H20.6629C20.6629 160.641 20.9943 159.848 21.6569 159.12C22.0676 158.653 22.7676 158.079 23.7569 157.398C24.5969 156.801 25.1616 156.357 25.4509 156.068C26.0016 155.471 26.2769 154.831 26.2769 154.15C26.2769 153.487 26.0716 152.974 25.6609 152.61C25.2596 152.246 24.7136 152.064 24.0229 152.064C23.2949 152.064 22.7209 152.307 22.3009 152.792C21.8529 153.277 21.6289 153.987 21.6289 154.92H20.7609C20.7609 153.8 21.0689 152.918 21.6849 152.274C22.2729 151.63 23.0569 151.308 24.0369 151.308ZM32.4315 151.308C33.3368 151.308 34.0788 151.569 34.6575 152.092C35.2455 152.605 35.5395 153.296 35.5395 154.164C35.5395 155.023 35.2081 155.807 34.5455 156.516C34.2188 156.861 33.5281 157.393 32.4735 158.112C31.0548 159.073 30.2661 159.941 30.1075 160.716H35.5535V161.5H29.0575C29.0575 160.641 29.3888 159.848 30.0515 159.12C30.4621 158.653 31.1621 158.079 32.1515 157.398C32.9915 156.801 33.5561 156.357 33.8455 156.068C34.3961 155.471 34.6715 154.831 34.6715 154.15C34.6715 153.487 34.4661 152.974 34.0555 152.61C33.6541 152.246 33.1081 152.064 32.4175 152.064C31.6895 152.064 31.1155 152.307 30.6955 152.792C30.2475 153.277 30.0235 153.987 30.0235 154.92H29.1555C29.1555 153.8 29.4635 152.918 30.0795 152.274C30.6675 151.63 31.4515 151.308 32.4315 151.308Z" fill="#4E5969"/>
<path d="M7.24788 183.308C8.15321 183.308 8.89521 183.569 9.47388 184.092C10.0619 184.605 10.3559 185.296 10.3559 186.164C10.3559 187.023 10.0245 187.807 9.36188 188.516C9.03521 188.861 8.34454 189.393 7.28988 190.112C5.87121 191.073 5.08254 191.941 4.92388 192.716H10.3699V193.5H3.87388C3.87388 192.641 4.20521 191.848 4.86788 191.12C5.27854 190.653 5.97854 190.079 6.96788 189.398C7.80788 188.801 8.37254 188.357 8.66188 188.068C9.21254 187.471 9.48788 186.831 9.48788 186.15C9.48788 185.487 9.28254 184.974 8.87188 184.61C8.47054 184.246 7.92454 184.064 7.23388 184.064C6.50588 184.064 5.93188 184.307 5.51188 184.792C5.06388 185.277 4.83988 185.987 4.83988 186.92H3.97188C3.97188 185.8 4.27988 184.918 4.89588 184.274C5.48388 183.63 6.26788 183.308 7.24788 183.308ZM15.5164 183.308C16.7204 183.308 17.6164 183.859 18.2044 184.96C18.6897 185.856 18.9324 187.037 18.9324 188.502C18.9324 189.949 18.6897 191.129 18.2044 192.044C17.6071 193.145 16.7111 193.696 15.5164 193.696C14.3217 193.696 13.4257 193.145 12.8284 192.044C12.3431 191.157 12.1004 189.977 12.1004 188.502C12.1004 187.018 12.3431 185.837 12.8284 184.96C13.4164 183.859 14.3124 183.308 15.5164 183.308ZM15.5164 184.064C14.5457 184.064 13.8504 184.559 13.4304 185.548C13.1224 186.276 12.9684 187.261 12.9684 188.502C12.9684 189.725 13.1224 190.709 13.4304 191.456C13.8504 192.445 14.5457 192.94 15.5164 192.94C16.4684 192.94 17.1637 192.445 17.6024 191.456C17.9197 190.691 18.0784 189.706 18.0784 188.502C18.0784 187.279 17.9197 186.295 17.6024 185.548C17.1731 184.559 16.4777 184.064 15.5164 184.064ZM24.0369 183.308C24.9423 183.308 25.6843 183.569 26.2629 184.092C26.8509 184.605 27.1449 185.296 27.1449 186.164C27.1449 187.023 26.8136 187.807 26.1509 188.516C25.8243 188.861 25.1336 189.393 24.0789 190.112C22.6603 191.073 21.8716 191.941 21.7129 192.716H27.1589V193.5H20.6629C20.6629 192.641 20.9943 191.848 21.6569 191.12C22.0676 190.653 22.7676 190.079 23.7569 189.398C24.5969 188.801 25.1616 188.357 25.4509 188.068C26.0016 187.471 26.2769 186.831 26.2769 186.15C26.2769 185.487 26.0716 184.974 25.6609 184.61C25.2596 184.246 24.7136 184.064 24.0229 184.064C23.2949 184.064 22.7209 184.307 22.3009 184.792C21.8529 185.277 21.6289 185.987 21.6289 186.92H20.7609C20.7609 185.8 21.0689 184.918 21.6849 184.274C22.2729 183.63 23.0569 183.308 24.0369 183.308ZM32.4315 183.308C33.3368 183.308 34.0788 183.569 34.6575 184.092C35.2455 184.605 35.5395 185.296 35.5395 186.164C35.5395 187.023 35.2081 187.807 34.5455 188.516C34.2188 188.861 33.5281 189.393 32.4735 190.112C31.0548 191.073 30.2661 191.941 30.1075 192.716H35.5535V193.5H29.0575C29.0575 192.641 29.3888 191.848 30.0515 191.12C30.4621 190.653 31.1621 190.079 32.1515 189.398C32.9915 188.801 33.5561 188.357 33.8455 188.068C34.3961 187.471 34.6715 186.831 34.6715 186.15C34.6715 185.487 34.4661 184.974 34.0555 184.61C33.6541 184.246 33.1081 184.064 32.4175 184.064C31.6895 184.064 31.1155 184.307 30.6955 184.792C30.2475 185.277 30.0235 185.987 30.0235 186.92H29.1555C29.1555 185.8 29.4635 184.918 30.0795 184.274C30.6675 183.63 31.4515 183.308 32.4315 183.308Z" fill="#4E5969"/>
<path d="M7.24788 215.308C8.15321 215.308 8.89521 215.569 9.47388 216.092C10.0619 216.605 10.3559 217.296 10.3559 218.164C10.3559 219.023 10.0245 219.807 9.36188 220.516C9.03521 220.861 8.34454 221.393 7.28988 222.112C5.87121 223.073 5.08254 223.941 4.92388 224.716H10.3699V225.5H3.87388C3.87388 224.641 4.20521 223.848 4.86788 223.12C5.27854 222.653 5.97854 222.079 6.96788 221.398C7.80788 220.801 8.37254 220.357 8.66188 220.068C9.21254 219.471 9.48788 218.831 9.48788 218.15C9.48788 217.487 9.28254 216.974 8.87188 216.61C8.47054 216.246 7.92454 216.064 7.23388 216.064C6.50588 216.064 5.93188 216.307 5.51188 216.792C5.06388 217.277 4.83988 217.987 4.83988 218.92H3.97188C3.97188 217.8 4.27988 216.918 4.89588 216.274C5.48388 215.63 6.26788 215.308 7.24788 215.308ZM15.5164 215.308C16.7204 215.308 17.6164 215.859 18.2044 216.96C18.6897 217.856 18.9324 219.037 18.9324 220.502C18.9324 221.949 18.6897 223.129 18.2044 224.044C17.6071 225.145 16.7111 225.696 15.5164 225.696C14.3217 225.696 13.4257 225.145 12.8284 224.044C12.3431 223.157 12.1004 221.977 12.1004 220.502C12.1004 219.018 12.3431 217.837 12.8284 216.96C13.4164 215.859 14.3124 215.308 15.5164 215.308ZM15.5164 216.064C14.5457 216.064 13.8504 216.559 13.4304 217.548C13.1224 218.276 12.9684 219.261 12.9684 220.502C12.9684 221.725 13.1224 222.709 13.4304 223.456C13.8504 224.445 14.5457 224.94 15.5164 224.94C16.4684 224.94 17.1637 224.445 17.6024 223.456C17.9197 222.691 18.0784 221.706 18.0784 220.502C18.0784 219.279 17.9197 218.295 17.6024 217.548C17.1731 216.559 16.4777 216.064 15.5164 216.064ZM24.0369 215.308C24.9423 215.308 25.6843 215.569 26.2629 216.092C26.8509 216.605 27.1449 217.296 27.1449 218.164C27.1449 219.023 26.8136 219.807 26.1509 220.516C25.8243 220.861 25.1336 221.393 24.0789 222.112C22.6603 223.073 21.8716 223.941 21.7129 224.716H27.1589V225.5H20.6629C20.6629 224.641 20.9943 223.848 21.6569 223.12C22.0676 222.653 22.7676 222.079 23.7569 221.398C24.5969 220.801 25.1616 220.357 25.4509 220.068C26.0016 219.471 26.2769 218.831 26.2769 218.15C26.2769 217.487 26.0716 216.974 25.6609 216.61C25.2596 216.246 24.7136 216.064 24.0229 216.064C23.2949 216.064 22.7209 216.307 22.3009 216.792C21.8529 217.277 21.6289 217.987 21.6289 218.92H20.7609C20.7609 217.8 21.0689 216.918 21.6849 216.274C22.2729 215.63 23.0569 215.308 24.0369 215.308ZM32.4315 215.308C33.3368 215.308 34.0788 215.569 34.6575 216.092C35.2455 216.605 35.5395 217.296 35.5395 218.164C35.5395 219.023 35.2081 219.807 34.5455 220.516C34.2188 220.861 33.5281 221.393 32.4735 222.112C31.0548 223.073 30.2661 223.941 30.1075 224.716H35.5535V225.5H29.0575C29.0575 224.641 29.3888 223.848 30.0515 223.12C30.4621 222.653 31.1621 222.079 32.1515 221.398C32.9915 220.801 33.5561 220.357 33.8455 220.068C34.3961 219.471 34.6715 218.831 34.6715 218.15C34.6715 217.487 34.4661 216.974 34.0555 216.61C33.6541 216.246 33.1081 216.064 32.4175 216.064C31.6895 216.064 31.1155 216.307 30.6955 216.792C30.2475 217.277 30.0235 217.987 30.0235 218.92H29.1555C29.1555 217.8 29.4635 216.918 30.0795 216.274C30.6675 215.63 31.4515 215.308 32.4315 215.308Z" fill="#4E5969"/>
<circle cx="55" cy="26.5" r="4" fill="#165DFF"/>
<circle cx="55" cy="58.5" r="4" fill="#165DFF"/>
<circle cx="55" cy="90.5" r="4" fill="#165DFF"/>
<circle cx="55" cy="122.5" r="4" fill="#165DFF"/>
<circle cx="55" cy="122.5" r="6" stroke="#165DFF" stroke-opacity="0.2" stroke-width="4"/>
<circle cx="55" cy="154.5" r="4" fill="#165DFF"/>
<circle cx="55" cy="186.5" r="4" fill="#165DFF"/>
<circle cx="55" cy="218.5" r="4" fill="#165DFF"/>
<line x1="55" y1="1.5" x2="55" y2="242.5" stroke="#165DFF" stroke-width="2" stroke-linecap="round"/>
</svg>
