<svg width="1233" height="62" viewBox="0 0 1233 62" fill="none" xmlns="http://www.w3.org/2000/svg">
<line x1="61" y1="49.5" x2="1195" y2="49.5" stroke="white" stroke-opacity="0.1"/>
<line x1="38" y1="49.5" x2="368" y2="49.5" stroke="white"/>
<path d="M5.27422 13.44C6.59422 13.44 7.68089 13.82 8.53422 14.58C9.38755 15.3533 9.81422 16.36 9.81422 17.6C9.81422 18.8267 9.34755 19.9467 8.41422 20.96C7.86755 21.5333 6.88089 22.3 5.45422 23.26C3.64089 24.4733 2.60089 25.5667 2.33422 26.54H9.83422V28H0.314219C0.314219 26.68 0.787552 25.5 1.73422 24.46C2.34755 23.7667 3.38089 22.92 4.83422 21.92C5.96755 21.1067 6.71422 20.5133 7.07422 20.14C7.80755 19.34 8.17422 18.4867 8.17422 17.58C8.17422 16.7133 7.91422 16.04 7.39422 15.56C6.87422 15.08 6.14755 14.84 5.21422 14.84C4.21422 14.84 3.46089 15.1733 2.95422 15.84C2.38089 16.4933 2.08755 17.4467 2.07422 18.7H0.434219C0.434219 17.1133 0.880886 15.84 1.77422 14.88C2.65422 13.92 3.82089 13.44 5.27422 13.44ZM17.0664 13.44C18.7731 13.44 20.0597 14.1933 20.9264 15.7C21.6864 16.98 22.0664 18.7 22.0664 20.86C22.0664 23.02 21.6864 24.74 20.9264 26.02C20.0464 27.5267 18.7597 28.28 17.0664 28.28C15.3597 28.28 14.0731 27.5267 13.2064 26.02C12.4464 24.74 12.0664 23.02 12.0664 20.86C12.0664 18.7 12.4464 16.98 13.2064 15.7C14.0597 14.1933 15.3464 13.44 17.0664 13.44ZM17.0664 14.84C15.7864 14.84 14.8664 15.5267 14.3064 16.9C13.9064 17.86 13.7064 19.18 13.7064 20.86C13.7064 22.5133 13.9064 23.8333 14.3064 24.82C14.8664 26.1933 15.7864 26.88 17.0664 26.88C18.3464 26.88 19.2664 26.1933 19.8264 24.82C20.2397 23.8067 20.4464 22.4867 20.4464 20.86C20.4464 19.2067 20.2397 17.8867 19.8264 16.9C19.2664 15.5267 18.3464 14.84 17.0664 14.84ZM29.2586 13.44C30.5786 13.44 31.6653 13.82 32.5186 14.58C33.3719 15.3533 33.7986 16.36 33.7986 17.6C33.7986 18.8267 33.3319 19.9467 32.3986 20.96C31.8519 21.5333 30.8653 22.3 29.4386 23.26C27.6253 24.4733 26.5853 25.5667 26.3186 26.54H33.8186V28H24.2986C24.2986 26.68 24.7719 25.5 25.7186 24.46C26.3319 23.7667 27.3653 22.92 28.8186 21.92C29.9519 21.1067 30.6986 20.5133 31.0586 20.14C31.7919 19.34 32.1586 18.4867 32.1586 17.58C32.1586 16.7133 31.8986 16.04 31.3786 15.56C30.8586 15.08 30.1319 14.84 29.1986 14.84C28.1986 14.84 27.4453 15.1733 26.9386 15.84C26.3653 16.4933 26.0719 17.4467 26.0586 18.7H24.4186C24.4186 17.1133 24.8653 15.84 25.7586 14.88C26.6386 13.92 27.8053 13.44 29.2586 13.44ZM41.2508 13.44C42.5708 13.44 43.6574 13.82 44.5108 14.58C45.3641 15.3533 45.7908 16.36 45.7908 17.6C45.7908 18.8267 45.3241 19.9467 44.3908 20.96C43.8441 21.5333 42.8574 22.3 41.4308 23.26C39.6174 24.4733 38.5774 25.5667 38.3108 26.54H45.8108V28H36.2908C36.2908 26.68 36.7641 25.5 37.7108 24.46C38.3241 23.7667 39.3574 22.92 40.8108 21.92C41.9441 21.1067 42.6908 20.5133 43.0508 20.14C43.7841 19.34 44.1508 18.4867 44.1508 17.58C44.1508 16.7133 43.8908 16.04 43.3708 15.56C42.8508 15.08 42.1241 14.84 41.1908 14.84C40.1908 14.84 39.4374 15.1733 38.9308 15.84C38.3574 16.4933 38.0641 17.4467 38.0508 18.7H36.4108C36.4108 17.1133 36.8574 15.84 37.7508 14.88C38.6308 13.92 39.7974 13.44 41.2508 13.44ZM49.683 25.62C50.0296 25.62 50.3163 25.7333 50.543 25.96C50.783 26.1733 50.903 26.4533 50.903 26.8C50.903 27.1467 50.783 27.4333 50.543 27.66C50.2896 27.8867 50.003 28 49.683 28C49.363 28 49.0763 27.8867 48.823 27.66C48.583 27.42 48.463 27.1333 48.463 26.8C48.463 26.4533 48.583 26.1733 48.823 25.96C49.0496 25.7333 49.3363 25.62 49.683 25.62ZM58.3164 13.44C60.0231 13.44 61.3097 14.1933 62.1764 15.7C62.9364 16.98 63.3164 18.7 63.3164 20.86C63.3164 23.02 62.9364 24.74 62.1764 26.02C61.2964 27.5267 60.0097 28.28 58.3164 28.28C56.6097 28.28 55.3231 27.5267 54.4564 26.02C53.6964 24.74 53.3164 23.02 53.3164 20.86C53.3164 18.7 53.6964 16.98 54.4564 15.7C55.3097 14.1933 56.5964 13.44 58.3164 13.44ZM58.3164 14.84C57.0364 14.84 56.1164 15.5267 55.5564 16.9C55.1564 17.86 54.9564 19.18 54.9564 20.86C54.9564 22.5133 55.1564 23.8333 55.5564 24.82C56.1164 26.1933 57.0364 26.88 58.3164 26.88C59.5964 26.88 60.5164 26.1933 61.0764 24.82C61.4897 23.8067 61.6964 22.4867 61.6964 20.86C61.6964 19.2067 61.4897 17.8867 61.0764 16.9C60.5164 15.5267 59.5964 14.84 58.3164 14.84ZM66.4086 13.72H74.7086V15.18H67.7486L67.2686 19.96H67.3486C67.7486 19.48 68.2619 19.12 68.8886 18.88C69.4219 18.6533 70.0286 18.54 70.7086 18.54C72.0686 18.54 73.1686 18.9667 74.0086 19.82C74.8619 20.7133 75.2886 21.92 75.2886 23.44C75.2886 24.88 74.7753 26.06 73.7486 26.98C72.7753 27.8467 71.5886 28.28 70.1886 28.28C68.9219 28.28 67.8486 27.94 66.9686 27.26C65.9819 26.5 65.4353 25.4667 65.3286 24.16H66.9486C67.0286 25.0667 67.3886 25.76 68.0286 26.24C68.6019 26.6667 69.3286 26.88 70.2086 26.88C71.2086 26.88 72.0353 26.56 72.6886 25.92C73.3419 25.2667 73.6686 24.4467 73.6686 23.46C73.6686 22.34 73.3619 21.46 72.7486 20.82C72.1753 20.1933 71.3619 19.88 70.3086 19.88C69.6286 19.88 69.0219 20.0267 68.4886 20.32C67.9153 20.6 67.4886 21.0267 67.2086 21.6H65.6486L66.4086 13.72Z" fill="white"/>
<circle cx="37.6875" cy="50" r="7" fill="#94BFFF"/>
<circle cx="37.6875" cy="50" r="9" stroke="white" stroke-opacity="0.1" stroke-width="4"/>
<path d="M170.649 13.44C171.969 13.44 173.056 13.82 173.909 14.58C174.763 15.3533 175.189 16.36 175.189 17.6C175.189 18.8267 174.723 19.9467 173.789 20.96C173.243 21.5333 172.256 22.3 170.829 23.26C169.016 24.4733 167.976 25.5667 167.709 26.54H175.209V28H165.689C165.689 26.68 166.163 25.5 167.109 24.46C167.723 23.7667 168.756 22.92 170.209 21.92C171.343 21.1067 172.089 20.5133 172.449 20.14C173.183 19.34 173.549 18.4867 173.549 17.58C173.549 16.7133 173.289 16.04 172.769 15.56C172.249 15.08 171.523 14.84 170.589 14.84C169.589 14.84 168.836 15.1733 168.329 15.84C167.756 16.4933 167.463 17.4467 167.449 18.7H165.809C165.809 17.1133 166.256 15.84 167.149 14.88C168.029 13.92 169.196 13.44 170.649 13.44ZM182.441 13.44C184.148 13.44 185.435 14.1933 186.301 15.7C187.061 16.98 187.441 18.7 187.441 20.86C187.441 23.02 187.061 24.74 186.301 26.02C185.421 27.5267 184.135 28.28 182.441 28.28C180.735 28.28 179.448 27.5267 178.581 26.02C177.821 24.74 177.441 23.02 177.441 20.86C177.441 18.7 177.821 16.98 178.581 15.7C179.435 14.1933 180.721 13.44 182.441 13.44ZM182.441 14.84C181.161 14.84 180.241 15.5267 179.681 16.9C179.281 17.86 179.081 19.18 179.081 20.86C179.081 22.5133 179.281 23.8333 179.681 24.82C180.241 26.1933 181.161 26.88 182.441 26.88C183.721 26.88 184.641 26.1933 185.201 24.82C185.615 23.8067 185.821 22.4867 185.821 20.86C185.821 19.2067 185.615 17.8867 185.201 16.9C184.641 15.5267 183.721 14.84 182.441 14.84ZM194.634 13.44C195.954 13.44 197.04 13.82 197.894 14.58C198.747 15.3533 199.174 16.36 199.174 17.6C199.174 18.8267 198.707 19.9467 197.774 20.96C197.227 21.5333 196.24 22.3 194.814 23.26C193 24.4733 191.96 25.5667 191.694 26.54H199.194V28H189.674C189.674 26.68 190.147 25.5 191.094 24.46C191.707 23.7667 192.74 22.92 194.194 21.92C195.327 21.1067 196.074 20.5133 196.434 20.14C197.167 19.34 197.534 18.4867 197.534 17.58C197.534 16.7133 197.274 16.04 196.754 15.56C196.234 15.08 195.507 14.84 194.574 14.84C193.574 14.84 192.82 15.1733 192.314 15.84C191.74 16.4933 191.447 17.4467 191.434 18.7H189.794C189.794 17.1133 190.24 15.84 191.134 14.88C192.014 13.92 193.18 13.44 194.634 13.44ZM206.426 13.44C208.132 13.44 209.419 14.1933 210.286 15.7C211.046 16.98 211.426 18.7 211.426 20.86C211.426 23.02 211.046 24.74 210.286 26.02C209.406 27.5267 208.119 28.28 206.426 28.28C204.719 28.28 203.432 27.5267 202.566 26.02C201.806 24.74 201.426 23.02 201.426 20.86C201.426 18.7 201.806 16.98 202.566 15.7C203.419 14.1933 204.706 13.44 206.426 13.44ZM206.426 14.84C205.146 14.84 204.226 15.5267 203.666 16.9C203.266 17.86 203.066 19.18 203.066 20.86C203.066 22.5133 203.266 23.8333 203.666 24.82C204.226 26.1933 205.146 26.88 206.426 26.88C207.706 26.88 208.626 26.1933 209.186 24.82C209.599 23.8067 209.806 22.4867 209.806 20.86C209.806 19.2067 209.599 17.8867 209.186 16.9C208.626 15.5267 207.706 14.84 206.426 14.84ZM215.058 25.62C215.405 25.62 215.691 25.7333 215.918 25.96C216.158 26.1733 216.278 26.4533 216.278 26.8C216.278 27.1467 216.158 27.4333 215.918 27.66C215.665 27.8867 215.378 28 215.058 28C214.738 28 214.451 27.8867 214.198 27.66C213.958 27.42 213.838 27.1333 213.838 26.8C213.838 26.4533 213.958 26.1733 214.198 25.96C214.425 25.7333 214.711 25.62 215.058 25.62ZM224.911 13.72V28H223.271V15.72C222.391 16.6267 221.271 17.28 219.911 17.68V16.04C220.538 15.8667 221.205 15.5733 221.911 15.16C222.565 14.76 223.138 14.28 223.631 13.72H224.911ZM235.684 13.44C237.39 13.44 238.677 14.1933 239.544 15.7C240.304 16.98 240.684 18.7 240.684 20.86C240.684 23.02 240.304 24.74 239.544 26.02C238.664 27.5267 237.377 28.28 235.684 28.28C233.977 28.28 232.69 27.5267 231.824 26.02C231.064 24.74 230.684 23.02 230.684 20.86C230.684 18.7 231.064 16.98 231.824 15.7C232.677 14.1933 233.964 13.44 235.684 13.44ZM235.684 14.84C234.404 14.84 233.484 15.5267 232.924 16.9C232.524 17.86 232.324 19.18 232.324 20.86C232.324 22.5133 232.524 23.8333 232.924 24.82C233.484 26.1933 234.404 26.88 235.684 26.88C236.964 26.88 237.884 26.1933 238.444 24.82C238.857 23.8067 239.064 22.4867 239.064 20.86C239.064 19.2067 238.857 17.8867 238.444 16.9C237.884 15.5267 236.964 14.84 235.684 14.84Z" fill="white"/>
<circle cx="203.062" cy="50" r="7" fill="#94BFFF"/>
<circle cx="203.062" cy="50" r="9" stroke="white" stroke-opacity="0.1" stroke-width="4"/>
<path d="M337.822 12.44C336.282 12.44 335.042 12.96 334.102 14C333.182 14.98 332.722 16.26 332.702 17.86H335.042C335.082 16.74 335.322 15.88 335.762 15.32C336.202 14.72 336.862 14.42 337.742 14.42C338.562 14.42 339.182 14.6 339.602 14.98C340.002 15.36 340.222 15.94 340.222 16.72C340.222 17.52 339.902 18.28 339.282 18.98C338.882 19.4 338.242 19.94 337.322 20.58C335.662 21.72 334.562 22.6 334.042 23.2C333.082 24.28 332.622 25.54 332.622 27H342.582V24.94H335.542C335.862 24.22 336.742 23.38 338.202 22.42C339.602 21.48 340.602 20.72 341.162 20.12C342.082 19.1 342.562 17.98 342.562 16.74C342.562 15.46 342.122 14.44 341.242 13.64C340.342 12.84 339.202 12.44 337.822 12.44ZM349.594 12.44C347.914 12.44 346.614 13.12 345.694 14.52C344.814 15.84 344.374 17.62 344.374 19.86C344.374 22.1 344.814 23.88 345.694 25.2C346.614 26.58 347.914 27.28 349.594 27.28C351.254 27.28 352.554 26.58 353.494 25.2C354.374 23.88 354.814 22.1 354.814 19.86C354.814 17.62 354.374 15.84 353.494 14.52C352.554 13.12 351.254 12.44 349.594 12.44ZM349.594 14.42C350.714 14.42 351.514 15.04 351.994 16.32C352.314 17.18 352.474 18.36 352.474 19.86C352.474 21.34 352.314 22.52 351.994 23.4C351.514 24.66 350.714 25.3 349.594 25.3C348.454 25.3 347.654 24.66 347.194 23.4C346.874 22.52 346.714 21.34 346.714 19.86C346.714 18.36 346.874 17.18 347.194 16.32C347.654 15.04 348.454 14.42 349.594 14.42ZM361.806 12.44C360.266 12.44 359.026 12.96 358.086 14C357.166 14.98 356.706 16.26 356.686 17.86H359.026C359.066 16.74 359.306 15.88 359.746 15.32C360.186 14.72 360.846 14.42 361.726 14.42C362.546 14.42 363.166 14.6 363.586 14.98C363.986 15.36 364.206 15.94 364.206 16.72C364.206 17.52 363.886 18.28 363.266 18.98C362.866 19.4 362.226 19.94 361.306 20.58C359.646 21.72 358.546 22.6 358.026 23.2C357.066 24.28 356.606 25.54 356.606 27H366.566V24.94H359.526C359.846 24.22 360.726 23.38 362.186 22.42C363.586 21.48 364.586 20.72 365.146 20.12C366.066 19.1 366.546 17.98 366.546 16.74C366.546 15.46 366.106 14.44 365.226 13.64C364.326 12.84 363.186 12.44 361.806 12.44ZM372.218 12.72C371.738 13.22 371.138 13.68 370.418 14.12C369.698 14.52 369.018 14.8 368.378 14.96V17.28C369.698 16.9 370.778 16.32 371.638 15.54V27H373.978V12.72H372.218ZM378.521 23.98C378.081 23.98 377.701 24.12 377.421 24.44C377.101 24.74 376.961 25.12 376.961 25.56C376.961 26 377.101 26.36 377.421 26.68C377.701 26.96 378.081 27.12 378.521 27.12C378.961 27.12 379.321 26.96 379.641 26.68C379.941 26.36 380.101 26 380.101 25.56C380.101 25.12 379.941 24.74 379.641 24.44C379.321 24.12 378.961 23.98 378.521 23.98ZM387.289 12.44C385.609 12.44 384.309 13.12 383.389 14.52C382.509 15.84 382.069 17.62 382.069 19.86C382.069 22.1 382.509 23.88 383.389 25.2C384.309 26.58 385.609 27.28 387.289 27.28C388.949 27.28 390.249 26.58 391.189 25.2C392.069 23.88 392.509 22.1 392.509 19.86C392.509 17.62 392.069 15.84 391.189 14.52C390.249 13.12 388.949 12.44 387.289 12.44ZM387.289 14.42C388.409 14.42 389.209 15.04 389.689 16.32C390.009 17.18 390.169 18.36 390.169 19.86C390.169 21.34 390.009 22.52 389.689 23.4C389.209 24.66 388.409 25.3 387.289 25.3C386.149 25.3 385.349 24.66 384.889 23.4C384.569 22.52 384.409 21.34 384.409 19.86C384.409 18.36 384.569 17.18 384.889 16.32C385.349 15.04 386.149 14.42 387.289 14.42ZM399.281 12.44C397.741 12.44 396.521 12.84 395.621 13.66C394.801 14.38 394.401 15.28 394.401 16.36C394.401 17.08 394.561 17.7 394.881 18.2C395.221 18.72 395.741 19.14 396.461 19.42V19.46C395.781 19.64 395.221 20.04 394.741 20.66C394.181 21.34 393.921 22.12 393.921 23C393.921 24.28 394.381 25.3 395.321 26.1C396.241 26.88 397.561 27.28 399.281 27.28C400.981 27.28 402.301 26.88 403.241 26.1C404.161 25.3 404.641 24.28 404.641 23C404.641 22.12 404.361 21.34 403.821 20.66C403.341 20.04 402.761 19.64 402.101 19.46V19.42C402.801 19.14 403.321 18.72 403.681 18.2C404.001 17.7 404.161 17.08 404.161 16.36C404.161 15.28 403.741 14.38 402.941 13.66C402.021 12.84 400.801 12.44 399.281 12.44ZM399.281 14.3C400.121 14.3 400.781 14.52 401.301 14.98C401.741 15.38 401.961 15.86 401.961 16.44C401.961 17.1 401.781 17.62 401.421 18C400.981 18.46 400.261 18.7 399.281 18.7C398.281 18.7 397.581 18.46 397.141 18C396.781 17.62 396.601 17.1 396.601 16.44C396.601 15.86 396.821 15.38 397.261 14.98C397.761 14.52 398.441 14.3 399.281 14.3ZM399.281 20.44C400.281 20.44 401.041 20.68 401.581 21.18C402.061 21.62 402.321 22.24 402.321 23C402.321 23.72 402.061 24.28 401.561 24.72C401.001 25.16 400.241 25.4 399.281 25.4C398.301 25.4 397.561 25.18 397.041 24.74C396.501 24.3 396.241 23.72 396.241 23C396.241 22.24 396.481 21.62 397.001 21.16C397.521 20.68 398.281 20.44 399.281 20.44Z" fill="white"/>
<circle cx="368.438" cy="50" r="8" fill="white"/>
<circle cx="368.438" cy="50" r="10" stroke="white" stroke-opacity="0.1" stroke-width="4"/>
<path d="M501.399 13.44C502.719 13.44 503.806 13.82 504.659 14.58C505.513 15.3533 505.939 16.36 505.939 17.6C505.939 18.8267 505.473 19.9467 504.539 20.96C503.993 21.5333 503.006 22.3 501.579 23.26C499.766 24.4733 498.726 25.5667 498.459 26.54H505.959V28H496.439C496.439 26.68 496.913 25.5 497.859 24.46C498.473 23.7667 499.506 22.92 500.959 21.92C502.093 21.1067 502.839 20.5133 503.199 20.14C503.933 19.34 504.299 18.4867 504.299 17.58C504.299 16.7133 504.039 16.04 503.519 15.56C502.999 15.08 502.273 14.84 501.339 14.84C500.339 14.84 499.586 15.1733 499.079 15.84C498.506 16.4933 498.213 17.4467 498.199 18.7H496.559C496.559 17.1133 497.006 15.84 497.899 14.88C498.779 13.92 499.946 13.44 501.399 13.44ZM513.191 13.44C514.898 13.44 516.185 14.1933 517.051 15.7C517.811 16.98 518.191 18.7 518.191 20.86C518.191 23.02 517.811 24.74 517.051 26.02C516.171 27.5267 514.885 28.28 513.191 28.28C511.485 28.28 510.198 27.5267 509.331 26.02C508.571 24.74 508.191 23.02 508.191 20.86C508.191 18.7 508.571 16.98 509.331 15.7C510.185 14.1933 511.471 13.44 513.191 13.44ZM513.191 14.84C511.911 14.84 510.991 15.5267 510.431 16.9C510.031 17.86 509.831 19.18 509.831 20.86C509.831 22.5133 510.031 23.8333 510.431 24.82C510.991 26.1933 511.911 26.88 513.191 26.88C514.471 26.88 515.391 26.1933 515.951 24.82C516.365 23.8067 516.571 22.4867 516.571 20.86C516.571 19.2067 516.365 17.8867 515.951 16.9C515.391 15.5267 514.471 14.84 513.191 14.84ZM525.384 13.44C526.704 13.44 527.79 13.82 528.644 14.58C529.497 15.3533 529.924 16.36 529.924 17.6C529.924 18.8267 529.457 19.9467 528.524 20.96C527.977 21.5333 526.99 22.3 525.564 23.26C523.75 24.4733 522.71 25.5667 522.444 26.54H529.944V28H520.424C520.424 26.68 520.897 25.5 521.844 24.46C522.457 23.7667 523.49 22.92 524.944 21.92C526.077 21.1067 526.824 20.5133 527.184 20.14C527.917 19.34 528.284 18.4867 528.284 17.58C528.284 16.7133 528.024 16.04 527.504 15.56C526.984 15.08 526.257 14.84 525.324 14.84C524.324 14.84 523.57 15.1733 523.064 15.84C522.49 16.4933 522.197 17.4467 522.184 18.7H520.544C520.544 17.1133 520.99 15.84 521.884 14.88C522.764 13.92 523.93 13.44 525.384 13.44ZM538.396 13.72V28H536.756V15.72C535.876 16.6267 534.756 17.28 533.396 17.68V16.04C534.022 15.8667 534.689 15.5733 535.396 15.16C536.049 14.76 536.622 14.28 537.116 13.72H538.396ZM545.808 25.62C546.155 25.62 546.441 25.7333 546.668 25.96C546.908 26.1733 547.028 26.4533 547.028 26.8C547.028 27.1467 546.908 27.4333 546.668 27.66C546.415 27.8867 546.128 28 545.808 28C545.488 28 545.201 27.8867 544.948 27.66C544.708 27.42 544.588 27.1333 544.588 26.8C544.588 26.4533 544.708 26.1733 544.948 25.96C545.175 25.7333 545.461 25.62 545.808 25.62ZM555.661 13.72V28H554.021V15.72C553.141 16.6267 552.021 17.28 550.661 17.68V16.04C551.288 15.8667 551.955 15.5733 552.661 15.16C553.315 14.76 553.888 14.28 554.381 13.72H555.661ZM566.434 13.44C568.14 13.44 569.427 14.1933 570.294 15.7C571.054 16.98 571.434 18.7 571.434 20.86C571.434 23.02 571.054 24.74 570.294 26.02C569.414 27.5267 568.127 28.28 566.434 28.28C564.727 28.28 563.44 27.5267 562.574 26.02C561.814 24.74 561.434 23.02 561.434 20.86C561.434 18.7 561.814 16.98 562.574 15.7C563.427 14.1933 564.714 13.44 566.434 13.44ZM566.434 14.84C565.154 14.84 564.234 15.5267 563.674 16.9C563.274 17.86 563.074 19.18 563.074 20.86C563.074 22.5133 563.274 23.8333 563.674 24.82C564.234 26.1933 565.154 26.88 566.434 26.88C567.714 26.88 568.634 26.1933 569.194 24.82C569.607 23.8067 569.814 22.4867 569.814 20.86C569.814 19.2067 569.607 17.8867 569.194 16.9C568.634 15.5267 567.714 14.84 566.434 14.84Z" fill="white"/>
<circle cx="533.812" cy="50" r="7" fill="#94BFFF"/>
<circle cx="533.812" cy="50" r="9" stroke="white" stroke-opacity="0.1" stroke-width="4"/>
<path d="M666.774 13.44C668.094 13.44 669.181 13.82 670.034 14.58C670.888 15.3533 671.314 16.36 671.314 17.6C671.314 18.8267 670.848 19.9467 669.914 20.96C669.368 21.5333 668.381 22.3 666.954 23.26C665.141 24.4733 664.101 25.5667 663.834 26.54H671.334V28H661.814C661.814 26.68 662.288 25.5 663.234 24.46C663.848 23.7667 664.881 22.92 666.334 21.92C667.468 21.1067 668.214 20.5133 668.574 20.14C669.308 19.34 669.674 18.4867 669.674 17.58C669.674 16.7133 669.414 16.04 668.894 15.56C668.374 15.08 667.648 14.84 666.714 14.84C665.714 14.84 664.961 15.1733 664.454 15.84C663.881 16.4933 663.588 17.4467 663.574 18.7H661.934C661.934 17.1133 662.381 15.84 663.274 14.88C664.154 13.92 665.321 13.44 666.774 13.44ZM678.566 13.44C680.273 13.44 681.56 14.1933 682.426 15.7C683.186 16.98 683.566 18.7 683.566 20.86C683.566 23.02 683.186 24.74 682.426 26.02C681.546 27.5267 680.26 28.28 678.566 28.28C676.86 28.28 675.573 27.5267 674.706 26.02C673.946 24.74 673.566 23.02 673.566 20.86C673.566 18.7 673.946 16.98 674.706 15.7C675.56 14.1933 676.846 13.44 678.566 13.44ZM678.566 14.84C677.286 14.84 676.366 15.5267 675.806 16.9C675.406 17.86 675.206 19.18 675.206 20.86C675.206 22.5133 675.406 23.8333 675.806 24.82C676.366 26.1933 677.286 26.88 678.566 26.88C679.846 26.88 680.766 26.1933 681.326 24.82C681.74 23.8067 681.946 22.4867 681.946 20.86C681.946 19.2067 681.74 17.8867 681.326 16.9C680.766 15.5267 679.846 14.84 678.566 14.84ZM690.759 13.44C692.079 13.44 693.165 13.82 694.019 14.58C694.872 15.3533 695.299 16.36 695.299 17.6C695.299 18.8267 694.832 19.9467 693.899 20.96C693.352 21.5333 692.365 22.3 690.939 23.26C689.125 24.4733 688.085 25.5667 687.819 26.54H695.319V28H685.799C685.799 26.68 686.272 25.5 687.219 24.46C687.832 23.7667 688.865 22.92 690.319 21.92C691.452 21.1067 692.199 20.5133 692.559 20.14C693.292 19.34 693.659 18.4867 693.659 17.58C693.659 16.7133 693.399 16.04 692.879 15.56C692.359 15.08 691.632 14.84 690.699 14.84C689.699 14.84 688.945 15.1733 688.439 15.84C687.865 16.4933 687.572 17.4467 687.559 18.7H685.919C685.919 17.1133 686.365 15.84 687.259 14.88C688.139 13.92 689.305 13.44 690.759 13.44ZM702.751 13.44C704.071 13.44 705.157 13.82 706.011 14.58C706.864 15.3533 707.291 16.36 707.291 17.6C707.291 18.8267 706.824 19.9467 705.891 20.96C705.344 21.5333 704.357 22.3 702.931 23.26C701.117 24.4733 700.077 25.5667 699.811 26.54H707.311V28H697.791C697.791 26.68 698.264 25.5 699.211 24.46C699.824 23.7667 700.857 22.92 702.311 21.92C703.444 21.1067 704.191 20.5133 704.551 20.14C705.284 19.34 705.651 18.4867 705.651 17.58C705.651 16.7133 705.391 16.04 704.871 15.56C704.351 15.08 703.624 14.84 702.691 14.84C701.691 14.84 700.937 15.1733 700.431 15.84C699.857 16.4933 699.564 17.4467 699.551 18.7H697.911C697.911 17.1133 698.357 15.84 699.251 14.88C700.131 13.92 701.297 13.44 702.751 13.44ZM711.183 25.62C711.53 25.62 711.816 25.7333 712.043 25.96C712.283 26.1733 712.403 26.4533 712.403 26.8C712.403 27.1467 712.283 27.4333 712.043 27.66C711.79 27.8867 711.503 28 711.183 28C710.863 28 710.576 27.8867 710.323 27.66C710.083 27.42 709.963 27.1333 709.963 26.8C709.963 26.4533 710.083 26.1733 710.323 25.96C710.55 25.7333 710.836 25.62 711.183 25.62ZM719.816 13.44C721.523 13.44 722.81 14.1933 723.676 15.7C724.436 16.98 724.816 18.7 724.816 20.86C724.816 23.02 724.436 24.74 723.676 26.02C722.796 27.5267 721.51 28.28 719.816 28.28C718.11 28.28 716.823 27.5267 715.956 26.02C715.196 24.74 714.816 23.02 714.816 20.86C714.816 18.7 715.196 16.98 715.956 15.7C716.81 14.1933 718.096 13.44 719.816 13.44ZM719.816 14.84C718.536 14.84 717.616 15.5267 717.056 16.9C716.656 17.86 716.456 19.18 716.456 20.86C716.456 22.5133 716.656 23.8333 717.056 24.82C717.616 26.1933 718.536 26.88 719.816 26.88C721.096 26.88 722.016 26.1933 722.576 24.82C722.99 23.8067 723.196 22.4867 723.196 20.86C723.196 19.2067 722.99 17.8867 722.576 16.9C722.016 15.5267 721.096 14.84 719.816 14.84ZM727.909 13.72H736.209V15.18H729.249L728.769 19.96H728.849C729.249 19.48 729.762 19.12 730.389 18.88C730.922 18.6533 731.529 18.54 732.209 18.54C733.569 18.54 734.669 18.9667 735.509 19.82C736.362 20.7133 736.789 21.92 736.789 23.44C736.789 24.88 736.275 26.06 735.249 26.98C734.275 27.8467 733.089 28.28 731.689 28.28C730.422 28.28 729.349 27.94 728.469 27.26C727.482 26.5 726.935 25.4667 726.829 24.16H728.449C728.529 25.0667 728.889 25.76 729.529 26.24C730.102 26.6667 730.829 26.88 731.709 26.88C732.709 26.88 733.535 26.56 734.189 25.92C734.842 25.2667 735.169 24.4467 735.169 23.46C735.169 22.34 734.862 21.46 734.249 20.82C733.675 20.1933 732.862 19.88 731.809 19.88C731.129 19.88 730.522 20.0267 729.989 20.32C729.415 20.6 728.989 21.0267 728.709 21.6H727.149L727.909 13.72Z" fill="white"/>
<circle cx="699.188" cy="50" r="7" fill="#94BFFF"/>
<circle cx="699.188" cy="50" r="9" stroke="white" stroke-opacity="0.1" stroke-width="4"/>
<path d="M832.149 13.44C833.469 13.44 834.556 13.82 835.409 14.58C836.263 15.3533 836.689 16.36 836.689 17.6C836.689 18.8267 836.223 19.9467 835.289 20.96C834.743 21.5333 833.756 22.3 832.329 23.26C830.516 24.4733 829.476 25.5667 829.209 26.54H836.709V28H827.189C827.189 26.68 827.663 25.5 828.609 24.46C829.223 23.7667 830.256 22.92 831.709 21.92C832.843 21.1067 833.589 20.5133 833.949 20.14C834.683 19.34 835.049 18.4867 835.049 17.58C835.049 16.7133 834.789 16.04 834.269 15.56C833.749 15.08 833.023 14.84 832.089 14.84C831.089 14.84 830.336 15.1733 829.829 15.84C829.256 16.4933 828.963 17.4467 828.949 18.7H827.309C827.309 17.1133 827.756 15.84 828.649 14.88C829.529 13.92 830.696 13.44 832.149 13.44ZM843.941 13.44C845.648 13.44 846.935 14.1933 847.801 15.7C848.561 16.98 848.941 18.7 848.941 20.86C848.941 23.02 848.561 24.74 847.801 26.02C846.921 27.5267 845.635 28.28 843.941 28.28C842.235 28.28 840.948 27.5267 840.081 26.02C839.321 24.74 838.941 23.02 838.941 20.86C838.941 18.7 839.321 16.98 840.081 15.7C840.935 14.1933 842.221 13.44 843.941 13.44ZM843.941 14.84C842.661 14.84 841.741 15.5267 841.181 16.9C840.781 17.86 840.581 19.18 840.581 20.86C840.581 22.5133 840.781 23.8333 841.181 24.82C841.741 26.1933 842.661 26.88 843.941 26.88C845.221 26.88 846.141 26.1933 846.701 24.82C847.115 23.8067 847.321 22.4867 847.321 20.86C847.321 19.2067 847.115 17.8867 846.701 16.9C846.141 15.5267 845.221 14.84 843.941 14.84ZM856.134 13.44C857.454 13.44 858.54 13.82 859.394 14.58C860.247 15.3533 860.674 16.36 860.674 17.6C860.674 18.8267 860.207 19.9467 859.274 20.96C858.727 21.5333 857.74 22.3 856.314 23.26C854.5 24.4733 853.46 25.5667 853.194 26.54H860.694V28H851.174C851.174 26.68 851.647 25.5 852.594 24.46C853.207 23.7667 854.24 22.92 855.694 21.92C856.827 21.1067 857.574 20.5133 857.934 20.14C858.667 19.34 859.034 18.4867 859.034 17.58C859.034 16.7133 858.774 16.04 858.254 15.56C857.734 15.08 857.007 14.84 856.074 14.84C855.074 14.84 854.32 15.1733 853.814 15.84C853.24 16.4933 852.947 17.4467 852.934 18.7H851.294C851.294 17.1133 851.74 15.84 852.634 14.88C853.514 13.92 854.68 13.44 856.134 13.44ZM868.126 13.44C869.446 13.44 870.532 13.82 871.386 14.58C872.239 15.3533 872.666 16.36 872.666 17.6C872.666 18.8267 872.199 19.9467 871.266 20.96C870.719 21.5333 869.732 22.3 868.306 23.26C866.492 24.4733 865.452 25.5667 865.186 26.54H872.686V28H863.166C863.166 26.68 863.639 25.5 864.586 24.46C865.199 23.7667 866.232 22.92 867.686 21.92C868.819 21.1067 869.566 20.5133 869.926 20.14C870.659 19.34 871.026 18.4867 871.026 17.58C871.026 16.7133 870.766 16.04 870.246 15.56C869.726 15.08 868.999 14.84 868.066 14.84C867.066 14.84 866.312 15.1733 865.806 15.84C865.232 16.4933 864.939 17.4467 864.926 18.7H863.286C863.286 17.1133 863.732 15.84 864.626 14.88C865.506 13.92 866.672 13.44 868.126 13.44ZM876.558 25.62C876.905 25.62 877.191 25.7333 877.418 25.96C877.658 26.1733 877.778 26.4533 877.778 26.8C877.778 27.1467 877.658 27.4333 877.418 27.66C877.165 27.8867 876.878 28 876.558 28C876.238 28 875.951 27.8867 875.698 27.66C875.458 27.42 875.338 27.1333 875.338 26.8C875.338 26.4533 875.458 26.1733 875.698 25.96C875.925 25.7333 876.211 25.62 876.558 25.62ZM885.191 13.44C886.898 13.44 888.185 14.1933 889.051 15.7C889.811 16.98 890.191 18.7 890.191 20.86C890.191 23.02 889.811 24.74 889.051 26.02C888.171 27.5267 886.885 28.28 885.191 28.28C883.485 28.28 882.198 27.5267 881.331 26.02C880.571 24.74 880.191 23.02 880.191 20.86C880.191 18.7 880.571 16.98 881.331 15.7C882.185 14.1933 883.471 13.44 885.191 13.44ZM885.191 14.84C883.911 14.84 882.991 15.5267 882.431 16.9C882.031 17.86 881.831 19.18 881.831 20.86C881.831 22.5133 882.031 23.8333 882.431 24.82C882.991 26.1933 883.911 26.88 885.191 26.88C886.471 26.88 887.391 26.1933 887.951 24.82C888.365 23.8067 888.571 22.4867 888.571 20.86C888.571 19.2067 888.365 17.8867 887.951 16.9C887.391 15.5267 886.471 14.84 885.191 14.84ZM897.384 13.44C900.024 13.44 901.544 14.7133 901.944 17.26H900.324C900.004 15.6333 899.017 14.82 897.364 14.82C896.23 14.82 895.35 15.3733 894.724 16.48C894.097 17.4933 893.784 18.8267 893.784 20.48C893.784 20.6533 893.79 20.8267 893.804 21H893.884C894.257 20.24 894.77 19.6667 895.424 19.28C896.05 18.8667 896.79 18.66 897.644 18.66C899.004 18.66 900.104 19.1 900.944 19.98C901.77 20.8733 902.184 22.0067 902.184 23.38C902.184 24.78 901.73 25.9467 900.824 26.88C899.89 27.8133 898.737 28.28 897.364 28.28C895.644 28.28 894.337 27.6333 893.444 26.34C892.617 25.14 892.204 23.44 892.204 21.24C892.204 18.9467 892.65 17.0933 893.544 15.68C894.477 14.1867 895.757 13.44 897.384 13.44ZM897.324 20.02C896.39 20.02 895.61 20.34 894.984 20.98C894.37 21.6067 894.064 22.42 894.064 23.42C894.064 24.4333 894.357 25.2533 894.944 25.88C895.544 26.56 896.337 26.9 897.324 26.9C898.27 26.9 899.05 26.5733 899.664 25.92C900.264 25.24 900.564 24.3933 900.564 23.38C900.564 22.38 900.27 21.5733 899.684 20.96C899.097 20.3333 898.31 20.02 897.324 20.02Z" fill="white"/>
<circle cx="864.562" cy="50" r="7" fill="#94BFFF"/>
<circle cx="864.562" cy="50" r="9" stroke="white" stroke-opacity="0.1" stroke-width="4"/>
<path d="M997.524 13.44C998.844 13.44 999.931 13.82 1000.78 14.58C1001.64 15.3533 1002.06 16.36 1002.06 17.6C1002.06 18.8267 1001.6 19.9467 1000.66 20.96C1000.12 21.5333 999.131 22.3 997.704 23.26C995.891 24.4733 994.851 25.5667 994.584 26.54H1002.08V28H992.564C992.564 26.68 993.038 25.5 993.984 24.46C994.598 23.7667 995.631 22.92 997.084 21.92C998.218 21.1067 998.964 20.5133 999.324 20.14C1000.06 19.34 1000.42 18.4867 1000.42 17.58C1000.42 16.7133 1000.16 16.04 999.644 15.56C999.124 15.08 998.398 14.84 997.464 14.84C996.464 14.84 995.711 15.1733 995.204 15.84C994.631 16.4933 994.338 17.4467 994.324 18.7H992.684C992.684 17.1133 993.131 15.84 994.024 14.88C994.904 13.92 996.071 13.44 997.524 13.44ZM1009.32 13.44C1011.02 13.44 1012.31 14.1933 1013.18 15.7C1013.94 16.98 1014.32 18.7 1014.32 20.86C1014.32 23.02 1013.94 24.74 1013.18 26.02C1012.3 27.5267 1011.01 28.28 1009.32 28.28C1007.61 28.28 1006.32 27.5267 1005.46 26.02C1004.7 24.74 1004.32 23.02 1004.32 20.86C1004.32 18.7 1004.7 16.98 1005.46 15.7C1006.31 14.1933 1007.6 13.44 1009.32 13.44ZM1009.32 14.84C1008.04 14.84 1007.12 15.5267 1006.56 16.9C1006.16 17.86 1005.96 19.18 1005.96 20.86C1005.96 22.5133 1006.16 23.8333 1006.56 24.82C1007.12 26.1933 1008.04 26.88 1009.32 26.88C1010.6 26.88 1011.52 26.1933 1012.08 24.82C1012.49 23.8067 1012.7 22.4867 1012.7 20.86C1012.7 19.2067 1012.49 17.8867 1012.08 16.9C1011.52 15.5267 1010.6 14.84 1009.32 14.84ZM1021.51 13.44C1022.83 13.44 1023.92 13.82 1024.77 14.58C1025.62 15.3533 1026.05 16.36 1026.05 17.6C1026.05 18.8267 1025.58 19.9467 1024.65 20.96C1024.1 21.5333 1023.12 22.3 1021.69 23.26C1019.88 24.4733 1018.84 25.5667 1018.57 26.54H1026.07V28H1016.55C1016.55 26.68 1017.02 25.5 1017.97 24.46C1018.58 23.7667 1019.62 22.92 1021.07 21.92C1022.2 21.1067 1022.95 20.5133 1023.31 20.14C1024.04 19.34 1024.41 18.4867 1024.41 17.58C1024.41 16.7133 1024.15 16.04 1023.63 15.56C1023.11 15.08 1022.38 14.84 1021.45 14.84C1020.45 14.84 1019.7 15.1733 1019.19 15.84C1018.62 16.4933 1018.32 17.4467 1018.31 18.7H1016.67C1016.67 17.1133 1017.12 15.84 1018.01 14.88C1018.89 13.92 1020.06 13.44 1021.51 13.44ZM1033.5 13.44C1034.82 13.44 1035.91 13.82 1036.76 14.58C1037.61 15.3533 1038.04 16.36 1038.04 17.6C1038.04 18.8267 1037.57 19.9467 1036.64 20.96C1036.09 21.5333 1035.11 22.3 1033.68 23.26C1031.87 24.4733 1030.83 25.5667 1030.56 26.54H1038.06V28H1028.54C1028.54 26.68 1029.01 25.5 1029.96 24.46C1030.57 23.7667 1031.61 22.92 1033.06 21.92C1034.19 21.1067 1034.94 20.5133 1035.3 20.14C1036.03 19.34 1036.4 18.4867 1036.4 17.58C1036.4 16.7133 1036.14 16.04 1035.62 15.56C1035.1 15.08 1034.37 14.84 1033.44 14.84C1032.44 14.84 1031.69 15.1733 1031.18 15.84C1030.61 16.4933 1030.31 17.4467 1030.3 18.7H1028.66C1028.66 17.1133 1029.11 15.84 1030 14.88C1030.88 13.92 1032.05 13.44 1033.5 13.44ZM1041.93 25.62C1042.28 25.62 1042.57 25.7333 1042.79 25.96C1043.03 26.1733 1043.15 26.4533 1043.15 26.8C1043.15 27.1467 1043.03 27.4333 1042.79 27.66C1042.54 27.8867 1042.25 28 1041.93 28C1041.61 28 1041.33 27.8867 1041.07 27.66C1040.83 27.42 1040.71 27.1333 1040.71 26.8C1040.71 26.4533 1040.83 26.1733 1041.07 25.96C1041.3 25.7333 1041.59 25.62 1041.93 25.62ZM1050.57 13.44C1052.27 13.44 1053.56 14.1933 1054.43 15.7C1055.19 16.98 1055.57 18.7 1055.57 20.86C1055.57 23.02 1055.19 24.74 1054.43 26.02C1053.55 27.5267 1052.26 28.28 1050.57 28.28C1048.86 28.28 1047.57 27.5267 1046.71 26.02C1045.95 24.74 1045.57 23.02 1045.57 20.86C1045.57 18.7 1045.95 16.98 1046.71 15.7C1047.56 14.1933 1048.85 13.44 1050.57 13.44ZM1050.57 14.84C1049.29 14.84 1048.37 15.5267 1047.81 16.9C1047.41 17.86 1047.21 19.18 1047.21 20.86C1047.21 22.5133 1047.41 23.8333 1047.81 24.82C1048.37 26.1933 1049.29 26.88 1050.57 26.88C1051.85 26.88 1052.77 26.1933 1053.33 24.82C1053.74 23.8067 1053.95 22.4867 1053.95 20.86C1053.95 19.2067 1053.74 17.8867 1053.33 16.9C1052.77 15.5267 1051.85 14.84 1050.57 14.84ZM1062.56 13.44C1064.07 13.44 1065.23 13.8267 1066.06 14.6C1066.83 15.3067 1067.22 16.18 1067.22 17.22C1067.22 17.98 1067.04 18.62 1066.68 19.14C1066.27 19.7133 1065.7 20.1267 1064.98 20.38V20.42C1065.73 20.6067 1066.36 21.02 1066.88 21.66C1067.44 22.34 1067.72 23.14 1067.72 24.06C1067.72 25.3267 1067.28 26.34 1066.4 27.1C1065.47 27.8867 1064.19 28.28 1062.56 28.28C1060.91 28.28 1059.63 27.8867 1058.72 27.1C1057.84 26.34 1057.4 25.3267 1057.4 24.06C1057.4 23.14 1057.68 22.34 1058.24 21.66C1058.77 21.0067 1059.41 20.5933 1060.14 20.42V20.38C1059.39 20.1267 1058.83 19.7133 1058.44 19.14C1058.08 18.62 1057.9 17.98 1057.9 17.22C1057.9 16.1667 1058.29 15.2933 1059.06 14.6C1059.89 13.8267 1061.05 13.44 1062.56 13.44ZM1062.56 14.78C1061.53 14.78 1060.74 15.04 1060.18 15.56C1059.69 16 1059.44 16.5733 1059.44 17.28C1059.44 18.0133 1059.66 18.6 1060.1 19.04C1060.63 19.5733 1061.45 19.84 1062.56 19.84C1063.64 19.84 1064.46 19.5733 1065.02 19.04C1065.46 18.6 1065.68 18.0133 1065.68 17.28C1065.68 16.5867 1065.43 16.0133 1064.94 15.56C1064.37 15.04 1063.57 14.78 1062.56 14.78ZM1062.56 21.12C1061.4 21.12 1060.51 21.4067 1059.9 21.98C1059.31 22.4867 1059.02 23.18 1059.02 24.06C1059.02 24.9267 1059.31 25.6133 1059.9 26.12C1060.51 26.6667 1061.4 26.94 1062.56 26.94C1063.71 26.94 1064.6 26.66 1065.24 26.1C1065.81 25.5667 1066.1 24.8867 1066.1 24.06C1066.1 23.2067 1065.81 22.5133 1065.24 21.98C1064.61 21.4067 1063.72 21.12 1062.56 21.12Z" fill="white"/>
<circle cx="1029.94" cy="50" r="7" fill="#94BFFF"/>
<circle cx="1029.94" cy="50" r="9" stroke="white" stroke-opacity="0.1" stroke-width="4"/>
<path d="M1162.9 13.44C1164.22 13.44 1165.31 13.82 1166.16 14.58C1167.01 15.3533 1167.44 16.36 1167.44 17.6C1167.44 18.8267 1166.97 19.9467 1166.04 20.96C1165.49 21.5333 1164.51 22.3 1163.08 23.26C1161.27 24.4733 1160.23 25.5667 1159.96 26.54H1167.46V28H1157.94C1157.94 26.68 1158.41 25.5 1159.36 24.46C1159.97 23.7667 1161.01 22.92 1162.46 21.92C1163.59 21.1067 1164.34 20.5133 1164.7 20.14C1165.43 19.34 1165.8 18.4867 1165.8 17.58C1165.8 16.7133 1165.54 16.04 1165.02 15.56C1164.5 15.08 1163.77 14.84 1162.84 14.84C1161.84 14.84 1161.09 15.1733 1160.58 15.84C1160.01 16.4933 1159.71 17.4467 1159.7 18.7H1158.06C1158.06 17.1133 1158.51 15.84 1159.4 14.88C1160.28 13.92 1161.45 13.44 1162.9 13.44ZM1174.69 13.44C1176.4 13.44 1177.68 14.1933 1178.55 15.7C1179.31 16.98 1179.69 18.7 1179.69 20.86C1179.69 23.02 1179.31 24.74 1178.55 26.02C1177.67 27.5267 1176.38 28.28 1174.69 28.28C1172.98 28.28 1171.7 27.5267 1170.83 26.02C1170.07 24.74 1169.69 23.02 1169.69 20.86C1169.69 18.7 1170.07 16.98 1170.83 15.7C1171.68 14.1933 1172.97 13.44 1174.69 13.44ZM1174.69 14.84C1173.41 14.84 1172.49 15.5267 1171.93 16.9C1171.53 17.86 1171.33 19.18 1171.33 20.86C1171.33 22.5133 1171.53 23.8333 1171.93 24.82C1172.49 26.1933 1173.41 26.88 1174.69 26.88C1175.97 26.88 1176.89 26.1933 1177.45 24.82C1177.86 23.8067 1178.07 22.4867 1178.07 20.86C1178.07 19.2067 1177.86 17.8867 1177.45 16.9C1176.89 15.5267 1175.97 14.84 1174.69 14.84ZM1186.88 13.44C1188.2 13.44 1189.29 13.82 1190.14 14.58C1191 15.3533 1191.42 16.36 1191.42 17.6C1191.42 18.8267 1190.96 19.9467 1190.02 20.96C1189.48 21.5333 1188.49 22.3 1187.06 23.26C1185.25 24.4733 1184.21 25.5667 1183.94 26.54H1191.44V28H1181.92C1181.92 26.68 1182.4 25.5 1183.34 24.46C1183.96 23.7667 1184.99 22.92 1186.44 21.92C1187.58 21.1067 1188.32 20.5133 1188.68 20.14C1189.42 19.34 1189.78 18.4867 1189.78 17.58C1189.78 16.7133 1189.52 16.04 1189 15.56C1188.48 15.08 1187.76 14.84 1186.82 14.84C1185.82 14.84 1185.07 15.1733 1184.56 15.84C1183.99 16.4933 1183.7 17.4467 1183.68 18.7H1182.04C1182.04 17.1133 1182.49 15.84 1183.38 14.88C1184.26 13.92 1185.43 13.44 1186.88 13.44ZM1198.88 13.44C1200.2 13.44 1201.28 13.82 1202.14 14.58C1202.99 15.3533 1203.42 16.36 1203.42 17.6C1203.42 18.8267 1202.95 19.9467 1202.02 20.96C1201.47 21.5333 1200.48 22.3 1199.06 23.26C1197.24 24.4733 1196.2 25.5667 1195.94 26.54H1203.44V28H1193.92C1193.92 26.68 1194.39 25.5 1195.34 24.46C1195.95 23.7667 1196.98 22.92 1198.44 21.92C1199.57 21.1067 1200.32 20.5133 1200.68 20.14C1201.41 19.34 1201.78 18.4867 1201.78 17.58C1201.78 16.7133 1201.52 16.04 1201 15.56C1200.48 15.08 1199.75 14.84 1198.82 14.84C1197.82 14.84 1197.06 15.1733 1196.56 15.84C1195.98 16.4933 1195.69 17.4467 1195.68 18.7H1194.04C1194.04 17.1133 1194.48 15.84 1195.38 14.88C1196.26 13.92 1197.42 13.44 1198.88 13.44ZM1207.31 25.62C1207.65 25.62 1207.94 25.7333 1208.17 25.96C1208.41 26.1733 1208.53 26.4533 1208.53 26.8C1208.53 27.1467 1208.41 27.4333 1208.17 27.66C1207.91 27.8867 1207.63 28 1207.31 28C1206.99 28 1206.7 27.8867 1206.45 27.66C1206.21 27.42 1206.09 27.1333 1206.09 26.8C1206.09 26.4533 1206.21 26.1733 1206.45 25.96C1206.67 25.7333 1206.96 25.62 1207.31 25.62ZM1215.94 13.44C1217.65 13.44 1218.93 14.1933 1219.8 15.7C1220.56 16.98 1220.94 18.7 1220.94 20.86C1220.94 23.02 1220.56 24.74 1219.8 26.02C1218.92 27.5267 1217.63 28.28 1215.94 28.28C1214.23 28.28 1212.95 27.5267 1212.08 26.02C1211.32 24.74 1210.94 23.02 1210.94 20.86C1210.94 18.7 1211.32 16.98 1212.08 15.7C1212.93 14.1933 1214.22 13.44 1215.94 13.44ZM1215.94 14.84C1214.66 14.84 1213.74 15.5267 1213.18 16.9C1212.78 17.86 1212.58 19.18 1212.58 20.86C1212.58 22.5133 1212.78 23.8333 1213.18 24.82C1213.74 26.1933 1214.66 26.88 1215.94 26.88C1217.22 26.88 1218.14 26.1933 1218.7 24.82C1219.11 23.8067 1219.32 22.4867 1219.32 20.86C1219.32 19.2067 1219.11 17.8867 1218.7 16.9C1218.14 15.5267 1217.22 14.84 1215.94 14.84ZM1227.77 13.44C1229.49 13.44 1230.79 14.08 1231.67 15.36C1232.51 16.56 1232.93 18.2667 1232.93 20.48C1232.93 22.72 1232.49 24.5733 1231.59 26.04C1230.62 27.5333 1229.34 28.28 1227.75 28.28C1225.1 28.28 1223.58 27.0067 1223.19 24.46H1224.81C1225.12 26.0867 1226.11 26.9 1227.77 26.9C1228.87 26.9 1229.75 26.3467 1230.41 25.24C1231.04 24.1733 1231.35 22.84 1231.35 21.24L1231.33 20.72H1231.25C1230.89 21.44 1230.38 22.0133 1229.71 22.44C1229.05 22.8533 1228.31 23.06 1227.49 23.06C1226.12 23.06 1225.01 22.6067 1224.17 21.7C1223.36 20.8467 1222.95 19.7267 1222.95 18.34C1222.95 16.9133 1223.41 15.7467 1224.31 14.84C1225.21 13.9067 1226.36 13.44 1227.77 13.44ZM1227.81 14.82C1226.84 14.82 1226.05 15.1467 1225.45 15.8C1224.87 16.44 1224.57 17.2867 1224.57 18.34C1224.57 19.3667 1224.87 20.1733 1225.45 20.76C1226.04 21.3867 1226.83 21.7 1227.81 21.7C1228.73 21.7 1229.51 21.38 1230.15 20.74C1230.77 20.0867 1231.07 19.2733 1231.07 18.3C1231.07 17.3133 1230.78 16.4933 1230.19 15.84C1229.59 15.16 1228.8 14.82 1227.81 14.82Z" fill="white"/>
<circle cx="1195.31" cy="50" r="7" fill="#94BFFF"/>
<circle cx="1195.31" cy="50" r="9" stroke="white" stroke-opacity="0.1" stroke-width="4"/>
</svg>
