<svg width="80" height="80" viewBox="0 0 80 80" fill="none" xmlns="http://www.w3.org/2000/svg">
<g clip-path="url(#clip0_37_5746)">
<path d="M40.7007 49.7375C32.48 45.625 29.1499 35.6276 33.2623 27.408L39.4253 15.0907C39.9911 13.9608 41.2275 13.331 42.474 13.5396L56.678 15.9151C57.2462 16.0104 57.7737 16.2738 58.1903 16.6715L68.6087 26.6126C69.523 27.4854 69.7614 28.8521 69.1956 29.982L63.0326 42.2993C58.9202 50.5205 48.9215 53.8501 40.7007 49.7375Z" fill="#165DFF"/>
<g filter="url(#filter0_b_37_5746)">
<path d="M33.2074 67.3272C20.6662 67.3272 10.5 57.161 10.5 44.6198V25.8269C10.5 24.1027 11.6246 22.5798 13.2734 22.073L32.0539 16.3017C32.8058 16.0707 33.6091 16.0707 34.361 16.3017L53.1406 22.0738C54.7886 22.5806 55.9141 24.1027 55.9141 25.8277V44.6206C55.9141 57.161 45.7479 67.3272 33.2074 67.3272Z" fill="#BEDAFF" fill-opacity="0.5"/>
</g>
<path d="M38.4529 37.1288H38.2406V35.4017C38.2406 32.6991 36.1137 30.5 33.4997 30.5C30.8857 30.5 28.7588 32.6991 28.7588 35.4017V37.1288H28.5465C26.3153 37.1288 24.5 39.0057 24.5 41.3125V47.643C24.5 49.2184 25.7395 50.5 27.2632 50.5H39.7368C41.2605 50.5 42.5 49.2184 42.5 47.643V41.3125C42.4994 39.0057 40.6841 37.1288 38.4529 37.1288ZM31.256 35.4011C31.256 34.122 32.2626 33.0819 33.4991 33.0819C34.7355 33.0819 35.7421 34.1227 35.7421 35.4011V37.1281H31.2554V35.4011H31.256ZM40.0015 47.643C40.0015 47.7941 39.8823 47.9174 39.7361 47.9174H27.2626C27.1165 47.9174 26.9972 47.7941 26.9972 47.643V41.3125C26.9972 40.4299 27.6922 39.7113 28.5459 39.7113H38.4529C39.3065 39.7113 40.0015 40.4299 40.0015 41.3125V47.643Z" fill="#165DFF"/>
</g>
<defs>
<filter id="filter0_b_37_5746" x="6.5" y="12.1284" width="53.4141" height="59.1988" filterUnits="userSpaceOnUse" color-interpolation-filters="sRGB">
<feFlood flood-opacity="0" result="BackgroundImageFix"/>
<feGaussianBlur in="BackgroundImage" stdDeviation="2"/>
<feComposite in2="SourceAlpha" operator="in" result="effect1_backgroundBlur_37_5746"/>
<feBlend mode="normal" in="SourceGraphic" in2="effect1_backgroundBlur_37_5746" result="shape"/>
</filter>
<clipPath id="clip0_37_5746">
<rect width="60" height="55" fill="white" transform="translate(10 12.5)"/>
</clipPath>
</defs>
</svg>
