<svg width="138" height="22" viewBox="0 0 138 22" fill="none" xmlns="http://www.w3.org/2000/svg">
<path d="M26.5839 5.50008H25.667C22.6294 5.50008 20.167 7.96249 20.167 11.0002V16.5002C20.167 16.9865 19.9738 17.4528 19.63 17.7966C19.2862 18.1404 18.8198 18.3336 18.3336 18.3336C17.8474 18.3336 17.381 18.1404 17.0372 17.7966C16.6934 17.4528 16.5002 16.9865 16.5002 16.5002V5.50008C16.5002 2.46241 14.0378 0 11.0002 0C7.96249 0 5.50008 2.46241 5.50008 5.50008V9.1668C5.50012 9.40757 5.45273 9.646 5.36061 9.86845C5.26849 10.0909 5.13345 10.293 4.9632 10.4633C4.79295 10.6335 4.59082 10.7686 4.36837 10.8607C4.14592 10.9528 3.90749 11.0002 3.66672 11.0002H0.916517C0.673442 11.0002 0.440322 11.0967 0.268442 11.2686C0.0965613 11.4405 0 11.6736 0 11.9167C0 12.1598 0.0965613 12.3929 0.268442 12.5648C0.440322 12.7366 0.673442 12.8332 0.916517 12.8332H3.66672C6.7044 12.8332 9.1668 10.3708 9.1668 7.33312V5.49976C9.1668 5.01352 9.35996 4.5472 9.70378 4.20337C10.0476 3.85955 10.5139 3.6664 11.0002 3.6664C11.4864 3.6664 11.9527 3.85955 12.2965 4.20337C12.6404 4.5472 12.8335 5.01352 12.8335 5.49976V16.4999C12.8335 19.5376 15.2959 22 18.3336 22C21.3713 22 23.8337 19.5376 23.8337 16.4999V12.8332C23.8336 12.5924 23.881 12.354 23.9732 12.1315C24.0653 11.9091 24.2003 11.707 24.3706 11.5367C24.5408 11.3665 24.7429 11.2314 24.9654 11.1393C25.1879 11.0472 25.4263 10.9998 25.667 10.9998H26.5839C27.3059 10.9887 27.9945 10.6941 28.5012 10.1796C29.0078 9.66513 29.2918 8.97202 29.2918 8.24996C29.2918 7.52789 29.0078 6.83479 28.5012 6.3203C27.9945 5.80581 27.3059 5.5112 26.5839 5.50008Z" fill="#1D2129"/>
<path d="M0.017334 10.9845H9.403V15.2138H0.017334V10.9845Z" fill="#1D2129"/>
<path d="M20.1777 5.50342H25.4762V10.9506H20.1777V5.50342Z" fill="#1D2129"/>
<path d="M6.59058 3.95435H9.45127V15.1861H6.59058V3.95435Z" fill="#1D2129"/>
<path d="M77.2042 2.07459L75.8865 5.18233H86.9003L86.5523 7.54421H74.892L69.7456 19.8509H65.0964L70.2677 7.54421H66.8119L67.16 5.18233H71.2622L72.5799 2.07459H77.2042ZM85.3589 12.9144L80.4114 14.6796L80.0882 17.0663H85.2346L86.3036 16.1216L85.7815 19.8757H75.5136L76.0108 16.2707L72.9777 17.3398L73.4998 13.71L76.5329 12.616L77.1545 8.09117H81.3313L80.9086 11.0249L85.881 9.23482L85.3589 12.9144ZM84.6379 2.42265L85.1351 4.43647H80.9335L80.4362 2.42265H84.6379Z" fill="#1D2129"/>
<path d="M110.119 7.91714L109.945 9.08564H111.835L111.512 11.4475H109.622L109.249 14.058L104.7 16.1713L110.865 19.4779H103.307L100.672 18.0608L97.6387 19.4779H90.0807L97.1415 16.1713L93.1884 14.058L93.5614 11.4475H91.6719L91.9951 9.08564H93.8846L94.0586 7.91714H98.31L98.136 9.08564H105.694L105.868 7.91714H110.119ZM107.111 5.77901H97.6636L97.4647 7.19614H92.2686L92.7907 3.41713H100.349L100.423 2.91989L99.6277 2H105.271L105.072 3.41713H112.63L112.108 7.19614H106.912L107.111 5.77901ZM105.246 12.3923L105.371 11.4475H97.8128L97.6885 12.3923L101.194 14.2818L105.246 12.3923Z" fill="url(#paint0_linear_572_11025)"/>
<path d="M127.222 4.75967L124.488 4.98343L124.214 7.02211H127.297L126.949 9.55802H123.841L122.399 19.9006H118.769L120.211 9.55802H117.153L117.501 7.02211H120.584L120.833 5.25691L117.924 5.48067L118.272 2.94475L127.571 2.22376L127.222 4.75967ZM137.142 14.8287L135.775 15.0276L135.079 19.9006H131.151L131.747 15.5497L126.651 16.2459L127.024 13.5857L132.12 12.8895L133.537 2.91989L132.816 2H137.615L136.148 12.3674L137.515 12.1685L137.142 14.8287ZM115.836 19.0055L117.452 10.2542H119.913L118.297 19.0055H115.836ZM123.195 19.0055L123.99 10.2542H126.452L125.631 19.0055H123.195ZM131.573 12.1188H127.869L127.421 8.83703H131.126L131.573 12.1188ZM132.344 7.12155H128.64L128.142 3.83978H131.847L132.344 7.12155Z" fill="url(#paint1_linear_572_11025)"/>
<path d="M53.8857 4.48619L54.9796 2.82044L54.3083 2H58.7835L56.9934 4.75967H57.9382L59.4299 2.42265H61.9907L60.6233 4.75967H61.6923L61.4188 6.6989H55.7255L55.278 7.37017H61.7669L61.4934 9.28454H60.7227L60.847 10.2293H60.8719L60.847 10.279L61.1205 12.3426H60.1758L58.7096 15.4254H59.4921L59.5233 15.6064L59.8028 18.4461L60.0607 19.9907L60.1758 20H57.9382H57.6274L57.3166 19.2293H47.9686L48.242 17.3647H53.0404H55.2282H57.1426L56.8691 15.4254H55.7628H53.5003H49.336L51.3001 11.9448H54.1094L53.0404 13.5111H56.4962L57.1426 12.1437H52.1951L52.0708 12.3426H48.7641L50.7531 9.28454H49.2116L49.4851 7.37017H51.9962L52.4437 6.6989H50.057L50.3304 4.75967H51.1509L50.6536 2.42265H53.3885L53.8857 4.48619ZM43.2448 19.8509L44.3884 18.4834L45.0597 13.7597H43.3691L42.3 19.8509H39.2917L42.1757 3.2431L41.7034 2.42265H49.684L47.4713 18.21C47.405 18.6741 47.2061 19.0636 46.8746 19.3785C46.5597 19.6934 46.2034 19.8509 45.8056 19.8509H43.2448ZM53.4382 10.2293H57.5404L57.4161 9.28454H54.0349L53.4382 10.2293ZM43.7918 11.3978H45.3829L45.6813 9.25968H44.1647L43.7918 11.3978ZM44.5873 6.8978H46.0293L46.3277 4.78453H44.9603L44.5873 6.8978Z" fill="#1D2129"/>
<path d="M54.8743 9.79788L55.5724 9.80209L57.0342 9.86199L54.237 18.2805L51.9478 18.0802L54.8743 9.79788Z" fill="#1D2129"/>
<defs>
<linearGradient id="paint0_linear_572_11025" x1="101.356" y1="2" x2="101.356" y2="19.9006" gradientUnits="userSpaceOnUse">
<stop stop-color="#0052D9"/>
<stop offset="1" stop-color="#4988F0"/>
</linearGradient>
<linearGradient id="paint1_linear_572_11025" x1="101.356" y1="2" x2="101.356" y2="19.9006" gradientUnits="userSpaceOnUse">
<stop stop-color="#0052D9"/>
<stop offset="1" stop-color="#4988F0"/>
</linearGradient>
</defs>
</svg>
