<svg width="26" height="24" viewBox="0 0 26 24" fill="none" xmlns="http://www.w3.org/2000/svg">
<g clip-path="url(#clip0_37_5689)">
<path d="M18.5333 14.0666C22.1416 14.0666 25.0666 11.1416 25.0666 7.53332C25.0666 3.92507 22.1416 1 18.5333 1C14.9251 1 12 3.92507 12 7.53332C12 11.1416 14.9251 14.0666 18.5333 14.0666Z" fill="#165DFF"/>
<g filter="url(#filter0_b_37_5689)">
<path fill-rule="evenodd" clip-rule="evenodd" d="M12.4728 20.3062C13.4322 20.1688 14.3436 19.8826 15.183 19.472L16.6675 23.5148C16.8194 23.9281 17.2775 24.14 17.6905 23.9881C18.1037 23.8363 18.3157 23.3785 18.1638 22.9652L16.6411 18.8185C16.6182 18.7563 16.5884 18.6986 16.5528 18.646C18.8382 16.9801 20.3234 14.2823 20.3234 11.2376C20.3234 6.17776 16.2216 2.07593 11.1617 2.07593C6.10184 2.07593 2 6.17776 2 11.2376C2 14.6352 3.84939 17.6008 6.5964 19.1826L5.20734 22.9652C5.05548 23.3784 5.2674 23.8362 5.68068 23.9881C6.09395 24.1399 6.55172 23.928 6.70359 23.515L8.04709 19.8563C8.94139 20.1796 9.9004 20.3676 10.8994 20.3957V23.2875C10.8994 23.722 11.2517 24.0742 11.6861 24.0742C12.1206 24.0742 12.4728 23.7223 12.4728 23.2878V20.3062Z" fill="#BEDAFF" fill-opacity="0.5"/>
</g>
<path d="M11 17C7.69148 17 5 14.3085 5 11C5 7.69148 7.69148 5 11 5C14.3085 5 17 7.69148 17 11C17.0004 14.3081 14.3085 17 11 17ZM11 6.53169C8.53642 6.53169 6.53208 8.53604 6.53208 10.9996C6.53208 13.4632 8.53642 15.4675 11 15.4675C13.4636 15.4675 15.4679 13.4632 15.4679 10.9996C15.4683 8.53604 13.464 6.53169 11 6.53169Z" fill="#165DFF"/>
<path d="M1.36744 4.16042L3.08945 3.48121C3.2409 3.42154 3.36053 3.29883 3.4187 3.14347L4.08087 1.37713C4.17159 1.13509 4.39256 1 4.61755 1C4.76132 1 4.90693 1.05516 5.02144 1.17224L7.13122 3.33673C7.29146 3.50109 7.34231 3.74689 7.26073 3.96341L6.70539 5.44418L10.3294 9.16111C10.5547 9.0673 10.7998 9.01326 11.0581 9.01326C12.1308 9.01326 13 9.90562 13 11.0066C13 12.1076 12.1304 13 11.0581 13C9.98549 13 9.11626 12.1076 9.11626 11.0066C9.11626 10.7421 9.16894 10.4907 9.26004 10.2599L5.77031 6.6799L3.88917 7.42217C3.82222 7.44843 3.75271 7.46119 3.68357 7.46119C3.5343 7.46119 3.3876 7.40115 3.27822 7.28895L1.16843 5.12484C0.87466 4.82425 0.980388 4.31315 1.36744 4.16042Z" fill="#165DFF"/>
</g>
<defs>
<filter id="filter0_b_37_5689" x="0" y="0.0759277" width="22.3234" height="25.9983" filterUnits="userSpaceOnUse" color-interpolation-filters="sRGB">
<feFlood flood-opacity="0" result="BackgroundImageFix"/>
<feGaussianBlur in="BackgroundImage" stdDeviation="1"/>
<feComposite in2="SourceAlpha" operator="in" result="effect1_backgroundBlur_37_5689"/>
<feBlend mode="normal" in="SourceGraphic" in2="effect1_backgroundBlur_37_5689" result="shape"/>
</filter>
<clipPath id="clip0_37_5689">
<rect width="26" height="24" fill="white"/>
</clipPath>
</defs>
</svg>
