<svg width="88" height="28" viewBox="0 0 88 28" fill="none" xmlns="http://www.w3.org/2000/svg">
<path d="M11.6267 26.5V0.868H5.72274L0.250742 5.62V11.92L5.72274 7.168V26.5H11.6267ZM35.2666 18.724V8.644C35.2666 3.352 31.2706 0.651998 27.0226 0.651998C22.7746 0.651998 18.7786 3.352 18.7786 8.644V18.724C18.7786 24.016 22.7746 26.716 27.0226 26.716C31.2706 26.716 35.2666 24.016 35.2666 18.724ZM29.3626 18.76C29.3626 20.56 28.2826 21.388 27.0226 21.388C25.7626 21.388 24.6826 20.56 24.6826 18.76V8.644C24.6826 6.844 25.7626 5.98 27.0226 5.98C28.2826 5.98 29.3626 6.844 29.3626 8.644V18.76ZM55.2706 18.724V8.644C55.2706 3.352 51.2746 0.651998 47.0266 0.651998C42.7786 0.651998 38.7826 3.352 38.7826 8.644V18.724C38.7826 24.016 42.7786 26.716 47.0266 26.716C51.2746 26.716 55.2706 24.016 55.2706 18.724ZM49.3666 18.76C49.3666 20.56 48.2866 21.388 47.0266 21.388C45.7666 21.388 44.6866 20.56 44.6866 18.76V8.644C44.6866 6.844 45.7666 5.98 47.0266 5.98C48.2866 5.98 49.3666 6.844 49.3666 8.644V18.76ZM57.7185 17.14V18.544H68.3265V17.14H57.7185ZM61.5585 20.5V21.892H66.3585V20.5H61.5585ZM65.8425 20.5V20.74C65.6985 24.112 65.5065 25.624 65.1465 25.948C64.9905 26.092 64.8345 26.116 64.5705 26.116C64.2225 26.116 63.3945 26.116 62.5545 26.032C62.8425 26.428 63.0465 27.04 63.0705 27.448C63.8625 27.484 64.6905 27.496 65.1825 27.436C65.7225 27.388 66.1065 27.256 66.4545 26.848C66.9345 26.308 67.1385 24.844 67.3185 21.136C67.3425 20.956 67.3545 20.5 67.3545 20.5H65.8425ZM60.5385 18.328C60.4425 21.292 60.4185 24.628 57.2505 26.392C57.6345 26.68 58.0665 27.172 58.2945 27.568C61.7145 25.504 61.9425 21.736 62.0505 18.328H60.5385ZM87.2745 19.084V13.54H81.8025V8.068H76.2585V13.54H70.7865V19.084H76.2585V24.556H81.8025V19.084H87.2745Z" fill="#F53F3F"/>
</svg>
