<svg width="70" height="28" viewBox="0 0 70 28" fill="none" xmlns="http://www.w3.org/2000/svg">
<path d="M17.4447 17.752C17.4447 15.34 17.1567 13.036 15.0687 10.948C14.0247 9.904 12.3327 9.148 10.1007 9.148C8.5167 9.148 7.1487 9.76 6.6447 10.156V6.196H16.9047V0.868H1.2807V15.952H6.7167C6.9687 15.268 7.4007 14.116 9.1287 14.116C10.5687 14.116 11.5407 14.908 11.5407 17.752C11.5407 19.264 11.3247 20.2 10.7847 20.74C10.3167 21.208 9.8487 21.388 9.1287 21.388C7.6167 21.388 6.8967 20.38 6.7167 18.688H0.812695C0.956695 20.56 1.2087 22.648 3.0447 24.484C4.1607 25.6 6.2487 26.716 9.1287 26.716C12.0087 26.716 13.9527 25.636 15.0687 24.52C16.9767 22.612 17.4447 20.848 17.4447 17.752ZM37.2686 18.724V8.644C37.2686 3.352 33.2726 0.651998 29.0246 0.651998C24.7766 0.651998 20.7806 3.352 20.7806 8.644V18.724C20.7806 24.016 24.7766 26.716 29.0246 26.716C33.2726 26.716 37.2686 24.016 37.2686 18.724ZM31.3646 18.76C31.3646 20.56 30.2846 21.388 29.0246 21.388C27.7646 21.388 26.6846 20.56 26.6846 18.76V8.644C26.6846 6.844 27.7646 5.98 29.0246 5.98C30.2846 5.98 31.3646 6.844 31.3646 8.644V18.76ZM39.7165 17.14V18.544H50.3245V17.14H39.7165ZM43.5565 20.5V21.892H48.3565V20.5H43.5565ZM47.8405 20.5V20.74C47.6965 24.112 47.5045 25.624 47.1445 25.948C46.9885 26.092 46.8325 26.116 46.5685 26.116C46.2205 26.116 45.3925 26.116 44.5525 26.032C44.8405 26.428 45.0445 27.04 45.0685 27.448C45.8605 27.484 46.6885 27.496 47.1805 27.436C47.7205 27.388 48.1045 27.256 48.4525 26.848C48.9325 26.308 49.1365 24.844 49.3165 21.136C49.3405 20.956 49.3525 20.5 49.3525 20.5H47.8405ZM42.5365 18.328C42.4405 21.292 42.4165 24.628 39.2485 26.392C39.6325 26.68 40.0645 27.172 40.2925 27.568C43.7125 25.504 43.9405 21.736 44.0485 18.328H42.5365ZM69.2725 19.084V13.54H63.8005V8.068H58.2565V13.54H52.7845V19.084H58.2565V24.556H63.8005V19.084H69.2725Z" fill="#F53F3F"/>
</svg>
