<svg width="71" height="32" viewBox="0 0 71 32" fill="none" xmlns="http://www.w3.org/2000/svg">
<path d="M11.3767 28.5V2.868H5.47274L0.000742316 7.62V13.92L5.47274 9.168V28.5H11.3767ZM32.4966 0.204H27.0246L16.7646 31.164H22.2366L32.4966 0.204ZM46.8846 28.5V2.868H40.9806L35.5086 7.62V13.92L40.9806 9.168V28.5H46.8846ZM70.5245 20.724V10.644C70.5245 5.352 66.5285 2.652 62.2805 2.652C58.0325 2.652 54.0365 5.352 54.0365 10.644V20.724C54.0365 26.016 58.0325 28.716 62.2805 28.716C66.5285 28.716 70.5245 26.016 70.5245 20.724ZM64.6205 20.76C64.6205 22.56 63.5405 23.388 62.2805 23.388C61.0205 23.388 59.9405 22.56 59.9405 20.76V10.644C59.9405 8.844 61.0205 7.98 62.2805 7.98C63.5405 7.98 64.6205 8.844 64.6205 10.644V20.76Z" fill="#F53F3F"/>
</svg>
