<svg width="48" height="48" viewBox="0 0 48 48" fill="none" xmlns="http://www.w3.org/2000/svg">
<rect x="0.4" y="0.4" width="47.2" height="47.2" rx="6" fill="#E8F3FF"/>
<g clip-path="url(#clip0_285_6703)">
<path d="M38.7667 11.741C31.9533 11.741 24.8933 6.33132 24.8267 6.2742C24.36 5.9086 23.64 5.9086 23.1733 6.2742C23.1 6.33132 16.06 11.741 9.23333 11.741C8.55333 11.741 8 12.2095 8 12.7921V25.4224C8 35.6534 16.88 39.7436 23.56 41.9257C23.7 41.9714 23.8533 41.9943 24 41.9943C24.1467 41.9943 24.3 41.9714 24.44 41.9257C33.8067 38.8638 40 34.0825 40 25.4224V12.7921C40 12.2095 39.4467 11.741 38.7667 11.741Z" fill="url(#paint0_linear_285_6703)"/>
<path d="M23.9993 16.6133C19.9524 16.6133 16.666 19.9265 16.666 23.9938C16.666 28.0611 19.9524 31.38 23.9993 31.38C28.0463 31.38 31.3327 28.0668 31.3327 23.9995C31.3327 19.9322 28.0463 16.6133 23.9993 16.6133ZM26.8373 23.691L23.6928 26.8557C23.4885 27.0614 23.2217 27.1642 22.9493 27.1642C22.6825 27.1642 22.4158 27.0614 22.2057 26.8557L21.1614 25.7989C20.7527 25.3876 20.7527 24.7193 21.1614 24.308C21.57 23.8967 22.2341 23.8967 22.6428 24.308L22.9493 24.6165L25.3502 22.2001C25.7589 21.7888 26.423 21.7888 26.8317 22.2001C27.246 22.6114 27.246 23.2797 26.8373 23.691Z" fill="url(#paint1_linear_285_6703)"/>
</g>
<rect x="0.4" y="0.4" width="47.2" height="47.2" rx="6" stroke="url(#paint2_linear_285_6703)" stroke-width="0.8"/>
<defs>
<linearGradient id="paint0_linear_285_6703" x1="36.6667" y1="35.1336" x2="12.1216" y2="8.48713" gradientUnits="userSpaceOnUse">
<stop stop-color="#165DFF"/>
<stop offset="1" stop-color="#6AA1FF"/>
</linearGradient>
<linearGradient id="paint1_linear_285_6703" x1="23.9993" y1="31.3804" x2="23.9993" y2="16.6158" gradientUnits="userSpaceOnUse">
<stop stop-color="#BEDAFF"/>
<stop offset="0.9973" stop-color="white"/>
</linearGradient>
<linearGradient id="paint2_linear_285_6703" x1="24" y1="0" x2="24" y2="48" gradientUnits="userSpaceOnUse">
<stop stop-color="#BEDAFF"/>
<stop offset="1" stop-color="white"/>
</linearGradient>
<clipPath id="clip0_285_6703">
<rect width="32" height="36" fill="white" transform="translate(8 6)"/>
</clipPath>
</defs>
</svg>
