<svg width="48" height="41" viewBox="0 0 48 41" fill="none" xmlns="http://www.w3.org/2000/svg">
<path d="M42.8685 0.156494H5.13153C2.2967 0.156494 0 2.4628 0 5.28803V35.7121C0 38.5373 2.2967 40.8436 5.13153 40.8436H42.8685C45.6937 40.8436 48 38.5373 48 35.7121V5.28803C48 2.4628 45.6937 0.156494 42.8685 0.156494ZM5.13153 3.03938H42.8685C44.1081 3.03938 45.1171 4.04839 45.1171 5.28803V8.40154H2.88288V5.28803C2.88288 4.04839 3.89189 3.03938 5.13153 3.03938ZM42.8685 37.9607H5.13153C3.89189 37.9607 2.88288 36.9517 2.88288 35.7121V11.2844H45.1171V35.7121C45.1171 36.9517 44.1081 37.9607 42.8685 37.9607Z" fill="#1D2129"/>
</svg>
