<svg width="40" height="40" viewBox="0 0 40 40" fill="none" xmlns="http://www.w3.org/2000/svg">
<path d="M40 20C40 31.0457 31.0457 40 20 40C8.9543 40 0 31.0457 0 20C0 8.9543 8.9543 0 20 0C31.0457 0 40 8.9543 40 20Z" fill="#29C2C2"/>
<path fill-rule="evenodd" clip-rule="evenodd" d="M23.0375 26.1595L23.6044 27.8375C23.6203 27.8845 23.6284 27.9338 23.6284 27.9834C23.6284 28.2353 23.4243 28.4394 23.1724 28.4394H17.1473C17.0977 28.4394 17.0484 28.4313 17.0013 28.4154C16.7628 28.3348 16.6347 28.0761 16.7153 27.8375L17.2822 26.1595H11.952C11.4483 26.1595 11.04 25.7512 11.04 25.2475V13.3917C11.04 12.888 11.4483 12.4797 11.952 12.4797H28.3677C28.8714 12.4797 29.2797 12.888 29.2797 13.3917V25.2475C29.2797 25.7512 28.8714 26.1595 28.3677 26.1595H23.0375ZM27.9117 23.4234H12.408V24.7914H27.9117V23.4234Z" fill="white"/>
</svg>
