<svg width="40" height="40" viewBox="0 0 40 40" fill="none" xmlns="http://www.w3.org/2000/svg">
<path d="M40 20C40 31.0457 31.0457 40 20 40C8.9543 40 0 31.0457 0 20C0 8.9543 8.9543 0 20 0C31.0457 0 40 8.9543 40 20Z" fill="#FA5151"/>
<path fill-rule="evenodd" clip-rule="evenodd" d="M28.2646 14.308L19.9388 19.1149L11.613 14.308C11.6338 14.2944 11.6549 14.2816 11.6761 14.2694L19.0625 10.0472C19.5465 9.77061 20.3315 9.77081 20.8151 10.0472L28.2016 14.2694C28.2228 14.2816 28.2438 14.2944 28.2646 14.308ZM29.0674 15.6035C29.0743 15.6575 29.0779 15.7107 29.0779 15.7628V24.2261C29.0779 24.7741 28.6852 25.4429 28.2016 25.7193L20.8152 29.9415C20.7786 29.9624 20.7402 29.9818 20.7005 29.9995V20.4341L29.0674 15.6035ZM19.1773 29.9994C19.1375 29.9816 19.0992 29.9623 19.0626 29.9413L11.6761 25.7191C11.1921 25.4425 10.7998 24.7693 10.7998 24.2259V15.7626C10.7998 15.7104 10.8034 15.6572 10.8102 15.6032L19.1773 20.434V29.9994Z" fill="white" fill-opacity="0.9"/>
</svg>
