<svg width="24" height="24" viewBox="0 0 24 24" fill="none" xmlns="http://www.w3.org/2000/svg">
<path fill-rule="evenodd" clip-rule="evenodd" d="M4.70711 7.12132C4.31658 6.7308 4.31658 6.09763 4.70711 5.70711C5.09763 5.31658 5.7308 5.31658 6.12132 5.70711L11.7782 11.364L17.435 5.70711C17.8256 5.31658 18.4587 5.31658 18.8492 5.70711C19.2398 6.09763 19.2398 6.7308 18.8492 7.12132L11.7782 14.1924L4.70711 7.12132Z" fill="#165DFF" fill-opacity="0.4"/>
<path d="M6.36448 11.2279L12.0213 16.8847L17.6782 11.2279C18.0687 10.8373 18.7019 10.8373 19.0924 11.2279C19.4829 11.6184 19.4829 12.2515 19.0924 12.6421L12.0213 19.7131L4.95027 12.6421C4.55975 12.2515 4.55975 11.6184 4.95027 11.2279C5.3408 10.8373 5.97396 10.8373 6.36448 11.2279Z" fill="#165DFF"/>
</svg>
