<svg width="16" height="16" viewBox="0 0 16 16" fill="none" xmlns="http://www.w3.org/2000/svg">
<path d="M14.5209 4.99601H14.0201C12.3608 4.99601 11.0158 6.34104 11.0158 8.0003V11.0046C11.0158 11.2702 10.9103 11.5249 10.7225 11.7127C10.5347 11.9005 10.2799 12.006 10.0143 12.006C9.74874 12.006 9.49403 11.9005 9.30623 11.7127C9.11843 11.5249 9.01291 11.2702 9.01291 11.0046V4.99601C9.01291 3.33674 7.66789 1.9917 6.0086 1.9917C4.34934 1.9917 3.00431 3.33674 3.00431 4.99601V6.99887C3.00431 7.13039 2.97843 7.26061 2.92811 7.38213C2.8778 7.50364 2.80404 7.61404 2.71104 7.70704C2.61805 7.80004 2.50764 7.87381 2.38613 7.92413C2.26462 7.97444 2.13439 8.00033 2.00287 8.0003H0.500629C0.367854 8.0003 0.240517 8.05304 0.146631 8.14693C0.0527446 8.24081 0 8.36816 0 8.50093C0 8.6337 0.0527446 8.76104 0.146631 8.85493C0.240517 8.94881 0.367854 9.00156 0.500629 9.00156H2.00287C3.66214 9.00156 5.00717 7.65653 5.00717 5.99727V4.99581C5.00717 4.73023 5.11269 4.47551 5.30049 4.2877C5.48829 4.0999 5.743 3.99439 6.0086 3.99439C6.2742 3.99439 6.52891 4.0999 6.71671 4.2877C6.90454 4.47551 7.01003 4.73023 7.01003 4.99581V11.0044C7.01003 12.6637 8.35509 14.0087 10.0143 14.0087C11.6736 14.0087 13.0187 12.6637 13.0187 11.0044V9.00156C13.0186 8.87004 13.0445 8.73981 13.0948 8.6183C13.1451 8.49679 13.2189 8.38639 13.3119 8.29339C13.4049 8.20039 13.5153 8.12661 13.6368 8.0763C13.7583 8.02599 13.8886 8.0001 14.0201 8.00013H14.5209C14.9153 7.99404 15.2914 7.83313 15.5681 7.5521C15.8449 7.27107 16 6.89247 16 6.49807C16 6.10364 15.8449 5.72507 15.5681 5.44404C15.2914 5.16299 14.9153 5.00207 14.5209 4.99601Z" fill="#1D2129"/>
<path d="M0.00927734 7.9917H5.13599V10.3018H0.00927734V7.9917Z" fill="#1D2129"/>
<path d="M11.0215 4.99805H13.9157V7.97342H11.0215V4.99805Z" fill="#1D2129"/>
<path d="M3.6001 4.15186H5.1627V10.287H3.6001V4.15186Z" fill="#1D2129"/>
</svg>
