<svg width="536" height="401" viewBox="0 0 536 401" fill="none" xmlns="http://www.w3.org/2000/svg">
<path d="M535.5 351.64H0V351.907H535.5V351.64Z" fill="#E6E6E6"/>
<path d="M477.505 360.904H440.663V361.172H477.505V360.904Z" fill="#E6E6E6"/>
<path d="M278.086 360.904H267.076V361.172H278.086V360.904Z" fill="#E6E6E6"/>
<path d="M429.471 366.173H408.736V366.441H429.471V366.173Z" fill="#E6E6E6"/>
<path d="M123.84 361.536H77.5835V361.804H123.84V361.536Z" fill="#E6E6E6"/>
<path d="M137.806 357.723H119.021V357.99H137.806V357.723Z" fill="#E6E6E6"/>
<path d="M342.012 369.064H241.681V369.332H342.012V369.064Z" fill="#E6E6E6"/>
<path d="M253.827 303.873H47.0276C45.4075 303.87 43.8548 303.225 42.7102 302.078C41.5657 300.932 40.9228 299.378 40.9229 297.758V7.056C40.937 5.44524 41.586 3.9051 42.729 2.77009C43.8721 1.63509 45.4167 0.9969 47.0276 0.994141H253.827C255.449 0.994141 257.004 1.63844 258.151 2.7853C259.298 3.93217 259.942 5.48764 259.942 7.10955V297.758C259.942 299.379 259.298 300.935 258.151 302.082C257.004 303.229 255.449 303.873 253.827 303.873ZM47.0276 1.20834C45.4785 1.21118 43.9939 1.82852 42.8996 2.92486C41.8052 4.0212 41.1906 5.50696 41.1906 7.056V297.758C41.1906 299.307 41.8052 300.792 42.8996 301.889C43.9939 302.985 45.4785 303.602 47.0276 303.605H253.827C255.377 303.602 256.863 302.985 257.959 301.889C259.055 300.793 259.672 299.308 259.675 297.758V7.056C259.672 5.50598 259.055 4.02024 257.959 2.92421C256.863 1.82817 255.377 1.21117 253.827 1.20834H47.0276Z" fill="#E6E6E6"/>
<path d="M485.495 303.873H278.685C277.064 303.87 275.51 303.225 274.364 302.079C273.217 300.932 272.572 299.379 272.569 297.758V7.056C272.586 5.44427 273.238 3.90413 274.382 2.76942C275.527 1.63472 277.073 0.99687 278.685 0.994141H485.495C487.104 0.999715 488.646 1.63915 489.786 2.77385C490.927 3.90855 491.575 5.44709 491.589 7.056V297.758C491.589 299.376 490.948 300.928 489.805 302.074C488.663 303.221 487.113 303.867 485.495 303.873ZM278.685 1.20834C277.135 1.21117 275.649 1.82817 274.553 2.92421C273.457 4.02024 272.84 5.50598 272.837 7.056V297.758C272.84 299.308 273.457 300.793 274.553 301.889C275.649 302.985 277.135 303.602 278.685 303.605H485.495C487.045 303.602 488.531 302.985 489.627 301.889C490.723 300.793 491.34 299.308 491.343 297.758V7.056C491.34 5.50598 490.723 4.02024 489.627 2.92421C488.531 1.82817 487.045 1.21117 485.495 1.20834H278.685Z" fill="#E6E6E6"/>
<path d="M218.784 351.64H309.626C300.726 318.075 306.06 281.928 325.605 248.363H234.763C215.207 281.928 209.916 318.075 218.784 351.64Z" fill="#FAFAFA"/>
<path d="M215.689 296.591H307.517C310.67 279.591 316.785 263.278 325.584 248.396H233.767C224.969 263.279 218.85 279.592 215.689 296.591Z" fill="#E6E6E6"/>
<path d="M80.2184 283.889L447.4 283.889C453.433 283.889 458.324 278.998 458.324 272.964L458.324 46.8335C458.324 40.8002 453.433 35.9093 447.4 35.9093L80.2184 35.9093C74.1851 35.9093 69.2942 40.8002 69.2942 46.8335L69.2942 272.964C69.2942 278.998 74.1851 283.889 80.2184 283.889Z" fill="#E6E6E6"/>
<path d="M85.3697 283.889L452.551 283.889C458.585 283.889 463.476 278.998 463.476 272.964L463.476 46.8335C463.476 40.8002 458.585 35.9093 452.551 35.9093L85.3697 35.9093C79.3364 35.9093 74.4454 40.8002 74.4454 46.8335L74.4454 272.964C74.4454 278.998 79.3364 283.889 85.3697 283.889Z" fill="#F5F5F5"/>
<path d="M74.4454 248.374L463.476 248.374V48.4718L74.4454 48.4718V248.374Z" fill="white"/>
<path d="M268.971 274.025C273.082 274.025 276.415 270.692 276.415 266.581C276.415 262.47 273.082 259.138 268.971 259.138C264.86 259.138 261.528 262.47 261.528 266.581C261.528 270.692 264.86 274.025 268.971 274.025Z" fill="#E6E6E6"/>
<path d="M235.621 344.453H339.325C341.231 344.453 343.059 345.21 344.407 346.558C345.755 347.906 346.512 349.734 346.512 351.64H228.456C228.456 349.737 229.21 347.913 230.553 346.566C231.896 345.218 233.718 344.459 235.621 344.453Z" fill="#F5F5F5"/>
<path d="M210.987 344.453H229.558C231.462 344.456 233.287 345.214 234.632 346.562C235.978 347.909 236.733 349.736 236.733 351.64H203.747C203.748 350.692 203.937 349.754 204.302 348.879C204.667 348.004 205.201 347.21 205.873 346.542C206.546 345.874 207.344 345.346 208.222 344.988C209.099 344.629 210.039 344.448 210.987 344.453Z" fill="#E6E6E6"/>
<path d="M304.699 19.8969C304.697 18.2929 304.058 16.7554 302.924 15.6212C301.79 14.487 300.252 13.8485 298.648 13.8457H110.152C108.549 13.8513 107.013 14.4907 105.88 15.6243C104.746 16.7579 104.107 18.2937 104.101 19.8969V39.3676H304.699V19.8969Z" fill="#E6E6E6"/>
<path d="M255.787 31.1854C258.313 31.1854 260.36 29.1379 260.36 26.6122C260.36 24.0865 258.313 22.0391 255.787 22.0391C253.261 22.0391 251.214 24.0865 251.214 26.6122C251.214 29.1379 253.261 31.1854 255.787 31.1854Z" fill="white"/>
<path d="M271.991 31.1854C274.517 31.1854 276.564 29.1379 276.564 26.6122C276.564 24.0865 274.517 22.0391 271.991 22.0391C269.465 22.0391 267.418 24.0865 267.418 26.6122C267.418 29.1379 269.465 31.1854 271.991 31.1854Z" fill="white"/>
<path d="M288.206 31.1854C290.732 31.1854 292.78 29.1379 292.78 26.6122C292.78 24.0865 290.732 22.0391 288.206 22.0391C285.681 22.0391 283.633 24.0865 283.633 26.6122C283.633 29.1379 285.681 31.1854 288.206 31.1854Z" fill="white"/>
<path d="M110.206 170.512H298.702C300.304 170.509 301.84 169.872 302.974 168.74C304.108 167.609 304.747 166.074 304.753 164.472V39.3682H104.155V164.472C104.163 166.073 104.804 167.606 105.937 168.737C107.07 169.869 108.605 170.507 110.206 170.512Z" fill="#FAFAFA"/>
<path d="M318.195 40.1391C318.189 38.5388 317.551 37.0057 316.419 35.8741C315.288 34.7425 313.755 34.1043 312.154 34.0986H123.712C122.11 34.1015 120.574 34.7384 119.44 35.8703C118.306 37.0022 117.666 38.5369 117.661 40.1391V59.6206H318.195V40.1391Z" fill="#F5F5F5"/>
<path d="M269.281 51.4276C271.807 51.4276 273.854 49.3801 273.854 46.8544C273.854 44.3287 271.807 42.2812 269.281 42.2812C266.755 42.2812 264.708 44.3287 264.708 46.8544C264.708 49.3801 266.755 51.4276 269.281 51.4276Z" fill="#E6E6E6"/>
<path d="M285.497 51.4276C288.022 51.4276 290.07 49.3801 290.07 46.8544C290.07 44.3287 288.022 42.2812 285.497 42.2812C282.971 42.2812 280.923 44.3287 280.923 46.8544C280.923 49.3801 282.971 51.4276 285.497 51.4276Z" fill="#E6E6E6"/>
<path d="M306.306 46.8544C306.306 47.7589 306.038 48.6431 305.536 49.3951C305.033 50.1472 304.319 50.7333 303.483 51.0795C302.648 51.4256 301.728 51.5162 300.841 51.3397C299.954 51.1633 299.139 50.7277 298.5 50.0881C297.86 49.4486 297.424 48.6337 297.248 47.7466C297.072 46.8595 297.162 45.94 297.508 45.1043C297.854 44.2687 298.441 43.5545 299.193 43.052C299.945 42.5495 300.829 42.2813 301.733 42.2812C302.946 42.2812 304.109 42.7631 304.967 43.6207C305.825 44.4783 306.306 45.6415 306.306 46.8544Z" fill="#E6E6E6"/>
<path d="M123.712 190.765H312.208C313.81 190.759 315.345 190.12 316.477 188.986C317.609 187.852 318.245 186.316 318.248 184.714V59.6211H117.661V184.714C117.663 186.318 118.302 187.855 119.436 188.99C120.57 190.124 122.108 190.762 123.712 190.765Z" fill="white"/>
<path d="M331.699 60.392C331.696 58.788 331.058 57.2505 329.924 56.1163C328.789 54.9821 327.252 54.3437 325.648 54.3408H137.205C135.601 54.3437 134.064 54.9821 132.93 56.1163C131.796 57.2505 131.157 58.788 131.154 60.392V79.8628H331.699V60.392Z" fill="#FAFAFA"/>
<path d="M282.787 71.6805C285.312 71.6805 287.36 69.633 287.36 67.1074C287.36 64.5817 285.312 62.5342 282.787 62.5342C280.261 62.5342 278.213 64.5817 278.213 67.1074C278.213 69.633 280.261 71.6805 282.787 71.6805Z" fill="#F0F0F0"/>
<path d="M298.991 71.6805C301.517 71.6805 303.564 69.633 303.564 67.1074C303.564 64.5817 301.517 62.5342 298.991 62.5342C296.465 62.5342 294.418 64.5817 294.418 67.1074C294.418 69.633 296.465 71.6805 298.991 71.6805Z" fill="#F0F0F0"/>
<path d="M319.779 67.1074C319.781 68.0144 319.514 68.9017 319.012 69.6569C318.509 70.4122 317.794 71.0014 316.957 71.3499C316.119 71.6985 315.197 71.7908 314.308 71.6152C313.418 71.4395 312.6 71.0038 311.958 70.3631C311.316 69.7225 310.878 68.9058 310.7 68.0163C310.522 67.1268 310.613 66.2046 310.959 65.3664C311.306 64.5281 311.893 63.8116 312.647 63.3075C313.401 62.8033 314.288 62.5342 315.195 62.5342C316.409 62.5342 317.573 63.0156 318.433 63.873C319.292 64.7303 319.776 65.8935 319.779 67.1074Z" fill="#F0F0F0"/>
<path d="M137.205 211.017H325.702C327.305 211.011 328.84 210.372 329.974 209.238C331.108 208.105 331.747 206.569 331.753 204.966V79.8623H131.154V204.966C131.16 206.569 131.799 208.105 132.933 209.238C134.066 210.372 135.602 211.011 137.205 211.017Z" fill="#E6E6E6"/>
<path opacity="0.5" d="M382.347 133.155H313.278V236.293H416.426V133.155H382.347ZM348.235 133.959H381.533V167.267H348.203L348.235 133.959ZM381.533 201.378H348.203V168.07H381.501L381.533 201.378ZM314.124 133.959H347.421V167.267H314.092L314.124 133.959ZM314.124 168.07H347.421V201.378H314.092L314.124 168.07ZM347.389 235.543H314.092V202.235H347.389V235.543ZM381.501 235.543H348.203V202.235H381.501V235.543ZM415.612 235.543H382.347V202.235H415.644L415.612 235.543ZM415.612 201.432H382.347V168.07H415.644L415.612 201.432ZM382.347 167.267V133.959H415.644V167.267H382.347Z" fill="#E6E6E6"/>
<path d="M354.479 117.272L474.871 117.272V62.5229L354.479 62.5229V117.272Z" fill="#F5F5F5"/>
<path d="M474.871 83.8683V117.283H354.501V75.7822C374.475 75.7822 385.132 94.0963 409.84 94.0963C434.548 94.0963 441.991 83.8683 474.871 83.8683Z" fill="white"/>
<path d="M474.87 99.8371C447.817 99.8371 438.885 87.874 423.687 87.874C408.49 87.874 401.025 100.437 382.089 100.437C362.362 100.437 354.479 90.5622 354.479 90.5622V117.337H474.87V99.8371Z" fill="#E6E6E6"/>
<path d="M267.75 400.006C382.435 400.006 475.406 394.578 475.406 387.882C475.406 381.187 382.435 375.759 267.75 375.759C153.065 375.759 60.0938 381.187 60.0938 387.882C60.0938 394.578 153.065 400.006 267.75 400.006Z" fill="#F5F5F5"/>
<path d="M216.342 168.627C211.857 152.578 213.641 135.424 221.333 120.642C229.026 105.86 242.051 94.5553 257.768 89.0195L261.806 101.807C249.496 106.287 239.315 115.224 233.276 126.849C227.237 138.474 225.781 151.942 229.194 164.589L216.342 168.627Z" fill="#407BFF"/>
<path d="M249.104 209.025C244.055 206.418 239.374 203.156 235.181 199.322C227.225 192.029 221.189 182.888 217.605 172.708L230.393 168.67C233.382 176.952 238.417 184.345 245.029 190.159C251.642 195.974 259.617 200.022 268.213 201.928C276.81 203.833 285.749 203.534 294.199 201.058C302.649 198.582 310.336 194.01 316.544 187.766L326.43 196.827C316.542 206.866 303.695 213.469 289.776 215.665C275.858 217.861 261.601 215.533 249.104 209.025Z" fill="#407BFF"/>
<path opacity="0.7" d="M249.104 209.025C244.055 206.418 239.374 203.156 235.181 199.322C227.225 192.029 221.189 182.888 217.605 172.708L230.393 168.67C233.382 176.952 238.417 184.345 245.029 190.159C251.642 195.974 259.617 200.022 268.213 201.928C276.81 203.833 285.749 203.534 294.199 201.058C302.649 198.582 310.336 194.01 316.544 187.766L326.43 196.827C316.542 206.866 303.695 213.469 289.776 215.665C275.858 217.861 261.601 215.533 249.104 209.025Z" fill="white"/>
<path d="M319.49 184.607C326.666 176.101 330.937 165.525 331.68 154.421C332.424 143.318 329.601 132.267 323.623 122.881C317.645 113.494 308.825 106.263 298.448 102.241C288.072 98.2189 276.682 97.6168 265.94 100.522L261.902 87.6704C278.314 83.0742 295.869 85.0388 310.858 93.149C325.848 101.259 337.096 114.88 342.227 131.132C345.563 141.777 346.14 153.095 343.903 164.024C341.666 174.953 336.69 185.135 329.44 193.614L319.49 184.607Z" fill="#407BFF"/>
<path opacity="0.3" d="M319.49 184.607C326.666 176.101 330.937 165.525 331.68 154.421C332.424 143.318 329.601 132.267 323.623 122.881C317.645 113.494 308.825 106.263 298.448 102.241C288.072 98.2189 276.682 97.6168 265.94 100.522L261.902 87.6704C278.314 83.0742 295.869 85.0388 310.858 93.149C325.848 101.259 337.096 114.88 342.227 131.132C345.563 141.777 346.14 153.095 343.903 164.024C341.666 174.953 336.69 185.135 329.44 193.614L319.49 184.607Z" fill="black"/>
<path d="M291.794 135.084C290.28 133.57 288.484 132.369 286.506 131.549C284.529 130.729 282.409 130.307 280.268 130.307C278.128 130.306 276.008 130.727 274.03 131.546C272.052 132.365 270.255 133.565 268.741 135.078C267.227 136.592 266.025 138.389 265.206 140.366C264.386 142.344 263.964 144.463 263.963 146.604C263.963 148.745 264.384 150.865 265.203 152.842C266.022 154.82 267.222 156.618 268.735 158.132L280.259 169.656L291.794 158.132C294.849 155.075 296.566 150.93 296.566 146.608C296.566 142.286 294.849 138.141 291.794 135.084Z" fill="#407BFF"/>
<path opacity="0.3" d="M291.794 135.084C290.28 133.57 288.484 132.369 286.506 131.549C284.529 130.729 282.409 130.307 280.268 130.307C278.128 130.306 276.008 130.727 274.03 131.546C272.052 132.365 270.255 133.565 268.741 135.078C267.227 136.592 266.025 138.389 265.206 140.366C264.386 142.344 263.964 144.463 263.963 146.604C263.963 148.745 264.384 150.865 265.203 152.842C266.022 154.82 267.222 156.618 268.735 158.132L280.259 169.656L291.794 158.132C294.849 155.075 296.566 150.93 296.566 146.608C296.566 142.286 294.849 138.141 291.794 135.084Z" fill="black"/>
<path d="M280.912 173.072H279.627V178.213H280.912V173.072Z" fill="#407BFF"/>
<path opacity="0.3" d="M280.912 173.072H279.627V178.213H280.912V173.072Z" fill="black"/>
<path d="M280.912 182.187H279.627V187.327H280.912V182.187Z" fill="#407BFF"/>
<path opacity="0.3" d="M280.912 182.187H279.627V187.327H280.912V182.187Z" fill="black"/>
<path d="M235.78 223.784H192.158V381.735H235.78V223.784Z" fill="#407BFF"/>
<path opacity="0.7" d="M235.78 223.784H192.158V381.735H235.78V223.784Z" fill="white"/>
<path d="M256.719 223.784H235.781V381.735H256.719V223.784Z" fill="#407BFF"/>
<path opacity="0.5" d="M256.719 223.784H235.781V381.735H256.719V223.784Z" fill="white"/>
<path d="M316.437 281.918H315.323V306.508H316.437V281.918Z" fill="#263238"/>
<path d="M316.437 267.459H315.323V277.344H316.437V267.459Z" fill="#263238"/>
<path d="M347.421 321.759H303.799V381.735H347.421V321.759Z" fill="#407BFF"/>
<path opacity="0.5" d="M347.421 321.759H303.799V381.735H347.421V321.759Z" fill="black"/>
<path d="M368.359 321.759H347.421V381.735H368.359V321.759Z" fill="#407BFF"/>
<path opacity="0.6" d="M368.359 321.759H347.421V381.735H368.359V321.759Z" fill="black"/>
<path d="M291.601 190.39H247.979V381.735H291.601V190.39Z" fill="#407BFF"/>
<path opacity="0.7" d="M291.601 190.39H247.979V381.735H291.601V190.39Z" fill="black"/>
<path d="M312.539 190.39H291.601V381.735H312.539V190.39Z" fill="#407BFF"/>
<path opacity="0.8" d="M312.539 190.39H291.601V381.735H312.539V190.39Z" fill="black"/>
<path d="M377.239 146.254C375.739 158.099 373.854 169.976 372.173 181.725C371.964 183.441 371.653 185.144 371.241 186.823C370.76 188.543 370.144 190.223 369.399 191.846C367.978 194.9 366.203 197.776 364.108 200.414C362.113 202.949 359.914 205.317 357.532 207.493C356.376 208.564 355.144 209.635 353.902 210.567C352.659 211.499 351.428 212.463 350.003 213.395L346.201 208.65C347.09 207.665 348.097 206.508 349.007 205.437C349.918 204.366 350.817 203.209 351.695 202.074C353.412 199.854 354.983 197.525 356.397 195.102C357.76 192.829 358.883 190.42 359.749 187.915C360.148 186.757 360.452 185.567 360.66 184.36C360.847 183.092 360.969 181.816 361.024 180.536C361.42 174.453 362.02 168.434 362.684 162.426C363.348 156.417 364.14 150.484 365.083 144.508L377.239 146.254Z" fill="#E58A7B"/>
<path d="M379.906 142.183C382.637 149.434 368.81 170.779 368.81 170.779L352.606 161.986C355.044 155.344 358.193 148.984 361.999 143.019C367.696 134.472 376.918 134.226 379.906 142.183Z" fill="#407BFF"/>
<path opacity="0.2" d="M379.906 142.183C382.637 149.434 368.81 170.779 368.81 170.779L352.606 161.986C355.044 155.344 358.193 148.984 361.999 143.019C367.696 134.472 376.918 134.226 379.906 142.183Z" fill="black"/>
<path d="M370.288 136.636C370.288 136.636 360.724 161.108 369.806 206.668H413.15C413.45 200.017 409.262 167.566 415.677 136.229C410.889 135.3 406.045 134.685 401.176 134.387C395.041 134.033 388.89 134.033 382.755 134.387C378.547 134.81 374.379 135.562 370.288 136.636Z" fill="#407BFF"/>
<path opacity="0.2" d="M370.288 136.636C370.288 136.636 360.724 161.108 369.806 206.668H413.15C413.45 200.017 409.262 167.566 415.677 136.229C410.889 135.3 406.045 134.685 401.176 134.387C395.041 134.033 388.89 134.033 382.755 134.387C378.547 134.81 374.379 135.562 370.288 136.636Z" fill="black"/>
<path d="M376.038 377.901H367.942L365.778 359.137H373.886L376.038 377.901Z" fill="#E58A7B"/>
<path d="M433.059 377.901H424.962L418.644 359.137H426.751L433.059 377.901Z" fill="#E58A7B"/>
<path d="M423.881 376.915H433.755C433.916 376.914 434.073 376.969 434.198 377.071C434.323 377.172 434.409 377.314 434.441 377.472L436.047 384.68C436.082 384.855 436.078 385.036 436.034 385.209C435.991 385.382 435.909 385.543 435.795 385.681C435.681 385.818 435.538 385.929 435.376 386.004C435.214 386.079 435.037 386.117 434.858 386.115C431.645 386.061 429.364 385.879 425.359 385.879C422.895 385.879 417.862 386.136 414.424 386.136C410.986 386.136 410.579 382.773 411.971 382.463C418.215 381.103 420.539 379.25 422.563 377.418C422.925 377.093 423.394 376.914 423.881 376.915Z" fill="#263238"/>
<path d="M367.996 376.915H376.842C377.004 376.916 377.161 376.971 377.287 377.072C377.414 377.173 377.502 377.314 377.538 377.472L379.134 384.68C379.173 384.854 379.172 385.034 379.131 385.207C379.09 385.38 379.011 385.542 378.898 385.68C378.786 385.819 378.644 385.929 378.483 386.005C378.321 386.08 378.145 386.118 377.967 386.115C374.754 386.061 370.159 385.879 366.186 385.879C361.495 385.879 357.446 386.136 351.941 386.136C348.611 386.136 347.657 382.773 349.082 382.463C355.422 381.081 360.595 380.931 366.079 377.547C366.648 377.165 367.311 376.947 367.996 376.915Z" fill="#263238"/>
<path d="M349.146 205.555L342.356 211.231L351.277 216.468C352.592 215.453 353.548 214.043 354.005 212.446C354.461 210.848 354.395 209.147 353.816 207.59L349.146 205.555Z" fill="#E58A7B"/>
<path d="M365.789 359.146L366.892 368.818H375L373.886 359.146H365.789Z" fill="#CF6F64"/>
<path d="M426.751 359.146H418.644L421.899 368.818H430.007L426.751 359.146Z" fill="#CF6F64"/>
<path opacity="0.2" d="M406.851 151.201C408.265 144.047 411.018 145.289 413.631 148.813C412.514 158.296 411.999 167.839 412.089 177.387C410.311 174.356 404.484 163.186 406.851 151.201Z" fill="black"/>
<path d="M399.344 113.652C398.187 119.575 397.03 130.435 401.175 134.387C401.175 134.387 399.558 140.406 388.537 140.406C376.424 140.406 382.754 134.398 382.754 134.398C389.362 132.813 389.18 127.907 388.034 123.302L399.344 113.652Z" fill="#E58A7B"/>
<path d="M394.739 117.594L388.045 123.302C388.331 124.372 388.521 125.465 388.613 126.569C391.14 126.205 394.61 123.431 394.878 120.785C395.023 119.722 394.976 118.641 394.739 117.594Z" fill="#CF6F64"/>
<path d="M380.505 95.4131C376.521 97.1053 374.357 108.265 379.434 110.846C384.51 113.427 388.055 92.2215 380.505 95.4131Z" fill="#263238"/>
<path d="M400.051 104.731C399.558 112.753 399.676 117.476 395.627 121.599C389.533 127.79 379.616 124.116 377.71 116.105C375.985 108.897 377.078 96.977 384.939 93.7854C386.668 93.0738 388.55 92.816 390.406 93.0365C392.263 93.2569 394.032 93.9484 395.546 95.0451C397.061 96.1418 398.269 97.6073 399.058 99.3026C399.846 100.998 400.188 102.867 400.051 104.731Z" fill="#E58A7B"/>
<path d="M375.3 90.3795C380.151 83.0217 380.912 86.5667 380.837 90.0689C385.121 86.0205 393.035 80.8583 396.902 85.5707C397.36 86.0569 397.657 86.6717 397.755 87.3324C397.853 87.9931 397.746 88.6678 397.448 89.2656C402.428 87.9376 407.451 87.5628 406.541 92.9392C405.738 97.6944 402.343 99.4401 397.587 99.4723C389.062 100.65 368.424 100.768 375.3 90.3795Z" fill="#263238"/>
<path d="M399.483 112.592C395.199 114.338 386.578 98.6048 399.547 96.752C412.517 94.8991 406.348 109.775 399.483 112.592Z" fill="#263238"/>
<path d="M403.681 113.577C402.597 115.284 400.885 116.496 398.915 116.951C396.302 117.529 395.134 115.152 395.991 112.753C396.762 110.611 399.043 107.708 401.614 108.201C402.173 108.32 402.694 108.578 403.129 108.949C403.564 109.321 403.899 109.795 404.104 110.329C404.309 110.863 404.378 111.44 404.304 112.007C404.23 112.574 404.016 113.114 403.681 113.577Z" fill="#E58A7B"/>
<path d="M407.912 99.1831C407.316 98.5198 406.565 98.0157 405.725 97.7164C404.885 97.4172 403.984 97.3323 403.103 97.4695C403.103 97.4695 407.291 94.1708 407.912 99.1831Z" fill="#263238"/>
<path d="M369.805 206.626C369.805 206.626 347.003 264.567 347.839 289.286C348.749 314.99 363.904 366.944 363.904 366.944H377.634C377.634 366.944 372.011 316.478 372.622 291.246C373.286 263.721 398.326 206.637 398.326 206.637L369.805 206.626Z" fill="#407BFF"/>
<path opacity="0.2" d="M388.013 225.808L389.33 228.796C384.524 241.178 380.349 253.797 376.821 266.602C376.446 251.994 379.466 235.886 388.013 225.808Z" fill="black"/>
<path d="M385.186 206.626C385.186 206.626 380.57 265.874 385.615 289.093C391.141 314.497 418.087 366.923 418.087 366.923H432.931C432.931 366.923 413.075 316.586 409.916 291.396C406.499 264.096 413.129 206.647 413.129 206.647L385.186 206.626Z" fill="#407BFF"/>
<path d="M387.885 107.023C387.885 107.676 387.531 108.212 387.103 108.212C386.674 108.212 386.332 107.676 386.332 107.023C386.332 106.37 386.674 105.845 387.103 105.845C387.531 105.845 387.885 106.316 387.885 107.023Z" fill="#263238"/>
<path d="M380.495 107.023C380.495 107.676 380.141 108.212 379.724 108.212C379.306 108.212 378.942 107.676 378.942 107.023C378.942 106.37 379.295 105.845 379.724 105.845C380.152 105.845 380.495 106.316 380.495 107.023Z" fill="#263238"/>
<path d="M382.84 107.301C382.061 109.294 381.012 111.172 379.723 112.881C380.168 113.201 380.678 113.419 381.216 113.521C381.755 113.623 382.309 113.605 382.84 113.47V107.301Z" fill="#DF5753"/>
<path d="M384.746 115.28C384.695 115.28 384.646 115.26 384.61 115.224C384.574 115.187 384.553 115.138 384.553 115.087C384.553 115.036 384.574 114.987 384.61 114.951C384.646 114.915 384.695 114.894 384.746 114.894C385.559 114.912 386.365 114.739 387.098 114.387C387.831 114.035 388.471 113.516 388.966 112.87C388.98 112.849 388.998 112.831 389.019 112.817C389.04 112.803 389.064 112.793 389.089 112.788C389.113 112.783 389.139 112.783 389.164 112.788C389.189 112.793 389.212 112.803 389.233 112.817C389.273 112.845 389.301 112.887 389.311 112.935C389.321 112.982 389.312 113.032 389.287 113.074C388.765 113.781 388.079 114.351 387.288 114.736C386.497 115.12 385.625 115.307 384.746 115.28Z" fill="#263238"/>
<path d="M390.101 104.592C390.043 104.591 389.986 104.576 389.934 104.55C389.883 104.524 389.837 104.488 389.801 104.442C389.521 104.048 389.152 103.726 388.724 103.503C388.296 103.28 387.821 103.161 387.338 103.157C387.287 103.161 387.236 103.155 387.187 103.139C387.138 103.123 387.094 103.097 387.056 103.063C387.018 103.029 386.987 102.987 386.965 102.941C386.944 102.894 386.932 102.844 386.931 102.793C386.925 102.692 386.959 102.593 387.025 102.517C387.091 102.441 387.184 102.394 387.284 102.386C387.894 102.382 388.496 102.524 389.04 102.8C389.584 103.076 390.054 103.477 390.412 103.971C390.472 104.054 390.499 104.157 390.485 104.259C390.471 104.361 390.418 104.454 390.337 104.517C390.266 104.563 390.185 104.588 390.101 104.592Z" fill="#263238"/>
<path d="M377.259 104.431C377.203 104.441 377.144 104.441 377.088 104.431C377.042 104.409 377.001 104.378 376.967 104.34C376.934 104.302 376.908 104.258 376.892 104.21C376.876 104.162 376.87 104.111 376.874 104.061C376.878 104.01 376.893 103.961 376.916 103.916C377.17 103.365 377.552 102.882 378.031 102.509C378.51 102.136 379.072 101.884 379.669 101.774C379.764 101.773 379.856 101.806 379.928 101.869C380 101.931 380.046 102.017 380.058 102.111C380.07 102.206 380.047 102.301 379.993 102.379C379.939 102.457 379.858 102.513 379.765 102.535C379.298 102.637 378.86 102.847 378.488 103.148C378.116 103.449 377.82 103.833 377.623 104.27C377.584 104.328 377.529 104.374 377.464 104.403C377.4 104.431 377.329 104.441 377.259 104.431Z" fill="#263238"/>
<path d="M418.761 142.526C419.457 144.026 420.047 145.365 420.603 146.81C421.16 148.256 421.674 149.627 422.242 151.094C423.313 153.943 424.202 156.835 425.016 159.78C425.83 162.725 426.505 165.735 427.062 168.798L427.447 171.101L427.726 173.457C427.833 174.239 427.876 175.042 427.94 175.845L428.015 177.045V177.345V177.848C428.015 178.223 428.015 178.566 428.015 178.919C427.803 181.028 427.192 183.078 426.215 184.959C425.454 186.472 424.592 187.932 423.634 189.329C421.86 191.883 419.917 194.316 417.819 196.612C413.782 201.057 409.402 205.179 404.721 208.939L400.437 204.655C403.939 200.178 407.43 195.552 410.611 190.957C412.16 188.72 413.589 186.404 414.895 184.017C415.492 182.946 416.011 181.832 416.448 180.686C416.766 179.954 416.947 179.17 416.983 178.373C416.983 178.373 416.983 178.437 416.983 178.373V178.126L416.834 177.163C416.737 176.509 416.651 175.867 416.502 175.213L416.116 173.253L415.655 171.283C415.002 168.648 414.263 166.003 413.406 163.368C412.55 160.733 411.639 158.109 410.665 155.485C409.69 152.862 408.619 150.216 407.623 147.796L418.761 142.526Z" fill="#E58A7B"/>
<path d="M421.192 378.382C420.642 378.424 420.094 378.277 419.639 377.965C419.486 377.836 419.369 377.669 419.3 377.481C419.23 377.294 419.211 377.091 419.243 376.894C419.242 376.783 419.272 376.675 419.329 376.581C419.385 376.486 419.467 376.409 419.564 376.358C420.475 375.897 423.077 377.504 423.377 377.686C423.409 377.706 423.434 377.735 423.449 377.77C423.464 377.804 423.469 377.842 423.463 377.879C423.456 377.917 423.438 377.953 423.411 377.981C423.385 378.01 423.351 378.03 423.313 378.039C422.621 378.23 421.91 378.345 421.192 378.382ZM419.993 376.701C419.907 376.694 419.822 376.713 419.747 376.754C419.693 376.754 419.629 376.829 419.618 376.979C419.605 377.108 419.622 377.238 419.669 377.359C419.715 377.48 419.79 377.588 419.886 377.675C420.791 378.082 421.816 378.132 422.756 377.815C421.915 377.269 420.977 376.89 419.993 376.701Z" fill="#407BFF"/>
<path d="M423.27 378.093H423.184C422.338 377.632 420.721 375.865 420.892 374.955C420.922 374.814 420.998 374.687 421.109 374.596C421.22 374.504 421.359 374.453 421.503 374.451C421.648 374.435 421.795 374.448 421.935 374.49C422.075 374.533 422.205 374.603 422.317 374.698C423.259 375.469 423.452 377.804 423.463 377.911C423.464 377.944 423.456 377.977 423.441 378.007C423.427 378.037 423.404 378.063 423.377 378.082C423.343 378.096 423.306 378.1 423.27 378.093ZM421.642 374.773H421.546C421.299 374.773 421.278 374.912 421.267 374.965C421.171 375.501 422.199 376.84 423.034 377.472C422.976 376.55 422.644 375.666 422.081 374.933C421.959 374.829 421.803 374.772 421.642 374.773Z" fill="#407BFF"/>
<path d="M364.623 378.383C363.931 378.444 363.239 378.267 362.663 377.879C362.531 377.765 362.429 377.621 362.365 377.458C362.302 377.296 362.279 377.121 362.299 376.947C362.305 376.843 362.336 376.741 362.39 376.652C362.445 376.562 362.52 376.487 362.609 376.433C363.606 375.887 366.893 377.504 367.225 377.729C367.263 377.747 367.293 377.776 367.312 377.813C367.331 377.849 367.339 377.89 367.333 377.931C367.327 377.972 367.308 378.009 367.279 378.039C367.25 378.068 367.213 378.087 367.172 378.093C366.333 378.265 365.48 378.362 364.623 378.383ZM363.156 376.701C363.033 376.693 362.911 376.719 362.802 376.776C362.764 376.794 362.732 376.823 362.711 376.859C362.69 376.895 362.681 376.938 362.684 376.98C362.668 377.092 362.681 377.207 362.72 377.313C362.759 377.42 362.824 377.515 362.909 377.59C363.413 378.04 364.751 378.115 366.529 377.815C365.477 377.254 364.336 376.877 363.156 376.701Z" fill="#407BFF"/>
<path d="M367.139 378.093C367.111 378.103 367.081 378.103 367.053 378.093C366.079 377.654 364.14 375.951 364.29 374.987C364.29 374.773 364.472 374.505 365.008 374.452C365.199 374.432 365.393 374.452 365.577 374.509C365.761 374.566 365.931 374.659 366.079 374.784C367.15 375.63 367.332 377.815 367.332 377.9C367.337 377.935 367.332 377.97 367.319 378.002C367.306 378.034 367.284 378.061 367.257 378.082C367.219 378.097 367.178 378.101 367.139 378.093ZM365.211 374.773H365.093C364.75 374.773 364.729 374.944 364.718 374.987C364.633 375.533 365.95 376.915 366.946 377.515C366.855 376.592 366.481 375.72 365.875 375.019C365.691 374.859 365.455 374.771 365.211 374.773Z" fill="#407BFF"/>
<path d="M402.311 203.467L394.364 205.609L400.95 213.598C400.95 213.598 407.323 210.289 405.952 206.723L402.311 203.467Z" fill="#E58A7B"/>
<path d="M390.251 210.953L396.002 217.293L400.95 213.566L394.364 205.576L390.251 210.953Z" fill="#E58A7B"/>
<path d="M415.462 367.266H434.869V362.039L413.181 361.707L415.462 367.266Z" fill="#407BFF"/>
<path opacity="0.4" d="M415.462 367.266H434.869V362.039L413.181 361.707L415.462 367.266Z" fill="black"/>
<path d="M360.788 367.266H380.195V361.986L358.507 361.707L360.788 367.266Z" fill="#407BFF"/>
<path opacity="0.4" d="M360.788 367.266H380.195V361.986L358.507 361.707L360.788 367.266Z" fill="black"/>
<path d="M417.369 136.754C424.598 139.538 431.827 165.178 431.827 165.178L412.549 172.761C412.549 172.761 406.798 159.502 404.838 149.648C402.825 139.313 409.176 133.605 417.369 136.754Z" fill="#407BFF"/>
<path opacity="0.2" d="M417.369 136.754C424.598 139.538 431.827 165.178 431.827 165.178L412.549 172.761C412.549 172.761 406.798 159.502 404.838 149.648C402.825 139.313 409.176 133.605 417.369 136.754Z" fill="black"/>
<path d="M339.218 177.441C337.165 184.6 337.37 192.219 339.807 199.257C342.036 205.808 346.103 211.578 351.524 215.879C358.744 221.595 367.866 224.356 377.044 223.603C386.222 222.85 394.772 218.64 400.964 211.823C407.156 205.007 410.528 196.093 410.398 186.885C410.269 177.676 406.647 168.861 400.265 162.222C395.881 157.657 390.368 154.332 384.286 152.583C378.66 150.956 372.726 150.707 366.985 151.857C361.243 153.007 355.863 155.523 351.299 159.191C350.468 159.861 349.674 160.576 348.921 161.333C344.325 165.754 340.977 171.311 339.218 177.441Z" fill="#407BFF"/>
<path opacity="0.6" d="M339.218 177.441C337.165 184.6 337.37 192.219 339.807 199.257C342.036 205.808 346.103 211.578 351.524 215.879C358.744 221.595 367.866 224.356 377.044 223.603C386.222 222.85 394.772 218.64 400.964 211.823C407.156 205.007 410.528 196.093 410.398 186.885C410.269 177.676 406.647 168.861 400.265 162.222C395.881 157.657 390.368 154.332 384.286 152.583C378.66 150.956 372.726 150.707 366.985 151.857C361.243 153.007 355.863 155.523 351.299 159.191C350.468 159.861 349.674 160.576 348.921 161.333C344.325 165.754 340.977 171.311 339.218 177.441Z" fill="black"/>
<path d="M395.702 160.798L369.57 186.02L359.556 220.934C367.242 223.141 375.44 222.75 382.881 219.821C390.321 216.892 396.587 211.59 400.706 204.737C404.825 197.884 406.568 189.863 405.663 181.918C404.758 173.973 401.257 166.549 395.702 160.798Z" fill="#407BFF"/>
<path opacity="0.9" d="M395.702 160.798L369.57 186.02L359.556 220.934C367.242 223.141 375.44 222.75 382.881 219.821C390.321 216.892 396.587 211.59 400.706 204.737C404.825 197.884 406.568 189.863 405.663 181.918C404.758 173.973 401.257 166.549 395.702 160.798Z" fill="white"/>
<g opacity="0.7">
<path d="M369.57 186.02L395.703 160.787C391.274 156.199 385.715 152.857 379.584 151.099C373.454 149.341 366.969 149.228 360.781 150.771C354.593 152.315 348.921 155.461 344.335 159.893C339.749 164.324 336.41 169.886 334.656 176.017L369.57 186.02Z" fill="#407BFF"/>
<path opacity="0.44" d="M369.57 186.02L395.703 160.787C391.274 156.199 385.715 152.857 379.584 151.099C373.454 149.341 366.969 149.228 360.781 150.771C354.593 152.315 348.921 155.461 344.335 159.893C339.749 164.324 336.41 169.886 334.656 176.017L369.57 186.02Z" fill="white"/>
</g>
<path d="M341.799 216.051L349.671 218.536L351.245 216.501L342.324 211.264L341.799 216.051Z" fill="#E58A7B"/>
<path d="M369.57 186.02L334.666 176.017C332.015 185.275 333.149 195.207 337.818 203.63C342.488 212.053 350.31 218.277 359.567 220.934L369.57 186.02Z" fill="#407BFF"/>
<path opacity="0.6" d="M369.57 186.02L334.666 176.017C332.015 185.275 333.149 195.207 337.818 203.63C342.488 212.053 350.31 218.277 359.567 220.934L369.57 186.02Z" fill="black"/>
<path d="M169.475 136.862C167.601 138.779 165.587 140.899 163.734 143.02C161.881 145.14 160.018 147.304 158.272 149.521C156.526 151.738 154.877 154.019 153.292 156.322L152.135 158.067L151.064 159.835C150.7 160.424 150.357 161.023 149.993 161.623L149.104 163.262C148.743 164.197 148.537 165.184 148.494 166.186C148.408 167.476 148.408 168.772 148.494 170.063C148.694 172.84 149.052 175.604 149.565 178.341C150.047 181.147 150.636 183.964 151.332 186.759C152.028 189.555 152.714 192.404 153.474 195.167L149.351 196.709C146.853 191.253 144.766 185.618 143.107 179.852C142.252 176.889 141.597 173.873 141.147 170.823C140.921 169.194 140.807 167.552 140.804 165.907C140.775 163.968 141.101 162.041 141.768 160.22C142.025 159.599 142.164 159.342 142.336 158.978L142.839 157.907C143.171 157.2 143.524 156.504 143.91 155.829L144.981 153.783L146.159 151.791C147.734 149.171 149.446 146.637 151.289 144.198C153.11 141.767 154.995 139.389 156.987 137.108C158.979 134.827 161.003 132.642 163.306 130.446L169.475 136.862Z" fill="#E58A7B"/>
<path d="M152.338 193.421L159.664 195.563L154.791 200.511C154.791 200.511 149.511 198.883 148.772 195.284L152.338 193.421Z" fill="#E58A7B"/>
<path d="M164.109 201.239L162.866 205.962L154.791 200.543L159.664 195.605L164.109 201.239Z" fill="#E58A7B"/>
<path d="M98.5312 334.022L104.529 340.458L120.808 328.806L114.8 322.369L98.5312 334.022Z" fill="#E58A7B"/>
<path d="M178.117 357.605L176.682 368.68L168.104 367.244L169.432 356.963L178.117 357.605Z" fill="#CF6F64"/>
<path d="M114.799 322.369L120.797 328.817L114.06 333.636L107.849 327.339L114.799 322.369Z" fill="#CF6F64"/>
<path d="M193.144 181.318C193.144 181.318 176.179 238.135 167.889 270.886C159.15 305.404 117.413 333.55 117.413 333.55L108.502 324.693C108.502 324.693 136.402 301.131 144.916 268.926C162.117 203.52 153.849 189.672 167.557 176.37L193.144 181.318Z" fill="#407BFF"/>
<path opacity="0.6" d="M193.144 181.318C193.144 181.318 176.179 238.135 167.889 270.886C159.15 305.404 117.413 333.55 117.413 333.55L108.502 324.693C108.502 324.693 136.402 301.131 144.916 268.926C162.117 203.52 153.849 189.672 167.557 176.37L193.144 181.318Z" fill="black"/>
<path d="M107.153 339.43L102.151 330.862C102.069 330.713 101.936 330.6 101.776 330.543C101.617 330.486 101.441 330.489 101.284 330.551L94.151 333.422C93.9739 333.506 93.8164 333.626 93.6886 333.775C93.5609 333.923 93.4657 334.097 93.4092 334.285C93.3527 334.472 93.3361 334.67 93.3606 334.864C93.385 335.059 93.45 335.246 93.5512 335.414C95.3505 338.359 96.3572 339.698 98.5635 343.457C99.9237 345.77 101.669 349.283 103.533 352.475C105.396 355.666 108.577 354.039 108.074 352.55C105.825 345.856 107.003 343.918 107.442 340.94C107.522 340.419 107.419 339.885 107.153 339.43Z" fill="#263238"/>
<path d="M118.173 334.814L107.056 323.751L110.076 320.398L123.614 331.922L118.173 334.814Z" fill="#F5F5F5"/>
<path opacity="0.3" d="M185.176 193.421C174.048 201.989 173.298 234.718 173.555 249.498C179.221 228.839 185.915 205.844 189.824 192.553C188.753 191.632 187.221 191.836 185.176 193.421Z" fill="black"/>
<path d="M108.952 344.099C108.847 344.097 108.742 344.079 108.642 344.046C107.571 343.725 106.832 341.786 106.5 340.662C106.488 340.622 106.487 340.579 106.498 340.539C106.51 340.5 106.533 340.464 106.564 340.437C106.597 340.413 106.636 340.4 106.676 340.4C106.717 340.4 106.756 340.413 106.789 340.437C107.11 340.597 109.927 342.065 110.002 343.178C110.013 343.299 109.994 343.42 109.945 343.531C109.896 343.641 109.82 343.738 109.723 343.81C109.506 343.991 109.235 344.093 108.952 344.099ZM107.035 341.026C107.56 342.514 108.192 343.478 108.76 343.66C108.886 343.692 109.018 343.691 109.144 343.658C109.269 343.624 109.384 343.558 109.477 343.468C109.523 343.441 109.559 343.401 109.582 343.353C109.605 343.305 109.613 343.252 109.606 343.2C109.541 342.643 108.171 341.647 107.035 341.026Z" fill="#407BFF"/>
<path d="M109.242 341.39C108.315 341.388 107.401 341.179 106.565 340.78C106.536 340.759 106.512 340.731 106.496 340.7C106.48 340.668 106.472 340.633 106.472 340.598C106.472 340.562 106.48 340.527 106.496 340.495C106.512 340.464 106.536 340.436 106.565 340.416C106.661 340.416 108.771 339.141 109.97 339.537C110.126 339.582 110.269 339.661 110.39 339.768C110.51 339.876 110.605 340.009 110.666 340.158C110.749 340.302 110.78 340.469 110.755 340.633C110.729 340.796 110.649 340.946 110.527 341.058C110.149 341.312 109.696 341.429 109.242 341.39ZM107.1 340.587C108.085 340.983 109.788 341.144 110.238 340.748C110.313 340.683 110.377 340.576 110.238 340.33C110.198 340.233 110.137 340.146 110.059 340.076C109.981 340.005 109.889 339.953 109.788 339.923C108.846 339.869 107.909 340.101 107.1 340.587Z" fill="#407BFF"/>
<path d="M166.862 376.894L175.548 377.537L178.118 357.595L169.443 356.952L166.862 376.894Z" fill="#E58A7B"/>
<path d="M201.819 183.064C201.819 183.064 203.961 251.812 199.13 277.709C194.075 304.644 178.685 365.905 178.685 365.905L166.165 364.288C166.165 364.288 174.09 302.395 177.443 275.642C181.116 246.467 176.307 178.127 176.307 178.127L201.819 183.064Z" fill="#407BFF"/>
<path opacity="0.6" d="M201.819 183.064C201.819 183.064 203.961 251.812 199.13 277.709C194.075 304.644 178.685 365.905 178.685 365.905L166.165 364.288C166.165 364.288 174.09 302.395 177.443 275.642C181.116 246.467 176.307 178.127 176.307 178.127L201.819 183.064Z" fill="black"/>
<path d="M211.457 101.282C211.339 101.979 211.618 102.6 212.068 102.696C212.518 102.793 212.978 102.289 213.139 101.625C213.299 100.961 212.978 100.308 212.528 100.222C212.078 100.136 211.575 100.597 211.457 101.282Z" fill="#263238"/>
<path d="M212.271 100.201L214.017 100.04C214.017 100.04 212.946 101.175 212.271 100.201Z" fill="#263238"/>
<path d="M211.93 102.064C212.289 103.76 212.876 105.4 213.675 106.938C213.275 107.121 212.841 107.215 212.401 107.215C211.961 107.215 211.526 107.121 211.126 106.938L211.93 102.064Z" fill="#DF5753"/>
<path d="M213.128 98.4551C213.049 98.4553 212.971 98.432 212.904 98.3882C212.837 98.3444 212.785 98.282 212.754 98.2087C212.551 97.723 212.241 97.29 211.845 96.9429C211.45 96.5957 210.98 96.3437 210.472 96.206C210.42 96.1969 210.369 96.1775 210.324 96.1489C210.279 96.1203 210.239 96.083 210.209 96.0393C210.178 95.9955 210.156 95.9461 210.144 95.8938C210.132 95.8415 210.131 95.7875 210.14 95.7347C210.161 95.6273 210.223 95.5323 210.313 95.4702C210.404 95.4081 210.515 95.3839 210.622 95.4027C211.263 95.5605 211.857 95.8666 212.358 96.2964C212.858 96.7261 213.251 97.2675 213.503 97.8767C213.547 97.9763 213.551 98.0892 213.513 98.1912C213.475 98.2932 213.398 98.3764 213.3 98.4229L213.128 98.4551Z" fill="#263238"/>
<path d="M189.481 107.023C189.642 112.271 189.106 121.739 184.994 124.427C184.994 124.427 185.529 129.782 194.986 131.656C205.385 133.67 200.812 127.49 200.812 127.49C195.35 125.038 196.196 120.882 197.835 117.144L189.481 107.023Z" fill="#E58A7B"/>
<path d="M216.255 135.104C218.397 136.732 220.753 138.457 223.077 140.031C225.402 141.605 227.779 143.244 230.2 144.669C232.62 146.093 235.073 147.496 237.536 148.813C239.99 150.082 242.511 151.219 245.087 152.219C245.311 152.305 245.236 152.219 245.29 152.294H245.429C245.568 152.314 245.708 152.314 245.847 152.294C246.275 152.296 246.702 152.253 247.121 152.166C248.258 151.888 249.361 151.486 250.409 150.966C252.835 149.735 255.153 148.302 257.339 146.682C259.631 145.065 261.869 143.298 264.065 141.456C266.26 139.613 268.445 137.696 270.544 135.79L273.757 138.735C270.085 143.521 265.984 147.963 261.505 152.005C259.156 154.104 256.614 155.976 253.912 157.595C252.391 158.488 250.774 159.207 249.092 159.737C248.1 160.034 247.075 160.207 246.04 160.252C245.446 160.284 244.851 160.259 244.262 160.177C243.944 160.139 243.63 160.082 243.319 160.005C243.041 159.93 242.602 159.812 242.484 159.759C236.65 157.834 231.036 155.3 225.734 152.198C223.12 150.677 220.539 149.102 218.033 147.41C215.527 145.718 213.128 143.994 210.675 141.991L216.255 135.104Z" fill="#E58A7B"/>
<path d="M269.892 136.604L272.441 130.039L277.796 135.394C277.796 135.394 275.257 140.278 271.616 140.289L269.892 136.604Z" fill="#E58A7B"/>
<path d="M277.72 128.144L282.807 129.739L277.838 135.384L272.461 130.039L277.72 128.144Z" fill="#E58A7B"/>
<path d="M176.082 376.294H166.326C166.155 376.292 165.99 376.352 165.86 376.462C165.73 376.572 165.644 376.726 165.619 376.894L164.301 384.616C164.275 384.809 164.291 385.006 164.348 385.192C164.404 385.379 164.5 385.551 164.629 385.698C164.758 385.844 164.917 385.961 165.095 386.04C165.273 386.12 165.466 386.16 165.661 386.158C169.067 386.105 170.706 385.901 175.001 385.901C177.635 385.901 183.097 386.18 186.782 386.18C190.466 386.18 190.712 382.57 189.202 382.238C182.433 380.782 179.809 378.758 177.56 376.83C177.15 376.476 176.624 376.285 176.082 376.294Z" fill="#263238"/>
<path d="M188.624 94.9207C187.756 103.489 187.199 107.055 190.766 112.228C196.121 119.993 206.831 119.511 210.29 111.468C213.364 104.238 214.285 91.4721 206.52 86.5026C204.869 85.3813 202.954 84.7094 200.964 84.5529C198.975 84.3965 196.978 84.761 195.172 85.6105C193.366 86.4601 191.813 87.7654 190.664 89.3979C189.516 91.0304 188.813 92.9338 188.624 94.9207Z" fill="#E58A7B"/>
<path d="M189.567 113.556C185.497 111.896 181.695 105.342 181.845 95.0923C181.995 84.8429 189.631 78.8988 203.265 83.2149C216.898 87.5311 202.868 118.997 189.567 113.556Z" fill="#263238"/>
<path d="M201.112 84.1573C205.128 82.5829 214.017 84.5322 214.017 92.8967L205.374 99.9117L201.112 84.1573Z" fill="#263238"/>
<path d="M199.987 84.0824C205.342 83.7718 207.42 83.7933 212.272 85.1534C209.08 81.3192 203.104 82.583 199.987 84.0824Z" fill="#263238"/>
<path d="M204.625 99.376C204.459 100.967 204.784 102.57 205.557 103.971C206.628 105.941 208.245 105.673 208.845 104.078C209.391 102.643 209.487 99.8901 207.988 98.4121C206.488 96.9341 204.882 97.6088 204.625 99.376Z" fill="#E58A7B"/>
<path d="M182.691 87.5201C185.797 89.4265 196.357 87.8521 198.638 83.793C200.92 79.7339 193.037 72.9438 185.893 73.1901C178.75 73.4364 175.772 83.2575 182.691 87.5201Z" fill="#407BFF"/>
<path d="M181.352 366.655L163.499 364.352L163.723 360.111L183.141 360.957L181.352 366.655Z" fill="#F5F5F5"/>
<path d="M179.317 377.815C178.399 377.799 177.485 377.695 176.586 377.504C176.544 377.498 176.506 377.477 176.477 377.446C176.448 377.415 176.43 377.375 176.426 377.333C176.42 377.291 176.427 377.248 176.446 377.21C176.466 377.171 176.496 377.14 176.533 377.119C176.929 376.915 180.442 375.137 181.491 375.737C181.59 375.791 181.673 375.869 181.732 375.965C181.79 376.061 181.822 376.171 181.823 376.283C181.845 376.469 181.819 376.657 181.75 376.831C181.681 377.005 181.57 377.159 181.427 377.279C180.808 377.698 180.061 377.887 179.317 377.815ZM177.272 377.215C179.189 377.537 180.613 377.451 181.159 376.98C181.252 376.897 181.323 376.794 181.368 376.679C181.413 376.563 181.429 376.439 181.416 376.316C181.417 376.27 181.405 376.225 181.383 376.186C181.36 376.146 181.327 376.113 181.288 376.091C180.72 375.769 178.718 376.53 177.272 377.215Z" fill="#407BFF"/>
<path d="M176.629 377.504C176.587 377.514 176.543 377.514 176.501 377.504C176.473 377.481 176.452 377.451 176.438 377.417C176.425 377.383 176.421 377.347 176.426 377.311C176.426 377.161 176.843 373.605 178.782 373.605H178.953C179.51 373.659 179.671 373.948 179.714 374.173C179.874 375.158 177.764 377.043 176.715 377.515L176.629 377.504ZM178.771 373.991C177.518 373.991 177.025 376.047 176.865 376.936C177.936 376.283 179.382 374.794 179.285 374.216C179.285 374.216 179.285 374.034 178.889 373.991H178.771Z" fill="#407BFF"/>
<path d="M169.957 123.452C163.927 123.73 158.176 133.723 158.176 133.723L166.133 149.981C166.133 149.981 176.918 140.995 177.058 132.159C177.175 126.419 175.879 123.184 169.957 123.452Z" fill="#407BFF"/>
<path opacity="0.8" d="M169.957 123.452C163.927 123.73 158.176 133.723 158.176 133.723L166.133 149.981C166.133 149.981 176.918 140.995 177.058 132.159C177.175 126.419 175.879 123.184 169.957 123.452Z" fill="white"/>
<path d="M167.515 176.349L202.344 183.097C218.794 134.645 214.864 133.081 214.864 133.081C212.305 131.699 209.665 130.473 206.96 129.407L206.478 129.225C204.261 128.422 203.789 128.294 200.801 127.426C195.671 126.216 190.895 125.231 184.983 124.374L183.858 124.213C182.787 124.085 181.716 123.967 180.699 123.87C180.013 123.795 179.317 123.753 178.664 123.699L176.415 123.581C172.602 123.388 169.882 123.453 169.882 123.453C171.874 153.687 170.417 162.373 167.515 176.349Z" fill="#407BFF"/>
<path opacity="0.6" d="M167.515 176.349L202.344 183.097C218.794 134.645 214.864 133.081 214.864 133.081C212.305 131.699 209.665 130.473 206.96 129.407L206.478 129.225C204.261 128.422 203.789 128.294 200.801 127.426C195.671 126.216 190.895 125.231 184.983 124.374L183.858 124.213C182.787 124.085 181.716 123.967 180.699 123.87C180.013 123.795 179.317 123.753 178.664 123.699L176.415 123.581C172.602 123.388 169.882 123.453 169.882 123.453C171.874 153.687 170.417 162.373 167.515 176.349Z" fill="white"/>
<path opacity="0.2" d="M206.371 144.733C207.752 147.454 209.391 151.063 211.586 153.558C212.218 151.266 212.743 149.274 213.193 147.422L206.371 144.733Z" fill="#407BFF"/>
<path d="M178.45 152.005C187.136 145.14 188.967 138.757 187.757 133.177C186.547 127.597 185.154 117.862 186.15 114.606C187.146 111.35 190.616 104.592 189.91 98.8193C189.203 93.0466 187.553 85.0248 189.138 81.5548C190.723 78.0847 195.757 76.0284 191.677 71.1018C189.695 68.7135 181.299 68.3493 179.103 75.011C176.908 81.6726 167.89 84.5536 164.345 85.2176C160.8 85.8816 154.556 89.8657 153.474 96.356C152.392 102.846 148.033 105.406 142.047 108.737C136.06 112.068 127.449 125.123 130.876 136.711C135.503 152.573 165.512 162.265 178.45 152.005Z" fill="#263238"/>
<path d="M204.561 130.146C207.26 128.004 218.88 135.051 222.436 137.996L220.358 153.269C220.358 153.269 203.758 146.393 202.622 141.691C201.401 136.797 202.419 131.784 204.561 130.146Z" fill="#407BFF"/>
<path opacity="0.6" d="M204.561 130.146C207.26 128.004 218.88 135.051 222.436 137.996L220.358 153.269C220.358 153.269 203.758 146.393 202.622 141.691C201.401 136.797 202.419 131.784 204.561 130.146Z" fill="white"/>
<path d="M167.322 174.218L165.244 177.013C165.083 177.227 165.33 177.527 165.726 177.613L202.258 184.681C202.568 184.746 202.858 184.681 202.911 184.446L203.736 181.404C203.789 181.201 203.554 180.965 203.211 180.901L167.932 174.068C167.826 174.036 167.714 174.034 167.607 174.06C167.499 174.086 167.401 174.141 167.322 174.218Z" fill="#407BFF"/>
<path d="M171.413 179.059L170.471 178.877C170.289 178.877 170.16 178.716 170.192 178.598L171.263 174.657C171.263 174.539 171.478 174.475 171.67 174.507L172.613 174.689C172.795 174.689 172.923 174.85 172.891 174.968L171.82 178.909C171.788 179.027 171.606 179.091 171.413 179.059Z" fill="#407BFF"/>
<path d="M195.275 183.728L194.322 183.546C194.14 183.546 194.011 183.385 194.044 183.268L195.115 179.326C195.115 179.219 195.329 179.155 195.521 179.187L196.464 179.369C196.657 179.369 196.785 179.53 196.753 179.648L195.682 183.589C195.639 183.707 195.457 183.771 195.275 183.728Z" fill="#407BFF"/>
<path opacity="0.6" d="M171.413 179.059L170.471 178.877C170.289 178.877 170.16 178.716 170.192 178.598L171.263 174.657C171.263 174.539 171.478 174.475 171.67 174.507L172.613 174.689C172.795 174.689 172.923 174.85 172.891 174.968L171.82 178.909C171.788 179.027 171.606 179.091 171.413 179.059Z" fill="black"/>
<path opacity="0.6" d="M195.275 183.728L194.322 183.546C194.14 183.546 194.011 183.385 194.044 183.268L195.115 179.326C195.115 179.219 195.329 179.155 195.521 179.187L196.464 179.369C196.657 179.369 196.785 179.53 196.753 179.648L195.682 183.589C195.639 183.707 195.457 183.771 195.275 183.728Z" fill="black"/>
</svg>
