<svg width="20" height="20" viewBox="0 0 20 20" fill="none" xmlns="http://www.w3.org/2000/svg">
<g clip-path="url(#clip0_292_19586)">
<path d="M9.13739 13.6716C6.46738 11.863 5.66125 8.06046 7.33662 5.17811L9.84706 0.859053C10.0775 0.46276 10.5204 0.275027 10.939 0.396414L15.7082 1.77838C15.8992 1.83372 16.0701 1.94945 16.1994 2.11101L19.4266 6.14593C19.71 6.49998 19.7461 7.0123 19.5157 7.4086L17.0052 11.7277C15.3298 14.61 11.8071 15.4802 9.13739 13.6716Z" fill="#165DFF"/>
<g filter="url(#filter0_b_292_19586)">
<path d="M7.4886 20C3.35267 20 0 16.3807 0 11.9158V5.22527C0 4.61119 0.370957 4.06912 0.914716 3.88882L7.10827 1.83417C7.35603 1.75205 7.62116 1.75205 7.8692 1.83417L14.0628 3.88882C14.6062 4.06912 14.9775 4.61119 14.9775 5.22527V11.9158C14.9775 16.3807 11.6245 20 7.4886 20Z" fill="#BEDAFF" fill-opacity="0.5"/>
</g>
<path d="M11.5634 14.3058L9.86904 12.477C10.2995 11.851 10.5545 11.0765 10.5545 10.239C10.5545 8.16444 8.99098 6.47662 7.06922 6.47662C5.14746 6.47662 3.58398 8.16444 3.58398 10.239C3.58398 12.3136 5.14774 14.0011 7.06949 14.0011C7.8183 14.0011 8.51281 13.7447 9.08137 13.3094L10.784 15.1475C10.8918 15.2638 11.0326 15.3218 11.1737 15.3218C11.3148 15.3218 11.4559 15.2638 11.5634 15.1475C11.7789 14.9148 11.7789 14.5382 11.5634 14.3058ZM4.68666 10.2387C4.68666 8.82046 5.75571 7.66639 7.06949 7.66639C8.38328 7.66639 9.45233 8.82046 9.45233 10.2387C9.45233 11.657 8.38328 12.8111 7.06949 12.8111C5.75571 12.8111 4.68666 11.6573 4.68666 10.2387Z" fill="#165DFF"/>
</g>
<defs>
<filter id="filter0_b_292_19586" x="-4" y="-2.22742" width="22.9766" height="26.2274" filterUnits="userSpaceOnUse" color-interpolation-filters="sRGB">
<feFlood flood-opacity="0" result="BackgroundImageFix"/>
<feGaussianBlur in="BackgroundImageFix" stdDeviation="2"/>
<feComposite in2="SourceAlpha" operator="in" result="effect1_backgroundBlur_292_19586"/>
<feBlend mode="normal" in="SourceGraphic" in2="effect1_backgroundBlur_292_19586" result="shape"/>
</filter>
<clipPath id="clip0_292_19586">
<rect width="20" height="20" fill="white"/>
</clipPath>
</defs>
</svg>
