<svg width="19" height="20" viewBox="0 0 19 20" fill="none" xmlns="http://www.w3.org/2000/svg">
<g clip-path="url(#clip0_292_19600)">
<path d="M9.43219 7.06679C8.05658 7.06679 6.9375 5.9477 6.9375 4.5721V2.74782C6.9375 1.37221 8.05658 0.253128 9.43219 0.253128C10.8078 0.253128 11.9269 1.37221 11.9269 2.74782V4.5721C11.9269 5.9477 10.8078 7.06679 9.43219 7.06679ZM9.43219 1.48492C8.73592 1.48492 8.16929 2.05155 8.16929 2.74782V4.5721C8.16929 5.26837 8.73592 5.835 9.43219 5.835C10.1285 5.835 10.6951 5.26837 10.6951 4.5721V2.74782C10.6951 2.05155 10.1285 1.48492 9.43219 1.48492Z" fill="#165DFF"/>
<path d="M9.43283 20C11.4754 20 13.1313 18.3441 13.1313 16.3015C13.1313 14.2589 11.4754 12.6031 9.43283 12.6031C7.39023 12.6031 5.73438 14.2589 5.73438 16.3015C5.73438 18.3441 7.39023 20 9.43283 20Z" fill="#165DFF"/>
<g filter="url(#filter0_b_292_19600)">
<path d="M14.6817 11.8951V8.08025C14.6817 5.18092 12.3314 2.83066 9.43208 2.83066C6.53275 2.83066 4.18249 5.18123 4.18249 8.08025V11.8951C4.18249 12.8904 3.80956 13.8494 3.13731 14.5832L1.4707 16.4025C1.01093 16.9045 1.36692 17.7138 2.04779 17.7138H16.8164C17.4972 17.7138 17.8532 16.9045 17.3935 16.4025L15.7268 14.5832C15.0543 13.8494 14.6817 12.8901 14.6817 11.8951Z" fill="#BEDAFF" fill-opacity="0.5"/>
</g>
<path d="M16.1702 12.1646C16.1138 12.1646 16.0565 12.1529 16.0017 12.1282C15.7963 12.0352 15.7052 11.7932 15.7982 11.5878C16.5086 10.0197 16.5086 7.99279 15.7982 6.42471C15.7052 6.21931 15.7963 5.97726 16.0017 5.88426C16.2074 5.79126 16.4492 5.88242 16.5422 6.08782C17.3456 7.86068 17.3456 10.1521 16.5422 11.9253C16.4741 12.0756 16.3257 12.1646 16.1702 12.1646Z" fill="#165DFF"/>
<path d="M17.7229 12.9815C17.6665 12.9815 17.6093 12.9698 17.5544 12.9452C17.349 12.8522 17.2579 12.6102 17.3509 12.4048C18.2861 10.3403 18.2861 7.67221 17.3509 5.60804C17.2579 5.40264 17.349 5.16059 17.5544 5.06759C17.7602 4.9749 18.0019 5.06574 18.0949 5.27114C19.1231 7.54041 19.1231 10.473 18.0949 12.7423C18.0268 12.8922 17.8784 12.9815 17.7229 12.9815Z" fill="#165DFF"/>
<path d="M2.69559 12.1646C2.54008 12.1646 2.39165 12.0753 2.32328 11.9247C1.51984 10.1518 1.51984 7.86038 2.32328 6.08721C2.41628 5.88181 2.65864 5.79097 2.86373 5.88366C3.06913 5.97666 3.16028 6.21871 3.06728 6.42411C2.35685 7.99249 2.35685 10.0191 3.06728 11.5872C3.16028 11.7926 3.06913 12.0346 2.86373 12.1276C2.80922 12.1529 2.75194 12.1646 2.69559 12.1646Z" fill="#165DFF"/>
<path d="M1.14349 12.9815C0.987975 12.9815 0.839544 12.8922 0.771179 12.7417C-0.25706 10.4724 -0.25706 7.5398 0.771179 5.27053C0.864179 5.06513 1.10623 4.97397 1.31163 5.06697C1.51703 5.15997 1.60818 5.40202 1.51518 5.60742C0.579943 7.67191 0.579943 10.34 1.51518 12.4041C1.60818 12.6095 1.51703 12.8516 1.31163 12.9446C1.25712 12.9698 1.19984 12.9815 1.14349 12.9815Z" fill="#165DFF"/>
<path d="M9.43333 6.01639C8.83499 6.01639 8.36506 6.50449 8.41587 7.07296L8.82945 11.6734C8.85624 11.9721 9.11861 12.2015 9.43303 12.2015C9.74775 12.2015 10.0098 11.9721 10.0366 11.6734L10.4502 7.07296C10.5016 6.50449 10.0317 6.01639 9.43333 6.01639Z" fill="#165DFF"/>
<path d="M9.43288 12.8599C8.88104 12.8599 8.43359 13.2864 8.43359 13.8124C8.43359 14.3384 8.88104 14.7649 9.43288 14.7649C9.98473 14.7649 10.4322 14.3384 10.4322 13.8124C10.4322 13.2864 9.98473 12.8599 9.43288 12.8599Z" fill="#165DFF"/>
</g>
<defs>
<filter id="filter0_b_292_19600" x="-2.73633" y="-1.16934" width="24.3359" height="22.8831" filterUnits="userSpaceOnUse" color-interpolation-filters="sRGB">
<feFlood flood-opacity="0" result="BackgroundImageFix"/>
<feGaussianBlur in="BackgroundImageFix" stdDeviation="2"/>
<feComposite in2="SourceAlpha" operator="in" result="effect1_backgroundBlur_292_19600"/>
<feBlend mode="normal" in="SourceGraphic" in2="effect1_backgroundBlur_292_19600" result="shape"/>
</filter>
<clipPath id="clip0_292_19600">
<rect width="18.8649" height="20" fill="white"/>
</clipPath>
</defs>
</svg>
