<svg width="44" height="44" viewBox="0 0 44 44" fill="none" xmlns="http://www.w3.org/2000/svg">
<g clip-path="url(#clip0_292_19414)">
<path d="M36.21 14.5904H21.5816C18.3834 14.5904 15.791 17.1828 15.791 20.381V35.0094C15.791 38.2076 18.3834 40.8 21.5816 40.8H36.21C39.4082 40.8 42.0006 38.2076 42.0006 35.0094V20.3804C42.0006 17.1828 39.4082 14.5904 36.21 14.5904Z" fill="#165DFF"/>
<g >
<path d="M27.5768 3.19995H9.25339C5.24717 3.19995 2 6.44712 2 10.4533V28.7773C2 32.783 5.24717 36.0307 9.25339 36.0307H27.5774C31.583 36.0307 34.8308 32.7835 34.8308 28.7773V10.4533C34.8302 6.44712 31.583 3.19995 27.5768 3.19995Z" fill="#BEDAFF" fill-opacity="0.5"/>
</g>
<path d="M26.2281 21.7073C25.2649 24.3683 23.1688 26.4638 20.5078 27.4264C22.3269 28.1291 24.2948 28.3589 26.2268 28.0934C26.5734 28.0455 26.846 27.773 26.8939 27.4264C27.1581 25.4943 26.929 23.5271 26.2281 21.7073Z" fill="#165DFF"/>
<path d="M25.1501 19.5633C24.215 18.0864 22.9844 16.8187 21.5355 15.8402C21.7174 14.9071 21.5508 13.9394 21.0664 13.1205C20.4243 12.0367 19.3469 11.281 18.1092 11.0461C17.6873 10.958 17.2743 11.228 17.1856 11.6493C17.185 11.6512 17.185 11.6524 17.1843 11.6544L16.6284 14.3958L13.1963 17.8272L10.4549 18.3838C10.0324 18.47 9.75982 18.8817 9.84598 19.3042C9.84598 19.3055 9.84662 19.3074 9.84662 19.3087C10.0815 20.5463 10.8366 21.6237 11.921 22.2658C12.5268 22.6195 13.2149 22.8084 13.9163 22.8122C14.1576 22.8097 14.3982 22.7816 14.6344 22.7286C15.6103 24.1794 16.8767 25.4119 18.353 26.3496C21.8891 25.8792 24.6733 23.0994 25.1501 19.5633ZM12.7049 20.9159C12.2357 20.6401 11.8604 20.2304 11.6274 19.7382L13.0444 19.4504C13.2429 20.0631 13.4861 20.6606 13.7727 21.2382C13.3961 21.2152 13.031 21.1048 12.7049 20.9159ZM18.5388 12.8269C19.0303 13.0599 19.4407 13.4352 19.7171 13.9043C19.9053 14.2305 20.0158 14.5962 20.0388 14.9722C19.4611 14.6869 18.8637 14.4443 18.2503 14.2471L18.5388 12.8269ZM16.0156 17.2151C16.3201 16.9106 16.8141 16.91 17.1186 17.2151L21.8023 21.8982C22.1068 22.2027 22.1068 22.6967 21.8023 23.0018C21.4979 23.3062 21.0038 23.3062 20.6987 23.0018L16.015 18.3187C15.7105 18.0142 15.7105 17.5202 16.0156 17.2151C16.015 17.2157 16.015 17.2157 16.0156 17.2151Z" fill="#165DFF"/>
<path d="M12.7054 15.0085L10.0584 12.3622C9.75396 12.0578 9.75396 11.5637 10.0584 11.2586C10.3629 10.9542 10.8569 10.9542 11.162 11.2586L13.809 13.9049C14.1134 14.2094 14.1134 14.7034 13.809 15.0085C13.5039 15.313 13.0099 15.313 12.7054 15.0085Z" fill="#165DFF"/>
<path d="M14.3921 12.8013L13.953 12.3622C13.6485 12.0577 13.6485 11.5637 13.953 11.2586C14.2574 10.9535 14.7515 10.9542 15.0566 11.2586L15.4957 11.6978C15.8008 12.0016 15.8021 12.4956 15.4976 12.8013C15.1931 13.1071 14.6997 13.1077 14.394 12.8033C14.3934 12.8026 14.3927 12.802 14.3921 12.8013Z" fill="#165DFF"/>
<path d="M10.4976 16.6949L10.0584 16.2558C9.75396 15.9513 9.75396 15.4573 10.0584 15.1522C10.3629 14.8477 10.8569 14.8477 11.162 15.1522L11.6012 15.5913C11.9056 15.8958 11.9056 16.3898 11.6012 16.6949C11.2967 17 10.8027 17 10.4976 16.6949Z" fill="#165DFF"/>
</g>
<defs>
<filter id="filter0_b_292_19414" x="0" y="1.19995" width="36.8301" height="36.8307" filterUnits="userSpaceOnUse" color-interpolation-filters="sRGB">
<feFlood flood-opacity="0" result="BackgroundImageFix"/>
<feGaussianBlur in="BackgroundImage" stdDeviation="1"/>
<feComposite in2="SourceAlpha" operator="in" result="effect1_backgroundBlur_292_19414"/>
<feBlend mode="normal" in="SourceGraphic" in2="effect1_backgroundBlur_292_19414" result="shape"/>
</filter>
<clipPath id="clip0_292_19414">
<rect width="40" height="37.6001" fill="white" transform="translate(2 3.19995)"/>
</clipPath>
</defs>
</svg>
