<svg width="44" height="44" viewBox="0 0 44 44" fill="none" xmlns="http://www.w3.org/2000/svg">
<g clip-path="url(#clip0_292_19373)">
<path d="M36.21 14.5905H21.5816C18.3834 14.5905 15.791 17.1829 15.791 20.3811V35.0095C15.791 38.2076 18.3834 40.8001 21.5816 40.8001H36.21C39.4082 40.8001 42.0006 38.2076 42.0006 35.0095V20.3805C42.0006 17.1829 39.4082 14.5905 36.21 14.5905Z" fill="#165DFF"/>
<g filter="url(#filter0_b_292_19373)">
<path d="M27.5768 3.19995H9.25339C5.24717 3.19995 2 6.44712 2 10.4533V28.7773C2 32.783 5.24717 36.0307 9.25339 36.0307H27.5774C31.583 36.0307 34.8308 32.7835 34.8308 28.7773V10.4533C34.8302 6.44712 31.583 3.19995 27.5768 3.19995Z" fill="#BEDAFF" fill-opacity="0.5"/>
</g>
<path d="M10.6227 26.8812C9.90576 26.8812 9.32422 26.2996 9.32422 25.5826V24.2841C9.32422 23.5671 9.90576 22.9856 10.6227 22.9856C11.3397 22.9856 11.9213 23.5671 11.9213 24.2841V25.5826C11.9213 26.2996 11.3397 26.8812 10.6227 26.8812Z" fill="#165DFF"/>
<path d="M15.8181 26.8811C15.1011 26.8811 14.5195 26.2995 14.5195 25.5825V20.3879C14.5195 19.6709 15.1011 19.0894 15.8181 19.0894C16.535 19.0894 17.1166 19.6709 17.1166 20.3879V25.5825C17.1171 26.2995 16.5356 26.8811 15.8181 26.8811Z" fill="#165DFF"/>
<path d="M21.0114 26.8811C20.2944 26.8811 19.7129 26.2996 19.7129 25.5826V21.6865C19.7129 20.9695 20.2944 20.3879 21.0114 20.3879C21.7284 20.3879 22.3099 20.9695 22.3099 21.6865V25.5826C22.3105 26.2996 21.729 26.8811 21.0114 26.8811Z" fill="#165DFF"/>
<path d="M26.2067 26.8811C25.4897 26.8811 24.9082 26.2996 24.9082 25.5826V17.7903C24.9082 17.0734 25.4897 16.4918 26.2067 16.4918C26.9237 16.4918 27.5052 17.0734 27.5052 17.7903V25.5826C27.5058 26.2996 26.9243 26.8811 26.2067 26.8811Z" fill="#165DFF"/>
<path d="M10.6227 20.3879C10.2902 20.3879 9.95821 20.2612 9.70461 20.0076C9.19742 19.5004 9.19742 18.6785 9.70461 18.1713L14.8993 12.9766C15.2935 12.583 15.8981 12.4839 16.3984 12.7334L20.8755 14.972L25.4275 11.5571C26.0044 11.1265 26.8159 11.2441 27.2453 11.8164C27.6759 12.3905 27.56 13.2043 26.986 13.6343L21.7913 17.5304C21.3965 17.8261 20.8703 17.8722 20.4311 17.6532L16.0733 15.4745L11.5403 20.0076C11.2873 20.2612 10.9553 20.3879 10.6227 20.3879Z" fill="#165DFF"/>
</g>
<defs>
<filter id="filter0_b_292_19373" x="0" y="1.19995" width="36.8301" height="36.8308" filterUnits="userSpaceOnUse" color-interpolation-filters="sRGB">
<feFlood flood-opacity="0" result="BackgroundImageFix"/>
<feGaussianBlur in="BackgroundImage" stdDeviation="1"/>
<feComposite in2="SourceAlpha" operator="in" result="effect1_backgroundBlur_292_19373"/>
<feBlend mode="normal" in="SourceGraphic" in2="effect1_backgroundBlur_292_19373" result="shape"/>
</filter>
<clipPath id="clip0_292_19373">
<rect width="40" height="37.6001" fill="white" transform="translate(2 3.19995)"/>
</clipPath>
</defs>
</svg>
