<svg width="44" height="44" viewBox="0 0 44 44" fill="none" xmlns="http://www.w3.org/2000/svg">
<path d="M34.6985 16.1061L38.9122 20.3932C39.6086 21.1016 40 22.0629 40 23.0645V39.7001C40 40.3501 39.4891 41 38.7224 41H18.2776C17.6388 41 17 40.4802 17 39.7001V16.2999C17 15.6499 17.5109 15 18.2776 15H32.0729C33.058 14.9994 34.0022 15.3977 34.6985 16.1061Z" fill="#165DFF"/>
<g >
<path d="M27.3159 6.36192L32.6286 11.6379C33.5066 12.5098 34 13.6927 34 14.926V35.4001C34 36.2001 33.3554 37 32.389 37H6.61098C5.80549 37 5 36.3598 5 35.4001V6.59986C5 5.79993 5.64462 5 6.61098 5H24.0049C25.2468 5 26.438 5.49004 27.3159 6.36192Z" fill="#BEDAFF" fill-opacity="0.5"/>
</g>
<path d="M17.6882 27.8733C17.3223 27.8733 16.9564 27.7348 16.6774 27.4579L12.2837 23.0969C11.7257 22.5431 11.7257 21.6448 12.2837 21.0904C12.8417 20.5365 13.7468 20.5365 14.3053 21.0904L17.6882 24.448L24.7593 17.4297C25.3173 16.8758 26.2223 16.8758 26.7809 17.4297C27.3389 17.9835 27.3389 18.8818 26.7809 19.4362L18.6985 27.4579C18.4195 27.7348 18.0536 27.8733 17.6882 27.8733Z" fill="#165DFF"/>
<defs>
<filter id="filter0_b_292_19388" x="1" y="1" width="37" height="40" filterUnits="userSpaceOnUse" color-interpolation-filters="sRGB">
<feFlood flood-opacity="0" result="BackgroundImageFix"/>
<feGaussianBlur in="BackgroundImage" stdDeviation="2"/>
<feComposite in2="SourceAlpha" operator="in" result="effect1_backgroundBlur_292_19388"/>
<feBlend mode="normal" in="SourceGraphic" in2="effect1_backgroundBlur_292_19388" result="shape"/>
</filter>
</defs>
</svg>
