<svg width="16" height="16" viewBox="0 0 16 16" fill="none" xmlns="http://www.w3.org/2000/svg">
<path d="M11.029 9.01346C13.2218 9.01346 14.9994 7.23586 14.9994 5.04307C14.9994 2.85029 13.2218 1.07269 11.029 1.07269C8.83619 1.07269 7.05859 2.85029 7.05859 5.04307C7.05859 7.23586 8.83619 9.01346 11.029 9.01346Z" fill="#12D2AC"/>
<path d="M10.5764 4.21833L1.68432 6.60089C0.889582 6.81415 0.749627 7.88381 1.46273 8.29367L5.16487 10.4197C5.30649 10.5013 5.42478 10.6179 5.50642 10.7612L7.6324 14.4633C8.04227 15.1781 9.11192 15.0382 9.32518 14.2417L11.7077 5.34796C11.891 4.66318 11.2629 4.03505 10.5764 4.21833Z" fill="url(#paint0_linear_285_7088)"/>
<defs>
<linearGradient id="paint0_linear_285_7088" x1="6" y1="10.5" x2="12" y2="4.5" gradientUnits="userSpaceOnUse">
<stop stop-color="#165DFF"/>
<stop offset="1" stop-color="#679AFF"/>
</linearGradient>
</defs>
</svg>
