<svg width="80" height="80" viewBox="0 0 80 80" fill="none" xmlns="http://www.w3.org/2000/svg">
<g clip-path="url(#clip0_37_5757)">
<path d="M70.5165 25.8878L40.214 13.7223C38.5498 13.0538 36.6179 13.9621 35.8999 15.7509L26.7479 38.5462C26.0299 40.335 26.7966 42.3273 28.4616 42.995L32.7014 44.6971L30.884 49.2232L41.7869 48.3482L41.3413 48.1664L58.7633 55.1613C60.4276 55.8298 62.3595 54.9215 63.0775 53.1327L72.2295 30.3373C72.9483 28.5486 72.1815 26.5563 70.5165 25.8878Z" fill="#165DFF"/>
<g >
<path d="M54.5186 22H14.4821C12.2831 22 10.5 23.9206 10.5 26.29V56.4786C10.5 58.8479 12.2831 60.7686 14.4821 60.7686H19.9485C20.0236 60.7686 20.084 60.8324 20.084 60.91V64.6967C20.084 65.6539 21.0418 66.2839 21.8693 65.8714C21.8693 65.8714 31.6439 60.7694 31.4996 60.7686H54.5179C56.7169 60.7686 58.5 58.8479 58.5 56.4786V26.29C58.5007 23.9206 56.7176 22 54.5186 22Z" fill="#BEDAFF" fill-opacity="0.5"/>
</g>
<path d="M22.8988 34.0711H14.97C14.1584 34.0711 13.5 33.4127 13.5 32.6011C13.5 31.7895 14.1584 31.1311 14.97 31.1311H22.8988C23.7104 31.1311 24.3689 31.7895 24.3689 32.6011C24.3689 33.4135 23.7104 34.0711 22.8988 34.0711Z" fill="#165DFF"/>
<path d="M30.9344 41.8824H14.97C14.1584 41.8824 13.5 41.224 13.5 40.4124C13.5 39.6008 14.1584 38.9424 14.97 38.9424H30.9344C31.746 38.9424 32.4044 39.6008 32.4044 40.4124C32.4044 41.224 31.746 41.8824 30.9344 41.8824Z" fill="#165DFF"/>
<path d="M41.1089 57.3926C40.7862 57.3926 40.4714 57.2921 40.2083 57.1033C35.4214 53.6766 33.3735 47.5953 35.112 41.9714L36.575 37.2379C36.7754 36.5888 37.3758 36.1478 38.0536 36.1478C38.0621 36.1478 38.0698 36.1478 38.0783 36.1478L46.705 36.2839C46.9998 36.2886 47.2876 36.3776 47.5336 36.54L54.7251 41.2921C55.2984 41.6712 55.5538 42.383 55.3503 43.0398L53.8864 47.7756C52.1487 53.3988 47.0276 57.2627 41.1437 57.3919C41.1313 57.3926 41.1197 57.3926 41.1089 57.3926ZM39.1886 39.2603L38.0683 42.8851C36.7754 47.0685 38.1905 51.5776 41.594 54.2739C45.9236 53.9675 49.6358 51.0437 50.9278 46.8619L52.0489 43.2348L46.2021 39.371L39.1886 39.2603Z" fill="#165DFF"/>
<path d="M42.267 50.53C41.7115 50.53 41.1745 50.2298 40.8975 49.7045L38.7722 45.6781C38.373 44.9222 38.6623 43.9861 39.4182 43.5876C40.1741 43.1884 41.1103 43.4778 41.5088 44.2337L42.9115 46.8913L48.4449 43.9706C49.2008 43.5722 50.137 43.8607 50.5354 44.6166C50.9347 45.3725 50.6453 46.3087 49.8894 46.7072L42.9873 50.3505C42.7575 50.472 42.5099 50.53 42.267 50.53Z" fill="#165DFF"/>
</g>
<defs>
<filter id="filter0_b_37_5757" x="6.5" y="18" width="56" height="52" filterUnits="userSpaceOnUse" color-interpolation-filters="sRGB">
<feFlood flood-opacity="0" result="BackgroundImageFix"/>
<feGaussianBlur in="BackgroundImage" stdDeviation="2"/>
<feComposite in2="SourceAlpha" operator="in" result="effect1_backgroundBlur_37_5757"/>
<feBlend mode="normal" in="SourceGraphic" in2="effect1_backgroundBlur_37_5757" result="shape"/>
</filter>
<clipPath id="clip0_37_5757">
<rect width="64" height="52.995" fill="white" transform="translate(8 13.5025)"/>
</clipPath>
</defs>
</svg>
