<svg width="80" height="80" viewBox="0 0 80 80" fill="none" xmlns="http://www.w3.org/2000/svg">
<path d="M66.9598 36.0979L33.5532 26.1844C33.2895 26.1058 33.0125 26.2566 32.934 26.5203L28.2504 42.3025C27.6248 44.4112 28.8268 46.6278 30.9354 47.2533L57.6606 55.1837C59.7693 55.8092 61.9859 54.6073 62.6114 52.4986L67.2943 36.7164C67.3736 36.4527 67.2228 36.1757 66.9598 36.0979ZM43.1119 38.1196L41.2353 39.5333L42.0789 41.3811C42.3643 42.0066 42.0887 42.745 41.4639 43.0304C41.1792 43.1601 40.8714 43.1742 40.5937 43.0914C40.2606 42.9925 39.971 42.7555 39.8153 42.4154L38.5559 39.6567C38.3132 39.1252 38.4731 38.4976 38.9395 38.1455L41.614 36.1308C42.1631 35.7171 42.9436 35.8272 43.3566 36.3763C43.771 36.9254 43.6609 37.7065 43.1119 38.1196ZM49.4294 38.5298L45.6013 44.6636C45.2983 45.1489 44.7149 45.3529 44.1918 45.198C44.0866 45.1671 43.9835 45.1208 43.886 45.0605C43.3033 44.6973 43.1252 43.9294 43.4891 43.3453L47.3172 37.2115C47.6805 36.6287 48.4462 36.4513 49.0325 36.8146C49.6152 37.1778 49.7926 37.9457 49.4294 38.5298ZM53.9153 43.7092L51.2407 45.7239C50.9125 45.9714 50.5023 46.031 50.1369 45.923C49.8901 45.8501 49.665 45.7 49.4981 45.4792C49.0844 44.9301 49.1945 44.1496 49.7435 43.7366L51.6201 42.3228L50.7765 40.4751C50.4911 39.8496 50.7667 39.1111 51.3915 38.8257C52.017 38.541 52.7554 38.8166 53.0408 39.4407L54.2995 42.1987C54.5408 42.7303 54.3816 43.3579 53.9153 43.7092Z" fill="#165DFF"/>
<path d="M67.1496 23.2089L40.4244 15.2786C38.3158 14.653 36.0991 15.855 35.4736 17.9636L33.926 23.1795C33.8474 23.4432 33.9982 23.7202 34.2619 23.7987L67.6685 33.7115C67.9322 33.79 68.2092 33.6393 68.2877 33.3756L69.8354 28.1597C70.4602 26.0511 69.2582 23.8345 67.1496 23.2089ZM42.8262 21.1837C42.5134 22.2377 41.4047 22.8394 40.3508 22.5259C39.2968 22.2125 38.6951 21.1045 39.0086 20.0505C39.3213 18.9966 40.43 18.3949 41.484 18.7084C42.538 19.0211 43.1389 20.1298 42.8262 21.1837ZM49.0301 23.0252C48.7173 24.0792 47.6094 24.6809 46.5547 24.3674C45.5007 24.0547 44.899 22.946 45.2125 21.892C45.5253 20.838 46.6339 20.2364 47.6879 20.5498C48.7419 20.8626 49.3428 21.9705 49.0301 23.0252Z" fill="#165DFF"/>
<g filter="url(#filter0_b_37_5729)">
<path d="M54.7317 38.3811H10.6296C10.2818 38.3811 9.99988 38.663 9.99988 39.0108V59.8462C9.99988 62.6295 12.2565 64.8868 15.0404 64.8868H50.3215C53.1055 64.8868 55.3621 62.6302 55.3621 59.8462V39.0115C55.3621 38.6637 55.0795 38.3811 54.7317 38.3811Z" fill="#BEDAFF" fill-opacity="0.5"/>
</g>
<path d="M26.2929 55.9719C25.9941 56.2313 25.6253 56.3597 25.2585 56.3597C24.8189 56.3597 24.382 56.1767 24.0706 55.8197L21.5503 52.9271C21.0651 52.3696 21.0321 51.5498 21.4718 50.9559L23.9921 47.5485C24.5096 46.848 25.4956 46.7021 26.1947 47.2189C26.8938 47.7358 27.0418 48.7224 26.5243 49.4216L24.7564 51.8121L26.445 53.7503C27.0173 54.4053 26.9485 55.4011 26.2929 55.9719Z" fill="#165DFF"/>
<path d="M34.3369 47.6439L31.9008 56.4642C31.7079 57.1619 31.074 57.6198 30.3826 57.6198C30.2444 57.6198 30.1028 57.6016 29.9625 57.563C29.1245 57.3316 28.6323 56.4642 28.8637 55.6248L31.2998 46.8045C31.5312 45.9665 32.3958 45.4756 33.238 45.7056C34.076 45.9371 34.5683 46.8045 34.3369 47.6439Z" fill="#165DFF"/>
<path d="M41.6455 52.3135L39.1252 55.7208C38.8166 56.1395 38.3398 56.3597 37.858 56.3597C37.5326 56.3597 37.2045 56.2587 36.9226 56.0511C36.2234 55.5343 36.0755 54.5477 36.593 53.8485L38.3608 51.4573L36.6722 49.519C36.1007 48.8634 36.1687 47.8676 36.8251 47.2968C37.4815 46.726 38.4765 46.7947 39.0473 47.4496L41.5676 50.3423C42.0515 50.8998 42.0844 51.7195 41.6455 52.3135Z" fill="#165DFF"/>
<g filter="url(#filter1_b_37_5729)">
<path d="M50.3215 22.6754H15.0404C12.2565 22.6754 9.99988 24.932 9.99988 27.7152V34.6007C9.99988 34.9486 10.2818 35.2305 10.6296 35.2305H54.7317C55.0795 35.2305 55.3614 34.9486 55.3614 34.6007V27.7152C55.3621 24.932 53.1055 22.6754 50.3215 22.6754Z" fill="#BEDAFF" fill-opacity="0.5"/>
</g>
<path d="M17.5602 31.4956C18.9521 31.4956 20.0805 30.3673 20.0805 28.9754C20.0805 27.5834 18.9521 26.4551 17.5602 26.4551C16.1683 26.4551 15.0399 27.5834 15.0399 28.9754C15.0399 30.3673 16.1683 31.4956 17.5602 31.4956Z" fill="#165DFF"/>
<path d="M25.7506 31.4956C27.1425 31.4956 28.2709 30.3673 28.2709 28.9754C28.2709 27.5834 27.1425 26.4551 25.7506 26.4551C24.3587 26.4551 23.2303 27.5834 23.2303 28.9754C23.2303 30.3673 24.3587 31.4956 25.7506 31.4956Z" fill="#165DFF"/>
<defs>
<filter id="filter0_b_37_5729" x="5.99988" y="34.3811" width="53.3622" height="34.5057" filterUnits="userSpaceOnUse" color-interpolation-filters="sRGB">
<feFlood flood-opacity="0" result="BackgroundImageFix"/>
<feGaussianBlur in="BackgroundImage" stdDeviation="2"/>
<feComposite in2="SourceAlpha" operator="in" result="effect1_backgroundBlur_37_5729"/>
<feBlend mode="normal" in="SourceGraphic" in2="effect1_backgroundBlur_37_5729" result="shape"/>
</filter>
<filter id="filter1_b_37_5729" x="5.99988" y="18.6754" width="53.3615" height="20.5551" filterUnits="userSpaceOnUse" color-interpolation-filters="sRGB">
<feFlood flood-opacity="0" result="BackgroundImageFix"/>
<feGaussianBlur in="BackgroundImage" stdDeviation="2"/>
<feComposite in2="SourceAlpha" operator="in" result="effect1_backgroundBlur_37_5729"/>
<feBlend mode="normal" in="SourceGraphic" in2="effect1_backgroundBlur_37_5729" result="shape"/>
</filter>
</defs>
</svg>
