<svg width="40" height="46" viewBox="0 0 40 46" fill="none" xmlns="http://www.w3.org/2000/svg">
<path d="M38.8631 32.6108V19.1664C38.8631 17.1413 37.3367 15.5 35.4543 15.5H19.5453C17.6624 15.5 16.1364 17.1417 16.1364 19.1664V32.6108C15.5086 32.6108 15 33.1579 15 33.8331V35.0554C15 36.4054 16.0177 37.5 17.2728 37.5H37.7271C38.9823 37.5 40 36.4054 40 35.0554V33.8331C39.9996 33.1579 39.4909 32.6108 38.8631 32.6108Z" fill="#165DFF"/>
<g filter="url(#filter0_b_290_7400)">
<path fill-rule="evenodd" clip-rule="evenodd" d="M32.4723 24.3094V6.23743C32.4723 3.51528 30.3953 1.30847 27.8333 1.30847H6.18511C3.62311 1.30847 1.54614 3.51528 1.54614 6.23743V24.3094H0V27.5956C0 29.4107 1.38448 30.8817 3.09281 30.8822H30.9256C32.6339 30.8822 34.0184 29.4107 34.0184 27.5961V24.3099V24.3094H32.4723Z" fill="#BEDAFF" fill-opacity="0.5"/>
</g>
<path d="M22.8575 15.6154L21.3839 15.0938C21.2646 15.0514 21.1434 15.0286 21.0236 15.0224V14.1474C21.1424 14.1412 21.2627 14.1185 21.381 14.0765L22.8546 13.5555C23.5564 13.3071 23.9352 12.502 23.702 11.7564C23.4682 11.0108 22.7105 10.6083 22.0087 10.8561L20.9388 11.2349C20.7494 10.6936 20.2605 10.3076 19.6854 10.3076C19.6854 8.73675 18.4869 7.46338 17.0084 7.46338C15.53 7.46338 14.3315 8.73675 14.3315 10.3076C13.7686 10.3076 13.2874 10.6776 13.0897 11.2007L12.0159 10.8209C11.3142 10.5726 10.5564 10.9756 10.3227 11.7212C10.0889 12.4668 10.4683 13.272 11.17 13.5203L12.6436 14.0414C12.7595 14.0822 12.8769 14.105 12.9933 14.1123V15.0358C12.8735 15.0421 12.7527 15.0648 12.6329 15.1073L11.1593 15.6283C10.4576 15.8767 10.0787 16.6818 10.312 17.4274C10.5457 18.173 11.3035 18.5755 12.0052 18.3277L13.3858 17.8392C14.033 19.273 15.4116 20.2628 17.0079 20.2628C18.6086 20.2628 19.9897 19.2678 20.635 17.8284L22.0107 18.3153C22.7124 18.5636 23.4702 18.1606 23.7039 17.415C23.9386 16.6688 23.5593 15.8637 22.8575 15.6154Z" fill="#165DFF"/>
<defs>
<filter id="filter0_b_290_7400" x="-2" y="-0.691528" width="38.0186" height="33.5738" filterUnits="userSpaceOnUse" color-interpolation-filters="sRGB">
<feFlood flood-opacity="0" result="BackgroundImageFix"/>
<feGaussianBlur in="BackgroundImage" stdDeviation="1"/>
<feComposite in2="SourceAlpha" operator="in" result="effect1_backgroundBlur_290_7400"/>
<feBlend mode="normal" in="SourceGraphic" in2="effect1_backgroundBlur_290_7400" result="shape"/>
</filter>
</defs>
</svg>
