<svg width="44" height="44" viewBox="0 0 44 44" fill="none" xmlns="http://www.w3.org/2000/svg">
<g clip-path="url(#clip0_113_5908)">
<path d="M30.0603 41.3878C36.6544 41.3878 42 36.0422 42 29.4481C42 22.854 36.6544 17.5084 30.0603 17.5084C23.4662 17.5084 18.1206 22.854 18.1206 29.4481C18.1206 36.0422 23.4662 41.3878 30.0603 41.3878Z" fill="#165DFF"/>
<g>
<path d="M19.0707 36.7538C28.4986 36.7538 36.1415 29.1109 36.1415 19.683C36.1415 10.2551 28.4986 2.6123 19.0707 2.6123C9.64283 2.6123 2 10.2551 2 19.683C2 29.1109 9.64283 36.7538 19.0707 36.7538Z" fill="#BEDAFF" fill-opacity="0.5"/>
</g>
<path d="M23.3385 16.7429C23.3385 14.3916 21.4323 12.486 19.0815 12.486C16.7307 12.486 14.8245 14.3922 14.8245 16.7429C14.8251 18.1316 15.4857 19.4376 16.6047 20.261C14.3607 21.4065 12.8773 23.6396 12.6909 26.1521C12.6909 26.558 12.899 26.8808 13.2845 26.8808H24.8484C25.2441 26.8808 25.4522 26.558 25.4522 26.1521C25.2561 23.6487 23.7855 21.4228 21.5596 20.261C22.7214 19.4756 23.3946 18.1442 23.3385 16.7429Z" fill="#165DFF"/>
<path d="M28.3804 13.2605H27.4828V12.3629C27.4828 11.9014 27.1088 11.528 26.6479 11.528C26.1864 11.528 25.813 11.902 25.813 12.3629V13.2605H24.9154C24.454 13.2605 24.0806 13.6345 24.0806 14.0954C24.0806 14.5568 24.4546 14.9302 24.9154 14.9302H25.813V15.8278C25.813 16.2893 26.187 16.6627 26.6479 16.6627C27.1094 16.6627 27.4828 16.2887 27.4828 15.8278V14.9302H28.3804C28.8418 14.9302 29.2152 14.5562 29.2152 14.0954C29.2152 13.6345 28.8412 13.2605 28.3804 13.2605Z" fill="#165DFF"/>
</g>
<defs>
<filter id="filter0_b_113_5908" x="-2" y="-1.3877" width="42.1414" height="42.1415" filterUnits="userSpaceOnUse" color-interpolation-filters="sRGB">
<feFlood flood-opacity="0" result="BackgroundImageFix"/>
<feGaussianBlur in="BackgroundImage" stdDeviation="2"/>
<feComposite in2="SourceAlpha" operator="in" result="effect1_backgroundBlur_113_5908"/>
<feBlend mode="normal" in="SourceGraphic" in2="effect1_backgroundBlur_113_5908" result="shape"/>
</filter>
<clipPath id="clip0_113_5908">
<rect width="40" height="38.7754" fill="white" transform="translate(2 2.6123)"/>
</clipPath>
</defs>
</svg>
