<svg width="44" height="44" viewBox="0 0 44 44" fill="none" xmlns="http://www.w3.org/2000/svg">
<g clip-path="url(#clip0_113_5883)">
<path d="M40.3819 35.4599C42.5396 31.9475 42.5396 27.5208 40.3819 24.0084C37.2195 18.8607 30.4834 17.2514 25.3358 20.4138C20.1882 23.5763 18.5788 30.3123 21.7413 35.4599C24.9037 40.6076 31.6397 42.2169 36.7874 39.0544L40.5109 40.0619C40.76 40.1286 41.0251 40.0575 41.2081 39.8756C41.3883 39.6943 41.4577 39.4298 41.3894 39.1834L40.3819 35.4599Z" fill="#165DFF"/>
<g filter="url(#filter0_b_113_5883)">
<path d="M2.90987 33.6797C2.80846 34.0468 2.91152 34.4403 3.17993 34.7104C3.45164 34.981 3.8468 35.0868 4.21772 34.9876L9.76052 33.4879C17.4236 38.1958 27.4521 35.8 32.1599 28.1369C36.8677 20.4739 34.4719 10.4454 26.8089 5.73754C19.1459 1.02972 9.11734 3.42552 4.40952 11.0885C1.19748 16.3172 1.19748 22.9077 4.40952 28.1364L2.90987 33.6797Z" fill="#BEDAFF" fill-opacity="0.5"/>
</g>
<path d="M11.2791 21.9415C12.5654 21.9415 13.6082 20.8988 13.6082 19.6124C13.6082 18.3261 12.5654 17.2833 11.2791 17.2833C9.99273 17.2833 8.94995 18.3261 8.94995 19.6124C8.94995 20.8988 9.99273 21.9415 11.2791 21.9415Z" fill="#165DFF"/>
<path d="M18.2857 21.9415C19.572 21.9415 20.6148 20.8988 20.6148 19.6124C20.6148 18.3261 19.572 17.2833 18.2857 17.2833C16.9993 17.2833 15.9565 18.3261 15.9565 19.6124C15.9565 20.8988 16.9993 21.9415 18.2857 21.9415Z" fill="#165DFF"/>
<path d="M25.2922 21.9415C26.5786 21.9415 27.6214 20.8988 27.6214 19.6124C27.6214 18.3261 26.5786 17.2833 25.2922 17.2833C24.0059 17.2833 22.9631 18.3261 22.9631 19.6124C22.9631 20.8988 24.0059 21.9415 25.2922 21.9415Z" fill="#165DFF"/>
</g>
<defs>
<filter id="filter0_b_113_5883" x="-0.999512" y="0.325989" width="38.571" height="38.5735" filterUnits="userSpaceOnUse" color-interpolation-filters="sRGB">
<feFlood flood-opacity="0" result="BackgroundImageFix"/>
<feGaussianBlur in="BackgroundImage" stdDeviation="1.5"/>
<feComposite in2="SourceAlpha" operator="in" result="effect1_backgroundBlur_113_5883"/>
<feBlend mode="normal" in="SourceGraphic" in2="effect1_backgroundBlur_113_5883" result="shape"/>
</filter>
<clipPath id="clip0_113_5883">
<rect width="40" height="37.3485" fill="white" transform="translate(2 3.32574)"/>
</clipPath>
</defs>
</svg>
