<svg width="44" height="44" viewBox="0 0 44 44" fill="none" xmlns="http://www.w3.org/2000/svg">
<g clip-path="url(#clip0_113_5897)">
<path d="M37.3523 40.2992H20.7812C19.2454 40.2992 18 39.0538 18 37.5181V20.9469C18 19.4111 19.2454 18.1657 20.7812 18.1657H37.3523C38.8881 18.1657 40.1335 19.4111 40.1335 20.9469V37.5181C40.1335 39.0544 38.8887 40.2992 37.3523 40.2992Z" fill="#165DFF"/>
<g >
<path d="M29.5524 35.2126H5.95942C3.77282 35.2126 2 33.4398 2 31.2532V7.66023C2 5.47362 3.77282 3.70081 5.95942 3.70081H29.5524C31.739 3.70081 33.5118 5.47362 33.5118 7.66023V31.2532C33.5118 33.4398 31.739 35.2126 29.5524 35.2126Z" fill="#BEDAFF" fill-opacity="0.5"/>
</g>
<path d="M22.619 21.1988L14.6359 25.1916C13.6734 25.6731 12.5026 25.2828 12.0217 24.3204C11.8863 24.0495 11.8157 23.751 11.8157 23.448V15.4643C11.8157 14.3882 12.688 13.5159 13.7641 13.5159C14.0666 13.5159 14.365 13.5865 14.6359 13.7219L22.619 17.714C23.5815 18.1956 23.9711 19.3658 23.4896 20.3282C23.3014 20.7047 22.9961 21.0106 22.619 21.1988Z" fill="#165DFF"/>
</g>
<defs>
<filter id="filter0_b_113_5897" x="-2" y="-0.299194" width="39.5117" height="39.5118" filterUnits="userSpaceOnUse" color-interpolation-filters="sRGB">
<feFlood flood-opacity="0" result="BackgroundImageFix"/>
<feGaussianBlur in="BackgroundImage" stdDeviation="2"/>
<feComposite in2="SourceAlpha" operator="in" result="effect1_backgroundBlur_113_5897"/>
<feBlend mode="normal" in="SourceGraphic" in2="effect1_backgroundBlur_113_5897" result="shape"/>
</filter>
<clipPath id="clip0_113_5897">
<rect width="40" height="36.5984" fill="white" transform="translate(2 3.70081)"/>
</clipPath>
</defs>
</svg>
