<svg width="16" height="17" viewBox="0 0 16 17" fill="none" xmlns="http://www.w3.org/2000/svg">
<path d="M11.0295 9.51303C13.2222 9.51303 14.9998 7.73543 14.9998 5.54265C14.9998 3.34987 13.2222 1.57227 11.0295 1.57227C8.83668 1.57227 7.05908 3.34987 7.05908 5.54265C7.05908 7.73543 8.83668 9.51303 11.0295 9.51303Z" fill="#12D2AC"/>
<path d="M10.5764 4.71778L1.68432 7.10034C0.889582 7.3136 0.749627 8.38326 1.46273 8.79312L5.16487 10.9191C5.30649 11.0007 5.42478 11.1174 5.50642 11.2607L7.6324 14.9628C8.04227 15.6776 9.11192 15.5376 9.32518 14.7412L11.7077 5.84741C11.891 5.16263 11.2629 4.5345 10.5764 4.71778Z" fill="url(#paint0_linear_197_6314)"/>
<defs>
<linearGradient id="paint0_linear_197_6314" x1="6" y1="10.9995" x2="12" y2="4.99945" gradientUnits="userSpaceOnUse">
<stop stop-color="#165DFF"/>
<stop offset="1" stop-color="#679AFF"/>
</linearGradient>
</defs>
</svg>
