<svg width="60" height="60" viewBox="0 0 60 60" fill="none" xmlns="http://www.w3.org/2000/svg">
<rect x="0.5" y="0.5" width="59" height="59" rx="7.5" fill="#E8F3FF"/>
<g clip-path="url(#clip0_113_6295)">
<path d="M48.4583 14.6763C39.9417 14.6763 31.1167 7.91415 31.0333 7.84275C30.45 7.38575 29.55 7.38575 28.9667 7.84275C28.875 7.91415 20.075 14.6763 11.5417 14.6763C10.6917 14.6763 10 15.2618 10 15.9902V31.778C10 44.5668 21.1 49.6795 29.45 52.4072C29.625 52.4643 29.8167 52.4929 30 52.4929C30.1833 52.4929 30.375 52.4643 30.55 52.4072C42.2583 48.5798 50 42.6031 50 31.778V15.9902C50 15.2618 49.3083 14.6763 48.4583 14.6763Z" fill="url(#paint0_linear_113_6295)"/>
<path d="M30.0002 20.7672C24.9415 20.7672 20.8335 24.9088 20.8335 29.9929C20.8335 35.077 24.9415 39.2256 30.0002 39.2256C35.0589 39.2256 39.1668 35.0841 39.1668 30C39.1668 24.9159 35.0589 20.7672 30.0002 20.7672ZM33.5476 29.6144L29.617 33.5703C29.3616 33.8274 29.0282 33.9559 28.6876 33.9559C28.3541 33.9559 28.0207 33.8274 27.7582 33.5703L26.4527 32.2493C25.9419 31.7352 25.9419 30.8997 26.4527 30.3856C26.9635 29.8715 27.7936 29.8715 28.3045 30.3856L28.6876 30.7712L31.6888 27.7507C32.1996 27.2366 33.0297 27.2366 33.5405 27.7507C34.0585 28.2648 34.0585 29.1003 33.5476 29.6144Z" fill="url(#paint1_linear_113_6295)"/>
</g>
<rect x="0.5" y="0.5" width="59" height="59" rx="7.5" stroke="url(#paint2_linear_113_6295)"/>
<defs>
<linearGradient id="paint0_linear_113_6295" x1="45.8333" y1="43.917" x2="15.152" y2="10.6089" gradientUnits="userSpaceOnUse">
<stop stop-color="#165DFF"/>
<stop offset="1" stop-color="#6AA1FF"/>
</linearGradient>
<linearGradient id="paint1_linear_113_6295" x1="30.0002" y1="39.2261" x2="30.0002" y2="20.7704" gradientUnits="userSpaceOnUse">
<stop stop-color="#BEDAFF"/>
<stop offset="0.9973" stop-color="white"/>
</linearGradient>
<linearGradient id="paint2_linear_113_6295" x1="30" y1="0" x2="30" y2="60" gradientUnits="userSpaceOnUse">
<stop stop-color="#BEDAFF"/>
<stop offset="1" stop-color="white"/>
</linearGradient>
<clipPath id="clip0_113_6295">
<rect width="40" height="45" fill="white" transform="translate(10 7.5)"/>
</clipPath>
</defs>
</svg>
