<svg width="48" height="49" viewBox="0 0 48 49" fill="none" xmlns="http://www.w3.org/2000/svg">
<rect x="0.4" y="0.9" width="47.2" height="47.2" rx="6" fill="#E8F3FF"/>
<g clip-path="url(#clip0_113_6629)">
<path d="M24 41.5C33.3888 41.5 41 33.8888 41 24.5C41 15.1112 33.3888 7.5 24 7.5C14.6112 7.5 7 15.1112 7 24.5C7 33.8888 14.6112 41.5 24 41.5Z" fill="black"/>
<path d="M24 41.5C33.3888 41.5 41 33.8888 41 24.5C41 15.1112 33.3888 7.5 24 7.5C14.6112 7.5 7 15.1112 7 24.5C7 33.8888 14.6112 41.5 24 41.5Z" fill="url(#paint0_linear_113_6629)"/>
<path d="M21.2 24.5C21.2 24.8253 21.152 25.1402 21.0638 25.4391L25.8446 28.1152C26.4974 27.483 27.4016 27.0909 28.4 27.0909C30.3848 27.0909 32 28.6408 32 30.5455C32 32.4501 30.3848 34 28.4 34C26.4152 34 24.8 32.4501 24.8 30.5455C24.8 30.2202 24.848 29.9052 24.9362 29.6064L20.1554 26.9303C19.5026 27.5625 18.5984 27.9545 17.6 27.9545C15.6152 27.9545 14 26.4046 14 24.5C14 22.5954 15.6152 21.0455 17.6 21.0455C18.5984 21.0455 19.5026 21.4375 20.1554 22.0697L24.9362 19.3936C24.848 19.0948 24.8 18.7798 24.8 18.4545C24.8 16.5499 26.4152 15 28.4 15C30.3848 15 32 16.5499 32 18.4545C32 20.3592 30.3848 21.9091 28.4 21.9091C27.4016 21.9091 26.4974 21.517 25.8446 20.8848L21.0638 23.5609C21.152 23.8598 21.2 24.1747 21.2 24.5Z" fill="white"/>
<path d="M21.2 24.5C21.2 24.8253 21.152 25.1402 21.0638 25.4391L25.8446 28.1152C26.4974 27.483 27.4016 27.0909 28.4 27.0909C30.3848 27.0909 32 28.6408 32 30.5455C32 32.4501 30.3848 34 28.4 34C26.4152 34 24.8 32.4501 24.8 30.5455C24.8 30.2202 24.848 29.9052 24.9362 29.6064L20.1554 26.9303C19.5026 27.5625 18.5984 27.9545 17.6 27.9545C15.6152 27.9545 14 26.4046 14 24.5C14 22.5954 15.6152 21.0455 17.6 21.0455C18.5984 21.0455 19.5026 21.4375 20.1554 22.0697L24.9362 19.3936C24.848 19.0948 24.8 18.7798 24.8 18.4545C24.8 16.5499 26.4152 15 28.4 15C30.3848 15 32 16.5499 32 18.4545C32 20.3592 30.3848 21.9091 28.4 21.9091C27.4016 21.9091 26.4974 21.517 25.8446 20.8848L21.0638 23.5609C21.152 23.8598 21.2 24.1747 21.2 24.5Z" fill="url(#paint1_linear_113_6629)"/>
</g>
<rect x="0.4" y="0.9" width="47.2" height="47.2" rx="6" stroke="url(#paint2_linear_113_6629)" stroke-width="0.8"/>
<defs>
<linearGradient id="paint0_linear_113_6629" x1="37.4583" y1="35.0194" x2="14.6516" y2="7.16956" gradientUnits="userSpaceOnUse">
<stop stop-color="#165DFF"/>
<stop offset="1" stop-color="#6AA1FF"/>
</linearGradient>
<linearGradient id="paint1_linear_113_6629" x1="23" y1="34.0004" x2="23" y2="15.0032" gradientUnits="userSpaceOnUse">
<stop stop-color="#BEDAFF"/>
<stop offset="0.9973" stop-color="white"/>
</linearGradient>
<linearGradient id="paint2_linear_113_6629" x1="24" y1="0.5" x2="24" y2="48.5" gradientUnits="userSpaceOnUse">
<stop stop-color="#BEDAFF"/>
<stop offset="1" stop-color="white"/>
</linearGradient>
<clipPath id="clip0_113_6629">
<rect width="34" height="34" fill="white" transform="translate(7 7.5)"/>
</clipPath>
</defs>
</svg>
