<svg width="48" height="49" viewBox="0 0 48 49" fill="none" xmlns="http://www.w3.org/2000/svg">
<rect x="0.4" y="0.9" width="47.2" height="47.2" rx="6" fill="#E8F3FF"/>
<g clip-path="url(#clip0_113_6598)">
<path d="M39.4465 15.034L24.4471 7.534C24.1657 7.39329 23.8343 7.39329 23.5522 7.534L8.55282 15.034C8.21406 15.2034 8 15.5495 8 15.9289V22.0179C8 30.6783 13.8569 39.4206 23.7889 41.5492C23.8576 41.5639 23.9303 41.5712 24.0003 41.5712C24.0704 41.5712 24.141 41.5639 24.2097 41.5492C33.833 39.4867 39.9987 31.0044 39.9987 22.0179V15.9289C40 15.5495 39.7859 15.2034 39.4465 15.034Z" fill="#2DD796"/>
<path d="M39.4465 15.034L24.4471 7.534C24.1657 7.39329 23.8343 7.39329 23.5522 7.534L8.55282 15.034C8.21406 15.2034 8 15.5495 8 15.9289V22.0179C8 30.6783 13.8569 39.4206 23.7889 41.5492C23.8576 41.5639 23.9303 41.5712 24.0003 41.5712C24.0704 41.5712 24.141 41.5639 24.2097 41.5492C33.833 39.4867 39.9987 31.0044 39.9987 22.0179V15.9289C40 15.5495 39.7859 15.2034 39.4465 15.034Z" fill="url(#paint0_linear_113_6598)"/>
<path d="M20.4212 25.9358L18.2426 23.7572C18.4526 23.3357 18.5713 22.8603 18.5713 22.3575C18.5713 20.6216 17.1643 19.2146 15.4285 19.2146C13.6927 19.2146 12.2856 20.6216 12.2856 22.3575C12.2856 24.0933 13.6927 25.5003 15.4285 25.5003C15.9313 25.5003 16.4068 25.3816 16.8282 25.1715L18.7141 27.0574V37.4329C19.3516 37.815 20.0191 38.1611 20.7146 38.4665V26.6433C20.7146 26.3779 20.6092 26.1231 20.4212 25.9358Z" fill="#F7FAFC"/>
<path d="M20.4212 25.9358L18.2426 23.7572C18.4526 23.3357 18.5713 22.8603 18.5713 22.3575C18.5713 20.6216 17.1643 19.2146 15.4285 19.2146C13.6927 19.2146 12.2856 20.6216 12.2856 22.3575C12.2856 24.0933 13.6927 25.5003 15.4285 25.5003C15.9313 25.5003 16.4068 25.3816 16.8282 25.1715L18.7141 27.0574V37.4329C19.3516 37.815 20.0191 38.1611 20.7146 38.4665V26.6433C20.7146 26.3779 20.6092 26.1231 20.4212 25.9358Z" fill="url(#paint1_linear_113_6598)"/>
<path d="M32.5716 19.2139C30.8358 19.2139 29.4287 20.621 29.4287 22.3568C29.4287 22.8596 29.5474 23.335 29.7575 23.7565L27.5789 25.9351C27.3915 26.1225 27.2861 26.3772 27.2861 26.6426V38.4698C27.9837 38.1651 28.6512 37.821 29.2867 37.4409V27.0574L31.1725 25.1715C31.594 25.3816 32.0694 25.5003 32.5722 25.5003C34.308 25.5003 35.7151 24.0932 35.7151 22.3574C35.7151 20.6216 34.3074 19.2139 32.5716 19.2139Z" fill="#EDF1F8"/>
<path d="M32.5716 19.2139C30.8358 19.2139 29.4287 20.621 29.4287 22.3568C29.4287 22.8596 29.5474 23.335 29.7575 23.7565L27.5789 25.9351C27.3915 26.1225 27.2861 26.3772 27.2861 26.6426V38.4698C27.9837 38.1651 28.6512 37.821 29.2867 37.4409V27.0574L31.1725 25.1715C31.594 25.3816 32.0694 25.5003 32.5722 25.5003C34.308 25.5003 35.7151 24.0932 35.7151 22.3574C35.7151 20.6216 34.3074 19.2139 32.5716 19.2139Z" fill="url(#paint2_linear_113_6598)"/>
<path d="M27.1431 18.0716C27.1431 16.3358 25.7361 14.9288 24.0003 14.9288C22.2645 14.9288 20.8574 16.3358 20.8574 18.0716C20.8574 19.4573 21.755 20.633 23 21.0511V39.2894C23.3288 39.3834 23.6615 39.4701 24.0003 39.5468C24.3397 39.4701 24.6725 39.3834 25.0005 39.2894V21.0511C26.2455 20.633 27.1431 19.4573 27.1431 18.0716Z" fill="#F7FAFC"/>
<path d="M27.1431 18.0716C27.1431 16.3358 25.7361 14.9288 24.0003 14.9288C22.2645 14.9288 20.8574 16.3358 20.8574 18.0716C20.8574 19.4573 21.755 20.633 23 21.0511V39.2894C23.3288 39.3834 23.6615 39.4701 24.0003 39.5468C24.3397 39.4701 24.6725 39.3834 25.0005 39.2894V21.0511C26.2455 20.633 27.1431 19.4573 27.1431 18.0716Z" fill="url(#paint3_linear_113_6598)"/>
</g>
<rect x="0.4" y="0.9" width="47.2" height="47.2" rx="6" stroke="url(#paint4_linear_113_6598)" stroke-width="0.8"/>
<defs>
<linearGradient id="paint0_linear_113_6598" x1="36.6655" y1="35.0634" x2="13.5154" y2="8.56962" gradientUnits="userSpaceOnUse">
<stop stop-color="#165DFF"/>
<stop offset="1" stop-color="#6AA1FF"/>
</linearGradient>
<linearGradient id="paint1_linear_113_6598" x1="16.5001" y1="38.4669" x2="16.5001" y2="19.2179" gradientUnits="userSpaceOnUse">
<stop stop-color="#BEDAFF"/>
<stop offset="0.9973" stop-color="white"/>
</linearGradient>
<linearGradient id="paint2_linear_113_6598" x1="31.5006" y1="38.4703" x2="31.5006" y2="19.2172" gradientUnits="userSpaceOnUse">
<stop stop-color="#BEDAFF"/>
<stop offset="0.9973" stop-color="white"/>
</linearGradient>
<linearGradient id="paint3_linear_113_6598" x1="24.0003" y1="39.5473" x2="24.0003" y2="14.933" gradientUnits="userSpaceOnUse">
<stop stop-color="#BEDAFF"/>
<stop offset="0.9973" stop-color="white"/>
</linearGradient>
<linearGradient id="paint4_linear_113_6598" x1="24" y1="0.5" x2="24" y2="48.5" gradientUnits="userSpaceOnUse">
<stop stop-color="#BEDAFF"/>
<stop offset="1" stop-color="white"/>
</linearGradient>
<clipPath id="clip0_113_6598">
<rect width="32" height="35" fill="white" transform="translate(8 7)"/>
</clipPath>
</defs>
</svg>
