<svg width="48" height="49" viewBox="0 0 48 49" fill="none" xmlns="http://www.w3.org/2000/svg">
<rect x="0.4" y="0.9" width="47.2" height="47.2" rx="6" fill="#E8F3FF"/>
<g clip-path="url(#clip0_113_6619)">
<path d="M36.7022 24.4331C36.7022 23.7484 36.645 23.0766 36.5379 22.421L39.1296 20.6712C39.9617 20.1091 40.2149 18.9972 39.7067 18.1307L37.446 14.276C36.965 13.4556 35.9525 13.1161 35.0743 13.4809L32.0341 14.7433C30.982 13.8963 29.7897 13.2122 28.4961 12.7293L28.1754 9.65595C28.0742 8.6869 27.257 7.95087 26.2821 7.95087H21.7056C20.7307 7.95087 19.9142 8.6869 19.8129 9.6566L19.4923 12.7299C18.1987 13.2128 17.0064 13.8969 15.9543 14.7439L12.9361 13.403C12.0508 13.0096 11.0117 13.3439 10.5216 14.1793L8.26161 18.0321C7.76183 18.8843 7.99744 19.9773 8.80358 20.5485L11.4504 22.4217C11.3427 23.0766 11.2862 23.7484 11.2862 24.4338C11.2862 25.1185 11.3434 25.7903 11.4504 26.4459L8.80358 28.3184C7.99744 28.8889 7.76183 29.9819 8.26161 30.8348L10.521 34.6876C11.011 35.523 12.0502 35.8572 12.9355 35.4639L15.9536 34.1229C17.0058 34.97 18.1981 35.6541 19.4917 36.137L19.8168 39.3382C19.9155 40.3098 20.734 41.0491 21.7102 41.0491H26.2769C27.2538 41.0491 28.0716 40.3098 28.1703 39.3382L28.4954 36.137C29.789 35.6541 30.9813 34.97 32.0335 34.1229L35.0178 35.536C35.9149 35.9604 36.9877 35.6249 37.4823 34.7649L39.7456 30.829C40.235 29.978 39.9968 28.8941 39.1952 28.3268L36.5366 26.4452C36.645 25.7903 36.7022 25.1185 36.7022 24.4331Z" fill="black"/>
<path d="M36.7022 24.4331C36.7022 23.7484 36.645 23.0766 36.5379 22.421L39.1296 20.6712C39.9617 20.1091 40.2149 18.9972 39.7067 18.1307L37.446 14.276C36.965 13.4556 35.9525 13.1161 35.0743 13.4809L32.0341 14.7433C30.982 13.8963 29.7897 13.2122 28.4961 12.7293L28.1754 9.65595C28.0742 8.6869 27.257 7.95087 26.2821 7.95087H21.7056C20.7307 7.95087 19.9142 8.6869 19.8129 9.6566L19.4923 12.7299C18.1987 13.2128 17.0064 13.8969 15.9543 14.7439L12.9361 13.403C12.0508 13.0096 11.0117 13.3439 10.5216 14.1793L8.26161 18.0321C7.76183 18.8843 7.99744 19.9773 8.80358 20.5485L11.4504 22.4217C11.3427 23.0766 11.2862 23.7484 11.2862 24.4338C11.2862 25.1185 11.3434 25.7903 11.4504 26.4459L8.80358 28.3184C7.99744 28.8889 7.76183 29.9819 8.26161 30.8348L10.521 34.6876C11.011 35.523 12.0502 35.8572 12.9355 35.4639L15.9536 34.1229C17.0058 34.97 18.1981 35.6541 19.4917 36.137L19.8168 39.3382C19.9155 40.3098 20.734 41.0491 21.7102 41.0491H26.2769C27.2538 41.0491 28.0716 40.3098 28.1703 39.3382L28.4954 36.137C29.789 35.6541 30.9813 34.97 32.0335 34.1229L35.0178 35.536C35.9149 35.9604 36.9877 35.6249 37.4823 34.7649L39.7456 30.829C40.235 29.978 39.9968 28.8941 39.1952 28.3268L36.5366 26.4452C36.645 25.7903 36.7022 25.1185 36.7022 24.4331Z" fill="url(#paint0_linear_113_6619)"/>
<path d="M16.3413 26.4783L14.1994 24.6921C13.8787 24.4247 13.8359 23.9483 14.1033 23.6277L14.496 23.1564C14.7634 22.8358 15.2398 22.793 15.5604 23.0604L15.9233 23.3628C16.3808 19.8793 19.1283 17.0274 22.5813 16.4185C25.0744 15.9791 27.5784 16.7074 29.4335 18.378C29.7664 18.6779 29.7645 19.2017 29.4322 19.5029L28.9824 19.9111C28.6929 20.174 28.2548 20.1701 27.9614 19.9124C26.5958 18.711 24.7687 18.1905 22.95 18.5111C20.3401 18.9713 18.2858 21.1632 18.0126 23.8048L18.82 23.307C19.1751 23.0883 19.6404 23.1986 19.8598 23.5537L20.1817 24.0755C20.4005 24.4305 20.2901 24.8959 19.9351 25.1153L17.5803 26.5666C17.4077 26.673 16.8813 26.9087 16.3413 26.4783Z" fill="white"/>
<path d="M16.3413 26.4783L14.1994 24.6921C13.8787 24.4247 13.8359 23.9483 14.1033 23.6277L14.496 23.1564C14.7634 22.8358 15.2398 22.793 15.5604 23.0604L15.9233 23.3628C16.3808 19.8793 19.1283 17.0274 22.5813 16.4185C25.0744 15.9791 27.5784 16.7074 29.4335 18.378C29.7664 18.6779 29.7645 19.2017 29.4322 19.5029L28.9824 19.9111C28.6929 20.174 28.2548 20.1701 27.9614 19.9124C26.5958 18.711 24.7687 18.1905 22.95 18.5111C20.3401 18.9713 18.2858 21.1632 18.0126 23.8048L18.82 23.307C19.1751 23.0883 19.6404 23.1986 19.8598 23.5537L20.1817 24.0755C20.4005 24.4305 20.2901 24.8959 19.9351 25.1153L17.5803 26.5666C17.4077 26.673 16.8813 26.9087 16.3413 26.4783Z" fill="url(#paint1_linear_113_6619)"/>
<path d="M32.439 25.8156L32.0651 25.5034C31.6075 28.987 28.8601 31.8389 25.4071 32.4477C22.8134 32.9053 20.1166 32.0401 18.2583 30.2059C17.9377 29.8891 17.9643 29.3634 18.3128 29.0778L18.7821 28.6936C19.0794 28.4502 19.5142 28.4645 19.7894 28.7325C21.1661 30.0767 23.1211 30.6933 25.039 30.3552C27.6489 29.895 29.7032 27.7031 29.9771 25.0614L29.1567 25.567C28.8088 25.7819 28.3525 25.6735 28.1377 25.3249L27.8001 24.7771C27.5853 24.4292 27.6937 23.973 28.0422 23.7581L30.41 22.299C30.7988 22.0595 31.2966 22.0952 31.6478 22.3873L33.8007 24.1833C34.1149 24.4455 34.157 24.9121 33.8948 25.2263L33.4827 25.7209C33.2198 26.035 32.7531 26.0772 32.439 25.8156Z" fill="white"/>
<path d="M32.439 25.8156L32.0651 25.5034C31.6075 28.987 28.8601 31.8389 25.4071 32.4477C22.8134 32.9053 20.1166 32.0401 18.2583 30.2059C17.9377 29.8891 17.9643 29.3634 18.3128 29.0778L18.7821 28.6936C19.0794 28.4502 19.5142 28.4645 19.7894 28.7325C21.1661 30.0767 23.1211 30.6933 25.039 30.3552C27.6489 29.895 29.7032 27.7031 29.9771 25.0614L29.1567 25.567C28.8088 25.7819 28.3525 25.6735 28.1377 25.3249L27.8001 24.7771C27.5853 24.4292 27.6937 23.973 28.0422 23.7581L30.41 22.299C30.7988 22.0595 31.2966 22.0952 31.6478 22.3873L33.8007 24.1833C34.1149 24.4455 34.157 24.9121 33.8948 25.2263L33.4827 25.7209C33.2198 26.035 32.7531 26.0772 32.439 25.8156Z" fill="url(#paint2_linear_113_6619)"/>
</g>
<rect x="0.4" y="0.9" width="47.2" height="47.2" rx="6" stroke="url(#paint3_linear_113_6619)" stroke-width="0.8"/>
<defs>
<linearGradient id="paint0_linear_113_6619" x1="36.6659" y1="34.7404" x2="14.328" y2="8.3689" gradientUnits="userSpaceOnUse">
<stop stop-color="#165DFF"/>
<stop offset="1" stop-color="#6AA1FF"/>
</linearGradient>
<linearGradient id="paint1_linear_113_6619" x1="21.805" y1="26.7276" x2="21.805" y2="16.2947" gradientUnits="userSpaceOnUse">
<stop stop-color="#BEDAFF"/>
<stop offset="0.9973" stop-color="white"/>
</linearGradient>
<linearGradient id="paint2_linear_113_6619" x1="26.0503" y1="32.5686" x2="26.0503" y2="22.1429" gradientUnits="userSpaceOnUse">
<stop stop-color="#BEDAFF"/>
<stop offset="0.9973" stop-color="white"/>
</linearGradient>
<linearGradient id="paint3_linear_113_6619" x1="24" y1="0.5" x2="24" y2="48.5" gradientUnits="userSpaceOnUse">
<stop stop-color="#BEDAFF"/>
<stop offset="1" stop-color="white"/>
</linearGradient>
<clipPath id="clip0_113_6619">
<rect width="32" height="33.0982" fill="white" transform="translate(8 7.95087)"/>
</clipPath>
</defs>
</svg>
