<svg width="28" height="28" viewBox="0 0 28 28" fill="none" xmlns="http://www.w3.org/2000/svg">
<path d="M14 27.871C9.03097 27.871 4 26.431 4 23.6774C4 20.9239 9.03226 19.4839 14 19.4839C18.9677 19.4839 24 20.9239 24 23.6774C24 26.431 18.969 27.871 14 27.871ZM14 21.4194C8.67871 21.4194 5.93548 23.0026 5.93548 23.6774C5.93548 24.3523 8.67871 25.9355 14 25.9355C19.3213 25.9355 22.0645 24.3523 22.0645 23.6774C22.0645 23.0026 19.3213 21.4194 14 21.4194Z" fill="#165DFF"/>
<path d="M14 0.129028C11.3488 0.132102 8.80702 1.18666 6.93233 3.06135C5.05763 4.93605 4.00307 7.47781 4 10.129C4 15.48 9.45935 24 14 24C18.5406 24 24 15.4839 24 10.129C23.9969 7.47781 22.9424 4.93605 21.0677 3.06135C19.193 1.18666 16.6512 0.132102 14 0.129028Z" fill="#165DFF"/>
<path d="M14.0001 14.9677C16.6724 14.9677 18.8388 12.8014 18.8388 10.129C18.8388 7.45668 16.6724 5.29031 14.0001 5.29031C11.3277 5.29031 9.16138 7.45668 9.16138 10.129C9.16138 12.8014 11.3277 14.9677 14.0001 14.9677Z" fill="white"/>
</svg>
