<svg width="24" height="24" viewBox="0 0 24 24" fill="none" xmlns="http://www.w3.org/2000/svg">
<path d="M11.847 16.3559C11.762 16.3161 11.677 16.2763 11.592 16.2365C11.5297 16.1802 11.4653 16.1262 11.4054 16.0672C10.8135 15.4832 10.2854 14.8457 9.8502 14.1319C9.20018 13.067 8.81929 11.9131 8.74501 10.6556C8.66136 9.24092 8.95617 7.88925 9.47031 6.58952C9.86495 5.59192 10.3279 4.62123 10.7756 3.64585C11.1196 2.89676 11.8916 2.57012 12.6692 2.82062C12.9587 2.91385 13.244 3.02219 13.5364 3.10525C14.6313 3.41703 15.7257 3.41438 16.8147 3.06188C17.0788 2.97643 17.3419 2.90247 17.6223 2.93982C17.7242 2.98739 17.8262 3.03496 17.9284 3.08293C18.1704 3.29508 18.2817 3.58734 18.3978 3.87617C18.3994 3.88071 18.4014 3.88494 18.4034 3.88917C18.749 4.66638 19.2387 5.33242 19.8747 5.89079C20.3018 6.26595 20.7847 6.55291 21.2673 6.84275C21.889 7.21611 22.1615 8.05842 21.8763 8.73566C21.4078 9.84835 20.9331 10.9581 20.3277 12.0046C19.911 12.7248 19.447 13.4097 18.8805 14.019C17.7523 15.2323 16.3866 16.002 14.7671 16.2928C13.7964 16.468 12.8227 16.4837 11.847 16.3559Z" fill="#165DFF"/>
<g >
<path d="M8.67805 22C8.54794 22 8.41744 22 8.28733 22C8.17598 21.9677 8.06346 21.9395 7.95406 21.9031C6.87022 21.5406 5.8364 21.0797 4.87564 20.4781C3.44172 19.5805 2.29615 18.4297 1.47839 16.9884C0.557874 15.3656 0.152315 13.6099 0.0534649 11.7942C-0.0223332 10.4004 0.00345377 9.00096 0.00736089 7.60379C0.0104866 6.53096 0.797381 5.72049 1.9238 5.58764C2.34343 5.53828 2.76579 5.50859 3.18307 5.44551C4.74514 5.20986 6.12591 4.60387 7.29844 3.58855C7.58288 3.34215 7.8724 3.11021 8.24826 3C8.40455 3 8.56083 3 8.71712 3C9.14456 3.11689 9.45361 3.40004 9.76657 3.67687C9.77126 3.68096 9.77634 3.68541 9.78103 3.68912C10.6648 4.41498 11.667 4.9308 12.7915 5.23881C13.5471 5.44551 14.3219 5.51824 15.0982 5.59432C16.0981 5.69229 16.9272 6.53504 16.9572 7.49098C17.0065 9.06107 17.0451 10.6312 16.8834 12.1987C16.772 13.2774 16.5802 14.3406 16.2157 15.3708C15.4893 17.4229 14.2078 19.0828 12.3293 20.3182C11.2044 21.0582 9.98381 21.6129 8.67805 22Z" fill="#BEDAFF" fill-opacity="0.5"/>
</g>
<path d="M7.28741 12.8443C8.39003 11.6455 9.44561 10.5014 10.4979 9.35372C10.7564 9.07159 11.0453 8.91733 11.4167 9.04578C11.9636 9.23427 12.1756 9.93058 11.8368 10.4312C11.7771 10.5194 11.7029 10.5963 11.6315 10.6737C10.4265 11.9817 9.22143 13.2897 8.01585 14.5965C7.51823 15.1355 7.08869 15.1343 6.58941 14.5941C6.16541 14.1355 5.7403 13.6775 5.31907 13.2158C4.92607 12.7855 4.89396 12.2338 5.23494 11.8598C5.58587 11.4745 6.08183 11.5003 6.48314 11.9349C6.74883 12.2224 7.00456 12.5231 7.28741 12.8443Z" fill="#165DFF"/>
<defs>
<filter id="filter0_b_37_5712" x="-2" y="1" width="21" height="23" filterUnits="userSpaceOnUse" color-interpolation-filters="sRGB">
<feFlood flood-opacity="0" result="BackgroundImageFix"/>
<feGaussianBlur in="BackgroundImage" stdDeviation="1"/>
<feComposite in2="SourceAlpha" operator="in" result="effect1_backgroundBlur_37_5712"/>
<feBlend mode="normal" in="SourceGraphic" in2="effect1_backgroundBlur_37_5712" result="shape"/>
</filter>
</defs>
</svg>
