<svg width="14" height="14" viewBox="0 0 14 14" fill="none" xmlns="http://www.w3.org/2000/svg">
<path d="M2.33333 1.16667C2.33333 1.81102 1.81102 2.33333 1.16667 2.33333C0.522308 2.33333 0 1.81102 0 1.16667C0 0.522308 0.522308 0 1.16667 0C1.81102 0 2.33333 0.522308 2.33333 1.16667Z" fill="#1D2129"/>
<path d="M2.33333 7C2.33333 7.64436 1.81102 8.16667 1.16667 8.16667C0.522308 8.16667 0 7.64436 0 7C0 6.35564 0.522308 5.83333 1.16667 5.83333C1.81102 5.83333 2.33333 6.35564 2.33333 7Z" fill="#1D2129"/>
<path d="M1.16667 14C1.81102 14 2.33333 13.4777 2.33333 12.8333C2.33333 12.189 1.81102 11.6667 1.16667 11.6667C0.522308 11.6667 0 12.189 0 12.8333C0 13.4777 0.522308 14 1.16667 14Z" fill="#1D2129"/>
<path d="M8.16667 1.16667C8.16667 1.81102 7.64436 2.33333 7 2.33333C6.35564 2.33333 5.83333 1.81102 5.83333 1.16667C5.83333 0.522308 6.35564 0 7 0C7.64436 0 8.16667 0.522308 8.16667 1.16667Z" fill="#1D2129"/>
<path d="M7 8.16667C7.64436 8.16667 8.16667 7.64436 8.16667 7C8.16667 6.35564 7.64436 5.83333 7 5.83333C6.35564 5.83333 5.83333 6.35564 5.83333 7C5.83333 7.64436 6.35564 8.16667 7 8.16667Z" fill="#1D2129"/>
<path d="M8.16667 12.8333C8.16667 13.4777 7.64436 14 7 14C6.35564 14 5.83333 13.4777 5.83333 12.8333C5.83333 12.189 6.35564 11.6667 7 11.6667C7.64436 11.6667 8.16667 12.189 8.16667 12.8333Z" fill="#1D2129"/>
<path d="M12.8333 2.33333C13.4777 2.33333 14 1.81102 14 1.16667C14 0.522308 13.4777 0 12.8333 0C12.189 0 11.6667 0.522308 11.6667 1.16667C11.6667 1.81102 12.189 2.33333 12.8333 2.33333Z" fill="#1D2129"/>
<path d="M14 7C14 7.64436 13.4777 8.16667 12.8333 8.16667C12.189 8.16667 11.6667 7.64436 11.6667 7C11.6667 6.35564 12.189 5.83333 12.8333 5.83333C13.4777 5.83333 14 6.35564 14 7Z" fill="#1D2129"/>
<path d="M12.8333 14C13.4777 14 14 13.4777 14 12.8333C14 12.189 13.4777 11.6667 12.8333 11.6667C12.189 11.6667 11.6667 12.189 11.6667 12.8333C11.6667 13.4777 12.189 14 12.8333 14Z" fill="#1D2129"/>
</svg>
