<svg width="24" height="24" viewBox="0 0 24 24" fill="none" xmlns="http://www.w3.org/2000/svg">
<path d="M17.6316 18.9476L8.16196 13.1062C7.69699 12.8195 7.55358 12.2114 7.84218 11.7494L11.8488 5.3363L23.0037 12.2167L18.9971 18.6299C18.7076 19.0927 18.0965 19.2352 17.6316 18.9476Z" fill="#165DFF"/>
<path d="M23.5996 9.60073L13.8824 3.60624C13.486 3.36108 12.964 3.48233 12.7182 3.87707L12.0234 4.98958L23.1783 11.87L23.8731 10.7575C24.1189 10.3636 23.9969 9.845 23.5996 9.60073ZM14.66 5.41618C14.5905 5.5277 14.4427 5.56221 14.3304 5.49318L13.4432 4.94533C13.331 4.87629 13.2963 4.72938 13.3657 4.61786C13.4352 4.50634 13.5831 4.47182 13.6953 4.54086L14.5825 5.08871C14.6956 5.15774 14.7304 5.30466 14.66 5.41618ZM16.2117 6.37293C16.1422 6.48444 15.9944 6.51896 15.8821 6.44993L14.9949 5.90208C14.8827 5.83304 14.848 5.68612 14.9174 5.5746C14.9869 5.46309 15.1348 5.42857 15.247 5.4976L16.1342 6.04545C16.2473 6.11537 16.2821 6.26141 16.2117 6.37293ZM17.7634 7.33056C17.6939 7.44207 17.546 7.47659 17.4338 7.40756L16.5466 6.85971C16.4344 6.79067 16.3996 6.64375 16.4691 6.53224C16.5386 6.42072 16.6865 6.3862 16.7987 6.45524L17.6859 7.00309C17.799 7.07212 17.8338 7.21904 17.7634 7.33056Z" fill="#165DFF"/>
<g>
<path d="M8.92712 3.79632L0.186155 18.8379C-0.342952 19.7486 0.318877 20.8868 1.37709 20.8868H18.8581C19.9163 20.8868 20.5782 19.7486 20.0491 18.8379L11.3081 3.79632C10.779 2.8856 9.45623 2.8856 8.92712 3.79632Z" fill="#BEDAFF" fill-opacity="0.5"/>
</g>
<path d="M11.0559 9.12697C11.2216 9.41108 11.2929 9.7474 11.2706 10.1359L10.8983 15.1595C10.876 15.3542 10.7932 15.5109 10.6498 15.6304C10.5064 15.7348 10.33 15.787 10.1198 15.787C9.88639 15.787 9.71002 15.7313 9.58977 15.6189C9.44636 15.5144 9.37153 15.3613 9.36441 15.1595L8.9698 10.1359C8.93239 9.76953 9.02592 9.44028 9.25217 9.1491C9.47041 8.865 9.7599 8.72339 10.1215 8.72339C10.5776 8.72339 10.8903 8.85792 11.0559 9.12697ZM10.1189 18.5909C9.78752 18.5909 9.5096 18.4785 9.28335 18.2546C9.08026 18.0528 8.97871 17.7908 8.97871 17.4695C8.98584 17.1261 9.0954 16.8491 9.30562 16.6393C9.52385 16.4375 9.79464 16.3366 10.118 16.3366C10.4262 16.3366 10.697 16.4526 10.9304 16.6845C11.1406 16.8863 11.2466 17.1482 11.2466 17.4695C11.2466 17.7908 11.1415 18.0563 10.9304 18.2652C10.713 18.482 10.4422 18.5909 10.1189 18.5909Z" fill="#165DFF"/>
<defs>
<filter id="filter0_b_37_5673" x="-3" y="0.113281" width="26.2352" height="23.7735" filterUnits="userSpaceOnUse" color-interpolation-filters="sRGB">
<feFlood flood-opacity="0" result="BackgroundImageFix"/>
<feGaussianBlur in="BackgroundImage" stdDeviation="1.5"/>
<feComposite in2="SourceAlpha" operator="in" result="effect1_backgroundBlur_37_5673"/>
<feBlend mode="normal" in="SourceGraphic" in2="effect1_backgroundBlur_37_5673" result="shape"/>
</filter>
</defs>
</svg>
