<svg width="60" height="60" viewBox="0 0 60 60" fill="none" xmlns="http://www.w3.org/2000/svg">
<rect x="0.5" y="0.5" width="59" height="59" rx="7.5" fill="#E8F3FF"/>
<g clip-path="url(#clip0_285_7119)">
<path d="M48.4583 14.6763C39.9417 14.6763 31.1167 7.91415 31.0333 7.84275C30.45 7.38575 29.55 7.38575 28.9667 7.84275C28.875 7.91415 20.075 14.6763 11.5417 14.6763C10.6917 14.6763 10 15.2618 10 15.9902V31.778C10 44.5668 21.1 49.6795 29.45 52.4072C29.625 52.4643 29.8167 52.4929 30 52.4929C30.1833 52.4929 30.375 52.4643 30.55 52.4072C42.2583 48.5798 50 42.6031 50 31.778V15.9902C50 15.2618 49.3083 14.6763 48.4583 14.6763Z" fill="url(#paint0_linear_285_7119)"/>
<path d="M30.0007 20.7673C24.942 20.7673 20.834 24.9089 20.834 29.993C20.834 35.0771 24.942 39.2258 30.0007 39.2258C35.0593 39.2258 39.1673 35.0842 39.1673 30.0001C39.1673 24.916 35.0593 20.7673 30.0007 20.7673ZM33.5481 29.6145L29.6175 33.5704C29.3621 33.8275 29.0286 33.956 28.6881 33.956C28.3546 33.956 28.0212 33.8275 27.7586 33.5704L26.4532 32.2494C25.9423 31.7353 25.9423 30.8998 26.4532 30.3857C26.964 29.8716 27.7941 29.8716 28.305 30.3857L28.6881 30.7713L31.6892 27.7508C32.2001 27.2367 33.0302 27.2367 33.541 27.7508C34.059 28.265 34.059 29.1004 33.5481 29.6145Z" fill="url(#paint1_linear_285_7119)"/>
</g>
<rect x="0.5" y="0.5" width="59" height="59" rx="7.5" stroke="url(#paint2_linear_285_7119)"/>
<defs>
<linearGradient id="paint0_linear_285_7119" x1="45.8333" y1="43.917" x2="15.152" y2="10.6089" gradientUnits="userSpaceOnUse">
<stop stop-color="#165DFF"/>
<stop offset="1" stop-color="#6AA1FF"/>
</linearGradient>
<linearGradient id="paint1_linear_285_7119" x1="30.0007" y1="39.2262" x2="30.0007" y2="20.7705" gradientUnits="userSpaceOnUse">
<stop stop-color="#BEDAFF"/>
<stop offset="0.9973" stop-color="white"/>
</linearGradient>
<linearGradient id="paint2_linear_285_7119" x1="30" y1="0" x2="30" y2="60" gradientUnits="userSpaceOnUse">
<stop stop-color="#BEDAFF"/>
<stop offset="1" stop-color="white"/>
</linearGradient>
<clipPath id="clip0_285_7119">
<rect width="40" height="45" fill="white" transform="translate(10 7.5)"/>
</clipPath>
</defs>
</svg>
