<svg width="17" height="17" viewBox="0 0 17 17" fill="none" xmlns="http://www.w3.org/2000/svg">
<path d="M11.529 9.51346C13.7218 9.51346 15.4994 7.73586 15.4994 5.54307C15.4994 3.35029 13.7218 1.57269 11.529 1.57269C9.33619 1.57269 7.55859 3.35029 7.55859 5.54307C7.55859 7.73586 9.33619 9.51346 11.529 9.51346Z" fill="#FF9A2E"/>
<path d="M11.0764 4.71834L2.18432 7.1009C1.38958 7.31417 1.24963 8.38382 1.96273 8.79369L5.66487 10.9197C5.80649 11.0013 5.92478 11.1179 6.00642 11.2612L8.1324 14.9634C8.54227 15.6781 9.61192 15.5382 9.82518 14.7418L12.2077 5.84798C12.391 5.1632 11.7629 4.53507 11.0764 4.71834Z" fill="url(#paint0_linear_285_7039)"/>
<defs>
<linearGradient id="paint0_linear_285_7039" x1="6.5" y1="11" x2="12.5" y2="5.00002" gradientUnits="userSpaceOnUse">
<stop stop-color="#F53F3F"/>
<stop offset="1" stop-color="#FF7772"/>
</linearGradient>
</defs>
</svg>
