<svg width="69" height="27" viewBox="0 0 69 27" fill="none" xmlns="http://www.w3.org/2000/svg">
<path d="M17.4442 18.832C17.4442 15.772 15.8962 14.224 14.4922 13.252C15.7882 12.424 17.1562 11.056 17.1562 8.248C17.1562 3.82 13.6642 0.651998 8.91216 0.651998C4.34016 0.651998 0.668164 3.568 0.668164 8.392H6.57216C6.57216 6.844 7.68816 5.98 8.91216 5.98C10.1362 5.98 11.2522 6.808 11.2522 8.428C11.2522 9.58 10.5682 10.84 8.80416 10.84H7.97616V15.952H8.80416C10.3882 15.952 11.5402 17.104 11.5402 18.652C11.5402 20.488 10.4602 21.388 8.91216 21.388C7.43616 21.388 6.28416 20.488 6.28416 18.688H0.380164C0.380164 24.448 4.66416 26.716 8.91216 26.716C13.4122 26.716 17.4442 24.196 17.4442 18.832ZM37.3041 17.752C37.3041 15.34 37.0161 13.036 34.9281 10.948C33.8841 9.904 32.1921 9.148 29.9601 9.148C28.3761 9.148 27.0081 9.76 26.5041 10.156V6.196H36.7641V0.868H21.1401V15.952H26.5761C26.8281 15.268 27.2601 14.116 28.9881 14.116C30.4281 14.116 31.4001 14.908 31.4001 17.752C31.4001 19.264 31.1841 20.2 30.6441 20.74C30.1761 21.208 29.7081 21.388 28.9881 21.388C27.4761 21.388 26.7561 20.38 26.5761 18.688H20.6721C20.8161 20.56 21.0681 22.648 22.9041 24.484C24.0201 25.6 26.1081 26.716 28.9881 26.716C31.8681 26.716 33.8121 25.636 34.9281 24.52C36.8361 22.612 37.3041 20.848 37.3041 17.752ZM57.128 18.724V8.644C57.128 3.352 53.132 0.651998 48.884 0.651998C44.636 0.651998 40.64 3.352 40.64 8.644V18.724C40.64 24.016 44.636 26.716 48.884 26.716C53.132 26.716 57.128 24.016 57.128 18.724ZM51.224 18.76C51.224 20.56 50.144 21.388 48.884 21.388C47.624 21.388 46.544 20.56 46.544 18.76V8.644C46.544 6.844 47.624 5.98 48.884 5.98C50.144 5.98 51.224 6.844 51.224 8.644V18.76ZM68.6239 24.904V23.764C68.6239 22.624 67.7599 22.096 66.8119 22.096C65.8639 22.096 64.9999 22.624 64.9999 23.764V24.904C64.9999 26.044 65.8639 26.572 66.8119 26.572C67.7599 26.572 68.6239 26.044 68.6239 24.904ZM63.0439 20.692V19.552C63.0439 18.412 62.1799 17.884 61.2319 17.884C60.2839 17.884 59.4199 18.412 59.4199 19.552V20.692C59.4199 21.832 60.2839 22.36 61.2319 22.36C62.1799 22.36 63.0439 21.832 63.0439 20.692ZM66.8119 17.956H65.2999L61.2319 26.5H62.7439L66.8119 17.956ZM61.6519 20.644C61.6519 20.992 61.4719 21.112 61.2319 21.112C60.9919 21.112 60.8119 20.992 60.8119 20.644V19.6C60.8119 19.252 60.9919 19.132 61.2319 19.132C61.4719 19.132 61.6519 19.252 61.6519 19.6V20.644ZM67.2319 24.856C67.2319 25.204 67.0519 25.324 66.8119 25.324C66.5719 25.324 66.3919 25.204 66.3919 24.856V23.812C66.3919 23.464 66.5719 23.344 66.8119 23.344C67.0519 23.344 67.2319 23.464 67.2319 23.812V24.856Z" fill="#F53F3F"/>
</svg>
