<svg width="49" height="28" viewBox="0 0 49 28" fill="none" xmlns="http://www.w3.org/2000/svg">
<path d="M11.6306 26.5V0.868H5.72665L0.254649 5.62V11.92L5.72665 7.168V26.5H11.6306ZM31.6346 26.5V0.868H25.7306L20.2586 5.62V11.92L25.7306 7.168V26.5H31.6346ZM44.5585 16.324V22.504C44.5585 22.636 44.5105 22.672 44.3665 22.684C44.2225 22.684 43.7785 22.684 43.3465 22.672C43.5505 23.056 43.7545 23.68 43.8145 24.076C44.5585 24.088 45.0865 24.04 45.4825 23.8C45.8905 23.56 46.0105 23.176 46.0105 22.516V16.324H44.5585ZM42.7825 18.376C42.5905 19.708 42.1825 21.04 41.5585 21.868C41.9065 22.012 42.5185 22.348 42.7945 22.54C43.4065 21.616 43.8865 20.116 44.1505 18.604L42.7825 18.376ZM46.3105 18.664C46.8505 19.744 47.3185 21.208 47.4505 22.156L48.7825 21.7C48.6145 20.74 48.1225 19.336 47.5465 18.256L46.3105 18.664ZM46.7785 22.264C46.0345 24.688 44.4265 25.756 41.6545 26.248C41.9545 26.596 42.2905 27.148 42.4345 27.58C45.5305 26.824 47.3185 25.504 48.1705 22.612L46.7785 22.264ZM39.2305 17.428V27.568H40.6345V17.428H39.2305ZM37.5025 19.684V21.028H41.9065V19.684H37.5025ZM39.3145 20.224C38.9305 21.556 38.0905 23.296 37.2505 24.256C37.4785 24.616 37.7905 25.216 37.9225 25.636C38.8465 24.448 39.6985 22.312 40.1545 20.596L39.3145 20.224ZM41.1025 16.432C40.1785 16.852 38.6905 17.2 37.3585 17.428C37.5265 17.728 37.7065 18.208 37.7665 18.52C39.1705 18.34 40.8385 18.016 42.0625 17.548L41.1025 16.432ZM40.5985 21.352L39.9745 21.916C40.3465 22.42 41.0665 23.512 41.3545 24.088L42.1705 22.96C41.9425 22.684 40.8985 21.604 40.5985 21.352Z" fill="#F53F3F"/>
</svg>
