<svg width="78" height="28" viewBox="0 0 78 28" fill="none" xmlns="http://www.w3.org/2000/svg">
<path d="M17.2918 18.832C17.2918 15.772 15.7438 14.224 14.3398 13.252C15.6358 12.424 17.0038 11.056 17.0038 8.248C17.0038 3.82 13.5118 0.651998 8.75982 0.651998C4.18782 0.651998 0.51582 3.568 0.51582 8.392H6.41982C6.41982 6.844 7.53582 5.98 8.75982 5.98C9.98382 5.98 11.0998 6.808 11.0998 8.428C11.0998 9.58 10.4158 10.84 8.65182 10.84H7.82382V15.952H8.65182C10.2358 15.952 11.3878 17.104 11.3878 18.652C11.3878 20.488 10.3078 21.388 8.75982 21.388C7.28382 21.388 6.13182 20.488 6.13182 18.688H0.22782C0.22782 24.448 4.51182 26.716 8.75982 26.716C13.2598 26.716 17.2918 24.196 17.2918 18.832ZM36.9717 18.724V8.644C36.9717 3.352 32.9757 0.651998 28.7277 0.651998C24.4797 0.651998 20.4837 3.352 20.4837 8.644V18.724C20.4837 24.016 24.4797 26.716 28.7277 26.716C32.9757 26.716 36.9717 24.016 36.9717 18.724ZM31.0677 18.76C31.0677 20.56 29.9877 21.388 28.7277 21.388C27.4677 21.388 26.3877 20.56 26.3877 18.76V8.644C26.3877 6.844 27.4677 5.98 28.7277 5.98C29.9877 5.98 31.0677 6.844 31.0677 8.644V18.76ZM56.9756 18.724V8.644C56.9756 3.352 52.9796 0.651998 48.7316 0.651998C44.4836 0.651998 40.4876 3.352 40.4876 8.644V18.724C40.4876 24.016 44.4836 26.716 48.7316 26.716C52.9796 26.716 56.9756 24.016 56.9756 18.724ZM51.0716 18.76C51.0716 20.56 49.9916 21.388 48.7316 21.388C47.4716 21.388 46.3916 20.56 46.3916 18.76V8.644C46.3916 6.844 47.4716 5.98 48.7316 5.98C49.9916 5.98 51.0716 6.844 51.0716 8.644V18.76ZM63.3595 17.332V18.688H68.7595V17.332H63.3595ZM68.4475 17.332C63.2755 23.452 63.0235 24.436 63.0235 25.372C63.0235 26.488 63.8035 27.22 65.6035 27.22H67.9915C69.4915 27.22 70.0555 26.704 70.2235 24.076C69.8275 23.992 69.3235 23.812 68.9395 23.608C68.8795 25.528 68.6995 25.84 68.0995 25.84H65.5555C64.8595 25.84 64.4635 25.66 64.4635 25.204C64.4635 24.604 64.7635 23.74 69.7675 17.992C69.8395 17.92 69.8995 17.836 69.9475 17.764L69.0355 17.272L68.7115 17.332H68.4475ZM61.6795 16.348C61.0675 18.064 60.0235 19.78 58.9435 20.86C59.1835 21.208 59.5795 22.012 59.7115 22.36C61.0195 20.98 62.2675 18.82 63.0355 16.78L61.6795 16.348ZM60.5395 19.612V27.568H61.9315V18.232V18.22L60.5395 19.612ZM77.8075 23.884C77.8075 23.092 77.6275 22.456 77.1715 22.012C76.8115 21.652 76.2595 21.412 75.4915 21.304L74.9995 21.232V19.732C75.3595 19.756 75.9835 19.852 76.3555 20.224L77.6755 18.904C77.0395 18.268 76.2475 17.956 75.2395 17.896V16.828H73.7275V17.92C72.1315 18.124 71.1955 19.192 71.1955 20.584C71.1955 21.316 71.3875 21.892 71.7835 22.3C72.1675 22.696 72.7435 22.96 73.4995 23.056L73.9675 23.116V24.7C73.2955 24.688 72.5635 24.532 72.1315 24.1L70.7875 25.444C71.5795 26.26 72.5515 26.536 73.7275 26.572V27.868H75.2395V26.512C76.6915 26.284 77.8075 25.384 77.8075 23.884ZM75.7435 23.932C75.7435 24.316 75.5035 24.568 74.9995 24.664V23.2C75.2035 23.224 75.4315 23.272 75.5755 23.428C75.6955 23.548 75.7435 23.728 75.7435 23.932ZM73.9675 21.16C73.6795 21.124 73.4995 21.016 73.3915 20.908C73.2595 20.776 73.2235 20.62 73.2235 20.512C73.2235 20.188 73.4395 19.84 73.9675 19.744V21.16Z" fill="#F53F3F"/>
</svg>
