<svg width="60" height="61" viewBox="0 0 60 61" fill="none" xmlns="http://www.w3.org/2000/svg">
<g clip-path="url(#clip0_113_6192)">
<path d="M18.8733 23.9611C18.8733 24.6066 19.3798 25.1283 20.0152 25.1371C21.9039 25.1371 23.4322 26.7111 23.4322 28.6564C23.4322 30.6017 21.9039 32.1756 20.0152 32.1756H17.74C17.1133 32.1756 16.5981 31.6539 16.5981 30.9996C16.5981 30.3452 17.1047 29.8235 17.74 29.8235H20.0152C20.6419 29.8235 21.157 29.3018 21.157 28.6475C21.157 28.002 20.6505 27.4715 20.0152 27.4715C18.1264 27.4715 16.5981 25.8976 16.5981 23.9523C16.5981 22.007 18.1264 20.433 20.0152 20.433H22.2903C22.917 20.433 23.4322 20.9547 23.4322 21.6091C23.4322 22.2546 22.9256 22.7851 22.2903 22.7851H20.0152C19.3798 22.7939 18.8733 23.3156 18.8733 23.9611Z" fill="#165DFF"/>
<path d="M43.8999 30.9907C43.8999 31.6362 43.3934 32.1668 42.7581 32.1668H38.2078C37.581 32.1668 37.0659 31.6451 37.0659 30.9907V21.6179C37.0659 20.9724 37.5725 20.4419 38.2078 20.4419C38.8431 20.4419 39.3496 20.9636 39.3496 21.6179V29.8236H42.7667C43.3934 29.8236 43.8999 30.3452 43.8999 30.9907Z" fill="#221714"/>
<path d="M34.4645 30.1684L33.9751 29.6644C34.5246 28.6387 34.8079 27.4804 34.7993 26.3132C34.7993 23.0857 32.756 20.4507 30.249 20.4507C27.7421 20.4507 25.6987 23.0769 25.6987 26.3132C25.6987 29.5494 27.7421 32.1756 30.249 32.1756C31.0475 32.1668 31.8202 31.9103 32.4641 31.4329L32.8504 31.8396C33.2969 32.2994 34.018 32.2994 34.4559 31.8396C34.9109 31.3621 34.9109 30.6282 34.4645 30.1684ZM32.2666 27.9048L31.056 26.658C30.6096 26.1982 29.8884 26.1982 29.4506 26.658C29.0041 27.1178 29.0041 27.8606 29.4506 28.3115L30.8157 29.7175C30.6354 29.7882 30.4465 29.8324 30.2576 29.8324C29.0213 29.8324 27.9825 28.2231 27.9825 26.3132C27.9825 24.4032 29.0213 22.7939 30.2576 22.7939C31.4939 22.7939 32.5327 24.4032 32.5327 26.3132C32.5242 26.8526 32.4383 27.3919 32.2666 27.9048Z" fill="#165DFF"/>
<path d="M43.711 52H16.289C12.2711 52 9 48.6399 9 44.5017V16.5071C9 12.3689 12.2711 9 16.289 9H36.3532C37.9673 9 39.5556 9.56591 40.8262 10.5828L48.1926 16.4894C49.9783 17.9219 51 20.0794 51 22.4137V44.5017C51 48.6399 47.7289 52 43.711 52ZM16.289 11.6527C13.6877 11.6527 11.5756 13.8279 11.5756 16.5071V44.5017C11.5756 47.1721 13.6877 49.3562 16.289 49.3562H43.711C46.3038 49.3562 48.4244 47.181 48.4244 44.5017V22.4137C48.4244 20.9105 47.7633 19.5135 46.6043 18.585L39.2379 12.6784C38.4137 12.0152 37.3921 11.6527 36.3446 11.6527H16.289Z" fill="#231815"/>
<path d="M49.712 37.8612H10.2876V40.5139H49.712V37.8612Z" fill="#231815"/>
</g>
<defs>
<clipPath id="clip0_113_6192">
<rect width="42" height="43" fill="white" transform="translate(9 9)"/>
</clipPath>
</defs>
</svg>
