<svg width="60" height="61" viewBox="0 0 60 61" fill="none" xmlns="http://www.w3.org/2000/svg">
<path d="M16.8801 27.7166L9.47848 20.315C8.69467 19.5312 8.69467 18.2575 9.47848 17.4648L16.8801 10.0631C17.6639 9.27933 18.9376 9.27933 19.7303 10.0631L27.1319 17.4648C27.9157 18.2486 27.9157 19.5222 27.1319 20.315L19.7303 27.7166C18.9465 28.5004 17.6639 28.5004 16.8801 27.7166Z" stroke="#1D2129" stroke-width="3" stroke-miterlimit="10"/>
<path d="M37.9893 22.23V14.8016C37.9893 13.234 39.2629 11.9603 40.8306 11.9603H48.2589C49.8265 11.9603 51.1002 13.234 51.1002 14.8016V22.23C51.1002 23.7976 49.8265 25.0713 48.2589 25.0713H40.8306C39.2629 25.0713 37.9893 23.7976 37.9893 22.23Z" stroke="#1D2129" stroke-width="3" stroke-miterlimit="10"/>
<path d="M37.9893 48.6745V41.2461C37.9893 39.6785 39.2629 38.4048 40.8306 38.4048H48.2589C49.8265 38.4048 51.1002 39.6785 51.1002 41.2461V48.6745C51.1002 50.2421 49.8265 51.5158 48.2589 51.5158H40.8306C39.2629 51.5247 37.9893 50.251 37.9893 48.6745Z" stroke="#1D2129" stroke-width="3" stroke-miterlimit="10"/>
<path d="M27.7197 18.8898H37.9894" stroke="#1D2129" stroke-width="3" stroke-miterlimit="10"/>
<path d="M24.1572 45.2097H37.9896" stroke="#1D2129" stroke-width="3" stroke-miterlimit="10"/>
<path d="M18.314 27.868V38.4048" stroke="#1D2129" stroke-width="3" stroke-miterlimit="10"/>
<path d="M11.4204 48.6745V41.2461C11.4204 39.6785 12.6941 38.4048 14.2617 38.4048H21.69C23.2577 38.4048 24.5313 39.6785 24.5313 41.2461V48.6745C24.5313 50.2421 23.2577 51.5158 21.69 51.5158H14.2617C12.6941 51.5247 11.4204 50.251 11.4204 48.6745Z" stroke="#165DFF" stroke-width="3" stroke-miterlimit="10"/>
</svg>
