<svg width="60" height="61" viewBox="0 0 60 61" fill="none" xmlns="http://www.w3.org/2000/svg">
<path d="M46.6161 42.0048H13.3854C10.467 42.0048 8.10059 39.6384 8.10059 36.72V31.5777C8.10059 28.6594 10.467 26.2929 13.3854 26.2929H46.6161C49.5345 26.2929 51.9009 28.6594 51.9009 31.5777V36.72C51.8996 39.6384 49.5345 42.0048 46.6161 42.0048Z" stroke="#1D2129" stroke-width="3" stroke-miterlimit="10" stroke-linejoin="round"/>
<path d="M14.3174 34.29H19.6861" stroke="#165DFF" stroke-width="3" stroke-miterlimit="10" stroke-linecap="round" stroke-linejoin="round"/>
<path d="M27.3296 34.29H32.6983" stroke="#165DFF" stroke-width="3" stroke-miterlimit="10" stroke-linecap="round" stroke-linejoin="round"/>
<path d="M40.3433 34.29H45.712" stroke="#165DFF" stroke-width="3" stroke-miterlimit="10" stroke-linecap="round" stroke-linejoin="round"/>
<path d="M36.5701 12.5316V18.016C36.5701 18.4306 36.3832 18.8248 36.0602 19.0855L35.8161 19.2838L30.8733 23.2894C30.3673 23.6988 29.645 23.6988 29.1389 23.2894L24.1949 19.2838L23.9406 19.0778C23.6176 18.8159 23.4307 18.423 23.4307 18.0071V12.5316C23.4307 11.7712 24.0474 11.1545 24.8078 11.1545H35.193C35.9534 11.1545 36.5701 11.7712 36.5701 12.5316Z" stroke="#165DFF" stroke-width="3" stroke-miterlimit="10" stroke-linejoin="round"/>
<path d="M14.3809 49.8455H45.6203" stroke="#1D2129" stroke-width="3" stroke-miterlimit="10" stroke-linecap="round" stroke-linejoin="round"/>
<path d="M30 49.6268V42.0048" stroke="#1D2129" stroke-width="3" stroke-miterlimit="10" stroke-linejoin="round"/>
</svg>
