<svg width="40" height="40" viewBox="0 0 40 40" fill="none" xmlns="http://www.w3.org/2000/svg">
<path fill-rule="evenodd" clip-rule="evenodd" d="M0 20C0 31.0457 8.9543 40 20 40C31.0457 40 40 31.0457 40 20C40 8.9543 31.0457 0 20 0C8.9543 0 0 8.9543 0 20ZM25.0793 21.3481L25.3746 21.3406C28.063 20.873 30 18.7529 30 16.22C30 13.3455 27.4415 11.04 24.3015 11.04C21.1614 11.04 18.603 13.3455 18.603 16.22V23.9978C18.603 25.4199 17.2256 26.5956 15.4867 26.5956C13.7478 26.5956 12.3704 25.4199 12.3704 23.9978C12.3704 22.8674 13.264 21.8565 14.5701 21.5412C15.1541 21.3952 15.6903 20.9715 15.9066 20.4667C15.9413 20.3997 15.9711 20.3118 15.9865 20.2192C15.9976 20.1528 16.0003 20.1018 16 20.0042C16 19.3655 15.4657 18.9215 14.7607 18.9215H14.5533C11.8239 19.3308 9.84 21.4762 9.84 23.9978C9.84 26.8722 12.3985 29.1778 15.5385 29.1778C18.6786 29.1778 21.237 26.8722 21.237 23.9978V16.22C21.237 14.7979 22.6144 13.6222 24.3533 13.6222C26.0922 13.6222 27.4696 14.7979 27.4696 16.22C27.4696 17.3939 26.5855 18.4108 25.2699 18.7284C24.6727 18.861 24.1624 19.2686 23.9334 19.803C23.5706 20.6192 24.1488 21.3481 25.0793 21.3481Z" fill="#8283FF"/>
</svg>
