<svg width="40" height="40" viewBox="0 0 40 40" fill="none" xmlns="http://www.w3.org/2000/svg">
<path d="M40 20C40 31.0457 31.0457 40 20 40C8.9543 40 0 31.0457 0 20C0 8.9543 8.9543 0 20 0C31.0457 0 40 8.9543 40 20Z" fill="#1588F4"/>
<path d="M28.4182 13.5448L20.1709 9.87936C20.1123 9.8533 20.0489 9.83984 19.9848 9.83984C19.9206 9.83984 19.8572 9.8533 19.7986 9.87936L11.5513 13.5448C11.4704 13.5808 11.4016 13.6395 11.3533 13.7138C11.305 13.7881 11.2793 13.8749 11.2793 13.9635V18.6415C11.2793 23.3637 14.0579 27.6409 18.3582 29.5377C19.0625 29.8484 19.5946 29.9994 19.9848 29.9994C20.3749 29.9994 20.907 29.8484 21.6113 29.5377C25.9116 27.6405 28.6902 23.3632 28.6902 18.6415V13.9635C28.6902 13.8749 28.6645 13.7881 28.6162 13.7138C28.568 13.6395 28.4992 13.5808 28.4182 13.5448ZM19.9848 23.5853C19.8941 23.5853 19.8056 23.5584 19.7302 23.5081C19.6549 23.4578 19.5961 23.3862 19.5615 23.3025C19.5268 23.2188 19.5177 23.1266 19.5354 23.0377C19.5531 22.9489 19.5967 22.8672 19.6608 22.8031C19.7249 22.7391 19.8065 22.6954 19.8954 22.6778C19.9843 22.6601 20.0764 22.6691 20.1601 22.7038C20.2438 22.7385 20.3154 22.7972 20.3657 22.8726C20.4161 22.9479 20.4429 23.0365 20.4429 23.1271C20.4429 23.1873 20.4311 23.2469 20.4081 23.3025C20.385 23.3581 20.3513 23.4086 20.3088 23.4511C20.2662 23.4937 20.2157 23.5274 20.1601 23.5504C20.1045 23.5735 20.0449 23.5853 19.9848 23.5853ZM20.4429 20.378C20.4429 20.4996 20.3947 20.6161 20.3088 20.702C20.2228 20.7879 20.1063 20.8362 19.9848 20.8362C19.8632 20.8362 19.7467 20.7879 19.6608 20.702C19.5749 20.6161 19.5266 20.4996 19.5266 20.378V15.7962C19.5266 15.6747 19.5749 15.5582 19.6608 15.4722C19.7467 15.3863 19.8632 15.338 19.9848 15.338C20.1063 15.338 20.2228 15.3863 20.3088 15.4722C20.3947 15.5582 20.4429 15.6747 20.4429 15.7962V20.378Z" fill="white"/>
<path d="M16.1182 14.568H23.8156V25.3444H16.1182V14.568Z" fill="white"/>
<path fill-rule="evenodd" clip-rule="evenodd" d="M20.6193 14.4453H19.3146L19.4016 21.433H20.5324L20.6193 14.4453ZM19.1406 24.1514C19.1406 24.6153 19.5031 24.9778 19.967 24.9778C20.4381 24.9778 20.7933 24.6153 20.7933 24.1514C20.7933 23.6803 20.4381 23.3251 19.967 23.3251C19.5031 23.3251 19.1406 23.6803 19.1406 24.1514Z" fill="#1588F4"/>
</svg>
