<svg width="40" height="40" viewBox="0 0 40 40" fill="none" xmlns="http://www.w3.org/2000/svg">
<path d="M40 20C40 31.0457 31.0457 40 20 40C8.9543 40 0 31.0457 0 20C0 8.9543 8.9543 0 20 0C31.0457 0 40 8.9543 40 20Z" fill="#FA9D3B"/>
<path d="M24.7197 10.3203H15.1199C14.458 10.3203 13.9199 10.8566 13.9199 11.5203V28.9199C13.9199 29.2518 14.188 29.5199 14.5199 29.5199H25.3197C25.6516 29.5199 25.9197 29.2518 25.9197 28.9199V11.5203C25.9197 10.8566 25.3816 10.3203 24.7197 10.3203ZM20.5573 25.9106C20.3998 26.0681 20.1804 26.1675 19.9404 26.1675H19.9011C19.4192 26.1675 19.0273 25.7756 19.0273 25.2938C19.0273 25.0519 19.1248 24.8344 19.2842 24.6769C19.4436 24.5194 19.6592 24.42 19.9011 24.42H19.9404C20.4223 24.42 20.8142 24.8119 20.8142 25.2938C20.8123 25.5356 20.7148 25.7531 20.5573 25.9106ZM19.3067 22.9201C19.3067 22.7551 19.3742 22.6051 19.4829 22.4963C19.5917 22.3876 19.7417 22.3201 19.9067 22.3201H19.9329C20.2648 22.3201 20.5329 22.5882 20.5329 22.9201C20.5329 23.0851 20.4654 23.2351 20.3567 23.3438C20.2479 23.4525 20.0979 23.52 19.9329 23.52H19.9067C19.5748 23.52 19.3067 23.2519 19.3067 22.9201ZM23.5122 20.8201C23.5122 20.9851 23.3772 21.1201 23.2122 21.1201H16.6161C16.4511 21.1201 16.3161 20.9851 16.3161 20.8201V17.8202C16.3161 17.6552 16.4511 17.5202 16.6161 17.5202H23.2122C23.3772 17.5202 23.5122 17.6552 23.5122 17.8202V20.8201ZM23.5122 16.0202C23.5122 16.1852 23.3772 16.3202 23.2122 16.3202H16.6161C16.4511 16.3202 16.3161 16.1852 16.3161 16.0202V15.4202C16.3161 15.2552 16.4511 15.1202 16.6161 15.1202H23.2122C23.3772 15.1202 23.5122 15.2552 23.5122 15.4202V16.0202ZM23.5197 13.6202C23.5197 13.7852 23.3847 13.9202 23.2197 13.9202H16.6236C16.4586 13.9202 16.3236 13.7852 16.3236 13.6202V13.0203C16.3236 12.8553 16.4586 12.7203 16.6236 12.7203H23.2197C23.3847 12.7203 23.5197 12.8553 23.5197 13.0203V13.6202Z" fill="white"/>
<path d="M22.3118 18.7953V19.8453C22.3118 19.8866 22.278 19.9203 22.2368 19.9203H17.5906C17.5494 19.9203 17.5156 19.8866 17.5156 19.8453V18.7953C17.5156 18.7541 17.5494 18.7203 17.5906 18.7203H22.2368C22.278 18.7203 22.3118 18.7541 22.3118 18.7953Z" fill="white"/>
</svg>
