<svg width="60" height="61" viewBox="0 0 60 61" fill="none" xmlns="http://www.w3.org/2000/svg">
<path d="M33.3491 24.4747C32.7918 23.6387 31.9461 23.0813 30.966 22.8795C29.9858 22.6873 28.996 22.8795 28.1599 23.4369C27.7467 23.7155 27.4008 24.0615 27.1317 24.4747L17.82 38.7065C16.7149 40.4363 17.2146 42.7522 18.9539 43.8573C19.5497 44.2321 20.232 44.4339 20.9335 44.4435H39.5473C41.6038 44.4242 43.2566 42.733 43.2374 40.6765C43.2278 39.975 43.026 39.2927 42.6512 38.6969L33.3491 24.4747ZM29.265 25.8681C29.438 25.6086 29.6975 25.4261 29.9954 25.3684C30.0723 25.3492 30.1587 25.3396 30.2356 25.3396C30.4566 25.3396 30.6777 25.4068 30.8699 25.5318C31.0044 25.6182 31.1197 25.7336 31.2062 25.8681L40.5083 40.0999C40.7485 40.4555 40.7678 40.9071 40.5563 41.2819V41.2915C40.3545 41.6663 39.999 41.9257 39.5377 41.8969H20.9335C20.2897 41.8969 19.7708 41.378 19.7708 40.7342C19.7708 40.5035 19.838 40.2921 19.9629 40.0999L29.265 25.8681Z" fill="#165DFF"/>
<path d="M48.8685 10.1565H11.1315C8.2967 10.1565 6 12.4628 6 15.288V45.7121C6 48.5373 8.2967 50.8436 11.1315 50.8436H48.8685C51.6937 50.8436 54 48.5373 54 45.7121V15.288C54 12.4628 51.6937 10.1565 48.8685 10.1565ZM11.1315 13.0394H48.8685C50.1081 13.0394 51.1171 14.0484 51.1171 15.288V18.4015H8.88288V15.288C8.88288 14.0484 9.89189 13.0394 11.1315 13.0394ZM48.8685 47.9607H11.1315C9.89189 47.9607 8.88288 46.9517 8.88288 45.7121V21.2844H51.1171V45.7121C51.1171 46.9517 50.1081 47.9607 48.8685 47.9607Z" fill="#1D2129"/>
<path d="M30.2354 36.8904C31.033 36.8904 31.6768 36.2465 31.6768 35.4489V28.8279C31.6768 28.0303 31.033 27.3865 30.2354 27.3865C29.4378 27.3865 28.7939 28.0303 28.7939 28.8279V35.4489C28.7939 36.2369 29.4378 36.8904 30.2354 36.8904Z" fill="#1D2129"/>
<path d="M30.1784 40.59C30.9851 40.59 31.6391 39.9361 31.6391 39.1294C31.6391 38.3227 30.9851 37.6687 30.1784 37.6687C29.3717 37.6687 28.7178 38.3227 28.7178 39.1294C28.7178 39.9361 29.3717 40.59 30.1784 40.59Z" fill="#1D2129"/>
</svg>
