<svg width="40" height="40" viewBox="0 0 40 40" fill="none" xmlns="http://www.w3.org/2000/svg">
<path d="M12.4727 15.0545C12.4727 15.4016 12.6106 15.7346 12.8561 15.9801C13.1016 16.2256 13.4346 16.3635 13.7817 16.3635C14.1289 16.3635 14.4619 16.2256 14.7074 15.9801C14.9529 15.7346 15.0908 15.4016 15.0908 15.0545C15.0908 14.7073 14.9529 14.3743 14.7074 14.1288C14.4619 13.8833 14.1289 13.7454 13.7817 13.7454C13.4346 13.7454 13.1016 13.8833 12.8561 14.1288C12.6106 14.3743 12.4727 14.7073 12.4727 15.0545Z" fill="#50B674"/>
<path d="M18.3271 15.0184C18.3271 15.3656 18.4651 15.6986 18.7106 15.9441C18.9561 16.1896 19.289 16.3275 19.6362 16.3275C19.9834 16.3275 20.3164 16.1896 20.5619 15.9441C20.8074 15.6986 20.9453 15.3656 20.9453 15.0184C20.9453 14.6712 20.8074 14.3383 20.5619 14.0928C20.3164 13.8473 19.9834 13.7094 19.6362 13.7094C19.289 13.7094 18.9561 13.8473 18.7106 14.0928C18.4651 14.3383 18.3271 14.6712 18.3271 15.0184Z" fill="#50B674"/>
<path d="M21.5996 20.8723C21.5996 21.1135 21.6954 21.3447 21.8659 21.5152C22.0364 21.6857 22.2676 21.7814 22.5087 21.7814C22.7498 21.7814 22.981 21.6857 23.1515 21.5152C23.322 21.3447 23.4178 21.1135 23.4178 20.8723C23.4178 20.6312 23.322 20.4 23.1515 20.2295C22.981 20.059 22.7498 19.9633 22.5087 19.9633C22.2676 19.9633 22.0364 20.059 21.8659 20.2295C21.6954 20.4 21.5996 20.6312 21.5996 20.8723Z" fill="#50B674"/>
<path d="M26.2188 20.945C26.2187 21.1861 26.3145 21.4173 26.485 21.5878C26.6555 21.7583 26.8867 21.8541 27.1278 21.8541C27.3689 21.8541 27.6002 21.7583 27.7707 21.5878C27.9412 21.4173 28.0369 21.1861 28.0369 20.945C28.0369 20.7039 27.9412 20.4726 27.7707 20.3022C27.6002 20.1317 27.3689 20.0359 27.1278 20.0359C26.8867 20.0359 26.6555 20.1317 26.485 20.3022C26.3145 20.4726 26.2187 20.7039 26.2188 20.945Z" fill="#50B674"/>
<path d="M20 0C8.94545 0 0 8.94545 0 20C0 31.0545 8.94545 40 20 40C31.0545 40 40 31.0545 40 20C40 8.94545 31.0545 0 20 0ZM16.5818 24.6182C15.5273 24.6182 14.6909 24.4 13.6364 24.1818L10.6909 25.6364L11.5273 23.1273C9.41818 21.6727 8.18182 19.7818 8.18182 17.4545C8.18182 13.4545 11.9636 10.3273 16.5818 10.3273C20.6909 10.3273 24.3273 12.8364 25.0545 16.2182C24.8 16.1818 24.5091 16.1818 24.2545 16.1818C20.2545 16.1818 17.1273 19.1636 17.1273 22.8364C17.1273 23.4545 17.2364 24.0364 17.3818 24.5818C17.0909 24.5818 16.8364 24.6182 16.5818 24.6182ZM28.8727 27.5636L29.4909 29.6727L27.2 28.4C26.3636 28.6182 25.5273 28.8364 24.6909 28.8364C20.6909 28.8364 17.5636 26.1091 17.5636 22.7636C17.5636 19.4182 20.6909 16.6909 24.6909 16.6909C28.4727 16.6909 31.8182 19.4182 31.8182 22.7636C31.8182 24.6182 30.5818 26.2909 28.8727 27.5636Z" fill="#50B674"/>
</svg>
