<svg width="40" height="38" viewBox="0 0 40 38" fill="none" xmlns="http://www.w3.org/2000/svg">
<g clip-path="url(#clip0_285_6346)">
<path d="M34.209 11.5905H19.5806C16.3825 11.5905 13.79 14.1829 13.79 17.3811V32.0095C13.79 35.2076 16.3825 37.8001 19.5806 37.8001H34.209C37.4072 37.8001 39.9997 35.2076 39.9997 32.0095V17.3805C39.9997 14.1829 37.4072 11.5905 34.209 11.5905Z" fill="#165DFF"/>
<g filter="url(#filter0_b_285_6346)">
<path d="M25.5768 0.199951H7.25339C3.24717 0.199951 0 3.44712 0 7.45334V25.7773C0 29.783 3.24717 33.0307 7.25339 33.0307H25.5774C29.583 33.0307 32.8308 29.7835 32.8308 25.7773V7.45334C32.8302 3.44712 29.583 0.199951 25.5768 0.199951Z" fill="#BEDAFF" fill-opacity="0.5"/>
</g>
<path d="M25.5765 9.18872H20.9956C20.2689 9.18872 19.6775 9.78006 19.6775 10.5068C19.6775 11.2336 20.2689 11.825 20.9956 11.825H22.3927L17.7669 16.4456L14.0915 13.9909C13.5711 13.6451 12.8719 13.7148 12.4293 14.1563L6.32113 20.2645C6.07272 20.5129 5.93612 20.8437 5.93555 21.1947C5.93497 21.9215 6.52573 22.5134 7.25251 22.514C7.25366 22.514 7.25482 22.514 7.25539 22.514C7.60178 22.514 7.94068 22.3728 8.18447 22.1273L13.5353 16.7839L17.2107 19.2386C17.7317 19.5844 18.4309 19.5152 18.8729 19.0732L24.2584 13.6877V15.0877C24.2584 15.8145 24.8497 16.4058 25.5765 16.4058C26.3033 16.4058 26.8946 15.8145 26.8946 15.0877V10.5068C26.8946 9.78006 26.3033 9.18872 25.5765 9.18872Z" fill="#165DFF"/>
</g>
<defs>
<filter id="filter0_b_285_6346" x="-4" y="-3.80005" width="40.8311" height="40.8307" filterUnits="userSpaceOnUse" color-interpolation-filters="sRGB">
<feFlood flood-opacity="0" result="BackgroundImageFix"/>
<feGaussianBlur in="BackgroundImage" stdDeviation="2"/>
<feComposite in2="SourceAlpha" operator="in" result="effect1_backgroundBlur_285_6346"/>
<feBlend mode="normal" in="SourceGraphic" in2="effect1_backgroundBlur_285_6346" result="shape"/>
</filter>
<clipPath id="clip0_285_6346">
<rect width="40" height="37.6001" fill="white" transform="translate(0 0.199951)"/>
</clipPath>
</defs>
</svg>
