<svg width="48" height="48" viewBox="0 0 48 48" fill="none" xmlns="http://www.w3.org/2000/svg">
<g clip-path="url(#clip0_285_7014)">
<path d="M39.4999 15.9169H23.5416C20.0527 15.9169 17.2246 18.745 17.2246 22.2339V38.1921C17.2246 41.6811 20.0527 44.5092 23.5416 44.5092H39.4999C42.9888 44.5092 45.8169 41.6811 45.8169 38.1921V22.2333C45.8169 18.745 42.9888 15.9169 39.4999 15.9169Z" fill="#8283FF"/>
<g >
<path d="M30.0836 3.49084H10.0944C5.72401 3.49084 2.18164 7.03321 2.18164 11.4036V31.3934C2.18164 35.7632 5.72401 39.3062 10.0944 39.3062H30.0842C34.454 39.3062 37.997 35.7638 37.997 31.3934V11.4036C37.9964 7.03321 34.454 3.49084 30.0836 3.49084Z" fill="#D6D6FF" fill-opacity="0.5"/>
</g>
<path d="M30.0827 13.2968H25.0854C24.2926 13.2968 23.6475 13.9419 23.6475 14.7348C23.6475 15.5276 24.2926 16.1727 25.0854 16.1727H26.6095L21.5632 21.2134L17.5537 18.5355C16.9859 18.1583 16.2232 18.2344 15.7404 18.716L9.07688 25.3795C8.80589 25.6505 8.65688 26.0114 8.65625 26.3943C8.65562 27.1871 9.30009 27.8328 10.0929 27.8335C10.0942 27.8335 10.0955 27.8335 10.0961 27.8335C10.474 27.8335 10.8437 27.6794 11.1096 27.4116L16.9469 21.5825L20.9564 24.2603C21.5248 24.6375 22.2875 24.5621 22.7698 24.0798L28.6448 18.2048V19.732C28.6448 20.5249 29.2899 21.17 30.0827 21.17C30.8756 21.17 31.5207 20.5249 31.5207 19.732V14.7348C31.5207 13.9419 30.8756 13.2968 30.0827 13.2968Z" fill="#8283FF"/>
</g>
<defs>
<filter id="filter0_b_285_7014" x="-2.182" y="-0.872792" width="44.5427" height="44.5426" filterUnits="userSpaceOnUse" color-interpolation-filters="sRGB">
<feFlood flood-opacity="0" result="BackgroundImageFix"/>
<feGaussianBlur in="BackgroundImage" stdDeviation="2.18182"/>
<feComposite in2="SourceAlpha" operator="in" result="effect1_backgroundBlur_285_7014"/>
<feBlend mode="normal" in="SourceGraphic" in2="effect1_backgroundBlur_285_7014" result="shape"/>
</filter>
<clipPath id="clip0_285_7014">
<rect width="43.6364" height="41.0183" fill="white" transform="translate(2.18164 3.49084)"/>
</clipPath>
</defs>
</svg>
