<svg width="400" height="400" viewBox="0 0 400 400" fill="none" xmlns="http://www.w3.org/2000/svg">
<rect width="400" height="400" fill="white"/>
<path d="M101.005 332.896C155.675 360.27 244.318 360.27 298.995 332.896C353.672 305.522 353.665 261.13 298.995 233.749C244.325 206.369 155.675 206.369 101.005 233.749C46.3351 261.13 46.3281 305.515 101.005 332.896Z" fill="#FAFAFA"/>
<path d="M303.366 306.61C318.787 306.61 331.289 299.815 331.289 291.432C331.289 283.05 318.787 276.255 303.366 276.255C287.944 276.255 275.442 283.05 275.442 291.432C275.442 299.815 287.944 306.61 303.366 306.61Z" fill="#E6E6E6"/>
<path d="M95.866 304.665C111.288 304.665 123.79 297.869 123.79 289.487C123.79 281.104 111.288 274.309 95.866 274.309C80.4442 274.309 67.9423 281.104 67.9423 289.487C67.9423 297.869 80.4442 304.665 95.866 304.665Z" fill="#E6E6E6"/>
<path d="M83.4869 271.693C83.4869 271.693 83.219 265.539 80.519 260.583C77.819 255.627 73.85 252.377 69.9445 251.792C66.039 251.207 62.7045 254.57 66.7228 257.326C70.7411 260.083 77.9459 263.114 80.7023 272.561L83.4869 271.693Z" fill="#407BFF"/>
<path opacity="0.15" d="M83.4869 271.693C83.4869 271.693 83.219 265.539 80.519 260.583C77.819 255.627 73.85 252.377 69.9445 251.792C66.039 251.207 62.7045 254.57 66.7228 257.326C70.7411 260.083 77.9459 263.114 80.7023 272.561L83.4869 271.693Z" fill="black"/>
<path d="M82.4576 270.023H82.4999C82.5516 270.005 82.5944 269.968 82.6194 269.919C82.6444 269.871 82.6495 269.814 82.6338 269.762C79.2359 259.349 71.7068 254.57 68.2032 253.498C68.1768 253.49 68.149 253.486 68.1213 253.489C68.0937 253.491 68.0669 253.5 68.0425 253.513C68.0181 253.526 67.9966 253.544 67.9794 253.566C67.9622 253.587 67.9496 253.612 67.9423 253.639C67.9266 253.692 67.9318 253.748 67.9568 253.797C67.9817 253.845 68.0246 253.882 68.0763 253.9C71.5165 254.95 78.8904 259.639 82.232 269.889C82.2479 269.934 82.2792 269.972 82.3205 269.997C82.3617 270.021 82.4102 270.03 82.4576 270.023Z" fill="white"/>
<path d="M61.5413 268.669C61.8514 269.543 62.7467 270.044 63.5786 270.453C64.4609 270.759 65.2169 271.349 65.7288 272.131C66.5465 273.808 64.8546 275.973 65.7288 277.615C65.9435 277.944 66.2219 278.228 66.5476 278.448C66.8732 278.668 67.2395 278.821 67.6251 278.898C68.2525 279.06 68.9081 279.103 69.5497 279.208C69.8596 279.226 70.1703 279.226 70.4802 279.208C71.3917 279.068 72.324 279.234 73.1309 279.681C74.3646 280.491 74.6395 282.141 75.3304 283.445C75.7609 284.215 76.353 284.883 77.0661 285.403C77.7793 285.923 78.5964 286.282 79.4615 286.455C80.1976 286.657 80.9742 286.657 81.7103 286.455L81.8372 286.385C81.9218 286.3 82.0346 286.188 82.0769 286.131V286.096C82.3659 285.271 82.0769 284.376 82.0769 283.509C82.0769 283.452 82.0769 283.403 82.0769 283.354C82.185 282.353 82.2837 281.351 82.373 280.35C82.5563 278.508 82.7067 276.663 82.8242 274.816C82.8947 273.618 83.1273 272.314 82.7043 271.144C82.2249 269.868 80.8362 269.734 80.392 268.486C80.2158 267.985 80.1382 267.45 79.9691 266.949C79.7032 266.205 79.2376 265.548 78.6234 265.051C78.0091 264.553 77.2698 264.234 76.4865 264.129C74.0614 263.833 71.7351 265.652 69.31 265.299C68.6857 265.172 68.069 265.01 67.463 264.813C65.5173 264.305 63.1909 264.707 61.9642 266.3C61.7044 266.63 61.5298 267.019 61.4561 267.432C61.3823 267.845 61.4115 268.27 61.5413 268.669Z" fill="#407BFF"/>
<path d="M82.6056 282.261C82.6329 282.256 82.659 282.245 82.6822 282.23C82.7055 282.215 82.7256 282.195 82.7413 282.173C82.757 282.15 82.7681 282.124 82.7738 282.097C82.7796 282.069 82.7799 282.041 82.7748 282.014C80.2933 269.134 67.0964 266.371 63.9663 266.378C63.9177 266.387 63.8738 266.413 63.8422 266.451C63.8106 266.489 63.7933 266.536 63.7933 266.586C63.7933 266.635 63.8106 266.683 63.8422 266.721C63.8738 266.759 63.9177 266.785 63.9663 266.794C67.0329 266.794 79.9338 269.494 82.3589 282.099C82.3707 282.153 82.4032 282.2 82.4493 282.23C82.4954 282.26 82.5515 282.271 82.6056 282.261Z" fill="white"/>
<path d="M68.2525 274.816C68.2943 274.812 68.3337 274.795 68.3653 274.767C69.6707 273.786 71.1767 273.106 72.7755 272.774C74.3744 272.443 76.0267 272.469 77.6145 272.85C77.6686 272.86 77.7247 272.849 77.7708 272.819C77.8169 272.788 77.8494 272.741 77.8612 272.687C77.8675 272.661 77.8684 272.634 77.8639 272.607C77.8595 272.58 77.8498 272.555 77.8354 272.532C77.8209 272.509 77.8021 272.489 77.7799 272.473C77.7577 272.458 77.7326 272.447 77.7061 272.441C76.0543 272.046 74.3357 272.022 72.6733 272.369C71.011 272.716 69.446 273.427 68.0904 274.45C68.0577 274.48 68.0353 274.519 68.0262 274.562C68.0171 274.606 68.0219 274.651 68.0398 274.691C68.0577 274.732 68.0879 274.766 68.126 274.788C68.1642 274.811 68.2084 274.82 68.2525 274.816Z" fill="white"/>
<path d="M314.363 276.6C314.321 272.948 316.866 265.321 320.595 260.569C324.324 255.818 330.239 252.25 334.49 253.646C338.445 254.943 338.078 260.118 333.341 263.6C328.603 267.083 321.469 271.475 319.439 277.418L315.117 284.771L314.363 276.6Z" fill="#407BFF"/>
<path opacity="0.1" d="M314.363 276.6C314.321 272.948 316.866 265.321 320.595 260.569C324.324 255.818 330.239 252.25 334.49 253.646C338.445 254.943 338.078 260.118 333.341 263.6C328.603 267.083 321.469 271.475 319.439 277.418L315.117 284.771L314.363 276.6Z" fill="black"/>
<path d="M314.166 281.598C314.224 281.593 314.279 281.569 314.322 281.529C314.366 281.49 314.395 281.437 314.405 281.38C316.697 268.888 326.658 258.637 332.664 256.332C332.729 256.305 332.782 256.255 332.81 256.19C332.839 256.126 332.842 256.053 332.819 255.987C332.789 255.931 332.739 255.887 332.68 255.865C332.62 255.843 332.554 255.844 332.495 255.867C326.369 258.222 316.231 268.641 313.898 281.316C313.892 281.351 313.893 281.386 313.9 281.421C313.908 281.455 313.922 281.488 313.943 281.517C313.963 281.545 313.989 281.57 314.019 281.589C314.048 281.608 314.082 281.62 314.116 281.626L314.166 281.598Z" fill="white"/>
<path d="M316.104 289.55C316.668 287.492 319.136 284.073 323.154 281.232C327.602 278.08 333.256 276.593 334.539 274.182C336.076 271.27 333.601 268.542 329.005 269.191C324.409 269.839 316.379 276.198 315.202 285.68L316.104 289.55Z" fill="#407BFF"/>
<path d="M315.188 287.407C315.24 287.403 315.289 287.385 315.33 287.353C315.372 287.322 315.403 287.28 315.421 287.231C319.107 276.508 327.208 272.666 330.972 272.131C331.007 272.126 331.041 272.115 331.072 272.097C331.103 272.08 331.13 272.056 331.152 272.028C331.174 272 331.189 271.967 331.198 271.933C331.208 271.898 331.21 271.863 331.205 271.827C331.194 271.757 331.156 271.694 331.1 271.652C331.043 271.61 330.972 271.592 330.902 271.602C326.735 272.194 318.684 276.114 314.913 287.055C314.89 287.121 314.895 287.194 314.925 287.257C314.955 287.32 315.009 287.369 315.075 287.393C315.112 287.404 315.15 287.409 315.188 287.407Z" fill="white"/>
<path d="M268.343 189.29C269.189 189.995 270.148 190.347 271.261 191.405C271.963 192.205 272.848 192.822 273.842 193.202C275.118 193.703 276.323 193.555 279.876 192.991C284.219 192.286 286.094 191.581 287.962 189.967C290.155 188.091 295.061 182.459 297.43 180.245C299.932 177.898 303.38 178.835 303.38 178.835C302.307 182.301 300.714 185.583 298.656 188.571C296.76 191.271 293.214 193.858 291.607 195.19C289.041 197.305 287.68 198.172 282.04 198.595C279.286 198.9 276.513 199.009 273.743 198.92C272.481 198.877 271.699 198.87 269.64 198.694C268.742 198.64 267.853 198.486 266.989 198.236C266.019 198.011 265.088 197.643 264.226 197.143C263.102 196.412 262.196 195.392 261.603 194.189C261.275 193.533 261.106 192.808 261.11 192.075C261.12 191.333 261.392 190.619 261.878 190.058C261.973 189.944 262.094 189.855 262.231 189.798C262.499 189.752 262.775 189.813 262.999 189.967C264.32 190.755 265.68 191.475 267.074 192.124C268.251 192.582 269.147 192.737 269.062 192.498C268.977 192.258 268.258 192.046 267.525 191.222C266.792 190.397 266.616 189.241 267.088 188.888C267.56 188.536 267.483 188.592 268.343 189.29Z" fill="#FFA8A7"/>
<path d="M304.374 178.8C303.036 178.15 301.515 177.981 300.066 178.321C297.874 178.948 296.119 180.379 294.025 182.628C291.931 184.877 288.385 188.5 288.385 188.5C288.385 188.5 290.119 192.899 294.025 194.464L302.21 186.886L304.374 178.8Z" fill="#407BFF"/>
<path opacity="0.1" d="M304.374 178.8C303.036 178.15 301.515 177.981 300.066 178.321C297.874 178.948 296.119 180.379 294.025 182.628C291.931 184.877 288.385 188.5 288.385 188.5C288.385 188.5 290.119 192.899 294.025 194.464L302.21 186.886L304.374 178.8Z" fill="black"/>
<path d="M265.833 189.713L273.588 185.201C273.963 185.012 274.377 184.913 274.797 184.913C275.217 184.913 275.631 185.012 276.006 185.201L283.408 189.029C283.764 189.26 284.059 189.572 284.27 189.94C284.481 190.308 284.601 190.72 284.621 191.144L284.656 200.125C284.638 200.548 284.52 200.96 284.312 201.327C284.103 201.695 283.811 202.008 283.457 202.24L275.703 206.752C275.328 206.942 274.914 207.04 274.494 207.04C274.074 207.04 273.66 206.942 273.285 206.752L265.883 202.924C265.528 202.692 265.233 202.38 265.023 202.012C264.812 201.645 264.691 201.232 264.67 200.809L264.635 191.835C264.653 191.412 264.771 190.999 264.979 190.63C265.188 190.261 265.48 189.947 265.833 189.713Z" fill="#37474F"/>
<path opacity="0.4" d="M284.621 190.897C284.536 190.284 284.035 190.058 283.429 190.411L275.675 194.93C275.226 195.216 274.879 195.635 274.681 196.128C274.722 196.027 274.769 195.928 274.822 195.832L265.001 190.622C265.201 190.252 265.496 189.941 265.854 189.72L273.609 185.201C273.983 185.012 274.396 184.913 274.814 184.913C275.233 184.913 275.646 185.012 276.02 185.201L283.429 189.029C283.749 189.238 284.02 189.513 284.226 189.835C284.431 190.157 284.566 190.519 284.621 190.897Z" fill="#455A64"/>
<path d="M264.67 200.788C264.691 201.211 264.812 201.623 265.023 201.991C265.233 202.358 265.528 202.671 265.883 202.903L273.285 206.731C273.626 206.901 274.001 206.997 274.382 207.012C274.764 207.026 275.145 206.959 275.498 206.815C274.927 207.034 274.497 206.717 274.49 206.026L274.455 197.052C274.469 196.631 274.59 196.221 274.807 195.86L264.987 190.651C264.769 191.011 264.648 191.421 264.635 191.842L264.67 200.788Z" fill="#263238"/>
<path d="M316.4 279.307H311.437V287.802H316.4V279.307Z" fill="#FFA8A7"/>
<path d="M302.668 281.443L297.712 281.612L297.458 272.624L302.668 272.455V281.443Z" fill="#FFA8A7"/>
<path d="M318.515 215.867C318.515 220.604 317.676 248.169 317.676 248.169C317.796 249.536 319.086 251.961 319.206 256.868C319.354 263.995 316.612 283.551 316.612 283.551C315.756 283.973 314.818 284.201 313.864 284.221C312.911 284.24 311.964 284.05 311.092 283.664C311.092 283.664 308.836 257.15 307.948 250.1C307.172 243.946 305.833 227.231 305.833 227.231L303.499 247.316C304.074 249.903 304.281 252.559 304.113 255.204C303.88 258.468 302.964 278.658 302.964 278.658C302.103 279.151 301.145 279.448 300.158 279.53C299.17 279.611 298.176 279.475 297.246 279.131C297.246 279.131 293.722 250.347 293.686 247.351C293.623 243.939 294.983 209.121 294.983 209.121L318.515 215.867Z" fill="#37474F"/>
<path d="M315.258 181.007C316.35 181.492 317.208 182.385 317.648 183.495C318.15 184.867 318.389 186.321 318.353 187.781V197.503L318.494 215.832C311.374 219.589 302.315 219.836 294.716 214.288C294.716 214.288 295.139 190.65 295.139 186.794C295.139 186.618 295.139 186.442 295.139 186.266C295.226 184.967 295.6 183.703 296.233 182.566C296.866 181.429 297.743 180.446 298.801 179.687C299.859 178.928 301.071 178.413 302.352 178.178C303.632 177.943 304.948 177.994 306.207 178.328L310.704 179.491L315.223 180.978L315.258 181.007Z" fill="#407BFF"/>
<path d="M280.722 199.244C281.653 199.815 282.661 200.034 283.909 200.95C284.72 201.641 285.688 202.125 286.728 202.36C288.068 202.684 298.586 199.124 300.539 197.623C304.501 194.57 307.927 188.818 309.83 186.639C311.402 184.842 313.186 182.135 315.117 182.12C318.318 183.093 317.592 187.852 314.913 192.138C311.967 196.56 308.165 200.347 303.732 203.276C301.427 204.792 290.796 207.506 287.264 207.767C286.193 207.838 285.396 208.077 283.352 208.366C282.513 208.539 281.653 208.587 280.8 208.507C279.753 208.343 278.735 208.032 277.775 207.584C276.562 207.014 275.523 206.131 274.765 205.025C274.346 204.42 274.078 203.724 273.983 202.994C273.882 202.255 274.052 201.504 274.462 200.88C274.538 200.75 274.648 200.642 274.779 200.569C275.038 200.486 275.318 200.507 275.562 200.626C276.976 201.225 278.421 201.749 279.89 202.198C281.124 202.487 282.005 202.515 281.914 202.289C281.822 202.064 281.053 201.951 280.215 201.239C279.376 200.527 279.037 199.406 279.453 198.99C279.869 198.574 279.785 198.673 280.722 199.244Z" fill="#FFA8A7"/>
<path d="M302.513 169.734C306.278 169.734 309.33 166.682 309.33 162.917C309.33 159.152 306.278 156.1 302.513 156.1C298.748 156.1 295.696 159.152 295.696 162.917C295.696 166.682 298.748 169.734 302.513 169.734Z" fill="#263238"/>
<path d="M314.3 167.746C314.3 167.746 313.2 172.942 312.756 173.795C312.46 174.321 311.973 174.712 311.395 174.887L311.473 171.236L314.3 167.746Z" fill="#263238"/>
<path d="M312.918 160.33C313.303 160.284 313.694 160.327 314.061 160.456C314.427 160.584 314.76 160.794 315.033 161.07C315.942 162.001 315.434 164.912 314.328 167.767L312.248 168.007L312.918 160.33Z" fill="#263238"/>
<path d="M311.599 168.007C312.015 168.254 312.608 167.457 313.122 166.914C313.326 166.684 313.584 166.509 313.874 166.405C314.163 166.301 314.474 166.273 314.778 166.322C315.081 166.372 315.367 166.497 315.609 166.687C315.851 166.877 316.041 167.125 316.161 167.408C317.014 169.205 315.42 171.588 314.095 172.004C311.818 172.709 311.473 171.257 311.473 171.257L311.303 179.716C308.484 183.354 300.602 183.044 303.88 179.251V176.749C302.864 176.909 301.834 176.961 300.806 176.904C299.129 176.643 298.071 175.317 297.564 173.506C296.746 170.587 296.436 168.24 297.134 162.501C297.888 156.22 305.198 156.157 309.118 158.638C313.038 161.119 311.599 168.007 311.599 168.007Z" fill="#FFA8A7"/>
<path d="M311.599 168.712C311.804 168.712 312.608 167.387 313.122 166.914C313.827 166.259 312.918 160.33 312.918 160.33C313.105 159.815 313.138 159.257 313.012 158.723C312.887 158.19 312.609 157.705 312.213 157.327C311.226 156.241 309.576 156.121 306.763 155.677C305.29 155.444 303.048 155.036 301.575 154.761C299.812 154.429 298.353 154.056 297.112 155.163C296.622 155.589 296.275 156.157 296.121 156.788C295.967 157.419 296.013 158.083 296.252 158.687C296.606 159.436 297.239 160.015 298.015 160.302C298.015 160.302 298.783 161.007 301.455 161.31C303.921 161.494 306.4 161.447 308.857 161.169C309.633 161.063 309.795 161.817 310.211 163.869C310.584 165.631 310.887 168.698 311.599 168.712Z" fill="#263238"/>
<path d="M312.911 160.788L315.434 159.435C315.352 159.266 315.237 159.116 315.096 158.993C314.955 158.869 314.79 158.775 314.612 158.716C314.435 158.657 314.247 158.634 314.06 158.649C313.873 158.663 313.691 158.714 313.524 158.8C313.186 158.989 312.934 159.301 312.82 159.671C312.706 160.042 312.738 160.441 312.911 160.788Z" fill="#263238"/>
<path d="M303.887 176.763C303.887 176.763 307.631 176.008 308.935 175.31C309.706 174.91 310.337 174.286 310.747 173.52C310.55 174.287 310.2 175.006 309.717 175.635C308.766 176.861 303.887 177.75 303.887 177.75V176.763Z" fill="#F28F8F"/>
<path d="M304.07 167.041C304.068 167.142 304.085 167.242 304.121 167.336C304.157 167.43 304.211 167.516 304.281 167.588C304.35 167.661 304.434 167.719 304.526 167.76C304.618 167.8 304.717 167.822 304.818 167.824C304.974 167.831 305.128 167.791 305.262 167.709C305.395 167.628 305.501 167.508 305.565 167.366C305.63 167.224 305.651 167.065 305.625 166.911C305.598 166.757 305.527 166.615 305.419 166.502C305.311 166.389 305.172 166.31 305.019 166.277C304.866 166.244 304.707 166.257 304.562 166.315C304.417 166.374 304.293 166.474 304.205 166.603C304.118 166.732 304.071 166.885 304.07 167.041Z" fill="#263238"/>
<path d="M304.867 164.221L306.467 165.103C306.582 164.883 306.607 164.627 306.538 164.389C306.468 164.151 306.309 163.95 306.094 163.827C305.988 163.768 305.872 163.731 305.751 163.719C305.631 163.707 305.51 163.72 305.395 163.757C305.28 163.794 305.173 163.855 305.083 163.934C304.992 164.014 304.918 164.112 304.867 164.221Z" fill="#263238"/>
<path d="M304.226 172.251L302.513 172.899C302.551 173.014 302.611 173.119 302.691 173.21C302.77 173.301 302.867 173.374 302.975 173.427C303.084 173.479 303.201 173.51 303.322 173.516C303.442 173.522 303.562 173.504 303.676 173.463C303.907 173.372 304.093 173.194 304.195 172.968C304.298 172.742 304.309 172.485 304.226 172.251Z" fill="#F28F8F"/>
<path d="M297.599 164.863L299.058 163.735C298.989 163.637 298.901 163.554 298.799 163.491C298.697 163.428 298.583 163.387 298.464 163.369C298.346 163.351 298.225 163.357 298.109 163.388C297.993 163.418 297.884 163.471 297.789 163.545C297.594 163.698 297.466 163.92 297.43 164.166C297.395 164.411 297.455 164.661 297.599 164.863Z" fill="#263238"/>
<path d="M298.05 166.858C298.056 167.006 298.105 167.149 298.191 167.27C298.278 167.39 298.398 167.482 298.536 167.535C298.675 167.588 298.826 167.598 298.971 167.565C299.115 167.532 299.247 167.458 299.349 167.351C299.452 167.243 299.52 167.108 299.546 166.962C299.573 166.816 299.555 166.666 299.496 166.53C299.437 166.394 299.34 166.278 299.215 166.197C299.091 166.116 298.946 166.074 298.797 166.075C298.697 166.077 298.598 166.099 298.505 166.139C298.413 166.18 298.33 166.238 298.261 166.311C298.191 166.384 298.137 166.469 298.101 166.563C298.064 166.657 298.047 166.757 298.05 166.858Z" fill="#263238"/>
<path d="M301.871 166.146L301.624 170.658L299.27 169.854L301.871 166.146Z" fill="#F28F8F"/>
<path d="M311.437 285.349V284.644C310.965 284.848 309.858 289.057 307.913 290.854C306.348 292.264 304.212 293.928 303.683 295.521C303.154 297.114 306.658 298.094 308.117 297.833C309.816 297.53 312.763 296.332 313.503 295.225C314.243 294.118 314.589 292.483 315.188 291.665C315.787 290.847 317.176 289.945 317.5 289.007C317.596 288.128 317.5 287.238 317.218 286.399C316.986 285.525 316.739 284.559 316.436 284.644V285.179C315.73 285.737 314.853 286.033 313.954 286.018C313.193 286.046 311.43 285.905 311.437 285.349Z" fill="#263238"/>
<path d="M297.655 280.082C297.402 280.082 297.19 280.456 296.619 281.069C295.774 281.935 294.787 282.65 293.701 283.184C291.846 284.115 288.23 285.546 286.594 286.286C285.572 286.744 285.622 287.978 286.679 288.683C287.737 289.388 290.281 289.888 293.341 289.205C295.012 288.831 297.183 287.294 298.558 287.372C299.932 287.449 302.498 287.435 303.492 286.737C304.486 286.039 304.106 284.545 303.817 283.262C303.507 281.852 303.112 279.681 302.647 279.779V280.259C302.054 281.161 298.974 281.528 297.662 280.865L297.655 280.082Z" fill="#263238"/>
<path d="M305.854 227.231C303.29 226.429 300.933 225.077 298.945 223.269C298.945 223.269 300.278 225.765 304.247 228.084L303.718 245.631L305.854 227.231Z" fill="#263238"/>
<path d="M315.308 181.007C317.669 182.163 318.628 183.925 317.578 187.859C316.633 191.384 313.017 197.397 310.176 200.344C310.176 200.344 305.304 198.038 302.717 195.035C305.283 191.116 306.517 188.803 308.928 185.483C311.339 182.163 313.863 180.605 315.308 181.007Z" fill="#407BFF"/>
<g opacity="0.1">
<path d="M315.308 181.007C317.669 182.163 318.628 183.925 317.578 187.859C316.633 191.384 313.017 197.397 310.176 200.344C310.176 200.344 305.304 198.038 302.717 195.035C305.283 191.116 306.517 188.803 308.928 185.483C311.339 182.163 313.863 180.605 315.308 181.007Z" fill="black"/>
</g>
<path d="M96.8459 177.616C99.4614 177.616 102.232 176.869 104.46 180.245C106.687 183.622 113.208 198.631 113.208 198.631C113.208 198.631 107.9 201.451 107.766 201.253C107.632 201.056 98.693 186.118 98.693 186.118L96.8459 177.616Z" fill="#FFA8A7"/>
<path d="M93.9415 174.514C91.0603 174.514 88.2971 173.369 86.2598 171.332C84.2225 169.295 83.0779 166.532 83.0779 163.651V162.544C83.0779 160.102 84.0479 157.76 85.7746 156.033C87.5012 154.307 89.843 153.337 92.2848 153.337H95.6263C98.0608 153.348 100.392 154.323 102.109 156.048C103.827 157.774 104.791 160.109 104.791 162.544V163.651C104.791 166.529 103.648 169.29 101.614 171.327C99.5798 173.364 96.8202 174.51 93.9415 174.514Z" fill="#407BFF"/>
<g opacity="0.2">
<path d="M93.9415 174.514C91.0603 174.514 88.2971 173.369 86.2598 171.332C84.2225 169.295 83.0779 166.532 83.0779 163.651V162.544C83.0779 160.102 84.0479 157.76 85.7746 156.033C87.5012 154.307 89.843 153.337 92.2848 153.337H95.6263C98.0608 153.348 100.392 154.323 102.109 156.048C103.827 157.774 104.791 160.109 104.791 162.544V163.651C104.791 166.529 103.648 169.29 101.614 171.327C99.5798 173.364 96.8202 174.51 93.9415 174.514Z" fill="black"/>
</g>
<path d="M78.4323 175.649C79.0984 175.649 79.758 175.517 80.3731 175.262C80.9882 175.006 81.5467 174.631 82.0164 174.159C82.4861 173.686 82.8579 173.126 83.1102 172.509C83.3626 171.893 83.4906 171.232 83.4869 170.566V160.542C82.8201 160.542 82.1599 160.674 81.5444 160.93C80.9288 161.186 80.37 161.561 79.9002 162.035C79.4304 162.508 79.0588 163.069 78.8068 163.686C78.5549 164.304 78.4276 164.965 78.4323 165.631V175.649Z" fill="#407BFF"/>
<path opacity="0.2" d="M78.4323 175.649C79.0984 175.649 79.758 175.517 80.3731 175.262C80.9882 175.006 81.5467 174.631 82.0164 174.159C82.4861 173.686 82.8579 173.126 83.1102 172.509C83.3626 171.893 83.4906 171.232 83.4869 170.566V160.542C82.8201 160.542 82.1599 160.674 81.5444 160.93C80.9288 161.186 80.37 161.561 79.9002 162.035C79.4304 162.508 79.0588 163.069 78.8068 163.686C78.5549 164.304 78.4276 164.965 78.4323 165.631V175.649Z" fill="black"/>
<path d="M105.129 284.63C106.418 285.993 107.835 287.23 109.359 288.324C109.604 288.477 109.807 288.687 109.951 288.937C110.149 289.353 110.459 290.347 108.541 291.052C107.582 291.386 106.562 291.508 105.55 291.41C104.539 291.313 103.561 290.998 102.683 290.488C101.125 289.515 101.055 287.485 99.5812 286.322C98.4885 285.462 97.1279 285.243 96.2467 284.122C95.6334 283.34 95.7955 282.303 96.1128 281.02C96.4652 279.61 96.6203 278.553 97.0856 278.659L97.0151 279.307C97.5932 280.231 100.596 280.506 101.95 279.864C102.925 281.507 103.986 283.098 105.129 284.63Z" fill="#263238"/>
<path d="M106.448 285.941C105.996 285.525 105.552 285.102 105.129 284.637C104.241 283.48 103.422 282.273 102.676 281.02C102.106 280.243 101.744 279.333 101.626 278.377C101.626 277.136 101.717 274.929 101.717 274.929L97.2619 274.633L97.0434 279.307C96.9306 280.372 97.8047 281.309 99.3556 282.642C100.907 283.974 102.88 287.09 104.29 287.872C105.7 288.655 106.694 288.627 107.294 288.232C107.893 287.837 107.956 287.485 106.448 285.941Z" fill="#FFA8A7"/>
<path d="M90.3038 289.078C91.5927 290.441 93.0091 291.678 94.5336 292.772C94.7766 292.927 94.9795 293.137 95.1258 293.385C95.3232 293.801 95.6333 294.795 93.7158 295.5C92.7554 295.835 91.7339 295.958 90.7214 295.86C89.709 295.763 88.7296 295.448 87.8505 294.936C86.2926 293.963 86.2221 291.933 84.7557 290.77C83.663 289.917 82.3024 289.691 81.4212 288.57C80.8079 287.795 80.963 286.752 81.2873 285.469C81.6327 284.059 81.7949 283.001 82.2602 283.107L82.1826 283.756C82.7607 284.679 85.7709 284.954 87.1174 284.312C88.0975 285.954 89.161 287.545 90.3038 289.078Z" fill="#263238"/>
<path d="M91.6221 290.41C91.1709 289.994 90.7338 289.571 90.3038 289.106C89.421 287.946 88.6088 286.733 87.8717 285.476C87.3218 284.673 86.967 283.753 86.8354 282.79C86.7508 281.697 86.8354 279.434 86.8354 279.434H82.387L82.232 283.748C82.1192 284.806 82.9933 285.743 84.5442 287.076C86.0952 288.408 88.0691 291.531 89.479 292.314C90.8889 293.096 91.8829 293.068 92.4822 292.666C93.0814 292.264 93.1378 291.933 91.6221 290.41Z" fill="#FFA8A7"/>
<path d="M82.2813 207.316C78.404 215.776 82.8171 247.915 82.8171 247.915C82.6972 249.29 81.4847 251.44 81.3437 255.627C81.1604 261.02 82.1192 280.929 82.1192 280.929C82.8986 281.341 83.7638 281.564 84.6453 281.581C85.5268 281.598 86.4 281.409 87.1949 281.027C87.1949 281.027 91.7913 254.006 92.6866 246.893C93.4691 240.689 94.9707 226.103 94.9707 226.103L98.0584 246.858C97.1307 248.946 96.5656 251.178 96.3877 253.456C96.2819 257.651 96.9023 277.143 96.9023 277.143C98.5854 277.586 100.346 277.646 102.056 277.319C102.056 277.319 106.729 250.946 107.174 245.913C107.434 242.903 105.186 206.04 105.186 206.04L82.2813 207.316Z" fill="#37474F"/>
<path d="M94.9707 226.103L96.2326 219.174C96.2326 219.174 101.562 218.074 103.987 215.797C102.322 217.754 100.141 219.205 97.6919 219.984L96.2819 226.047L97.6919 244.158L94.9707 226.103Z" fill="#263238"/>
<path d="M89.8527 177.841C86.4547 178.314 84.6289 179.068 83.508 182.269C82.8505 184.655 82.9192 187.183 83.7054 189.53L86.6803 198.222C84.8847 201.086 83.4028 204.135 82.2602 207.316C90.9595 212.166 102.549 209.586 105.165 206.04C105.277 205.293 104.572 201.655 104.784 197.806C105.009 193.696 105.665 188.973 105.024 186.435C103.818 181.719 100.526 178.638 96.8248 177.644L89.8527 177.841Z" fill="#F5F5F5"/>
<path d="M87.8223 186.971C87.6743 189.206 87.0046 195.353 87.0046 195.353L89.8244 199.858L86.6733 198.222L83.8534 190.051L87.8223 186.971Z" fill="#E6E6E6"/>
<path d="M101.146 157.835C102.323 158.539 103.776 161.486 103.635 167.704C103.508 172.956 101.809 174.253 100.949 174.627C100.089 175 98.4462 174.775 96.8459 174.507V177.616C96.8459 177.616 99.0595 180.196 98.9185 181.641C98.7775 183.086 95.718 183.425 93.6454 182.015C92.3018 181.049 91.1496 179.842 90.2474 178.455V170.855C90.0784 171.061 89.8703 171.232 89.6351 171.357C89.4 171.483 89.1423 171.561 88.877 171.586C88.6117 171.612 88.344 171.585 88.0892 171.506C87.8344 171.428 87.5976 171.3 87.3923 171.13C85.6229 169.953 85.5524 167.041 86.5816 165.998C87.6109 164.955 89.8315 165.293 90.2474 166.703C92.3504 166.618 94.3985 166.008 96.2044 164.926C97.5269 164.215 98.6634 163.203 99.522 161.97C100.38 160.738 100.937 159.322 101.146 157.835Z" fill="#FFA8A7"/>
<path d="M97.7412 166.372C97.747 166.459 97.7355 166.546 97.7074 166.629C97.6793 166.711 97.6351 166.788 97.5775 166.853C97.5198 166.919 97.4498 166.972 97.3715 167.01C97.2931 167.049 97.208 167.071 97.1209 167.077C96.9659 167.047 96.8253 166.966 96.7216 166.847C96.618 166.728 96.5572 166.578 96.5491 166.421C96.541 166.263 96.586 166.107 96.6768 165.978C96.7677 165.849 96.8993 165.754 97.0504 165.709C97.1397 165.705 97.229 165.72 97.3126 165.751C97.3963 165.783 97.4727 165.831 97.5373 165.893C97.6019 165.955 97.6532 166.029 97.6882 166.111C97.7233 166.194 97.7413 166.282 97.7412 166.372Z" fill="#263238"/>
<path d="M97.9386 170.82L99.4754 171.313C99.4479 171.416 99.4001 171.512 99.3347 171.595C99.2694 171.679 99.1879 171.748 99.0952 171.799C99.0024 171.851 98.9002 171.883 98.7948 171.894C98.6894 171.905 98.5828 171.894 98.4814 171.863C98.2733 171.794 98.1003 171.646 97.9991 171.451C97.8978 171.257 97.8761 171.03 97.9386 170.82Z" fill="#F28F8F"/>
<path d="M103.184 164.341L101.844 163.411C101.901 163.321 101.976 163.244 102.063 163.184C102.151 163.124 102.249 163.083 102.353 163.061C102.457 163.04 102.564 163.041 102.668 163.062C102.772 163.083 102.871 163.125 102.958 163.185C103.136 163.313 103.258 163.504 103.3 163.719C103.342 163.933 103.3 164.156 103.184 164.341Z" fill="#407BFF"/>
<g opacity="0.2">
<path d="M103.184 164.341L101.844 163.411C101.901 163.321 101.976 163.244 102.063 163.184C102.151 163.124 102.249 163.083 102.353 163.061C102.457 163.04 102.564 163.041 102.668 163.062C102.772 163.083 102.871 163.125 102.958 163.185C103.136 163.313 103.258 163.504 103.3 163.719C103.342 163.933 103.3 164.156 103.184 164.341Z" fill="black"/>
</g>
<path d="M102.873 165.892C102.874 166.067 102.811 166.235 102.695 166.365C102.579 166.495 102.419 166.578 102.246 166.597C102.067 166.598 101.895 166.53 101.764 166.409C101.633 166.287 101.554 166.12 101.541 165.942C101.54 165.767 101.604 165.599 101.719 165.469C101.835 165.339 101.995 165.256 102.168 165.237C102.347 165.236 102.519 165.304 102.65 165.425C102.781 165.547 102.861 165.714 102.873 165.892Z" fill="#263238"/>
<path d="M99.7574 165.512L99.8632 169.488L101.957 168.839L99.7574 165.512Z" fill="#F28F8F"/>
<path d="M96.8459 174.493C95.154 174.274 91.6785 173.273 91.1357 171.899C91.3536 172.594 91.7792 173.207 92.3553 173.654C93.3916 174.542 96.8459 175.543 96.8459 175.543V174.493Z" fill="#F28F8F"/>
<path d="M124.678 190.813L106.659 195.564L101.344 217.919L118.474 212.949L124.678 190.813Z" fill="#407BFF"/>
<path opacity="0.1" d="M116.825 205.61C116.987 206.068 117.974 207.337 120.075 207.239L120.335 206.308L116.825 205.61Z" fill="black"/>
<path opacity="0.1" d="M112.792 206.308C112.715 206.907 111.488 208.014 109.423 208.698C107.061 209.487 103.444 209.071 103.444 209.071L103.769 207.958L112.792 206.308Z" fill="black"/>
<path opacity="0.1" d="M119.405 194.056L119.553 193.351C119.63 192.97 118.573 192.956 117.191 193.315L114.534 194.02C113.124 194.38 111.96 194.979 111.876 195.36L111.728 196.065L119.405 194.056Z" fill="black"/>
<path d="M120.653 191.461C120.702 191.222 120.272 191.165 119.694 191.32L118.643 191.61C118.643 191.61 118.954 190.129 116.627 190.644C116.008 190.74 115.424 190.994 114.93 191.38C114.437 191.766 114.05 192.272 113.807 192.85L112.687 193.175C112.066 193.351 111.509 193.682 111.432 193.922L111.298 194.345L120.582 191.906C120.582 191.906 120.596 191.715 120.653 191.461Z" fill="#37474F"/>
<path d="M119.377 192.202C118.524 192.406 118.171 192.519 118.044 193.104C117.917 193.689 117.84 194.267 117.84 194.267L113.73 195.353C113.73 195.353 113.927 194.507 113.991 194.176C114.054 193.844 113.913 193.647 113.286 193.816L113.229 193.555L119.666 191.92L119.377 192.202Z" fill="#37474F"/>
<path d="M119.518 194.119C119.518 194.119 119.581 193.809 119.666 193.414C119.75 193.019 118.686 193.019 117.304 193.379L114.646 194.084C113.236 194.443 112.073 195.043 111.989 195.423L111.841 196.128L119.518 194.119Z" fill="#37474F"/>
<path d="M81.3296 204.87L84.6147 199.392C84.6147 199.392 99.0454 203.622 100.476 203.728C101.235 203.75 101.983 203.541 102.621 203.13C103.259 202.718 103.758 202.123 104.051 201.423C104.593 200.013 105.559 200.189 105.559 200.189C105.559 200.189 105.136 201.972 104.995 202.543C104.854 203.114 108.302 203.58 110.205 202.938C112.108 202.297 114.865 203.227 113.159 205.822C111.453 208.416 108.125 208.719 105.82 208.719C104.856 208.712 103.893 208.646 102.937 208.522C102.19 208.43 101.442 208.352 100.695 208.296C95.9717 207.965 83.4727 205.547 81.3296 204.87Z" fill="#FFA8A7"/>
<path d="M122.845 197.355L122.041 200.175C121.893 200.725 119.793 201.726 118.474 202.085C117.156 202.445 115.697 202.882 116.359 204.736C116.937 206.442 119.116 206.851 120.23 206.78C121.343 206.71 122.859 205.673 123.451 203.96C124.22 201.775 123.804 199.449 124.107 198.173C124.41 196.897 123.508 196.594 122.845 197.355Z" fill="#FFA8A7"/>
<path d="M84.6148 199.392L87.4981 188.423C87.4981 188.423 89.1618 182.48 87.4981 178.307C87.4981 178.307 86.1305 177.82 84.0367 179.547C81.943 181.275 80.7939 185.187 80.0678 188.352C79.3416 191.518 77.8471 201.987 78.0234 203.072C78.1996 204.158 80.1383 204.828 85.9119 205.892L84.6148 199.392Z" fill="#FFA8A7"/>
<path d="M198.361 229.431C188.181 229.431 179.926 234.189 179.926 240.055V265.666C179.926 271.531 188.181 276.29 198.361 276.29C208.541 276.29 216.796 271.531 216.796 265.666V240.055C216.796 234.189 208.541 229.431 198.361 229.431Z" fill="#EBEBEB"/>
<path d="M198.361 229.431C188.181 229.431 179.926 234.189 179.926 240.055V265.666C179.926 271.531 188.181 276.29 198.361 276.29C208.541 276.29 216.796 271.531 216.796 265.666V240.055C216.796 234.189 208.541 229.431 198.361 229.431Z" fill="#407BFF"/>
<path opacity="0.1" d="M179.926 240.055V265.666C179.926 270.417 185.34 274.436 192.813 275.796V229.924C185.34 231.278 179.926 235.303 179.926 240.055Z" fill="black"/>
<path d="M219.601 242.55C219.742 242.339 270.683 160.393 270.683 160.393C270.683 160.393 244.938 177.009 198.375 177.009C190.014 177.02 181.662 176.459 173.377 175.332C142.69 171.102 126.06 160.393 126.06 160.393L177.106 242.536C180.236 247.555 188.569 251.144 198.354 251.144C208.139 251.144 216.464 247.555 219.594 242.536L219.601 242.55Z" fill="#EBEBEB"/>
<path d="M161.371 181.578L153.617 171.384C135.605 166.562 126.031 160.393 126.031 160.393L177.078 242.536C179.595 246.575 185.481 249.684 192.778 250.742L161.371 181.578Z" fill="#E0E0E0"/>
<path d="M262.703 96.4743C247.137 87.486 227.335 82.4384 207.011 81.3316C180.927 79.9217 154.061 84.9622 134.117 96.4813C98.6082 116.989 98.6152 150.228 134.117 170.728C142.688 175.559 151.872 179.209 161.421 181.578C185.805 187.838 213.99 187.591 238.086 180.873C241.479 179.933 244.78 178.857 247.99 177.644C249.33 177.143 250.655 176.615 251.952 176.065C253.799 175.289 255.602 174.469 257.359 173.605C259.192 172.695 260.983 171.751 262.71 170.749C298.184 150.221 298.191 116.989 262.703 96.4743Z" fill="#407BFF"/>
<path opacity="0.1" d="M206.961 81.3316C180.878 79.9217 154.012 84.9622 134.068 96.4813C98.5589 116.989 98.566 150.228 134.068 170.728C142.638 175.559 151.823 179.209 161.371 181.578C157.98 176.847 155.732 165.582 162.267 164.884C153.812 162.752 145.678 159.504 138.079 155.226C127.871 149.333 120.956 142.304 118.044 134.895C115.57 128.55 116.148 122.206 119.778 115.91C123.303 109.812 129.648 104.024 138.058 99.1461C155.02 89.3471 178.058 84.645 200.849 85.0468C200.849 85.0256 200.335 82.1776 206.961 81.3316Z" fill="black"/>
<path d="M258.473 99.132C242.788 90.0802 221.907 85.364 200.828 85.0327C178.037 84.6449 155.005 89.347 138.037 99.132C129.577 104.01 123.268 109.798 119.757 115.896C116.127 122.163 115.527 128.585 118.023 134.881C120.935 142.29 127.85 149.318 138.058 155.212C145.657 159.49 153.79 162.738 162.245 164.87C165.587 165.751 169.013 166.498 172.503 167.119C178.693 168.208 184.947 168.889 191.227 169.156C192.524 169.217 193.821 169.26 195.118 169.283C197.268 169.339 199.439 169.347 201.59 169.283C208.892 169.149 216.174 168.461 223.373 167.225L223.62 167.182C228.242 166.383 232.817 165.331 237.324 164.031C240.501 163.091 243.58 162.045 246.559 160.894C247.807 160.415 249.027 159.9 250.239 159.371C251.684 158.73 253.108 158.053 254.504 157.355C255.9 156.657 257.169 155.945 258.459 155.24C266.919 150.355 273.263 144.553 276.788 138.462C284.557 124.941 277.726 110.242 258.473 99.132Z" fill="#F5F5F5"/>
<path d="M198.361 142.953C177.007 142.953 158.791 150.658 151.579 161.5C155.082 162.806 158.649 163.933 162.267 164.877C165.608 165.758 169.034 166.506 172.524 167.126C178.707 168.212 184.955 168.89 191.227 169.156C192.524 169.217 193.821 169.26 195.118 169.283C197.268 169.339 199.439 169.347 201.59 169.283C208.892 169.149 216.174 168.461 223.373 167.225L223.62 167.182C228.242 166.382 232.817 165.33 237.324 164.031C239.984 163.256 242.569 162.396 245.079 161.451C237.874 150.637 219.7 142.953 198.361 142.953Z" fill="#EBEBEB"/>
<path d="M220.194 152.357C224.994 152.357 228.886 148.465 228.886 143.665C228.886 138.864 224.994 134.972 220.194 134.972C215.393 134.972 211.501 138.864 211.501 143.665C211.501 148.465 215.393 152.357 220.194 152.357Z" fill="#407BFF"/>
<path opacity="0.1" d="M217.769 146.795C213.63 143.791 213.292 137.905 216.528 135.783C215.112 136.437 213.898 137.46 213.013 138.745C212.129 140.029 211.606 141.528 211.5 143.084C211.394 144.641 211.709 146.197 212.412 147.589C213.114 148.982 214.178 150.16 215.493 150.999C216.807 151.839 218.323 152.31 219.882 152.362C221.441 152.414 222.985 152.045 224.353 151.295C225.72 150.545 226.861 149.441 227.655 148.098C228.448 146.756 228.866 145.224 228.865 143.665C228.554 147.852 221.907 149.791 217.769 146.795Z" fill="black"/>
<path d="M250.021 118.836C258.072 118.836 264.599 112.309 264.599 104.257C264.599 96.2054 258.072 89.6783 250.021 89.6783C241.969 89.6783 235.442 96.2054 235.442 104.257C235.442 112.309 241.969 118.836 250.021 118.836Z" fill="#455A64"/>
<path d="M245.953 109.502C239.009 104.469 238.438 94.5849 243.873 91.0319C241.502 92.1341 239.47 93.8536 237.991 96.0105C236.512 98.1673 235.641 100.682 235.467 103.292C235.294 105.901 235.825 108.509 237.005 110.843C238.186 113.176 239.972 115.15 242.177 116.556C244.382 117.962 246.924 118.75 249.538 118.837C252.151 118.923 254.74 118.306 257.034 117.048C259.327 115.791 261.239 113.94 262.572 111.69C263.904 109.439 264.607 106.872 264.607 104.257C264.05 111.279 252.904 114.528 245.953 109.502Z" fill="#37474F"/>
<path d="M160.747 76.3312C165.213 71.8657 165.213 64.6258 160.747 60.1603C156.282 55.6948 149.042 55.6948 144.576 60.1603C140.111 64.6258 140.111 71.8657 144.576 76.3312C149.042 80.7966 156.282 80.7966 160.747 76.3312Z" fill="#455A64"/>
<path d="M149.471 72.3574C144.022 68.4166 143.578 60.662 147.836 57.8774C145.977 58.7418 144.385 60.09 143.226 61.7809C142.067 63.4718 141.384 65.4431 141.248 67.4885C141.113 69.5339 141.529 71.5782 142.455 73.4073C143.38 75.2365 144.78 76.7832 146.508 77.8856C148.237 78.9881 150.229 79.6056 152.278 79.6737C154.327 79.7418 156.356 79.2578 158.154 78.2725C159.952 77.2872 161.451 75.8368 162.496 74.0731C163.541 72.3094 164.092 70.2973 164.092 68.2474C163.655 73.7532 154.914 76.3052 149.471 72.3574Z" fill="#37474F"/>
<path d="M137.565 122.903L143.599 109.784C143.913 109.187 144.364 108.673 144.914 108.282C145.463 107.891 146.097 107.635 146.764 107.535L160.06 105.709C160.734 105.685 161.403 105.819 162.015 106.101C162.628 106.382 163.165 106.804 163.585 107.331L171.932 119.118C172.291 119.689 172.511 120.338 172.574 121.01C172.636 121.682 172.539 122.36 172.291 122.988L166.257 136.107C165.941 136.704 165.489 137.219 164.938 137.609C164.387 138 163.752 138.256 163.084 138.356L149.796 140.161C149.122 140.186 148.452 140.053 147.84 139.771C147.227 139.489 146.69 139.068 146.271 138.54L137.924 126.774C137.563 126.203 137.342 125.554 137.28 124.882C137.217 124.209 137.315 123.531 137.565 122.903Z" fill="#407BFF"/>
<path opacity="0.1" d="M146.271 138.561C146.69 139.089 147.227 139.511 147.84 139.792C148.452 140.074 149.122 140.208 149.796 140.182L163.084 138.377C163.69 138.285 164.269 138.066 164.785 137.734C165.3 137.403 165.739 136.966 166.073 136.453C165.531 137.257 164.664 137.242 164.022 136.34L155.675 124.546C155.301 123.983 155.08 123.331 155.034 122.657L137.283 124.877C137.33 125.554 137.551 126.207 137.924 126.774L146.271 138.561Z" fill="black"/>
<path opacity="0.4" d="M163.395 107.119C162.69 106.414 161.844 106.562 161.378 107.577L155.337 120.704C155.015 121.495 154.944 122.366 155.132 123.2C155.096 123.03 155.07 122.858 155.055 122.685L137.304 124.906C137.224 124.232 137.321 123.549 137.586 122.925L143.62 109.805C143.935 109.207 144.387 108.692 144.938 108.302C145.489 107.911 146.124 107.656 146.793 107.556L160.081 105.709C160.702 105.692 161.32 105.809 161.892 106.053C162.463 106.296 162.976 106.66 163.395 107.119Z" fill="white"/>
<path d="M220.603 48.1347L232.756 46.5909C233.326 46.5494 233.898 46.6433 234.425 46.8651C234.952 47.0869 235.419 47.4301 235.788 47.8668L243.056 56.6225C243.376 57.0961 243.58 57.6381 243.652 58.205C243.724 58.7719 243.663 59.3479 243.472 59.8865L238.734 71.166C238.485 71.6811 238.117 72.1302 237.661 72.4768C237.206 72.8234 236.675 73.0578 236.112 73.161L223.93 74.726C223.36 74.7658 222.789 74.6711 222.262 74.4494C221.736 74.2278 221.269 73.8854 220.899 73.45L213.652 64.6944C213.332 64.2208 213.127 63.6788 213.055 63.1119C212.983 62.545 213.045 61.969 213.236 61.4304L217.98 50.1509C218.227 49.6318 218.594 49.1786 219.049 48.8282C219.505 48.4778 220.037 48.2401 220.603 48.1347Z" fill="#407BFF"/>
<path opacity="0.1" d="M213.236 61.4304C213.045 61.9691 212.983 62.545 213.055 63.1119C213.127 63.6788 213.332 64.2209 213.652 64.6944L220.92 73.4501C221.257 73.8449 221.673 74.1639 222.142 74.3862C222.611 74.6086 223.122 74.7292 223.641 74.7402C222.816 74.7402 222.443 74.0775 222.802 73.2104L227.546 61.931C227.778 61.3973 228.148 60.935 228.618 60.5915L219.052 48.8186C218.587 49.1555 218.218 49.6073 217.98 50.1298L213.236 61.4304Z" fill="black"/>
<path opacity="0.4" d="M243.577 59.6327C243.796 58.8079 243.281 58.2651 242.344 58.3849L230.183 59.9288C229.47 60.0553 228.811 60.3944 228.294 60.9017C228.399 60.803 228.512 60.7043 228.632 60.6126L219.073 48.8327C219.518 48.4637 220.053 48.2203 220.624 48.1277L232.77 46.5838C233.341 46.5415 233.913 46.6343 234.441 46.8548C234.969 47.0753 235.438 47.4172 235.809 47.8528L243.077 56.6084C243.373 57.0469 243.571 57.5441 243.657 58.066C243.743 58.5879 243.716 59.1223 243.577 59.6327Z" fill="white"/>
<path d="M191.861 97.6445L198.424 97.7573C198.734 97.7738 199.035 97.8644 199.302 98.0214C199.57 98.1784 199.796 98.3973 199.961 98.6596L203.14 103.855C203.279 104.129 203.352 104.433 203.352 104.74C203.352 105.047 203.279 105.35 203.14 105.625L199.764 111.264C199.591 111.517 199.361 111.726 199.093 111.874C198.825 112.023 198.526 112.106 198.22 112.117L191.657 112.005C191.351 111.983 191.055 111.889 190.793 111.731C190.531 111.573 190.31 111.355 190.148 111.095L186.969 105.9C186.829 105.627 186.757 105.325 186.757 105.018C186.757 104.712 186.829 104.41 186.969 104.137L190.345 98.4975C190.515 98.2475 190.74 98.0402 191.003 97.8922C191.266 97.7441 191.56 97.6593 191.861 97.6445Z" fill="#37474F"/>
<path opacity="0.4" d="M203.162 105.505C203.338 105.082 203.112 104.751 202.598 104.744L196.041 104.631C195.652 104.641 195.275 104.771 194.963 105.004C195.027 104.955 195.095 104.913 195.167 104.877L191.001 97.8983C191.267 97.7446 191.568 97.6597 191.875 97.6516L198.431 97.7643C198.739 97.7834 199.037 97.8744 199.303 98.0299C199.568 98.1854 199.794 98.4011 199.961 98.6597L203.14 103.855C203.263 104.112 203.328 104.393 203.332 104.678C203.335 104.962 203.277 105.245 203.162 105.505Z" fill="#455A64"/>
<path d="M186.94 104.13C186.801 104.403 186.729 104.705 186.729 105.011C186.729 105.318 186.801 105.62 186.94 105.893L190.12 111.088C190.268 111.324 190.464 111.525 190.697 111.678C190.929 111.832 191.191 111.933 191.466 111.976C191.029 111.899 190.874 111.539 191.135 111.102L194.512 105.463C194.689 105.2 194.932 104.989 195.217 104.849L191.05 97.8701C190.766 98.0096 190.523 98.221 190.345 98.4834L186.94 104.13Z" fill="#263238"/>
<path d="M200.717 302.813C201.569 297.567 198.007 292.624 192.761 291.773C187.515 290.921 182.572 294.484 181.72 299.729C180.869 304.975 184.431 309.918 189.677 310.77C194.923 311.621 199.866 308.059 200.717 302.813Z" fill="#407BFF"/>
<path opacity="0.1" d="M188.534 304.721C183.951 301.401 183.599 294.852 187.159 292.532C185.594 293.259 184.254 294.393 183.277 295.816C182.301 297.239 181.726 298.898 181.611 300.619C181.496 302.341 181.846 304.062 182.625 305.601C183.403 307.141 184.582 308.443 186.036 309.371C187.49 310.3 189.168 310.82 190.892 310.877C192.617 310.934 194.325 310.527 195.838 309.698C197.351 308.869 198.613 307.648 199.492 306.163C200.371 304.679 200.835 302.985 200.835 301.26C200.469 305.92 193.116 308.034 188.534 304.721Z" fill="black"/>
<path d="M207.448 282.056L212.432 282.148C212.666 282.167 212.891 282.24 213.091 282.363C213.291 282.485 213.459 282.653 213.581 282.853L215.992 286.808C216.098 287.015 216.153 287.245 216.153 287.478C216.153 287.71 216.098 287.94 215.992 288.147L213.426 292.419C213.296 292.612 213.122 292.771 212.918 292.883C212.715 292.996 212.488 293.059 212.256 293.068L207.272 292.983C207.038 292.966 206.812 292.893 206.612 292.77C206.412 292.647 206.244 292.479 206.123 292.278L203.705 288.331C203.6 288.123 203.546 287.893 203.546 287.661C203.546 287.428 203.6 287.199 203.705 286.991L206.271 282.712C206.403 282.519 206.578 282.36 206.782 282.246C206.987 282.132 207.214 282.067 207.448 282.056Z" fill="#37474F"/>
<path opacity="0.4" d="M216.027 288.027C216.161 287.71 215.992 287.456 215.604 287.449L210.62 287.365C210.325 287.371 210.039 287.469 209.802 287.647L209.95 287.548L206.785 282.247C206.991 282.133 207.22 282.07 207.455 282.063L212.439 282.148C212.673 282.167 212.898 282.24 213.098 282.363C213.298 282.485 213.466 282.653 213.588 282.853L215.999 286.801C216.09 286.992 216.14 287.2 216.145 287.411C216.15 287.623 216.11 287.833 216.027 288.027Z" fill="#455A64"/>
<path d="M203.705 286.984C203.6 287.192 203.546 287.421 203.546 287.654C203.546 287.886 203.6 288.116 203.705 288.324L206.123 292.271C206.231 292.456 206.379 292.615 206.556 292.737C206.732 292.859 206.933 292.94 207.145 292.976C206.813 292.913 206.694 292.638 206.891 292.314L209.457 288.042C209.583 287.845 209.758 287.685 209.965 287.576L206.799 282.275C206.595 282.384 206.421 282.541 206.292 282.733L203.705 286.984Z" fill="#263238"/>
</svg>
