<svg width="44" height="45" viewBox="0 0 44 45" fill="none" xmlns="http://www.w3.org/2000/svg">
<g clip-path="url(#clip0_290_7508)">
<path d="M18.0231 21.3097C16.4807 21.3097 15.2348 22.5812 15.2774 24.1333C15.3182 25.6295 16.5836 26.8029 18.0803 26.8029H18.9487C17.4519 26.8029 16.1872 27.9763 16.1458 29.4724C16.1031 31.0246 17.349 32.2966 18.8914 32.2966L20.0642 32.2997C18.5218 32.2997 17.2759 33.5711 17.3186 35.1233C17.3594 36.6194 18.6247 37.7929 20.1215 37.7929H20.633C19.0905 37.7929 17.8447 39.0643 17.8873 40.6165C17.9281 42.1126 19.1935 43.286 20.6902 43.286H28.2476C35.8428 43.286 42.0003 37.1285 42.0003 29.5333C42.0003 21.9381 35.8428 15.7812 28.2476 15.7812H25.9903C24.4637 15.7812 23.2258 17.0186 23.2258 18.5458V21.3103L18.0231 21.3097Z" fill="#165DFF"/>
<g filter="url(#filter0_b_290_7508)">
<path d="M33.1413 9.69869H26.384V6.10844C26.384 4.12576 24.777 2.51819 22.7937 2.51819H19.8617C9.99708 2.51819 2 10.5153 2 20.3799C2 30.2446 9.99708 38.2417 19.8617 38.2417H29.6771C31.6208 38.2417 33.2643 36.7175 33.3173 34.7744C33.3727 32.7583 31.7548 31.1068 29.7514 31.1068H30.4157C32.3594 31.1068 34.0029 29.5827 34.0559 27.6396C34.1113 25.6234 32.4934 23.972 30.49 23.972L32.0135 23.9677C34.0169 23.9677 35.6349 22.3163 35.5794 20.3002C35.5259 18.3571 33.883 16.8329 31.9393 16.8329H33.067C35.0107 16.8329 36.6542 15.3088 36.7072 13.3657C36.7626 11.3501 35.1447 9.69869 33.1413 9.69869Z" fill="#BEDAFF" fill-opacity="0.5"/>
</g>
<path fill-rule="evenodd" clip-rule="evenodd" d="M16.7726 28.2065V22.5032H11.0693L18.6676 13.0094V18.7126H24.3708L16.7726 28.2065Z" fill="#165DFF"/>
</g>
<defs>
<filter id="filter0_b_290_7508" x="-2" y="-1.48181" width="42.709" height="43.7235" filterUnits="userSpaceOnUse" color-interpolation-filters="sRGB">
<feFlood flood-opacity="0" result="BackgroundImageFix"/>
<feGaussianBlur in="BackgroundImage" stdDeviation="2"/>
<feComposite in2="SourceAlpha" operator="in" result="effect1_backgroundBlur_290_7508"/>
<feBlend mode="normal" in="SourceGraphic" in2="effect1_backgroundBlur_290_7508" result="shape"/>
</filter>
<clipPath id="clip0_290_7508">
<rect width="40" height="40.7679" fill="white" transform="translate(2 2.51819)"/>
</clipPath>
</defs>
</svg>
