<svg width="44" height="45" viewBox="0 0 44 45" fill="none" xmlns="http://www.w3.org/2000/svg">
<g clip-path="url(#clip0_290_7555)">
<path d="M36.7543 42.5432H22.2384C19.3413 42.5432 16.9932 40.1951 16.9932 37.298V23.5438C16.9932 20.6468 19.3413 18.2986 22.2384 18.2986H36.7543C39.6514 18.2986 41.9995 20.6468 41.9995 23.5438V37.298C42.0001 40.1951 39.6514 42.5432 36.7543 42.5432Z" fill="#165DFF"/>
<g >
<path d="M19.0642 37.3894C28.4885 37.3894 36.1284 29.7495 36.1284 20.3252C36.1284 10.9009 28.4885 3.26099 19.0642 3.26099C9.6399 3.26099 2 10.9009 2 20.3252C2 29.7495 9.6399 37.3894 19.0642 37.3894Z" fill="#BEDAFF" fill-opacity="0.5"/>
</g>
<path d="M29.7887 19.5636C29.6435 19.2914 26.1537 12.9021 19 12.9021C11.8463 12.9021 8.35649 19.2921 8.2113 19.5636C7.92957 20.0912 7.92957 20.713 8.2113 21.2406C8.35649 21.5128 11.8463 27.9021 19 27.9021C26.1537 27.9021 29.6435 21.5121 29.7887 21.2406C30.0704 20.713 30.0704 20.0912 29.7887 19.5636ZM19 24.1521C15.6012 24.1521 13.3344 21.7295 12.3476 20.4021C13.3344 19.0747 15.6012 16.6521 19 16.6521C22.401 16.6521 24.6685 19.0781 25.6531 20.4021C24.6663 21.7289 22.3988 24.1521 19 24.1521Z" fill="#165DFF"/>
<path d="M19 21.9021C20.1046 21.9021 21 21.0067 21 19.9021C21 18.7975 20.1046 17.9021 19 17.9021C17.8954 17.9021 17 18.7975 17 19.9021C17 21.0067 17.8954 21.9021 19 21.9021Z" fill="#165DFF"/>
</g>
<defs>
<filter id="filter0_b_290_7555" x="0" y="1.26099" width="38.1279" height="38.1284" filterUnits="userSpaceOnUse" color-interpolation-filters="sRGB">
<feFlood flood-opacity="0" result="BackgroundImageFix"/>
<feGaussianBlur in="BackgroundImage" stdDeviation="1"/>
<feComposite in2="SourceAlpha" operator="in" result="effect1_backgroundBlur_290_7555"/>
<feBlend mode="normal" in="SourceGraphic" in2="effect1_backgroundBlur_290_7555" result="shape"/>
</filter>
<clipPath id="clip0_290_7555">
<rect width="40" height="39.2822" fill="white" transform="translate(2 3.26099)"/>
</clipPath>
</defs>
</svg>
