<svg width="45" height="44" viewBox="0 0 45 44" fill="none" xmlns="http://www.w3.org/2000/svg">
<g clip-path="url(#clip0_197_5924)">
<path d="M24.1887 23.8714C24.037 23.3994 23.5931 23.0791 23.0986 23.0791C22.6041 23.0791 22.1602 23.3994 22.0085 23.8714L21.75 24.6636H20.9128C20.4183 24.6636 19.9744 24.9839 19.8227 25.4559C19.671 25.9279 19.8396 26.4449 20.2385 26.737L20.9128 27.2259L20.6543 28.0182C20.5026 28.4902 20.6712 29.0071 21.0701 29.2993C21.4747 29.5915 22.0141 29.5915 22.4187 29.2993L23.093 28.8104L23.7672 29.2993C24.1718 29.5915 24.7112 29.5915 25.1158 29.2993C25.5204 29.0071 25.6833 28.4902 25.5316 28.0182L25.2731 27.2259L25.9474 26.737C26.352 26.4449 26.5149 25.9279 26.3632 25.4559C26.2115 24.9839 25.7676 24.6636 25.2731 24.6636H24.4415L24.1887 23.8714Z" fill="#165DFF"/>
<path d="M18.7549 10.4648H35.7747" stroke="#1D2129" stroke-width="2.5" stroke-miterlimit="10" stroke-linecap="round" stroke-linejoin="round"/>
<path d="M9.2251 10.4644V35.7216C9.2251 37.1544 10.3882 38.3176 11.8211 38.3176H33.1731C34.606 38.3176 35.7691 37.1544 35.7691 35.7216V15.4203V15.2461H14.0068C11.3659 15.2461 9.2251 13.1053 9.2251 10.4644ZM9.2251 10.4644C9.2251 7.82344 11.3659 5.68262 14.0068 5.68262H35.7747" stroke="#1D2129" stroke-width="2.5" stroke-miterlimit="10" stroke-linecap="round" stroke-linejoin="round"/>
<path d="M17.558 21.669L23.0983 20.0508L28.633 21.669C29.0151 21.7814 29.2792 22.1298 29.2792 22.5287V25.5574C29.2792 29.4457 26.79 32.9014 23.0983 34.1319C19.4067 32.9014 16.9175 29.4457 16.9175 25.5574V22.5287C16.9175 22.1354 17.176 21.7814 17.558 21.669Z" stroke="#1D2129" stroke-width="2.5" stroke-miterlimit="2" stroke-linejoin="round"/>
</g>
<defs>
<clipPath id="clip0_197_5924">
<rect width="30" height="36.4286" fill="white" transform="translate(7.5 3.78613)"/>
</clipPath>
</defs>
</svg>
