<svg width="80" height="80" viewBox="0 0 80 80" fill="none" xmlns="http://www.w3.org/2000/svg">
<rect x="0.666667" y="0.666667" width="78.6667" height="78.6667" rx="10" fill="#E8F3FF"/>
<g clip-path="url(#clip0_113_6359)">
<path d="M35.9046 39.1408L14.2271 51.5217C13.0264 52.2046 12.6409 53.8348 13.3679 55.0354C14.0949 56.2361 15.637 56.5335 16.7055 55.6302C16.7165 55.6302 35.9487 39.0967 35.9046 39.1408Z" fill="black"/>
<path d="M35.9046 39.1408L14.2271 51.5217C13.0264 52.2046 12.6409 53.8348 13.3679 55.0354C14.0949 56.2361 15.637 56.5335 16.7055 55.6302C16.7165 55.6302 35.9487 39.0967 35.9046 39.1408Z" fill="url(#paint0_linear_113_6359)"/>
<g filter="url(#filter0_d_113_6359)">
<path d="M19.6915 17.0887H64.7936C66.0119 17.0887 66.9988 18.0757 66.9988 19.294V20.2809C66.9988 21.4992 66.0119 22.4861 64.7936 22.4861H19.6915C18.4733 22.4861 17.4863 21.4992 17.4863 20.2809V19.294C17.4874 18.0757 18.4744 17.0887 19.6915 17.0887Z" fill="white"/>
</g>
<path d="M47.8077 56.6051L48.7175 61.7458C48.8365 62.4199 49.4225 62.9112 50.1076 62.9112H53.1532C54.0322 62.9112 54.6975 62.117 54.5433 61.2512L53.6258 56.1105C53.5057 55.4375 52.9197 54.9462 52.2357 54.9462H49.1977C48.3198 54.9473 47.6545 55.7404 47.8077 56.6051Z" fill="black"/>
<path d="M47.8077 56.6051L48.7175 61.7458C48.8365 62.4199 49.4225 62.9112 50.1076 62.9112H53.1532C54.0322 62.9112 54.6975 62.117 54.5433 61.2512L53.6258 56.1105C53.5057 55.4375 52.9197 54.9462 52.2357 54.9462H49.1977C48.3198 54.9473 47.6545 55.7404 47.8077 56.6051Z" fill="url(#paint1_linear_113_6359)"/>
<path d="M31.3244 62.9112H34.3723C35.0596 62.9112 35.6478 62.4155 35.7635 61.7381L36.6447 56.5974C36.7923 55.7349 36.1281 54.9473 35.2535 54.9473H32.2123C31.5249 54.9473 30.9378 55.4419 30.8211 56.1182L29.9333 61.2589C29.7834 62.1214 30.4488 62.9112 31.3244 62.9112Z" fill="black"/>
<path d="M31.3244 62.9112H34.3723C35.0596 62.9112 35.6478 62.4155 35.7635 61.7381L36.6447 56.5974C36.7923 55.7349 36.1281 54.9473 35.2535 54.9473H32.2123C31.5249 54.9473 30.9378 55.4419 30.8211 56.1182L29.9333 61.2589C29.7834 62.1214 30.4488 62.9112 31.3244 62.9112Z" fill="url(#paint2_linear_113_6359)"/>
<path d="M20.8691 44.7144L34.5828 36.8938C36.18 35.9905 37.5349 36.4862 38.4711 38.2927C38.8567 39.3171 38.5593 40.5177 37.7001 41.2447L24.6803 52.2928H60.0165C62.0322 52.2928 63.6184 50.5414 63.6184 48.3934V26.6223C63.6184 25.8039 62.9553 25.1407 62.1369 25.1407H22.3507C21.5322 25.1407 20.8691 25.8039 20.8691 26.6223V44.7144Z" fill="black"/>
<path d="M20.8691 44.7144L34.5828 36.8938C36.18 35.9905 37.5349 36.4862 38.4711 38.2927C38.8567 39.3171 38.5593 40.5177 37.7001 41.2447L24.6803 52.2928H60.0165C62.0322 52.2928 63.6184 50.5414 63.6184 48.3934V26.6223C63.6184 25.8039 62.9553 25.1407 62.1369 25.1407H22.3507C21.5322 25.1407 20.8691 25.8039 20.8691 26.6223V44.7144Z" fill="url(#paint3_linear_113_6359)"/>
<path d="M56 29.3708C56 28.623 56.6694 27.9999 57.5 27.9999C58.3182 27.9999 59 28.6117 59 29.3708V45.629C59 46.3767 58.3306 46.9999 57.5 46.9999C56.6818 46.9999 56 46.3881 56 45.629V29.3708Z" fill="white"/>
<path d="M56 29.3708C56 28.623 56.6694 27.9999 57.5 27.9999C58.3182 27.9999 59 28.6117 59 29.3708V45.629C59 46.3767 58.3306 46.9999 57.5 46.9999C56.6818 46.9999 56 46.3881 56 45.629V29.3708Z" fill="url(#paint4_linear_113_6359)"/>
<path d="M50 32.3937C50 31.6334 50.6694 30.9999 51.5 30.9999C52.3182 30.9999 53 31.6219 53 32.3937V45.6061C53 46.3663 52.3306 46.9999 51.5 46.9999C50.6818 46.9999 50 46.3779 50 45.6061V32.3937Z" fill="white"/>
<path d="M50 32.3937C50 31.6334 50.6694 30.9999 51.5 30.9999C52.3182 30.9999 53 31.6219 53 32.3937V45.6061C53 46.3663 52.3306 46.9999 51.5 46.9999C50.6818 46.9999 50 46.3779 50 45.6061V32.3937Z" fill="url(#paint5_linear_113_6359)"/>
<path d="M43 35.3559C43 34.6163 43.6694 33.9999 44.5 33.9999C45.3182 33.9999 46 34.605 46 35.3559V45.6438C46 46.3835 45.3306 46.9999 44.5 46.9999C43.6818 46.9999 43 46.3947 43 45.6438V35.3559Z" fill="white"/>
<path d="M43 35.3559C43 34.6163 43.6694 33.9999 44.5 33.9999C45.3182 33.9999 46 34.605 46 35.3559V45.6438C46 46.3835 45.3306 46.9999 44.5 46.9999C43.6818 46.9999 43 46.3947 43 45.6438V35.3559Z" fill="url(#paint6_linear_113_6359)"/>
</g>
<rect x="0.666667" y="0.666667" width="78.6667" height="78.6667" rx="10" stroke="url(#paint7_linear_113_6359)" stroke-width="1.33333"/>
<defs>
<filter id="filter0_d_113_6359" x="8.48633" y="8.08875" width="67.5127" height="23.3973" filterUnits="userSpaceOnUse" color-interpolation-filters="sRGB">
<feFlood flood-opacity="0" result="BackgroundImageFix"/>
<feColorMatrix in="SourceAlpha" type="matrix" values="0 0 0 0 0 0 0 0 0 0 0 0 0 0 0 0 0 0 127 0" result="hardAlpha"/>
<feOffset/>
<feGaussianBlur stdDeviation="4.5"/>
<feComposite in2="hardAlpha" operator="out"/>
<feColorMatrix type="matrix" values="0 0 0 0 0.0901961 0 0 0 0 0.368627 0 0 0 0 1 0 0 0 0.1 0"/>
<feBlend mode="normal" in2="BackgroundImageFix" result="effect1_dropShadow_113_6359"/>
<feBlend mode="normal" in="SourceGraphic" in2="effect1_dropShadow_113_6359" result="shape"/>
</filter>
<linearGradient id="paint0_linear_113_6359" x1="33.5188" y1="52.9135" x2="23.1791" y2="35.9186" gradientUnits="userSpaceOnUse">
<stop stop-color="#165DFF"/>
<stop offset="1" stop-color="#6AA1FF"/>
</linearGradient>
<linearGradient id="paint1_linear_113_6359" x1="53.8594" y1="61.393" x2="48.4137" y2="55.7325" gradientUnits="userSpaceOnUse">
<stop stop-color="#165DFF"/>
<stop offset="1" stop-color="#6AA1FF"/>
</linearGradient>
<linearGradient id="paint2_linear_113_6359" x1="35.9618" y1="61.3932" x2="30.5162" y2="55.7543" gradientUnits="userSpaceOnUse">
<stop stop-color="#165DFF"/>
<stop offset="1" stop-color="#6AA1FF"/>
</linearGradient>
<linearGradient id="paint3_linear_113_6359" x1="59.1654" y1="47.1175" x2="43.9546" y2="17.8734" gradientUnits="userSpaceOnUse">
<stop stop-color="#165DFF"/>
<stop offset="1" stop-color="#6AA1FF"/>
</linearGradient>
<linearGradient id="paint4_linear_113_6359" x1="57.5" y1="47.0003" x2="57.5" y2="28.0031" gradientUnits="userSpaceOnUse">
<stop stop-color="#BEDAFF"/>
<stop offset="0.9973" stop-color="white"/>
</linearGradient>
<linearGradient id="paint5_linear_113_6359" x1="51.5" y1="47.0002" x2="51.5" y2="31.0026" gradientUnits="userSpaceOnUse">
<stop stop-color="#BEDAFF"/>
<stop offset="0.9973" stop-color="white"/>
</linearGradient>
<linearGradient id="paint6_linear_113_6359" x1="44.5" y1="47.0002" x2="44.5" y2="34.0021" gradientUnits="userSpaceOnUse">
<stop stop-color="#BEDAFF"/>
<stop offset="0.9973" stop-color="white"/>
</linearGradient>
<linearGradient id="paint7_linear_113_6359" x1="40" y1="0" x2="40" y2="80" gradientUnits="userSpaceOnUse">
<stop stop-color="#BEDAFF"/>
<stop offset="1" stop-color="white"/>
</linearGradient>
<clipPath id="clip0_113_6359">
<rect width="54" height="45.8225" fill="white" transform="translate(13 17.0887)"/>
</clipPath>
</defs>
</svg>
