<svg width="80" height="80" viewBox="0 0 80 80" fill="none" xmlns="http://www.w3.org/2000/svg">
<rect x="0.666667" y="0.666667" width="78.6667" height="78.6667" rx="10" fill="#E8F3FF"/>
<g clip-path="url(#clip0_113_6389)">
<path d="M19.2224 46.1495H24.111C24.7859 46.1495 25.3333 46.6964 25.3333 47.3714V59.5938C25.3333 60.2687 24.7859 60.8161 24.111 60.8161H19.2224C18.5474 60.8161 18 60.2687 18 59.5938V47.3714C18 46.6964 18.5474 46.1495 19.2224 46.1495Z" fill="black"/>
<path d="M19.2224 46.1495H24.111C24.7859 46.1495 25.3333 46.6964 25.3333 47.3714V59.5938C25.3333 60.2687 24.7859 60.8161 24.111 60.8161H19.2224C18.5474 60.8161 18 60.2687 18 59.5938V47.3714C18 46.6964 18.5474 46.1495 19.2224 46.1495Z" fill="url(#paint0_linear_113_6389)"/>
<path d="M31.4441 36.3714H36.3331C37.0081 36.3714 37.5555 36.9188 37.5555 37.5938V59.5938C37.5555 60.2687 37.0081 60.8161 36.3331 60.8161H31.4441C30.7691 60.8161 30.2222 60.2687 30.2222 59.5938V37.5938C30.2222 36.9188 30.7691 36.3714 31.4441 36.3714Z" fill="black"/>
<path d="M31.4441 36.3714H36.3331C37.0081 36.3714 37.5555 36.9188 37.5555 37.5938V59.5938C37.5555 60.2687 37.0081 60.8161 36.3331 60.8161H31.4441C30.7691 60.8161 30.2222 60.2687 30.2222 59.5938V37.5938C30.2222 36.9188 30.7691 36.3714 31.4441 36.3714Z" fill="url(#paint1_linear_113_6389)"/>
<path d="M43.6667 41.2604H48.5557C49.2307 41.2604 49.7777 41.8078 49.7777 42.4828V59.5938C49.7777 60.2687 49.2307 60.8161 48.5557 60.8161H43.6667C42.9917 60.8161 42.4443 60.2687 42.4443 59.5938V42.4828C42.4443 41.8078 42.9917 41.2604 43.6667 41.2604Z" fill="black"/>
<path d="M43.6667 41.2604H48.5557C49.2307 41.2604 49.7777 41.8078 49.7777 42.4828V59.5938C49.7777 60.2687 49.2307 60.8161 48.5557 60.8161H43.6667C42.9917 60.8161 42.4443 60.2687 42.4443 59.5938V42.4828C42.4443 41.8078 42.9917 41.2604 43.6667 41.2604Z" fill="url(#paint2_linear_113_6389)"/>
<path d="M55.8889 33.9271H60.7775C61.4524 33.9271 61.9998 34.4745 61.9998 35.1494V59.5937C61.9998 60.2687 61.4524 60.8161 60.7775 60.8161H55.8889C55.2139 60.8161 54.6665 60.2687 54.6665 59.5937V35.1494C54.6665 34.4745 55.2139 33.9271 55.8889 33.9271Z" fill="black"/>
<path d="M55.8889 33.9271H60.7775C61.4524 33.9271 61.9998 34.4745 61.9998 35.1494V59.5937C61.9998 60.2687 61.4524 60.8161 60.7775 60.8161H55.8889C55.2139 60.8161 54.6665 60.2687 54.6665 59.5937V35.1494C54.6665 34.4745 55.2139 33.9271 55.8889 33.9271Z" fill="url(#paint3_linear_113_6389)"/>
<g >
<path d="M58.3333 19.2604C56.3093 19.2627 54.6689 20.9031 54.6667 22.9271C54.6716 23.3264 54.7423 23.722 54.8761 24.098L48.7576 27.7351C47.9546 26.8834 46.7904 26.4707 45.6302 26.626C44.4696 26.7813 43.4554 27.4858 42.9044 28.5189L37.5078 25.8458C37.5342 25.6887 37.5499 25.5303 37.5557 25.3714C37.5584 23.8872 36.6663 22.548 35.2958 21.9782C33.9253 21.4089 32.3466 21.7217 31.297 22.7709C30.247 23.82 29.9332 25.3983 30.5021 26.7692L23.5018 31.9935C22.9468 31.6627 22.313 31.4864 21.6667 31.4828C19.6418 31.4828 18 33.1241 18 35.1495C18 37.1744 19.6418 38.8161 21.6667 38.8161C23.6916 38.8161 25.3333 37.1744 25.3333 35.1495C25.3302 34.7082 25.2469 34.2718 25.0876 33.8604L32.1578 28.5838C33.5408 29.355 35.2658 29.1289 36.4032 28.027L42.5401 31.0665C42.9492 32.8887 44.6639 34.1115 46.5201 33.9047C48.3762 33.6979 49.7799 32.1282 49.7776 30.2604C49.7776 30.1673 49.757 30.0796 49.7503 29.9883L56.4051 26.032C56.9821 26.3968 57.6503 26.5915 58.3333 26.5938C60.3582 26.5938 62 24.952 62 22.9271C62 20.9022 60.3582 19.2604 58.3333 19.2604Z" fill="white"/>
</g>
</g>
<rect x="0.666667" y="0.666667" width="78.6667" height="78.6667" rx="10" stroke="url(#paint4_linear_113_6389)" stroke-width="1.33333"/>
<defs>
<filter id="filter0_d_113_6389" x="9" y="10.2604" width="62" height="37.5557" filterUnits="userSpaceOnUse" color-interpolation-filters="sRGB">
<feFlood flood-opacity="0" result="BackgroundImageFix"/>
<feColorMatrix in="SourceAlpha" type="matrix" values="0 0 0 0 0 0 0 0 0 0 0 0 0 0 0 0 0 0 127 0" result="hardAlpha"/>
<feOffset/>
<feGaussianBlur stdDeviation="4.5"/>
<feComposite in2="hardAlpha" operator="out"/>
<feColorMatrix type="matrix" values="0 0 0 0 0.0901961 0 0 0 0 0.368627 0 0 0 0 1 0 0 0 0.1 0"/>
<feBlend mode="normal" in2="BackgroundImageFix" result="effect1_dropShadow_113_6389"/>
<feBlend mode="normal" in="SourceGraphic" in2="effect1_dropShadow_113_6389" result="shape"/>
</filter>
<linearGradient id="paint0_linear_113_6389" x1="24.5694" y1="58.0206" x2="15.6429" y2="52.5704" gradientUnits="userSpaceOnUse">
<stop stop-color="#165DFF"/>
<stop offset="1" stop-color="#6AA1FF"/>
</linearGradient>
<linearGradient id="paint1_linear_113_6389" x1="36.7916" y1="56.1569" x2="25.9873" y2="52.1989" gradientUnits="userSpaceOnUse">
<stop stop-color="#165DFF"/>
<stop offset="1" stop-color="#6AA1FF"/>
</linearGradient>
<linearGradient id="paint2_linear_113_6389" x1="49.0138" y1="57.0887" x2="38.8837" y2="52.45" gradientUnits="userSpaceOnUse">
<stop stop-color="#165DFF"/>
<stop offset="1" stop-color="#6AA1FF"/>
</linearGradient>
<linearGradient id="paint3_linear_113_6389" x1="61.2359" y1="55.6909" x2="50.2052" y2="52.0173" gradientUnits="userSpaceOnUse">
<stop stop-color="#165DFF"/>
<stop offset="1" stop-color="#6AA1FF"/>
</linearGradient>
<linearGradient id="paint4_linear_113_6389" x1="40" y1="0" x2="40" y2="80" gradientUnits="userSpaceOnUse">
<stop stop-color="#BEDAFF"/>
<stop offset="1" stop-color="white"/>
</linearGradient>
<clipPath id="clip0_113_6389">
<rect width="44" height="44" fill="white" transform="translate(18 18)"/>
</clipPath>
</defs>
</svg>
