<svg width="31" height="38" viewBox="0 0 31 38" fill="none" xmlns="http://www.w3.org/2000/svg">
<g clip-path="url(#clip0_197_5914)">
<path d="M16.8552 20.8714C16.7035 20.3994 16.2596 20.0791 15.7651 20.0791C15.2706 20.0791 14.8267 20.3994 14.675 20.8714L14.4165 21.6636H13.5793C13.0848 21.6636 12.641 21.9839 12.4892 22.4559C12.3375 22.9279 12.5061 23.4449 12.905 23.737L13.5793 24.2259L13.3208 25.0182C13.1691 25.4902 13.3377 26.0071 13.7366 26.2993C14.1412 26.5915 14.6806 26.5915 15.0852 26.2993L15.7595 25.8104L16.4337 26.2993C16.8383 26.5915 17.3777 26.5915 17.7823 26.2993C18.1869 26.0071 18.3498 25.4902 18.1981 25.0182L17.9396 24.2259L18.6139 23.737C19.0185 23.4449 19.1814 22.9279 19.0297 22.4559C18.878 21.9839 18.4341 21.6636 17.9396 21.6636H17.108L16.8552 20.8714Z" fill="white"/>
<path d="M11.4214 7.46484H28.4412" stroke="white" stroke-width="2.5" stroke-miterlimit="10" stroke-linecap="round" stroke-linejoin="round"/>
<path d="M1.8916 7.46436V32.7216C1.8916 34.1544 3.05473 35.3176 4.48756 35.3176H25.8396C27.2725 35.3176 28.4356 34.1544 28.4356 32.7216V12.4203V12.2461H6.67334C4.03243 12.2461 1.8916 10.1053 1.8916 7.46436ZM1.8916 7.46436C1.8916 4.82344 4.03243 2.68262 6.67334 2.68262H28.4412" stroke="white" stroke-width="2.5" stroke-miterlimit="10" stroke-linecap="round" stroke-linejoin="round"/>
<path d="M10.2245 18.669L15.7648 17.0508L21.2995 18.669C21.6816 18.7814 21.9457 19.1298 21.9457 19.5287V22.5574C21.9457 26.4457 19.4565 29.9014 15.7648 31.1319C12.0732 29.9014 9.58398 26.4457 9.58398 22.5574V19.5287C9.58398 19.1354 9.84246 18.7814 10.2245 18.669Z" stroke="white" stroke-width="2.5" stroke-miterlimit="2" stroke-linejoin="round"/>
</g>
<defs>
<clipPath id="clip0_197_5914">
<rect width="30" height="36.4286" fill="white" transform="translate(0.166504 0.786133)"/>
</clipPath>
</defs>
</svg>
