<svg width="44" height="45" viewBox="0 0 44 45" fill="none" xmlns="http://www.w3.org/2000/svg">
<g clip-path="url(#clip0_113_6673)">
<path d="M37.4188 10.7163C32.2565 9.3593 27.0634 7.2457 22.4016 4.60547C22.1539 4.46484 21.8468 4.46484 21.5991 4.60547C16.8025 7.32164 11.8901 9.32063 6.58043 10.7163C6.23745 10.8063 6 11.1059 6 11.4469V19.1848C6 27.1526 9.83144 32.4267 13.0458 35.4487C16.5057 38.7014 20.5365 40.5 22 40.5C23.4635 40.5 27.4943 38.7014 30.9542 35.448C34.1686 32.4267 37.9993 27.1526 37.9993 19.1841V11.4469C38 11.1059 37.7618 10.8063 37.4188 10.7163ZM36.4214 19.1841C36.4214 26.6259 32.8479 31.5478 29.8498 34.3659C26.447 37.5645 22.8091 38.9855 22 38.9855C21.1916 38.9855 17.5529 37.5652 14.1502 34.3659C11.1521 31.5478 7.5786 26.6266 7.5786 19.1841V12.0213C12.6559 10.6383 17.3844 8.7082 22 6.13477C26.5005 8.64 31.465 10.6664 36.4207 12.0213V19.1841H36.4214Z" fill="white" stroke="white" stroke-width="0.5"/>
<path d="M15.0038 11.9369C14.8441 11.5474 14.386 11.3569 13.98 11.5101C12.57 12.0431 11.1226 12.5339 9.6788 12.9684C9.34975 13.0676 9.12549 13.3601 9.12549 13.6912V16.6155C9.12549 17.0339 9.47873 17.3728 9.91479 17.3728C10.3508 17.3728 10.7041 17.0339 10.7041 16.6155V14.2446C11.9998 13.8424 13.294 13.3973 14.559 12.9192C14.9643 12.7659 15.1636 12.3258 15.0038 11.9369Z" fill="white" stroke="white" stroke-width="0.5"/>
<path d="M16.5035 12.0804C16.6097 12.0804 16.7167 12.06 16.8201 12.0171L16.8347 12.0108C17.2341 11.8427 17.4137 11.3969 17.2385 11.0137C17.0634 10.6305 16.5958 10.4576 16.1971 10.6249L16.1847 10.6298C15.7853 10.7972 15.605 11.2429 15.7794 11.6261C15.9084 11.9116 16.1986 12.0804 16.5035 12.0804Z" fill="white" stroke="white" stroke-width="0.5"/>
<path d="M31.4042 27.9181C31.0392 27.6896 30.5504 27.7881 30.3115 28.1382C29.6607 29.0931 28.8978 30.0078 28.0433 30.8565C27.3404 31.554 26.5783 32.2044 25.7794 32.7894C25.4328 33.0432 25.3661 33.5178 25.6307 33.8511C25.786 34.0466 26.0213 34.1492 26.2587 34.1492C26.4258 34.1492 26.5936 34.0986 26.7366 33.9938C27.5991 33.3631 28.4207 32.6621 29.1785 31.9098C30.1026 30.9929 30.9286 30.0029 31.6336 28.9672C31.8718 28.6163 31.7692 28.1473 31.4042 27.9181Z" fill="white" stroke="white" stroke-width="0.5"/>
<path d="M23.9466 33.9762L23.9011 34.0015C23.5237 34.2111 23.3947 34.6744 23.6131 35.0365C23.7597 35.2791 24.0243 35.4148 24.2969 35.4148C24.431 35.4148 24.5673 35.3818 24.6919 35.3129L24.7439 35.2833C25.1199 35.0717 25.2467 34.6083 25.0261 34.2469C24.8062 33.8862 24.3225 33.7653 23.9466 33.9762Z" fill="white" stroke="white" stroke-width="0.5"/>
<path d="M16.6199 20.9545C16.1355 20.4898 15.4906 20.2338 14.8053 20.2338C14.1201 20.2338 13.4752 20.4898 12.99 20.9545C11.9897 21.915 11.9897 23.4773 12.99 24.4371L17.6511 28.9083C18.1355 29.373 18.7804 29.629 19.4657 29.629C20.1509 29.629 20.7958 29.373 21.2802 28.9076L31.0098 19.5729C32.0102 18.6124 32.0102 17.0501 31.0098 16.0903C30.5254 15.6255 29.8805 15.3696 29.1952 15.3696C28.5093 15.3696 27.8651 15.6255 27.3799 16.0903L19.4657 23.6848L16.6199 20.9545ZM28.4968 17.1626C28.6837 16.984 28.9314 16.8848 29.1952 16.8848C29.4591 16.8848 29.7075 16.9833 29.8944 17.1626C30.2799 17.5324 30.2799 18.1336 29.8944 18.5034L20.1641 27.8374C19.9779 28.0167 19.7295 28.1151 19.4657 28.1151C19.2018 28.1151 18.9534 28.0167 18.7665 27.8374L14.1062 23.3662C13.7207 22.9964 13.7207 22.3952 14.1062 22.0254C14.2931 21.8468 14.5408 21.7476 14.8053 21.7476C15.0699 21.7476 15.3176 21.8461 15.5038 22.0254L18.9072 25.2914C19.0552 25.4334 19.2561 25.5129 19.4657 25.5129C19.6753 25.5129 19.8761 25.4334 20.0234 25.2914L28.4968 17.1626Z" fill="white" stroke="white" stroke-width="0.5"/>
</g>
<defs>
<clipPath id="clip0_113_6673">
<rect width="34" height="37" fill="white" transform="translate(5 4)"/>
</clipPath>
</defs>
</svg>
