<svg width="1440" height="508" viewBox="0 0 1440 508" fill="none" xmlns="http://www.w3.org/2000/svg">
<rect width="1440" height="508" fill="white"/>
<g opacity="0.8">
<mask id="mask0_262_5972" style="mask-type:alpha" maskUnits="userSpaceOnUse" x="0" y="0" width="1440" height="508">
<rect width="1440" height="508" fill="#282E3A"/>
</mask>
<g mask="url(#mask0_262_5972)">
<path fill-rule="evenodd" clip-rule="evenodd" d="M-254.576 -355.701L-126.162 -311.358L-95.116 -205.447L-223.531 -249.79L-254.576 -355.701ZM-256 -357.043L-254.853 -356.647L-126.439 -312.304L-125.292 -311.908L-124.146 -311.512L4.2688 -267.169L5.41538 -266.773L6.56192 -266.377L134.977 -222.034L136.123 -221.638L137.27 -221.242L265.684 -176.899L266.831 -176.503L267.977 -176.107L396.392 -131.764L397.538 -131.368L398.685 -130.972L527.1 -86.629L528.246 -86.2331L529.393 -85.8372L657.807 -41.4941L658.954 -41.0982L660.1 -40.7022L788.515 3.64089L789.662 4.03682L790.808 4.43275L919.223 48.7759L920.369 49.1718L921.516 49.5677L1049.93 93.9108L1051.08 94.3068L1052.22 94.7027L1180.64 139.046L1181.78 139.442L1182.93 139.838L1311.35 184.181L1312.49 184.577L1313.64 184.973L1442.05 229.316L1443.2 229.712L1443.48 230.657L1474.52 336.569L1474.8 337.515L1475.08 338.46L1506.12 444.372L1506.4 445.318L1506.68 446.263L1537.72 552.175L1538 553.121L1538.28 554.066L1569.32 659.978L1569.6 660.924L1569.88 661.869L1600.92 767.781L1601.2 768.727L1601.48 769.672L1632.52 875.584L1632.8 876.529L1633.08 877.475L1664.12 983.387L1664.4 984.332L1664.68 985.278L1695.72 1091.19L1696 1092.14L1694.85 1091.74L1566.44 1047.4L1565.29 1047L1564.15 1046.6L1435.73 1002.26L1434.58 1001.87L1433.44 1001.47L1305.02 957.126L1303.88 956.73L1302.73 956.335L1174.32 911.991L1173.17 911.596L1172.02 911.2L1043.61 866.856L1042.46 866.461L1041.32 866.065L912.901 821.721L911.754 821.326L910.607 820.93L782.193 776.587L781.046 776.191L779.9 775.795L651.485 731.452L650.339 731.056L649.192 730.66L520.777 686.317L519.631 685.921L518.484 685.525L390.07 641.182L388.923 640.786L387.777 640.39L259.362 596.047L258.216 595.651L257.069 595.255L128.654 550.912L127.508 550.516L126.361 550.12L-2.05325 505.777L-3.19981 505.381L-3.477 504.435L-34.5226 398.523L-34.7998 397.578L-35.077 396.632L-66.1227 290.72L-66.3999 289.775L-66.677 288.829L-97.7227 182.917L-97.9999 181.972L-98.2771 181.026L-129.323 75.1145L-129.6 74.1689L-129.877 73.2233L-160.923 -32.6884L-161.2 -33.6341L-161.477 -34.5797L-192.523 -140.491L-192.8 -141.437L-193.077 -142.383L-224.123 -248.294L-224.4 -249.24L-224.677 -250.186L-255.723 -356.097L-256 -357.043ZM-222.976 -247.898L-94.5617 -203.555L-63.516 -97.6436L-191.931 -141.987L-222.976 -247.898ZM-62.9616 -95.7523L-191.376 -140.095L-160.331 -34.1838L-31.916 10.1593L-62.9616 -95.7523ZM-159.776 -32.2925L-31.3616 12.0506L-0.315969 117.962L-128.731 73.6192L-159.776 -32.2925ZM0.238417 119.854L-128.176 75.5105L-97.1305 181.422L31.2841 225.765L0.238417 119.854ZM-96.5761 183.313L31.8384 227.657L62.8841 333.568L-65.5305 289.225L-96.5761 183.313ZM63.4385 335.46L-64.9761 291.116L-33.9305 397.028L94.4841 441.371L63.4385 335.46ZM-33.3761 398.919L95.0385 443.262L126.084 549.174L-2.33044 504.831L-33.3761 398.919ZM4.54599 -266.223L-123.869 -310.566L-92.8229 -204.655L35.5916 -160.312L4.54599 -266.223ZM-92.2685 -202.763L36.146 -158.42L67.1917 -52.5087L-61.2229 -96.8518L-92.2685 -202.763ZM67.746 -50.6174L-60.6685 -94.9605L-29.6229 10.9512L98.7917 55.2943L67.746 -50.6174ZM-29.0685 12.8425L99.3461 57.1856L130.392 163.097L1.97714 118.754L-29.0685 12.8425ZM130.946 164.989L2.53153 120.645L33.5772 226.557L161.992 270.9L130.946 164.989ZM34.1315 228.448L162.546 272.792L193.592 378.703L65.1772 334.36L34.1315 228.448ZM194.146 380.595L65.7316 336.251L96.7772 442.163L225.192 486.506L194.146 380.595ZM97.3316 444.054L225.746 488.397L256.792 594.309L128.377 549.966L97.3316 444.054ZM135.254 -221.088L6.83912 -265.431L37.8848 -159.52L166.299 -115.177L135.254 -221.088ZM38.4391 -157.629L166.854 -113.285L197.899 -7.37368L69.4848 -51.7168L38.4391 -157.629ZM198.454 -5.4824L70.0392 -49.8255L101.085 56.0862L229.499 100.429L198.454 -5.4824ZM101.639 57.9774L230.054 102.321L261.099 208.232L132.685 163.889L101.639 57.9774ZM261.654 210.124L133.239 165.78L164.285 271.692L292.699 316.035L261.654 210.124ZM164.839 273.583L293.254 317.926L324.299 423.838L195.885 379.495L164.839 273.583ZM324.854 425.729L196.439 381.386L227.485 487.298L355.899 531.641L324.854 425.729ZM228.039 489.189L356.454 533.532L387.5 639.444L259.085 595.101L228.039 489.189ZM265.961 -175.953L137.547 -220.296L168.592 -114.385L297.007 -70.0417L265.961 -175.953ZM169.147 -112.494L297.561 -68.1504L328.607 37.7613L200.192 -6.58183L169.147 -112.494ZM329.161 39.6526L200.747 -4.69056L231.793 101.221L360.207 145.564L329.161 39.6526ZM232.347 103.112L360.761 147.456L391.807 253.367L263.393 209.024L232.347 103.112ZM392.361 255.259L263.947 210.915L294.993 316.827L423.407 361.17L392.361 255.259ZM295.547 318.718L423.961 363.061L455.007 468.973L326.593 424.63L295.547 318.718ZM455.562 470.864L327.147 426.521L358.193 532.433L486.607 576.776L455.562 470.864ZM358.747 534.324L487.162 578.667L518.207 684.579L389.793 640.236L358.747 534.324ZM396.669 -130.818L268.254 -175.162L299.3 -69.2498L427.715 -24.9067L396.669 -130.818ZM299.854 -67.3586L428.269 -23.0154L459.315 82.8963L330.9 38.5531L299.854 -67.3586ZM459.869 84.7875L331.455 40.4444L362.5 146.356L490.915 190.699L459.869 84.7875ZM363.055 148.247L491.469 192.591L522.515 298.502L394.1 254.159L363.055 148.247ZM523.069 300.393L394.655 256.05L425.7 361.962L554.115 406.305L523.069 300.393ZM426.255 363.853L554.669 408.196L585.715 514.108L457.3 469.765L426.255 363.853ZM586.269 515.999L457.855 471.656L488.9 577.568L617.315 621.911L586.269 515.999ZM489.455 579.459L617.869 623.802L648.915 729.714L520.5 685.371L489.455 579.459ZM527.377 -85.6834L398.962 -130.027L430.008 -24.1149L558.422 20.2283L527.377 -85.6834ZM430.562 -22.2236L558.977 22.1196L590.022 128.031L461.608 83.6881L430.562 -22.2236ZM590.577 129.923L462.162 85.5794L493.208 191.491L621.622 235.834L590.577 129.923ZM493.762 193.382L622.177 237.725L653.222 343.637L524.808 299.294L493.762 193.382ZM653.777 345.528L525.362 301.185L556.408 407.097L684.823 451.44L653.777 345.528ZM556.962 408.988L685.377 453.331L716.423 559.243L588.008 514.9L556.962 408.988ZM716.977 561.134L588.562 516.791L619.608 622.703L748.023 667.046L716.977 561.134ZM620.162 624.594L748.577 668.937L779.623 774.849L651.208 730.506L620.162 624.594ZM658.084 -40.5484L529.67 -84.8916L560.716 21.0201L689.13 65.3632L658.084 -40.5484ZM561.27 22.9114L689.684 67.2545L720.73 173.166L592.316 128.823L561.27 22.9114ZM721.284 175.057L592.87 130.714L623.916 236.626L752.33 280.969L721.284 175.057ZM624.47 238.517L752.884 282.86L783.93 388.772L655.516 344.429L624.47 238.517ZM784.485 390.663L656.07 346.32L687.116 452.232L815.53 496.575L784.485 390.663ZM687.67 454.123L816.085 498.466L847.13 604.378L718.716 560.035L687.67 454.123ZM847.685 606.269L719.27 561.926L750.316 667.838L878.73 712.181L847.685 606.269ZM750.87 669.729L879.285 714.072L910.33 819.984L781.916 775.641L750.87 669.729ZM788.792 4.58653L660.378 -39.7566L691.423 66.1551L819.838 110.498L788.792 4.58653ZM691.978 68.0464L820.392 112.389L851.438 218.301L723.023 173.958L691.978 68.0464ZM851.992 220.192L723.578 175.849L754.623 281.761L883.038 326.104L851.992 220.192ZM755.178 283.652L883.592 327.995L914.638 433.907L786.223 389.564L755.178 283.652ZM915.192 435.798L786.778 391.455L817.823 497.367L946.238 541.71L915.192 435.798ZM818.378 499.258L946.792 543.601L977.838 649.513L849.423 605.17L818.378 499.258ZM978.392 651.404L849.978 607.061L881.023 712.973L1009.44 757.316L978.392 651.404ZM881.578 714.864L1009.99 759.207L1041.04 865.119L912.623 820.776L881.578 714.864ZM919.5 49.7215L791.085 5.37839L822.131 111.29L950.545 155.633L919.5 49.7215ZM822.685 113.181L951.1 157.524L982.145 263.436L853.731 219.093L822.685 113.181ZM982.7 265.327L854.285 220.984L885.331 326.896L1013.75 371.239L982.7 265.327ZM885.885 328.787L1014.3 373.13L1045.35 479.042L916.931 434.699L885.885 328.787ZM1045.9 480.933L917.485 436.59L948.531 542.502L1076.95 586.845L1045.9 480.933ZM949.085 544.393L1077.5 588.736L1108.55 694.648L980.131 650.305L949.085 544.393ZM1109.1 696.539L980.685 652.196L1011.73 758.108L1140.15 802.451L1109.1 696.539ZM1012.29 759.999L1140.7 804.342L1171.75 910.254L1043.33 865.911L1012.29 759.999ZM1050.21 94.8565L921.793 50.5133L952.838 156.425L1081.25 200.768L1050.21 94.8565ZM953.393 158.316L1081.81 202.659L1112.85 308.571L984.439 264.228L953.393 158.316ZM1113.41 310.462L984.993 266.119L1016.04 372.031L1144.45 416.374L1113.41 310.462ZM1016.59 373.922L1145.01 418.265L1176.05 524.177L1047.64 479.834L1016.59 373.922ZM1176.61 526.068L1048.19 481.725L1079.24 587.637L1207.65 631.98L1176.61 526.068ZM1079.79 589.528L1208.21 633.871L1239.25 739.783L1110.84 695.44L1079.79 589.528ZM1239.81 741.674L1111.39 697.331L1142.44 803.243L1270.85 847.586L1239.81 741.674ZM1142.99 805.134L1271.41 849.477L1302.45 955.389L1174.04 911.046L1142.99 805.134ZM1180.92 139.991L1052.5 95.6483L1083.55 201.56L1211.96 245.903L1180.92 139.991ZM1084.1 203.451L1212.52 247.794L1243.56 353.706L1115.15 309.363L1084.1 203.451ZM1244.12 355.597L1115.7 311.254L1146.75 417.166L1275.16 461.509L1244.12 355.597ZM1147.3 419.057L1275.72 463.4L1306.76 569.312L1178.35 524.969L1147.3 419.057ZM1307.32 571.203L1178.9 526.86L1209.95 632.772L1338.36 677.115L1307.32 571.203ZM1210.5 634.663L1338.92 679.006L1369.96 784.918L1241.55 740.575L1210.5 634.663ZM1370.52 786.809L1242.1 742.466L1273.15 848.378L1401.56 892.721L1370.52 786.809ZM1273.7 850.269L1402.12 894.612L1433.16 1000.52L1304.75 956.181L1273.7 850.269ZM1311.62 185.126L1183.21 140.783L1214.25 246.695L1342.67 291.038L1311.62 185.126ZM1214.81 248.586L1343.22 292.929L1374.27 398.841L1245.85 354.498L1214.81 248.586ZM1374.82 400.732L1246.41 356.389L1277.45 462.301L1405.87 506.644L1374.82 400.732ZM1278.01 464.192L1406.42 508.535L1437.47 614.447L1309.05 570.104L1278.01 464.192ZM1438.02 616.338L1309.61 571.995L1340.65 677.907L1469.07 722.25L1438.02 616.338ZM1341.21 679.798L1469.62 724.141L1500.67 830.053L1372.25 785.71L1341.21 679.798ZM1501.22 831.944L1372.81 787.601L1403.85 893.513L1532.27 937.856L1501.22 831.944ZM1404.41 895.404L1532.82 939.747L1563.87 1045.66L1435.45 1001.32L1404.41 895.404ZM1442.33 230.261L1313.92 185.918L1344.96 291.83L1473.38 336.173L1442.33 230.261ZM1345.52 293.721L1473.93 338.064L1504.98 443.976L1376.56 399.633L1345.52 293.721ZM1505.53 445.867L1377.12 401.524L1408.16 507.436L1536.58 551.779L1505.53 445.867ZM1408.72 509.327L1537.13 553.67L1568.18 659.582L1439.76 615.239L1408.72 509.327ZM1568.73 661.473L1440.32 617.13L1471.36 723.042L1599.78 767.385L1568.73 661.473ZM1471.92 724.933L1600.33 769.276L1631.38 875.188L1502.96 830.845L1471.92 724.933ZM1631.93 877.079L1503.52 832.736L1534.56 938.648L1662.98 982.991L1631.93 877.079ZM1535.12 940.539L1663.53 984.882L1694.58 1090.79L1566.16 1046.45L1535.12 940.539Z" fill="url(#paint0_linear_262_5972)" fill-opacity="0.1"/>
</g>
</g>
<defs>
<linearGradient id="paint0_linear_262_5972" x1="573" y1="-60.9593" x2="374.646" y2="584.469" gradientUnits="userSpaceOnUse">
<stop stop-color="#165DFF" stop-opacity="0"/>
<stop offset="1" stop-color="#165DFF"/>
</linearGradient>
</defs>
</svg>
