<svg width="1440" height="732" viewBox="0 0 1440 732" fill="none" xmlns="http://www.w3.org/2000/svg">
<rect width="1440" height="732" fill="#282E3A"/>
<g opacity="0.8">
<mask id="mask0_292_19438" style="mask-type:alpha" maskUnits="userSpaceOnUse" x="0" y="0" width="1440" height="732">
<rect width="1440" height="732" fill="#282E3A"/>
</mask>
<g mask="url(#mask0_292_19438)">
<path fill-rule="evenodd" clip-rule="evenodd" d="M-254.576 -512.547L-126.162 -448.651L-95.1161 -296.039L-223.531 -359.935L-254.576 -512.547ZM-256 -514.481L-254.853 -513.91L-126.439 -450.014L-125.292 -449.444L-124.146 -448.873L4.26878 -384.977L5.41536 -384.407L6.56191 -383.836L134.976 -319.94L136.123 -319.37L137.27 -318.799L265.684 -254.903L266.831 -254.333L267.977 -253.762L396.392 -189.866L397.538 -189.296L398.685 -188.725L527.099 -124.829L528.246 -124.259L529.393 -123.688L657.807 -59.7921L658.954 -59.2216L660.1 -58.6511L788.515 5.24493L789.661 5.81542L790.808 6.38592L919.222 70.2819L920.369 70.8524L921.516 71.4229L1049.93 135.319L1051.08 135.889L1052.22 136.46L1180.64 200.356L1181.78 200.926L1182.93 201.497L1311.35 265.393L1312.49 265.963L1313.64 266.534L1442.05 330.43L1443.2 331L1443.48 332.363L1474.52 484.976L1474.8 486.339L1475.08 487.701L1506.12 640.314L1506.4 641.677L1506.68 643.039L1537.72 795.652L1538 797.015L1538.28 798.377L1569.32 950.99L1569.6 952.353L1569.88 953.715L1600.92 1106.33L1601.2 1107.69L1601.48 1109.05L1632.52 1261.67L1632.8 1263.03L1633.08 1264.39L1664.12 1417L1664.4 1418.37L1664.68 1419.73L1695.72 1572.34L1696 1573.71L1694.85 1573.13L1566.44 1509.24L1565.29 1508.67L1564.15 1508.1L1435.73 1444.2L1434.58 1443.63L1433.44 1443.06L1305.02 1379.16L1303.88 1378.59L1302.73 1378.02L1174.32 1314.13L1173.17 1313.56L1172.02 1312.99L1043.61 1249.09L1042.46 1248.52L1041.32 1247.95L912.9 1184.05L911.754 1183.48L910.607 1182.91L782.193 1119.02L781.046 1118.45L779.9 1117.88L651.485 1053.98L650.339 1053.41L649.192 1052.84L520.777 988.943L519.631 988.372L518.484 987.802L390.07 923.906L388.923 923.335L387.777 922.765L259.362 858.869L258.216 858.298L257.069 857.728L128.654 793.832L127.508 793.261L126.361 792.691L-2.05326 728.795L-3.19981 728.224L-3.477 726.862L-34.5226 574.249L-34.7998 572.886L-35.077 571.524L-66.1227 418.911L-66.3999 417.548L-66.6771 416.186L-97.7227 263.573L-97.9999 262.21L-98.2771 260.847L-129.323 108.235L-129.6 106.872L-129.877 105.509L-160.923 -47.1036L-161.2 -48.4662L-161.477 -49.8288L-192.523 -202.442L-192.8 -203.804L-193.077 -205.167L-224.123 -357.78L-224.4 -359.142L-224.677 -360.505L-255.723 -513.118L-256 -514.481ZM-222.976 -357.209L-94.5617 -293.313L-63.516 -140.7L-191.931 -204.596L-222.976 -357.209ZM-62.9616 -137.975L-191.376 -201.871L-160.331 -49.2583L-31.916 14.6377L-62.9616 -137.975ZM-159.776 -46.5331L-31.3616 17.3629L-0.31598 169.976L-128.731 106.08L-159.776 -46.5331ZM0.238398 172.701L-128.176 108.805L-97.1305 261.418L31.284 325.314L0.238398 172.701ZM-96.5761 264.143L31.8384 328.039L62.8841 480.652L-65.5305 416.756L-96.5761 264.143ZM63.4385 483.377L-64.9761 419.481L-33.9305 572.094L94.4841 635.99L63.4385 483.377ZM-33.3761 574.819L95.0385 638.715L126.084 791.328L-2.33044 727.432L-33.3761 574.819ZM4.54597 -383.614L-123.869 -447.51L-92.8229 -294.898L35.5916 -231.002L4.54597 -383.614ZM-92.2686 -292.172L36.146 -228.276L67.1916 -75.6635L-61.2229 -139.559L-92.2686 -292.172ZM67.746 -72.9382L-60.6685 -136.834L-29.6229 15.7787L98.7917 79.6747L67.746 -72.9382ZM-29.0685 18.5039L99.346 82.3999L130.392 235.013L1.97713 171.117L-29.0685 18.5039ZM130.946 237.738L2.53151 173.842L33.5771 326.455L161.992 390.351L130.946 237.738ZM34.1315 329.18L162.546 393.076L193.592 545.689L65.1772 481.793L34.1315 329.18ZM194.146 548.414L65.7316 484.518L96.7772 637.131L225.192 701.027L194.146 548.414ZM97.3316 639.856L225.746 703.752L256.792 856.365L128.377 792.469L97.3316 639.856ZM135.254 -318.577L6.8391 -382.473L37.8847 -229.861L166.299 -165.965L135.254 -318.577ZM38.4391 -227.135L166.854 -163.239L197.899 -10.6265L69.4848 -74.5225L38.4391 -227.135ZM198.454 -7.9012L70.0391 -71.7972L101.085 80.8157L229.499 144.712L198.454 -7.9012ZM101.639 83.5409L230.054 147.437L261.099 300.05L132.685 236.154L101.639 83.5409ZM261.654 302.775L133.239 238.879L164.285 391.492L292.699 455.388L261.654 302.775ZM164.839 394.217L293.254 458.113L324.299 610.726L195.885 546.83L164.839 394.217ZM324.854 613.451L196.439 549.555L227.485 702.168L355.899 766.064L324.854 613.451ZM228.039 704.893L356.454 768.789L387.499 921.402L259.085 857.506L228.039 704.893ZM265.961 -253.54L137.547 -317.436L168.592 -164.824L297.007 -100.928L265.961 -253.54ZM169.147 -162.098L297.561 -98.2024L328.607 54.4105L200.192 -9.48546L169.147 -162.098ZM329.161 57.1358L200.747 -6.76021L231.792 145.853L360.207 209.749L329.161 57.1358ZM232.347 148.578L360.761 212.474L391.807 365.087L263.392 301.191L232.347 148.578ZM392.361 367.812L263.947 303.916L294.992 456.529L423.407 520.425L392.361 367.812ZM295.547 459.254L423.961 523.15L455.007 675.763L326.593 611.867L295.547 459.254ZM455.561 678.488L327.147 614.592L358.193 767.205L486.607 831.101L455.561 678.488ZM358.747 769.93L487.161 833.826L518.207 986.439L389.793 922.543L358.747 769.93ZM396.669 -188.503L268.254 -252.399L299.3 -99.7866L427.715 -35.8906L396.669 -188.503ZM299.854 -97.0613L428.269 -33.1653L459.315 119.448L330.9 55.5515L299.854 -97.0613ZM459.869 122.173L331.455 58.2768L362.5 210.89L490.915 274.786L459.869 122.173ZM363.055 213.615L491.469 277.511L522.515 430.124L394.1 366.228L363.055 213.615ZM523.069 432.849L394.655 368.953L425.7 521.566L554.115 585.462L523.069 432.849ZM426.255 524.291L554.669 588.187L585.715 740.8L457.3 676.904L426.255 524.291ZM586.269 743.525L457.855 679.629L488.9 832.242L617.315 896.138L586.269 743.525ZM489.455 834.967L617.869 898.863L648.915 1051.48L520.5 987.58L489.455 834.967ZM527.377 -123.466L398.962 -187.362L430.008 -34.7496L558.422 29.1464L527.377 -123.466ZM430.562 -32.0244L558.977 31.8717L590.022 184.485L461.608 120.589L430.562 -32.0244ZM590.577 187.21L462.162 123.314L493.208 275.927L621.622 339.823L590.577 187.21ZM493.762 278.652L622.177 342.548L653.222 495.161L524.808 431.265L493.762 278.652ZM653.777 497.886L525.362 433.99L556.408 586.603L684.822 650.499L653.777 497.886ZM556.962 589.328L685.377 653.224L716.422 805.837L588.008 741.941L556.962 589.328ZM716.977 808.562L588.562 744.666L619.608 897.279L748.022 961.175L716.977 808.562ZM620.162 900.004L748.577 963.9L779.622 1116.51L651.208 1052.62L620.162 900.004ZM658.084 -58.4295L529.67 -122.325L560.715 30.2874L689.13 94.1834L658.084 -58.4295ZM561.27 33.0126L689.684 96.9086L720.73 249.522L592.315 185.626L561.27 33.0126ZM721.284 252.247L592.87 188.351L623.915 340.964L752.33 404.86L721.284 252.247ZM624.47 343.689L752.884 407.585L783.93 560.198L655.515 496.302L624.47 343.689ZM784.484 562.923L656.07 499.027L687.116 651.64L815.53 715.536L784.484 562.923ZM687.67 654.365L816.084 718.261L847.13 870.874L718.716 806.978L687.67 654.365ZM847.684 873.599L719.27 809.703L750.316 962.316L878.73 1026.21L847.684 873.599ZM750.87 965.041L879.285 1028.94L910.33 1181.55L781.916 1117.65L750.87 965.041ZM788.792 6.60754L660.377 -57.2885L691.423 95.3244L819.838 159.22L788.792 6.60754ZM691.977 98.0496L820.392 161.946L851.438 314.559L723.023 250.663L691.977 98.0496ZM851.992 317.284L723.577 253.388L754.623 406.001L883.038 469.897L851.992 317.284ZM755.178 408.726L883.592 472.622L914.638 625.235L786.223 561.339L755.178 408.726ZM915.192 627.96L786.778 564.064L817.823 716.677L946.238 780.573L915.192 627.96ZM818.378 719.402L946.792 783.298L977.838 935.911L849.423 872.015L818.378 719.402ZM978.392 938.636L849.978 874.74L881.023 1027.35L1009.44 1091.25L978.392 938.636ZM881.578 1030.08L1009.99 1093.97L1041.04 1246.59L912.623 1182.69L881.578 1030.08ZM919.5 71.6445L791.085 7.74853L822.131 160.361L950.545 224.257L919.5 71.6445ZM822.685 163.087L951.1 226.983L982.145 379.596L853.731 315.7L822.685 163.087ZM982.7 382.321L854.285 318.425L885.331 471.038L1013.75 534.934L982.7 382.321ZM885.885 473.763L1014.3 537.659L1045.35 690.272L916.931 626.376L885.885 473.763ZM1045.9 692.997L917.485 629.101L948.531 781.714L1076.95 845.61L1045.9 692.997ZM949.085 784.439L1077.5 848.335L1108.55 1000.95L980.131 937.052L949.085 784.439ZM1109.1 1003.67L980.685 939.777L1011.73 1092.39L1140.15 1156.29L1109.1 1003.67ZM1012.29 1095.12L1140.7 1159.01L1171.75 1311.62L1043.33 1247.73L1012.29 1095.12ZM1050.21 136.682L921.793 72.7855L952.838 225.398L1081.25 289.294L1050.21 136.682ZM953.393 228.124L1081.81 292.02L1112.85 444.633L984.438 380.737L953.393 228.124ZM1113.41 447.358L984.993 383.462L1016.04 536.075L1144.45 599.971L1113.41 447.358ZM1016.59 538.8L1145.01 602.696L1176.05 755.309L1047.64 691.413L1016.59 538.8ZM1176.61 758.034L1048.19 694.138L1079.24 846.751L1207.65 910.647L1176.61 758.034ZM1079.79 849.476L1208.21 913.372L1239.25 1065.99L1110.84 1002.09L1079.79 849.476ZM1239.81 1068.71L1111.39 1004.81L1142.44 1157.43L1270.85 1221.32L1239.81 1068.71ZM1142.99 1160.15L1271.41 1224.05L1302.45 1376.66L1174.04 1312.77L1142.99 1160.15ZM1180.92 201.719L1052.5 137.823L1083.55 290.435L1211.96 354.331L1180.92 201.719ZM1084.1 293.161L1212.52 357.057L1243.56 509.67L1115.15 445.774L1084.1 293.161ZM1244.12 512.395L1115.7 448.499L1146.75 601.112L1275.16 665.008L1244.12 512.395ZM1147.3 603.837L1275.72 667.733L1306.76 820.346L1178.35 756.45L1147.3 603.837ZM1307.32 823.071L1178.9 759.175L1209.95 911.788L1338.36 975.684L1307.32 823.071ZM1210.5 914.513L1338.92 978.409L1369.96 1131.02L1241.55 1067.13L1210.5 914.513ZM1370.52 1133.75L1242.1 1069.85L1273.15 1222.46L1401.56 1286.36L1370.52 1133.75ZM1273.7 1225.19L1402.12 1289.09L1433.16 1441.7L1304.75 1377.8L1273.7 1225.19ZM1311.62 266.756L1183.21 202.859L1214.25 355.472L1342.67 419.368L1311.62 266.756ZM1214.81 358.198L1343.22 422.094L1374.27 574.707L1245.85 510.811L1214.81 358.198ZM1374.82 577.432L1246.41 513.536L1277.45 666.149L1405.87 730.045L1374.82 577.432ZM1278.01 668.874L1406.42 732.77L1437.47 885.383L1309.05 821.487L1278.01 668.874ZM1438.02 888.108L1309.61 824.212L1340.65 976.825L1469.07 1040.72L1438.02 888.108ZM1341.21 979.55L1469.62 1043.45L1500.67 1196.06L1372.25 1132.16L1341.21 979.55ZM1501.22 1198.78L1372.81 1134.89L1403.85 1287.5L1532.27 1351.4L1501.22 1198.78ZM1404.41 1290.23L1532.82 1354.12L1563.87 1506.74L1435.45 1442.84L1404.41 1290.23ZM1442.33 331.792L1313.92 267.897L1344.96 420.509L1473.38 484.405L1442.33 331.792ZM1345.52 423.235L1473.93 487.131L1504.98 639.744L1376.56 575.848L1345.52 423.235ZM1505.53 642.469L1377.12 578.573L1408.16 731.186L1536.58 795.082L1505.53 642.469ZM1408.72 733.911L1537.13 797.807L1568.18 950.42L1439.76 886.524L1408.72 733.911ZM1568.73 953.145L1440.32 889.249L1471.36 1041.86L1599.78 1105.76L1568.73 953.145ZM1471.92 1044.59L1600.33 1108.48L1631.38 1261.1L1502.96 1197.2L1471.92 1044.59ZM1631.93 1263.82L1503.52 1199.93L1534.56 1352.54L1662.98 1416.43L1631.93 1263.82ZM1535.12 1355.26L1663.53 1419.16L1694.58 1571.77L1566.16 1507.88L1535.12 1355.26Z" fill="url(#paint0_linear_292_19438)" fill-opacity="0.2"/>
</g>
</g>
<defs>
<linearGradient id="paint0_linear_292_19438" x1="593.6" y1="-91.7401" x2="148.137" y2="803.526" gradientUnits="userSpaceOnUse">
<stop stop-color="white" stop-opacity="0"/>
<stop offset="1" stop-color="white"/>
</linearGradient>
</defs>
</svg>
