<svg width="44" height="44" viewBox="0 0 44 44" fill="none" xmlns="http://www.w3.org/2000/svg">
<g clip-path="url(#clip0_292_19404)">
<path d="M36.21 14.5904H21.5816C18.3834 14.5904 15.791 17.1828 15.791 20.381V35.0094C15.791 38.2076 18.3834 40.8 21.5816 40.8H36.21C39.4082 40.8 42.0006 38.2076 42.0006 35.0094V20.3804C42.0006 17.1828 39.4082 14.5904 36.21 14.5904Z" fill="#165DFF"/>
<g filter="url(#filter0_b_292_19404)">
<path d="M27.5768 3.19995H9.25339C5.24717 3.19995 2 6.44712 2 10.4533V28.7773C2 32.783 5.24717 36.0307 9.25339 36.0307H27.5774C31.583 36.0307 34.8308 32.7835 34.8308 28.7773V10.4533C34.8302 6.44712 31.583 3.19995 27.5768 3.19995Z" fill="#BEDAFF" fill-opacity="0.5"/>
</g>
<path d="M27.5765 12.1887H22.9956C22.2689 12.1887 21.6775 12.7801 21.6775 13.5068C21.6775 14.2336 22.2689 14.825 22.9956 14.825H24.3927L19.7669 19.4456L16.0915 16.9909C15.5711 16.6451 14.8719 16.7148 14.4293 17.1563L8.32113 23.2645C8.07272 23.5129 7.93612 23.8437 7.93555 24.1947C7.93497 24.9215 8.52573 25.5134 9.25251 25.514C9.25366 25.514 9.25482 25.514 9.25539 25.514C9.60178 25.514 9.94068 25.3728 10.1845 25.1273L15.5353 19.7839L19.2107 22.2386C19.7317 22.5844 20.4309 22.5152 20.8729 22.0732L26.2584 16.6877V18.0877C26.2584 18.8145 26.8497 19.4058 27.5765 19.4058C28.3033 19.4058 28.8946 18.8145 28.8946 18.0877V13.5068C28.8946 12.7801 28.3033 12.1887 27.5765 12.1887Z" fill="#165DFF"/>
</g>
<defs>
<filter id="filter0_b_292_19404" x="-2" y="-0.800049" width="40.8301" height="40.8307" filterUnits="userSpaceOnUse" color-interpolation-filters="sRGB">
<feFlood flood-opacity="0" result="BackgroundImageFix"/>
<feGaussianBlur in="BackgroundImage" stdDeviation="2"/>
<feComposite in2="SourceAlpha" operator="in" result="effect1_backgroundBlur_292_19404"/>
<feBlend mode="normal" in="SourceGraphic" in2="effect1_backgroundBlur_292_19404" result="shape"/>
</filter>
<clipPath id="clip0_292_19404">
<rect width="40" height="37.6001" fill="white" transform="translate(2 3.19995)"/>
</clipPath>
</defs>
</svg>
