<svg width="44" height="44" viewBox="0 0 44 44" fill="none" xmlns="http://www.w3.org/2000/svg">
<g clip-path="url(#clip0_292_19429)">
<path d="M36.21 14.5904H21.5816C18.3834 14.5904 15.791 17.1828 15.791 20.381V35.0094C15.791 38.2076 18.3834 40.8 21.5816 40.8H36.21C39.4082 40.8 42.0006 38.2076 42.0006 35.0094V20.3804C42.0006 17.1828 39.4082 14.5904 36.21 14.5904Z" fill="#165DFF"/>
<g filter="url(#filter0_b_292_19429)">
<path d="M27.5768 3.19995H9.25339C5.24717 3.19995 2 6.44712 2 10.4533V28.7773C2 32.783 5.24717 36.0307 9.25339 36.0307H27.5774C31.583 36.0307 34.8308 32.7835 34.8308 28.7773V10.4533C34.8302 6.44712 31.583 3.19995 27.5768 3.19995Z" fill="#BEDAFF" fill-opacity="0.5"/>
</g>
<path d="M26.8915 22.7588C26.6066 23.0437 26.1468 23.0473 25.8641 22.7646C24.7163 21.6168 22.8705 21.6051 21.7389 22.7366C20.6064 23.8692 20.6196 25.7166 21.7659 26.8629C22.0486 27.1456 22.0449 27.6053 21.76 27.8902L19.7139 29.9363C19.2207 30.4296 18.4313 30.432 17.9461 29.9469L15.9291 27.9299C15.6675 27.6683 15.6684 27.2454 15.933 26.9807C17.0646 25.8492 17.0509 23.9963 15.9076 22.853C14.7608 21.7062 12.917 21.6945 11.7819 22.8296C11.5172 23.0942 11.0938 23.0946 10.8327 22.8335L8.87589 20.8767C8.32555 20.3263 8.33114 19.4305 8.88677 18.8749L11.5159 16.2458C11.1792 16.1444 10.7935 15.8905 10.4873 15.5843C9.33947 14.4365 9.33381 12.5966 10.4664 11.4641C11.5979 10.3325 13.4342 10.3347 14.58 11.4805C14.8873 11.7877 15.1452 12.1774 15.2471 12.5146L17.5396 10.2221C18.2802 9.48145 19.4744 9.47516 20.2072 10.208L21.8347 11.8354C22.0963 12.0971 22.0939 12.5215 21.8308 12.7846C20.6983 13.9172 20.7099 15.763 21.8558 16.9088C23.0011 18.0542 24.8474 18.0663 25.98 16.9338C26.2436 16.6702 26.6675 16.6683 26.9292 16.9299L28.8393 18.8401C29.3842 19.3849 29.3791 20.2741 28.828 20.8252L26.8915 22.7588Z" fill="#165DFF"/>
</g>
<defs>
<filter id="filter0_b_292_19429" x="0" y="1.19995" width="36.8301" height="36.8307" filterUnits="userSpaceOnUse" color-interpolation-filters="sRGB">
<feFlood flood-opacity="0" result="BackgroundImageFix"/>
<feGaussianBlur in="BackgroundImage" stdDeviation="1"/>
<feComposite in2="SourceAlpha" operator="in" result="effect1_backgroundBlur_292_19429"/>
<feBlend mode="normal" in="SourceGraphic" in2="effect1_backgroundBlur_292_19429" result="shape"/>
</filter>
<clipPath id="clip0_292_19429">
<rect width="40" height="37.6001" fill="white" transform="translate(2 3.19995)"/>
</clipPath>
</defs>
</svg>
