<svg width="40" height="40" viewBox="0 0 40 40" fill="none" xmlns="http://www.w3.org/2000/svg">
<g clip-path="url(#clip0_292_19352)">
<path d="M36.3428 32.7887C38.5531 29.1906 38.5531 24.6557 36.3428 21.0576C33.1035 15.7842 26.2024 14.1356 20.9296 17.3755C15.6567 20.6153 14.0075 27.5159 17.2474 32.7887C20.4873 38.0615 27.3872 39.7107 32.6601 36.4709L36.4744 37.5027C36.7294 37.5711 37.0013 37.4981 37.1886 37.312C37.3735 37.1259 37.4442 36.8558 37.3746 36.603L36.3428 32.7887Z" fill="#165DFF"/>
<g filter="url(#filter0_b_292_19352)">
<path d="M0.932568 31.9644C0.828225 32.3406 0.934307 32.7435 1.20908 33.02C1.48733 33.2971 1.89253 33.4055 2.27222 33.304L7.95081 31.7679C15.8009 36.5902 26.0747 34.1364 30.8971 26.2858C35.7195 18.4351 33.2657 8.16192 25.415 3.33953C17.5643 -1.48287 7.29113 0.971513 2.46815 8.82161C-0.822718 14.1779 -0.822718 20.9295 2.46815 26.2858L0.932568 31.9644Z" fill="#BEDAFF" fill-opacity="0.5"/>
</g>
<path d="M16.6835 16.4289C18.8747 16.4289 20.6573 18.0514 20.6573 20.0461C20.6573 21.6849 19.4538 23.072 17.8093 23.5149V23.6425C17.8093 24.2639 17.3055 24.7676 16.6841 24.7676C16.0627 24.7676 15.5589 24.2639 15.5589 23.6425V23.5149C13.9144 23.072 12.7109 21.6849 12.7109 20.0461H14.9619C14.9619 20.7997 15.7346 21.413 16.6847 21.413C17.6348 21.413 18.4075 20.7997 18.4075 20.0461C18.4075 19.2925 17.6348 18.6792 16.6847 18.6792C14.4935 18.6792 12.7115 17.0567 12.7115 15.0614C12.7115 13.4226 13.9149 12.0354 15.5595 11.5925V11.465C15.5595 10.8436 16.0633 10.3398 16.6847 10.3398C17.3061 10.3398 17.8098 10.8436 17.8098 11.465V11.5925C19.4544 12.0354 20.6578 13.4226 20.6578 15.0614H18.4069C18.4069 14.3078 17.6342 13.6945 16.6841 13.6945C15.734 13.6945 14.9613 14.3078 14.9613 15.0614C14.9607 15.8155 15.7334 16.4289 16.6835 16.4289Z" fill="#165DFF"/>
</g>
<defs>
<filter id="filter0_b_292_19352" x="-4" y="-3.13062" width="41.3672" height="41.3688" filterUnits="userSpaceOnUse" color-interpolation-filters="sRGB">
<feFlood flood-opacity="0" result="BackgroundImageFix"/>
<feGaussianBlur in="BackgroundImage" stdDeviation="2"/>
<feComposite in2="SourceAlpha" operator="in" result="effect1_backgroundBlur_292_19352"/>
<feBlend mode="normal" in="SourceGraphic" in2="effect1_backgroundBlur_292_19352" result="shape"/>
</filter>
<clipPath id="clip0_292_19352">
<rect width="40" height="38.2609" fill="white" transform="translate(0 0.869507)"/>
</clipPath>
</defs>
</svg>
