<svg width="44" height="44" viewBox="0 0 44 44" fill="none" xmlns="http://www.w3.org/2000/svg">
<g clip-path="url(#clip0_292_19362)">
<path fill-rule="evenodd" clip-rule="evenodd" d="M41.9992 27.3939V34.405C41.9992 37.5023 39.4879 40.0137 36.3905 40.0137H26.5748C19.6052 40.0137 13.9551 34.3635 13.9551 27.3939C13.9551 20.4243 19.6052 14.7742 26.5748 14.7742H29.3795C36.3491 14.7742 41.9992 20.4243 41.9992 27.3939Z" fill="#165DFF"/>
<g filter="url(#filter0_b_292_19362)">
<path fill-rule="evenodd" clip-rule="evenodd" d="M17.9248 3.98584H21.4634C30.2584 3.98584 37.3882 11.1156 37.3882 19.9106C37.3882 28.7056 30.2584 35.8354 21.4634 35.8354H9.07731C5.16861 35.8348 2 32.6662 2 28.7575V19.9106C2 11.1156 9.12978 3.98584 17.9248 3.98584Z" fill="#BEDAFF" fill-opacity="0.5"/>
</g>
<path fill-rule="evenodd" clip-rule="evenodd" d="M27.0364 25.3288L25.4005 23.6928C26.113 22.6175 26.5278 21.3273 26.5278 19.941C26.5278 16.1836 23.4818 13.1371 19.7238 13.1371C15.9665 13.1371 12.9199 16.1831 12.9199 19.941C12.9199 23.6989 15.9659 26.7449 19.7238 26.7449C21.1107 26.7449 22.4003 26.3301 23.4757 25.6177L25.1116 27.2536C25.643 27.7849 26.5046 27.7849 27.0359 27.2536C27.5683 26.7217 27.5683 25.8601 27.0364 25.3288ZM19.6112 23.8718C17.3566 23.8718 15.529 22.0442 15.529 19.7897C15.529 17.5351 17.3566 15.7075 19.6112 15.7075C21.8657 15.7075 23.6933 17.5351 23.6933 19.7897C23.6933 22.0442 21.8657 23.8718 19.6112 23.8718Z" fill="#165DFF"/>
</g>
<defs>
<filter id="filter0_b_292_19362" x="-2" y="-0.0141602" width="43.3887" height="39.8496" filterUnits="userSpaceOnUse" color-interpolation-filters="sRGB">
<feFlood flood-opacity="0" result="BackgroundImageFix"/>
<feGaussianBlur in="BackgroundImage" stdDeviation="2"/>
<feComposite in2="SourceAlpha" operator="in" result="effect1_backgroundBlur_292_19362"/>
<feBlend mode="normal" in="SourceGraphic" in2="effect1_backgroundBlur_292_19362" result="shape"/>
</filter>
<clipPath id="clip0_292_19362">
<rect width="40" height="36.0283" fill="white" transform="translate(2 3.98584)"/>
</clipPath>
</defs>
</svg>
