<svg width="44" height="44" viewBox="0 0 44 44" fill="none" xmlns="http://www.w3.org/2000/svg">
<g clip-path="url(#clip0_290_7412)">
<path d="M39.5262 27.6839C39.5262 34.7492 33.8125 40.4737 26.7361 40.4737C18.6864 40.4712 12.7314 33.1647 14.1595 25.387C15.225 19.4029 20.5008 14.8967 26.7361 14.8947C33.7912 14.8942 39.5262 20.5999 39.5262 27.6839Z" fill="#165DFF"/>
<g filter="url(#filter0_b_290_7412)">
<path d="M35.7618 19.1641C35.7618 27.8037 28.7728 34.8045 20.1171 34.8045C10.2708 34.8013 2.98616 25.8661 4.73329 16.3548C6.03657 9.03709 12.49 3.52629 20.1171 3.52362C28.7466 3.52362 35.7618 10.5009 35.7618 19.1641Z" fill="#BEDAFF" fill-opacity="0.5"/>
</g>
<path d="M20.122 23.028C20.115 23.028 20.1177 23.1705 20.1177 21.1881C21.8734 21.1881 22.7877 19.108 21.6306 17.8149L23.0017 16.5884C25.2183 19.0632 23.4492 23.028 20.122 23.028Z" fill="#34994A"/>
<path d="M10.2463 19.164C10.2463 13.7199 14.6736 9.29154 20.1167 9.28887C20.1236 9.28887 20.121 9.43024 20.121 7.44891C14.9276 7.44891 10.4565 10.8594 8.94625 15.6452L5.16925 14.5665C4.9788 15.1827 4.83262 15.7951 4.7334 16.3553L8.53388 17.4414C7.48507 24.5127 12.9772 30.8765 20.1178 30.8792C20.1247 30.8792 20.122 31.0205 20.122 29.0392C14.672 29.0387 10.2463 24.6055 10.2463 19.164Z" fill="#165DFF"/>
<path d="M35.7553 18.7346H31.8274C31.6534 13.937 28.6105 9.89969 24.3811 8.24805L23.7116 9.96157C24.8948 10.4236 25.9543 11.0957 26.9034 11.9866L25.2843 13.3358C25.2187 13.2777 25.1514 13.2206 25.0837 13.1646C25.0645 13.1486 25.0453 13.1325 25.0261 13.1165C24.9759 13.076 24.9253 13.0355 24.874 12.996C23.4369 11.8783 21.7906 11.3726 20.1731 11.3742C20.156 11.3742 20.1384 11.3737 20.1213 11.3737C20.1202 11.3737 20.1192 11.3683 20.1186 11.3742C16.1272 11.4062 12.332 14.5239 12.332 19.1635H14.172C14.172 18.2448 14.3816 17.3737 14.7551 16.5959L16.5732 17.6351C15.4769 20.1686 17.3408 23.0275 20.1213 23.0275C23.4481 23.0275 25.2176 19.0627 23.001 16.5873L21.63 17.8138C22.785 19.1048 21.877 21.187 20.117 21.187C19.0026 21.1843 18.0973 20.2779 18.0973 19.163C18.0973 18.048 19.0026 17.1416 20.117 17.139C20.124 17.139 20.1213 17.2814 20.1213 15.299C19.2368 15.299 18.3859 15.5999 17.6967 16.1568L15.8028 15.0749C16.8874 13.9306 18.4201 13.2147 20.117 13.2136C23.4129 13.2136 26.0706 15.8912 26.0706 19.163C26.0706 22.4332 23.4145 25.1123 20.117 25.1123C17.8338 25.1107 15.7244 23.7765 14.7439 21.7119L13.0816 22.502C14.427 25.3342 17.2283 26.9474 20.1181 26.9522C20.1186 26.9576 20.1197 26.9528 20.1208 26.9528C20.1336 26.9528 20.1464 26.9522 20.1597 26.9522C20.2184 26.9522 20.2771 26.9512 20.3358 26.9496C20.3486 26.949 20.3619 26.949 20.3747 26.9485C20.7545 26.9368 21.1354 26.8968 21.5137 26.8279H21.5142C21.8098 26.7741 22.1037 26.7031 22.3944 26.614C22.3998 26.6124 22.4051 26.6108 22.411 26.6087C22.4734 26.5895 22.5353 26.5692 22.5977 26.5484C22.6116 26.5436 22.6249 26.5388 22.6388 26.5345C22.6921 26.5164 22.7455 26.4972 22.7988 26.478C22.8164 26.4716 22.834 26.4652 22.8516 26.4582C22.9007 26.4401 22.9493 26.4209 22.9978 26.4017C23.0175 26.3937 23.0373 26.3862 23.057 26.3777C23.1034 26.3585 23.1498 26.3387 23.1963 26.319C23.2165 26.3105 23.2368 26.3019 23.2571 26.2929C23.3046 26.2721 23.3515 26.2502 23.3984 26.2283C23.4166 26.2198 23.4353 26.2118 23.4534 26.2032C23.5174 26.1728 23.5814 26.1413 23.6454 26.1088L24.8116 27.8575C24.7503 27.8906 24.6889 27.9226 24.6265 27.9546C24.5022 28.0181 24.3763 28.0789 24.2488 28.1376C24.1853 28.167 24.1208 28.1958 24.0562 28.2235C23.9735 28.2592 23.8898 28.2939 23.8055 28.3275C23.6929 28.3729 23.5798 28.4161 23.4646 28.4577C23.3979 28.4817 23.3307 28.5052 23.2629 28.5276L23.8482 30.2721C24.0509 30.2043 24.2509 30.1307 24.4478 30.0528C24.9733 29.8442 25.4774 29.6004 25.9586 29.3246C26.3795 29.0829 26.7828 28.8173 27.1664 28.5287C27.2517 28.4646 27.336 28.399 27.4193 28.3323C27.4966 28.271 27.5734 28.2086 27.6486 28.1456C27.7287 28.0784 27.8076 28.0101 27.886 27.9408C27.9613 27.8741 28.0354 27.8074 28.109 27.7391C28.2333 27.6233 28.355 27.5044 28.4739 27.3833C28.546 27.3102 28.6169 27.2366 28.6868 27.1619C28.7332 27.1123 28.7791 27.0621 28.8244 27.0114C29.0634 26.7463 29.2902 26.47 29.5041 26.184C29.575 26.0896 29.6444 25.9941 29.7121 25.897C29.7745 25.8079 29.8354 25.7183 29.8951 25.6276C30.8831 24.1328 31.5302 22.4086 31.7511 20.5735H35.6988C35.7564 19.9354 35.7724 19.2915 35.7553 18.7346ZM26.3432 26.8381L25.1755 25.0861C28.2408 22.4668 28.7946 17.9786 26.5086 14.7106L28.1186 13.3694C31.1771 17.5817 30.4387 23.5177 26.3432 26.8381Z" fill="#165DFF"/>
</g>
<defs>
<filter id="filter0_b_290_7412" x="2.47363" y="1.52362" width="35.2881" height="35.2809" filterUnits="userSpaceOnUse" color-interpolation-filters="sRGB">
<feFlood flood-opacity="0" result="BackgroundImageFix"/>
<feGaussianBlur in="BackgroundImage" stdDeviation="1"/>
<feComposite in2="SourceAlpha" operator="in" result="effect1_backgroundBlur_290_7412"/>
<feBlend mode="normal" in="SourceGraphic" in2="effect1_backgroundBlur_290_7412" result="shape"/>
</filter>
<clipPath id="clip0_290_7412">
<rect width="36" height="37.8947" fill="white" transform="translate(4 3.05261)"/>
</clipPath>
</defs>
</svg>
