<svg width="44" height="44" viewBox="0 0 44 44" fill="none" xmlns="http://www.w3.org/2000/svg">
<g clip-path="url(#clip0_290_7425)">
<path fill-rule="evenodd" clip-rule="evenodd" d="M35.1386 15.9689H21.5233C18.8384 15.9689 16.6621 18.1452 16.6621 20.8301V31.2437C16.6621 33.9286 18.8384 36.1049 21.5233 36.1049H30.0328L33.947 38.9025C34.3171 39.1706 34.8063 39.2073 35.2131 38.9983C35.6065 38.7863 35.8578 38.3811 35.8726 37.9346V36.1258C38.1589 36.1023 39.9999 34.2426 39.9999 31.9562V20.8296C39.9938 18.1472 37.821 15.9745 35.1386 15.9689Z" fill="#165DFF"/>
<g filter="url(#filter0_b_290_7425)">
<path fill-rule="evenodd" clip-rule="evenodd" d="M10.2542 4.86774C6.80318 4.87538 4.00765 7.67092 4 11.1219V25.4365C4 28.3778 6.36843 30.7712 9.30974 30.8007V33.1274C9.32859 33.7023 9.65173 34.2232 10.1583 34.4958C10.6813 34.765 11.3107 34.717 11.7867 34.3725L16.8228 30.7732H27.771C31.225 30.7732 34.0251 27.9731 34.0251 24.5191V11.1219C34.0246 7.66786 31.225 4.86774 27.771 4.86774H10.2542Z" fill="#BEDAFF" fill-opacity="0.5"/>
</g>
<path fill-rule="evenodd" clip-rule="evenodd" d="M17.6715 25.7895V19.7456H11.5791L19.6966 9.6842V15.7281H25.7896L17.6715 25.7895Z" fill="#165DFF"/>
</g>
<defs>
<filter id="filter0_b_290_7425" x="2" y="2.86774" width="34.0254" height="33.801" filterUnits="userSpaceOnUse" color-interpolation-filters="sRGB">
<feFlood flood-opacity="0" result="BackgroundImageFix"/>
<feGaussianBlur in="BackgroundImage" stdDeviation="1"/>
<feComposite in2="SourceAlpha" operator="in" result="effect1_backgroundBlur_290_7425"/>
<feBlend mode="normal" in="SourceGraphic" in2="effect1_backgroundBlur_290_7425" result="shape"/>
</filter>
<clipPath id="clip0_290_7425">
<rect width="36" height="34.2646" fill="white" transform="translate(4 4.86774)"/>
</clipPath>
</defs>
</svg>
