<svg width="44" height="44" viewBox="0 0 44 44" fill="none" xmlns="http://www.w3.org/2000/svg">
<g clip-path="url(#clip0_113_6715)">
<path d="M30.5806 6.67764C26.8634 6.67764 23.8384 9.70213 23.8384 13.4198C23.8384 17.1375 26.8629 20.162 30.5806 20.162C34.2982 20.162 37.3227 17.1375 37.3227 13.4198C37.3227 9.70213 34.2977 6.67764 30.5806 6.67764ZM30.5806 18.9352C27.5391 18.9352 25.0646 16.4602 25.0646 13.4193C25.0646 10.3783 27.5391 7.90334 30.5806 7.90334C33.622 7.90334 36.0965 10.3783 36.0965 13.4193C36.0965 16.4602 33.6215 18.9352 30.5806 18.9352Z" fill="#165DFF"/>
<path d="M41 15.7051V11.1329L39.3241 10.5961C39.1721 10.1228 38.9835 9.66485 38.7608 9.22996L39.5648 7.66753L36.3325 4.43519L34.77 5.23917C34.3352 5.01651 33.8772 4.82786 33.404 4.67595L32.866 3H28.2944L27.7575 4.67595C27.2842 4.82786 26.8263 5.01651 26.3914 5.23917L24.829 4.43519L21.5966 7.66698L22.348 9.1285H6.06453C4.37487 9.12905 3 10.5039 3 12.1936V30.5807C3 32.2704 4.37487 33.6453 6.06453 33.6453H14.0094C13.9063 34.6231 13.3984 35.5093 12.6021 36.0967H10.9673C9.95331 36.0967 9.1285 36.9215 9.1285 37.9355V39.1612C9.1285 40.1746 9.95331 41 10.9673 41H29.3545C30.3679 41 31.1933 40.1752 31.1933 39.1612V37.9355C31.1933 36.9215 30.3685 36.0967 29.3545 36.0967H27.7202C26.9239 35.5088 26.4161 34.6225 26.313 33.6453H34.2573C35.9469 33.6453 37.3218 32.2704 37.3218 30.5807V21.4129L39.5637 19.171L38.7597 17.6091C38.9824 17.1748 39.1705 16.7169 39.323 16.243L41 15.7051ZM29.9676 37.9355V39.1612C29.9676 39.4995 29.6923 39.7743 29.3545 39.7743H10.9679C10.6301 39.7743 10.3548 39.4995 10.3548 39.1612V37.9355C10.3548 37.5971 10.6301 37.3223 10.9679 37.3223H29.355C29.6923 37.3223 29.9676 37.5971 29.9676 37.9355ZM26.0015 36.0967H14.3209C14.8468 35.3887 15.1654 34.5425 15.2351 33.6453H25.0873C25.1575 34.5425 25.4761 35.3887 26.0015 36.0967ZM34.2578 32.4196H6.06453C5.05051 32.4196 4.2257 31.5947 4.2257 30.5807V12.1936C4.2257 11.1796 5.05051 10.3548 6.06453 10.3548H21.9257C21.8966 10.4359 21.8637 10.5143 21.8374 10.5961L20.1609 11.1335V11.5805H6.67765C6.00146 11.5805 5.45195 12.13 5.45195 12.8062V27.5157C5.45195 28.1918 6.00146 28.7414 6.67765 28.7414H33.6453C34.3214 28.7414 34.871 28.1918 34.871 27.5157V21.652L36.0967 22.2827V30.5807C36.0967 31.5942 35.2718 32.4196 34.2578 32.4196ZM24.829 22.4034L26.3914 21.5994C26.8263 21.822 27.2842 22.0107 27.7575 22.1626L28.2949 23.8391H32.8665L33.4034 22.1632C33.4857 22.1368 33.5641 22.1028 33.6447 22.0749V27.5162H6.67765V12.8067H20.1614V15.7051L21.8374 16.242C21.9899 16.7158 22.178 17.1737 22.4006 17.608L21.5966 19.1699L24.829 22.4034ZM38.3303 15.2735L38.2409 15.5904C38.0698 16.1959 37.8324 16.7723 37.534 17.3037L37.3728 17.591L38.0655 18.9363L36.0972 20.9045L34.7519 20.2125L34.4651 20.3731C33.9326 20.6709 33.3557 20.9095 32.7513 21.08L32.4344 21.1694L31.972 22.6134H29.1889L28.726 21.1694L28.409 21.08C27.8047 20.9089 27.2277 20.6715 26.6952 20.3731L26.4084 20.2125L25.0632 20.9045L23.0949 18.9363L23.7875 17.591L23.6263 17.3037C23.3285 16.7723 23.0905 16.1953 22.9194 15.5904L22.83 15.2735L21.3861 14.8111V12.028L22.83 11.5651L22.9194 11.2481C23.0905 10.6438 23.328 10.0668 23.6263 9.53433L23.787 9.24751L23.096 7.9028L25.0643 5.93455L26.4095 6.62665L26.6963 6.46596C27.2288 6.16817 27.8058 5.92962 28.4101 5.75906L28.7271 5.66967L29.1894 4.2257H31.9726L32.4355 5.66967L32.7524 5.75906C33.3568 5.93016 33.9337 6.16763 34.4662 6.46596L34.753 6.62665L36.0983 5.93455L38.0655 7.9028L37.3734 9.24806L37.534 9.53487C37.8318 10.0674 38.0704 10.6443 38.2409 11.2487L38.3303 11.5656L39.7743 12.028V14.8111L38.3303 15.2735Z" fill="black"/>
<path d="M30.5806 10.3547C28.891 10.3547 27.5161 11.7296 27.5161 13.4193C27.5161 15.1089 28.891 16.4838 30.5806 16.4838C32.2703 16.4838 33.6452 15.1089 33.6452 13.4193C33.6452 11.7296 32.2703 10.3547 30.5806 10.3547ZM30.5806 15.2581C29.5666 15.2581 28.7418 14.4333 28.7418 13.4193C28.7418 12.4052 29.5666 11.5804 30.5806 11.5804C31.5947 11.5804 32.4195 12.4052 32.4195 13.4193C32.4195 14.4333 31.5941 15.2581 30.5806 15.2581Z" fill="#165DFF"/>
<path d="M17.0969 16.4838H9.74214C8.72813 16.4838 7.90332 17.3086 7.90332 18.3226V24.4517C7.90332 25.4657 8.72813 26.2905 9.74214 26.2905H17.0969C18.1109 26.2905 18.9357 25.4657 18.9357 24.4517V18.3226C18.9352 17.3086 18.1104 16.4838 17.0969 16.4838ZM12.8067 17.7095H14.0324V18.9352H12.8067V17.7095ZM17.7095 24.4517C17.7095 24.79 17.4342 25.0648 17.0963 25.0648H9.74214C9.40432 25.0648 9.12902 24.79 9.12902 24.4517V18.3226C9.12902 17.9848 9.40432 17.7095 9.74214 17.7095H11.581V20.1609H15.2586V17.7095H17.0974C17.4353 17.7095 17.7106 17.9848 17.7106 18.3226V24.4517H17.7095Z" fill="#165DFF"/>
<path d="M7.90332 14.0324H9.12902V15.2581H7.90332V14.0324Z" fill="black"/>
<path d="M10.355 14.0324H18.9354V15.2581H10.355V14.0324Z" fill="black"/>
</g>
<defs>
<clipPath id="clip0_113_6715">
<rect width="38" height="38" fill="white" transform="translate(3 3)"/>
</clipPath>
</defs>
</svg>
