<svg width="44" height="44" viewBox="0 0 44 44" fill="none" xmlns="http://www.w3.org/2000/svg">
<path d="M31.1408 9.72639C31.1408 10.1149 30.8257 10.4291 30.4381 10.4291C30.0505 10.4291 29.7354 10.114 29.7354 9.72639C29.7354 9.33879 30.0505 9.02368 30.4381 9.02368C30.8257 9.02368 31.1408 9.33786 31.1408 9.72639Z" fill="white"/>
<path d="M21.9999 12.4529C15.4087 12.4529 10.0464 17.8152 10.0464 24.4064C10.0464 31.0608 15.4515 36.3599 21.9999 36.3599C28.5613 36.3599 33.9534 31.0524 33.9534 24.4064C33.9534 17.8152 28.5911 12.4529 21.9999 12.4529ZM19.8351 34.7296C19.8704 34.5743 19.8899 34.4135 19.8908 34.2499V31.4493C19.889 30.4241 20.2469 30.2651 20.6558 29.6405C20.7869 29.4397 20.8073 29.1869 20.7097 28.9675C20.6122 28.7491 20.4086 28.5948 20.1716 28.5595C17.3821 28.143 16.2881 26.7051 15.8605 25.5729C15.2916 24.0643 15.5928 22.1821 16.5929 20.996C16.7454 20.8176 16.8811 20.4959 16.7723 20.1743C16.5585 19.5293 16.592 18.5003 16.7249 18.1015C17.331 18.1898 17.897 18.5337 18.5421 18.9251C18.9158 19.1519 19.1807 19.361 19.6324 19.2402C20.4216 19.0264 21.2182 18.9121 22.0018 18.9018C22.7844 18.9121 23.5819 19.0264 24.372 19.2402C24.821 19.361 25.0952 19.1472 25.4605 18.9251C26.1056 18.5337 26.6716 18.1898 27.2777 18.1015C27.4106 18.4994 27.4441 19.5293 27.2321 20.1688C27.1206 20.4959 27.2572 20.8176 27.4087 20.996C28.4089 22.1821 28.711 24.0643 28.1412 25.5729C27.7146 26.706 26.6196 28.143 23.8301 28.5595C23.5931 28.5948 23.3905 28.7491 23.2919 28.9675C23.1943 29.1869 23.2139 29.4397 23.3449 29.6405C23.753 30.2633 24.1118 30.4231 24.1099 31.4502V34.2537C24.1108 34.4154 24.1294 34.5753 24.1647 34.7296C23.4565 34.8774 22.7314 34.9536 21.9999 34.9536C21.2684 34.9536 20.5434 34.8774 19.8351 34.7296ZM25.5237 34.3494C25.519 34.3169 25.5163 34.2834 25.5163 34.2499V31.4512C25.5172 30.6444 25.3406 30.1192 25.1203 29.726C27.2544 29.1488 28.7751 27.8763 29.4565 26.0693C30.1759 24.161 29.8496 21.8791 28.6515 20.2998C28.8699 19.3387 28.8634 17.8208 28.3401 17.1311C28.1059 16.8225 27.7796 16.6617 27.418 16.6775C26.3184 16.7286 25.4716 17.277 24.5486 17.8338C23.7037 17.62 22.8513 17.5066 22.0092 17.4964C22.0036 17.4964 21.9981 17.4964 21.9925 17.4964C21.1503 17.5066 20.297 17.62 19.453 17.8338C18.5375 17.2817 17.6879 16.7286 16.5827 16.6775C16.223 16.6608 15.8949 16.8216 15.6606 17.1311C15.1383 17.8199 15.1308 19.3341 15.3502 20.2998C14.152 21.8791 13.8249 24.1619 14.5452 26.0702C15.2266 27.8772 16.7472 29.1506 18.8814 29.7269C18.7076 30.0374 18.5607 30.4315 18.5077 30.9799C17.6377 31.2839 16.9341 31.0831 16.4563 30.2781C15.8977 29.3384 14.9505 28.5799 13.8648 28.6729C13.4781 28.7063 13.1909 29.0475 13.2253 29.4341C13.2588 29.8208 13.6008 30.108 13.9866 30.0746C14.4895 30.0309 14.9849 30.5542 15.2479 30.9966C15.999 32.2626 17.2166 32.7153 18.4864 32.4439V34.2481C18.4864 34.2834 18.4826 34.3178 18.478 34.3513C14.3156 32.8743 11.4546 28.8653 11.4546 24.4083C11.4546 18.5923 16.1858 13.8611 22.0018 13.8611C27.8177 13.8611 32.5489 18.5923 32.5489 24.4083C32.5471 28.8634 29.686 32.8724 25.5237 34.3494Z" fill="white"/>
<path d="M35.5822 6H7.41776C5.53357 6 4 7.48975 4 9.32011V36.6799C4 38.5111 5.53357 40 7.41776 40H35.5822C37.4673 40 39 38.5103 39 36.6799V9.32011C39 7.48975 37.4664 6 35.5822 6ZM37.6327 36.6799C37.6327 37.7781 36.7128 38.6718 35.5822 38.6718H7.41776C6.28725 38.6718 5.36729 37.7781 5.36729 36.6799V9.32011C5.36729 8.2219 6.28725 7.32822 7.41776 7.32822H35.5822C36.7128 7.32822 37.6327 8.2219 37.6327 9.32011V36.6799Z" fill="white"/>
<path d="M13.5631 10.4301H27.6257C28.0142 10.4301 28.3284 10.115 28.3284 9.72737C28.3284 9.33976 28.0133 9.02466 27.6257 9.02466H13.5631C13.1745 9.02466 12.8604 9.33976 12.8604 9.72737C12.8604 10.115 13.1745 10.4301 13.5631 10.4301Z" fill="white"/>
</svg>
