<svg width="40" height="38" viewBox="0 0 40 38" fill="none" xmlns="http://www.w3.org/2000/svg">
<g clip-path="url(#clip0_113_6700)">
<path d="M7.94392 4.10187C6.5592 4.10187 5.43311 5.22796 5.43311 6.61206C5.43311 7.99616 6.5592 9.12225 7.94392 9.12225C9.32926 9.12225 10.4566 7.99616 10.4566 6.61206C10.4566 5.22796 9.32987 4.10187 7.94392 4.10187ZM7.94392 7.62492C7.38458 7.62492 6.92982 7.17078 6.92982 6.61206C6.92982 6.05335 7.38458 5.5992 7.94392 5.5992C8.50387 5.5992 8.95987 6.05335 8.95987 6.61206C8.95987 7.17078 8.50449 7.62492 7.94392 7.62492Z" fill="white" stroke="white" stroke-width="0.5"/>
<path d="M29.8984 4.10187H23.2613C21.8766 4.10187 20.7505 5.22796 20.7505 6.61206C20.7505 7.99616 21.8766 9.12225 23.2613 9.12225H29.8984C31.2832 9.12225 32.4092 7.99616 32.4092 6.61206C32.4092 5.22796 31.2832 4.10187 29.8984 4.10187ZM29.8984 7.62492H23.2613C22.702 7.62492 22.2472 7.17078 22.2472 6.61206C22.2472 6.05335 22.702 5.5992 23.2613 5.5992H29.8984C30.4578 5.5992 30.9125 6.05335 30.9125 6.61206C30.9125 7.17078 30.4578 7.62492 29.8984 7.62492Z" fill="white" stroke="white" stroke-width="0.5"/>
<path d="M14.4512 4.10187C13.0665 4.10187 11.9404 5.22796 11.9404 6.61206C11.9404 7.99616 13.0665 9.12225 14.4512 9.12225C15.8366 9.12225 16.9639 7.99616 16.9639 6.61206C16.9639 5.22796 15.8366 4.10187 14.4512 4.10187ZM14.4512 7.62492C13.8919 7.62492 13.4371 7.17078 13.4371 6.61206C13.4371 6.05335 13.8919 5.5992 14.4512 5.5992C15.0112 5.5992 15.4672 6.05335 15.4672 6.61206C15.4672 7.17078 15.0112 7.62492 14.4512 7.62492Z" fill="white" stroke="white" stroke-width="0.5"/>
<path d="M13.2309 16.5093C12.8287 16.4128 12.4253 16.6609 12.3288 17.0631L10.8438 23.2764C10.7479 23.6785 10.9961 24.0819 11.3976 24.1785C11.4564 24.1927 11.5145 24.1989 11.5721 24.1989C11.9105 24.1989 12.2174 23.9675 12.2991 23.6241L13.7841 17.4108C13.8806 17.0092 13.6325 16.6058 13.2309 16.5093Z" fill="white" stroke="white" stroke-width="0.5"/>
<path d="M15.9788 23.4484C16.1218 23.5752 16.2993 23.6377 16.4763 23.6377C16.6823 23.6377 16.8878 23.5529 17.0356 23.3871L19.1344 21.031C19.4809 20.6455 19.4809 20.0416 19.1362 19.6586L17.035 17.3C16.7597 16.9913 16.287 16.9641 15.9782 17.2388C15.6695 17.5135 15.6423 17.9868 15.917 18.2956L17.741 20.3429L15.917 22.391C15.6429 22.7003 15.6701 23.1736 15.9788 23.4484Z" fill="white" stroke="white" stroke-width="0.5"/>
<path d="M8.65008 17.24C8.34134 16.9653 7.86862 16.9925 7.59329 17.3013L5.49455 19.6568C5.14806 20.0423 5.14806 20.6461 5.49208 21.0291L7.59329 23.3877C7.74117 23.5536 7.94658 23.6383 8.15262 23.6383C8.32958 23.6383 8.50777 23.5758 8.65008 23.449C8.95883 23.1743 8.98605 22.7009 8.71134 22.3922L6.88732 20.3448L8.71134 18.2968C8.98667 17.9881 8.95883 17.5147 8.65008 17.24Z" fill="white" stroke="white" stroke-width="0.5"/>
<path d="M37.3226 25.1994H37.0448C36.8994 24.7279 36.7107 24.2725 36.4805 23.8382L36.6791 23.6389C36.9959 23.324 37.1704 22.9039 37.171 22.4553C37.1716 22.0061 36.9978 21.5835 36.6804 21.2667L36.2943 20.8806V4.9384C36.2937 2.70602 34.7184 0.890045 32.7817 0.890045H4.51192C2.57529 0.890045 1 2.70602 1 4.9384V25.8577C1 28.0901 2.57529 29.9061 4.51192 29.9061H8.90305C9.31637 29.9061 9.65172 29.5707 9.65172 29.1574C9.65172 28.7441 9.31637 28.4087 8.90305 28.4087H4.51192C3.41986 28.4087 2.49671 27.24 2.49671 25.8571V12.279H34.7963V19.8424C34.711 19.8294 34.625 19.8207 34.5365 19.8207C34.5359 19.8207 34.5346 19.8207 34.534 19.8207C34.0854 19.8214 33.6653 19.9958 33.3528 20.3102L33.1505 20.5119C32.7063 20.2774 32.2441 20.0862 31.767 19.9408V19.6741C31.767 18.7491 31.014 17.9967 30.089 17.9967H28.7346C27.8102 17.9967 27.0585 18.7491 27.0585 19.6741V19.9587C26.5907 20.106 26.1391 20.2947 25.7072 20.5249L25.5135 20.3318C25.1986 20.0156 24.7785 19.8405 24.3299 19.8399C24.3293 19.8399 24.328 19.8399 24.3274 19.8399C23.8788 19.8399 23.4575 20.0138 23.1413 20.33L22.1841 21.2865C21.8673 21.6033 21.6929 22.0253 21.6935 22.4751C21.6941 22.9237 21.8686 23.3438 22.1829 23.6563L22.3895 23.8635C22.1649 24.2917 21.9812 24.7384 21.8383 25.2H21.5543C20.6299 25.2 19.8781 25.9518 19.8781 26.8755V28.2312C19.8781 28.2912 19.8812 28.3512 19.8874 28.4094H15.534C15.1207 28.4094 14.7853 28.7447 14.7853 29.158C14.7853 29.5713 15.1207 29.9067 15.534 29.9067H21.5549H21.842C21.9867 30.3726 22.1736 30.823 22.4019 31.2543L22.1996 31.4554C21.5487 32.11 21.5493 33.173 22.2014 33.8245L23.1586 34.7817C23.4736 35.0978 23.8937 35.2729 24.3423 35.2736H24.3447C24.7933 35.2736 25.2147 35.0997 25.5308 34.7835L25.7313 34.5831C26.1663 34.8126 26.6186 34.9995 27.0839 35.1436V35.4332C27.0839 36.3582 27.8356 37.1106 28.76 37.1106H30.1163C31.0406 37.1106 31.7924 36.3582 31.7924 35.4332V35.1455C32.262 35.0007 32.7162 34.8126 33.1505 34.5831L33.3504 34.7817C33.6653 35.0978 34.0854 35.2729 34.534 35.2736H34.5365C34.9851 35.2736 35.4064 35.0997 35.7232 34.7829L36.6779 33.8264C36.9947 33.5114 37.1692 33.0913 37.1698 32.6427C37.1704 32.1935 36.9965 31.7709 36.6791 31.4541L36.4793 31.2543C36.707 30.823 36.8938 30.372 37.0386 29.9067H37.3214C38.2464 29.9067 38.9994 29.1549 38.9994 28.2312V26.8755C39.0006 25.9511 38.2476 25.1994 37.3226 25.1994ZM2.49671 10.7823V4.9384C2.49671 3.55554 3.41924 2.38676 4.51192 2.38676H32.7817C33.8738 2.38676 34.797 3.55554 34.797 4.9384V10.7817L2.49671 10.7823ZM37.5033 28.2312C37.5033 28.3265 37.4185 28.4094 37.322 28.4094H36.4663C36.1173 28.4094 35.8148 28.6507 35.7368 28.9903C35.5753 29.6957 35.2975 30.3645 34.9114 30.979C34.7258 31.2747 34.7691 31.6596 35.016 31.9064L35.6217 32.5115C35.6669 32.5567 35.6737 32.6105 35.6737 32.639C35.6737 32.6724 35.665 32.7219 35.6211 32.7652L34.6652 33.723C34.62 33.7682 34.5656 33.775 34.5371 33.775C34.5031 33.775 34.4542 33.7663 34.4103 33.7218L33.8027 33.1167C33.5552 32.8704 33.1709 32.8277 32.8758 33.0133C32.2608 33.4 31.5888 33.6785 30.8792 33.84C30.5388 33.9173 30.2969 34.2205 30.2969 34.5701V35.432C30.2969 35.5279 30.2134 35.6126 30.1181 35.6126H28.7619C28.6666 35.6126 28.583 35.5285 28.583 35.432V34.5682C28.583 34.2186 28.3405 33.9155 27.9996 33.8381C27.2986 33.6797 26.6278 33.4019 26.0066 33.0127C25.8841 32.936 25.7468 32.8989 25.61 32.8989C25.417 32.8989 25.2252 32.9737 25.0804 33.1179L24.4747 33.723C24.4295 33.7682 24.375 33.775 24.3466 33.775C24.3126 33.775 24.2637 33.7663 24.2204 33.723L23.2613 32.7646C23.1939 32.6978 23.1951 32.5784 23.2607 32.5128L23.8683 31.9077C24.1164 31.6602 24.1603 31.2741 23.9729 30.9777C23.5862 30.3658 23.3084 29.6969 23.1462 28.9903C23.0683 28.65 22.7657 28.4087 22.4168 28.4087H21.5567C21.4596 28.4087 21.3779 28.3271 21.3779 28.2305V26.8749C21.3779 26.7784 21.4602 26.6967 21.5567 26.6967H22.4149C22.7645 26.6967 23.0671 26.4548 23.145 26.1145C23.3046 25.4128 23.5794 24.7465 23.9605 24.1352C24.1449 23.84 24.101 23.457 23.8553 23.2102L23.2428 22.5958C23.2013 22.5543 23.1927 22.5054 23.1927 22.472C23.1927 22.4436 23.1995 22.3897 23.2446 22.3446L24.2012 21.388C24.2464 21.3428 24.3008 21.336 24.3293 21.336C24.3633 21.336 24.4122 21.3447 24.4561 21.3892L25.0594 21.9906C25.3075 22.2375 25.6929 22.2796 25.9881 22.0927C26.5994 21.7048 27.2695 21.4239 27.9792 21.2581C28.3176 21.1789 28.5571 20.8769 28.5571 20.5292V19.6735C28.5571 19.5757 28.6387 19.4928 28.7359 19.4928H30.0903C30.1886 19.4928 30.2716 19.5757 30.2716 19.6735V20.5162C30.2716 20.867 30.5147 21.1708 30.8575 21.2469C31.5697 21.4053 32.249 21.6856 32.877 22.0797C33.1722 22.2647 33.5558 22.222 33.8033 21.9758L34.4133 21.3682C34.4548 21.3267 34.5037 21.3181 34.5377 21.3175C34.5662 21.3175 34.6206 21.3243 34.6658 21.3694L35.623 22.326C35.6681 22.3712 35.6749 22.4256 35.6749 22.4535C35.6749 22.4869 35.6663 22.5364 35.6223 22.5797L35.0166 23.1873C34.7697 23.4348 34.727 23.8196 34.9139 24.1154C35.3012 24.7298 35.5803 25.4023 35.7424 26.1145C35.8197 26.4548 36.1229 26.6967 36.4725 26.6967H37.3245C37.421 26.6967 37.5058 26.7802 37.5058 26.8749L37.5033 28.2312Z" fill="white" stroke="white" stroke-width="0.5"/>
<path d="M29.44 22.9818C26.9181 22.9818 24.8657 25.0329 24.8657 27.5536C24.8657 30.0737 26.9174 32.1236 29.44 32.1236C31.9607 32.1236 34.0118 30.0737 34.0118 27.5536C34.0118 25.0329 31.9613 22.9818 29.44 22.9818ZM29.44 30.6269C27.7434 30.6269 26.3631 29.2484 26.3631 27.5536C26.3631 25.8583 27.7434 24.4786 29.44 24.4786C31.1353 24.4786 32.5151 25.8577 32.5151 27.5536C32.5151 29.2484 31.1353 30.6269 29.44 30.6269Z" fill="white" stroke="white" stroke-width="0.5"/>
<path d="M12.2411 28.4094H12.2262C11.8129 28.4094 11.4775 28.7447 11.4775 29.158C11.4775 29.5713 11.8129 29.9067 12.2262 29.9067H12.2411C12.6544 29.9067 12.9897 29.5713 12.9897 29.158C12.9897 28.7447 12.6544 28.4094 12.2411 28.4094Z" fill="white" stroke="white" stroke-width="0.5"/>
</g>
<defs>
<clipPath id="clip0_113_6700">
<rect width="40" height="38" fill="white"/>
</clipPath>
</defs>
</svg>
