<svg width="60" height="60" viewBox="0 0 60 60" fill="none" xmlns="http://www.w3.org/2000/svg">
<rect x="0.5" y="0.5" width="59" height="59" rx="7.5" fill="#E8F3FF"/>
<g clip-path="url(#clip0_113_6324)">
<path d="M42.0588 53.9262C40.2983 54.5408 38.374 53.6113 37.7594 51.8507L34.9639 43.8374C34.3493 42.0769 35.2789 40.1526 37.0394 39.538C38.7999 38.9234 40.7242 39.8529 41.3388 41.6135L44.1343 49.6268C44.7489 51.3873 43.8194 53.313 42.0588 53.9262Z" fill="#6AA1FF"/>
<path d="M17.941 53.9262C19.7015 54.5408 21.6258 53.6113 22.2404 51.8507L25.0359 43.8374C25.6505 42.0769 24.7209 40.1526 22.9604 39.538C21.1998 38.9234 19.2756 39.8529 18.661 41.6135L15.8641 49.6268C15.2509 51.3873 16.1804 53.313 17.941 53.9262Z" fill="#6AA1FF"/>
<path d="M30 45.8837C41.0457 45.8837 50 36.9294 50 25.8837C50 14.838 41.0457 5.88374 30 5.88374C18.9543 5.88374 10 14.838 10 25.8837C10 36.9294 18.9543 45.8837 30 45.8837Z" fill="#CC8585"/>
<path d="M30 45.8837C41.0457 45.8837 50 36.9294 50 25.8837C50 14.838 41.0457 5.88374 30 5.88374C18.9543 5.88374 10 14.838 10 25.8837C10 36.9294 18.9543 45.8837 30 45.8837Z" fill="url(#paint0_linear_113_6324)"/>
<path d="M30.0001 40.9947C38.3457 40.9947 45.1111 34.2293 45.1111 25.8837C45.1111 17.5382 38.3457 10.7728 30.0001 10.7728C21.6546 10.7728 14.8892 17.5382 14.8892 25.8837C14.8892 34.2293 21.6546 40.9947 30.0001 40.9947Z" fill="#BA5656"/>
<path d="M30.0001 40.9947C38.3457 40.9947 45.1111 34.2293 45.1111 25.8837C45.1111 17.5382 38.3457 10.7728 30.0001 10.7728C21.6546 10.7728 14.8892 17.5382 14.8892 25.8837C14.8892 34.2293 21.6546 40.9947 30.0001 40.9947Z" fill="url(#paint1_linear_113_6324)"/>
<path d="M29.9998 15.1984C24.098 15.1984 19.3145 19.982 19.3145 25.8837C19.3145 31.7855 24.098 36.5691 29.9998 36.5691C35.9016 36.5691 40.6852 31.7855 40.6852 25.8837C40.6852 19.982 35.9016 15.1984 29.9998 15.1984ZM29.9998 30.0125C27.719 30.0125 25.8711 28.1645 25.8711 25.8837C25.8711 23.6029 27.719 21.755 29.9998 21.755C32.2806 21.755 34.1285 23.6029 34.1285 25.8837C34.1285 28.1632 32.2792 30.0125 29.9998 30.0125Z" fill="#F4A8A8"/>
<path d="M29.9998 15.1984C24.098 15.1984 19.3145 19.982 19.3145 25.8837C19.3145 31.7855 24.098 36.5691 29.9998 36.5691C35.9016 36.5691 40.6852 31.7855 40.6852 25.8837C40.6852 19.982 35.9016 15.1984 29.9998 15.1984ZM29.9998 30.0125C27.719 30.0125 25.8711 28.1645 25.8711 25.8837C25.8711 23.6029 27.719 21.755 29.9998 21.755C32.2806 21.755 34.1285 23.6029 34.1285 25.8837C34.1285 28.1632 32.2792 30.0125 29.9998 30.0125Z" fill="url(#paint2_linear_113_6324)"/>
</g>
<rect x="0.5" y="0.5" width="59" height="59" rx="7.5" stroke="url(#paint3_linear_113_6324)"/>
<defs>
<linearGradient id="paint0_linear_113_6324" x1="45.8333" y1="38.2596" x2="19.0018" y2="5.49499" gradientUnits="userSpaceOnUse">
<stop stop-color="#165DFF"/>
<stop offset="1" stop-color="#6AA1FF"/>
</linearGradient>
<linearGradient id="paint1_linear_113_6324" x1="41.963" y1="35.2343" x2="21.6905" y2="10.479" gradientUnits="userSpaceOnUse">
<stop stop-color="#165DFF"/>
<stop offset="1" stop-color="#6AA1FF"/>
</linearGradient>
<linearGradient id="paint2_linear_113_6324" x1="29.9998" y1="36.5696" x2="29.9998" y2="15.202" gradientUnits="userSpaceOnUse">
<stop stop-color="#BEDAFF"/>
<stop offset="0.9973" stop-color="white"/>
</linearGradient>
<linearGradient id="paint3_linear_113_6324" x1="30" y1="0" x2="30" y2="60" gradientUnits="userSpaceOnUse">
<stop stop-color="#BEDAFF"/>
<stop offset="1" stop-color="white"/>
</linearGradient>
<clipPath id="clip0_113_6324">
<rect width="40" height="48.2325" fill="white" transform="translate(10 5.88374)"/>
</clipPath>
</defs>
</svg>
