<svg width="48" height="49" viewBox="0 0 48 49" fill="none" xmlns="http://www.w3.org/2000/svg">
<rect x="0.4" y="0.9" width="47.2" height="47.2" rx="6" fill="#E8F3FF"/>
<g clip-path="url(#clip0_113_6609)">
<path d="M27.3663 17.2751H20.617C18.492 17.2751 16.7578 18.9921 16.7578 21.1344V27.8836C16.7578 30.0086 18.4748 31.7428 20.617 31.7428H27.3663C29.4913 31.7428 31.2255 30.0259 31.2255 27.8836V21.1344C31.2248 18.9921 29.5078 17.2751 27.3663 17.2751Z" fill="url(#paint0_linear_113_6609)"/>
<path d="M27.3663 17.2751H20.617C18.492 17.2751 16.7578 18.9921 16.7578 21.1344V27.8836C16.7578 30.0086 18.4748 31.7428 20.617 31.7428H27.3663C29.4913 31.7428 31.2255 30.0259 31.2255 27.8836V21.1344C31.2248 18.9921 29.5078 17.2751 27.3663 17.2751Z" fill="url(#paint1_linear_113_6609)"/>
<path d="M26.5501 26.166L25.0372 28.801C24.8159 29.1918 24.4078 29.3958 23.9998 29.3958C23.7958 29.3958 23.5745 29.3448 23.405 29.2428C22.8267 28.9195 22.6226 28.1889 22.9632 27.6106L24.0508 25.7234H23.0989C22.3339 25.7234 21.7053 25.3836 21.3647 24.8053C21.0249 24.227 21.0587 23.5136 21.4495 22.8506L22.9624 20.2155C23.3022 19.6372 24.0336 19.4504 24.5946 19.7737C25.1729 20.097 25.377 20.8276 25.0364 21.4059L23.948 23.2931H24.8999C25.665 23.2931 26.2936 23.6329 26.6341 24.2112C26.9747 24.7895 26.9409 25.5029 26.5501 26.166Z" fill="white"/>
<path d="M26.5501 26.166L25.0372 28.801C24.8159 29.1918 24.4078 29.3958 23.9998 29.3958C23.7958 29.3958 23.5745 29.3448 23.405 29.2428C22.8267 28.9195 22.6226 28.1889 22.9632 27.6106L24.0508 25.7234H23.0989C22.3339 25.7234 21.7053 25.3836 21.3647 24.8053C21.0249 24.227 21.0587 23.5136 21.4495 22.8506L22.9624 20.2155C23.3022 19.6372 24.0336 19.4504 24.5946 19.7737C25.1729 20.097 25.377 20.8276 25.0364 21.4059L23.948 23.2931H24.8999C25.665 23.2931 26.2936 23.6329 26.6341 24.2112C26.9747 24.7895 26.9409 25.5029 26.5501 26.166Z" fill="url(#paint2_linear_113_6609)"/>
<path d="M39.7248 25.7752C40.4389 25.7752 41 25.1968 41 24.5C41 23.7859 40.4389 23.2248 39.7248 23.2248H37.5999V19.4849H39.7248C40.4389 19.4849 41 18.9238 41 18.2098C41 17.5129 40.4389 16.9346 39.7248 16.9346H37.2091C36.393 14.2313 34.268 12.1063 31.5654 11.2909V8.77515C31.5654 8.07832 30.9871 7.5 30.2902 7.5C29.5934 7.5 29.0151 8.07832 29.0151 8.77515V10.9002H25.2752V8.77515C25.2752 8.07832 24.6968 7.5 24 7.5C23.3032 7.5 22.7248 8.07832 22.7248 8.77515V10.9002H19.0022V8.77515C19.0022 8.07832 18.4238 7.5 17.727 7.5C17.0129 7.5 16.4519 8.07832 16.4519 8.77515V11.2909C13.732 12.107 11.607 14.232 10.7909 16.9346H8.27515C7.57832 16.9346 7 17.5129 7 18.2098C7 18.9238 7.57832 19.4849 8.27515 19.4849H10.4002V23.2248H8.27515C7.57832 23.2248 7 23.7859 7 24.5C7 25.1968 7.57832 25.7752 8.27515 25.7752H10.4002V29.5151H8.27515C7.57832 29.5151 7 30.0762 7 30.7902C7 31.4871 7.57832 32.0654 8.27515 32.0654H10.7909C11.5898 34.7687 13.732 36.8937 16.4519 37.7091V40.2248C16.4519 40.9217 17.0129 41.5 17.727 41.5C18.4238 41.5 19.0022 40.9217 19.0022 40.2248V38.0999H22.7421V40.2248C22.7421 40.9217 23.3032 41.5 24.0173 41.5C24.7141 41.5 25.2924 40.9217 25.2924 40.2248V38.0999H29.0151V40.2248C29.0151 40.9217 29.5934 41.5 30.2902 41.5C30.9871 41.5 31.5654 40.9217 31.5654 40.2248V37.7091C34.2687 36.893 36.3937 34.768 37.2091 32.0654H39.7248C40.4389 32.0654 41 31.4871 41 30.7902C41 30.0762 40.4389 29.5151 39.7248 29.5151H37.5999V25.7752H39.7248ZM32.9418 28.342C32.9418 31.1473 30.6465 33.4418 27.842 33.4418H20.158C17.3527 33.4418 15.0582 31.1465 15.0582 28.342V20.658C15.0582 17.8527 17.3535 15.5582 20.158 15.5582H27.842C30.6473 15.5582 32.9418 17.8535 32.9418 20.658V28.342Z" fill="url(#paint3_linear_113_6609)"/>
<path d="M39.7248 25.7752C40.4389 25.7752 41 25.1968 41 24.5C41 23.7859 40.4389 23.2248 39.7248 23.2248H37.5999V19.4849H39.7248C40.4389 19.4849 41 18.9238 41 18.2098C41 17.5129 40.4389 16.9346 39.7248 16.9346H37.2091C36.393 14.2313 34.268 12.1063 31.5654 11.2909V8.77515C31.5654 8.07832 30.9871 7.5 30.2902 7.5C29.5934 7.5 29.0151 8.07832 29.0151 8.77515V10.9002H25.2752V8.77515C25.2752 8.07832 24.6968 7.5 24 7.5C23.3032 7.5 22.7248 8.07832 22.7248 8.77515V10.9002H19.0022V8.77515C19.0022 8.07832 18.4238 7.5 17.727 7.5C17.0129 7.5 16.4519 8.07832 16.4519 8.77515V11.2909C13.732 12.107 11.607 14.232 10.7909 16.9346H8.27515C7.57832 16.9346 7 17.5129 7 18.2098C7 18.9238 7.57832 19.4849 8.27515 19.4849H10.4002V23.2248H8.27515C7.57832 23.2248 7 23.7859 7 24.5C7 25.1968 7.57832 25.7752 8.27515 25.7752H10.4002V29.5151H8.27515C7.57832 29.5151 7 30.0762 7 30.7902C7 31.4871 7.57832 32.0654 8.27515 32.0654H10.7909C11.5898 34.7687 13.732 36.8937 16.4519 37.7091V40.2248C16.4519 40.9217 17.0129 41.5 17.727 41.5C18.4238 41.5 19.0022 40.9217 19.0022 40.2248V38.0999H22.7421V40.2248C22.7421 40.9217 23.3032 41.5 24.0173 41.5C24.7141 41.5 25.2924 40.9217 25.2924 40.2248V38.0999H29.0151V40.2248C29.0151 40.9217 29.5934 41.5 30.2902 41.5C30.9871 41.5 31.5654 40.9217 31.5654 40.2248V37.7091C34.2687 36.893 36.3937 34.768 37.2091 32.0654H39.7248C40.4389 32.0654 41 31.4871 41 30.7902C41 30.0762 40.4389 29.5151 39.7248 29.5151H37.5999V25.7752H39.7248ZM32.9418 28.342C32.9418 31.1473 30.6465 33.4418 27.842 33.4418H20.158C17.3527 33.4418 15.0582 31.1465 15.0582 28.342V20.658C15.0582 17.8527 17.3535 15.5582 20.158 15.5582H27.842C30.6473 15.5582 32.9418 17.8535 32.9418 20.658V28.342Z" fill="url(#paint4_linear_113_6609)"/>
</g>
<rect x="0.4" y="0.9" width="47.2" height="47.2" rx="6" stroke="url(#paint5_linear_113_6609)" stroke-width="0.8"/>
<defs>
<linearGradient id="paint0_linear_113_6609" x1="23.9915" y1="41.5171" x2="23.9915" y2="7.51699" gradientUnits="userSpaceOnUse">
<stop stop-color="#FD5394"/>
<stop offset="1" stop-color="#8100E4"/>
</linearGradient>
<linearGradient id="paint1_linear_113_6609" x1="29.7185" y1="28.9852" x2="20.0137" y2="17.1345" gradientUnits="userSpaceOnUse">
<stop stop-color="#165DFF"/>
<stop offset="1" stop-color="#6AA1FF"/>
</linearGradient>
<linearGradient id="paint2_linear_113_6609" x1="23.9997" y1="29.3961" x2="23.9997" y2="19.6177" gradientUnits="userSpaceOnUse">
<stop stop-color="#BEDAFF"/>
<stop offset="0.9973" stop-color="white"/>
</linearGradient>
<linearGradient id="paint3_linear_113_6609" x1="24.0001" y1="7.50014" x2="24.0001" y2="41.5001" gradientUnits="userSpaceOnUse">
<stop stop-color="#FD5394"/>
<stop offset="1" stop-color="#8100E4"/>
</linearGradient>
<linearGradient id="paint4_linear_113_6609" x1="37.4583" y1="35.0194" x2="14.6516" y2="7.16956" gradientUnits="userSpaceOnUse">
<stop stop-color="#165DFF"/>
<stop offset="1" stop-color="#6AA1FF"/>
</linearGradient>
<linearGradient id="paint5_linear_113_6609" x1="24" y1="0.5" x2="24" y2="48.5" gradientUnits="userSpaceOnUse">
<stop stop-color="#BEDAFF"/>
<stop offset="1" stop-color="white"/>
</linearGradient>
<clipPath id="clip0_113_6609">
<rect width="34" height="34" fill="white" transform="translate(7 7.5)"/>
</clipPath>
</defs>
</svg>
