<svg width="44" height="44" viewBox="0 0 44 44" fill="none" xmlns="http://www.w3.org/2000/svg">
<g clip-path="url(#clip0_113_6150)">
<path d="M31.3783 37.764H6.4378C3.98686 37.764 2 35.7783 2 33.3273V8.38678C2 5.93584 3.98686 3.94897 6.4378 3.94897H31.3783C33.8293 3.94897 35.8162 5.93584 35.8162 8.38678V33.3273C35.8151 35.7783 33.8293 37.764 31.3783 37.764Z" fill="#165DFF"/>
<path d="M8.77783 12.5063H29.0381" stroke="white" stroke-width="3" stroke-miterlimit="10" stroke-linecap="round" stroke-linejoin="round"/>
<path d="M8.77783 20.6985H23.3079" stroke="white" stroke-width="3" stroke-miterlimit="10" stroke-linecap="round" stroke-linejoin="round"/>
<path d="M8.77783 29.2065H20.2975" stroke="white" stroke-width="3" stroke-miterlimit="10" stroke-linecap="round" stroke-linejoin="round"/>
<g filter="url(#filter0_b_113_6150)">
<path d="M32.1623 40.0517C37.2727 40.0517 41.4155 35.9089 41.4155 30.7986C41.4155 25.6882 37.2727 21.5454 32.1623 21.5454C27.052 21.5454 22.9092 25.6882 22.9092 30.7986C22.9092 35.9089 27.052 40.0517 32.1623 40.0517Z" fill="#BEDAFF" fill-opacity="0.5"/>
</g>
<path d="M28.3638 31.1064L30.6798 33.2765L35.5926 28.3636" stroke="white" stroke-width="3" stroke-miterlimit="10" stroke-linecap="round" stroke-linejoin="round"/>
</g>
<defs>
<filter id="filter0_b_113_6150" x="19.3314" y="17.9676" width="25.662" height="25.662" filterUnits="userSpaceOnUse" color-interpolation-filters="sRGB">
<feFlood flood-opacity="0" result="BackgroundImageFix"/>
<feGaussianBlur in="BackgroundImage" stdDeviation="1.78891"/>
<feComposite in2="SourceAlpha" operator="in" result="effect1_backgroundBlur_113_6150"/>
<feBlend mode="normal" in="SourceGraphic" in2="effect1_backgroundBlur_113_6150" result="shape"/>
</filter>
<clipPath id="clip0_113_6150">
<rect width="40" height="37.2727" fill="white" transform="translate(2 3.36365)"/>
</clipPath>
</defs>
</svg>
