<svg width="60" height="61" viewBox="0 0 60 61" fill="none" xmlns="http://www.w3.org/2000/svg">
<g clip-path="url(#clip0_113_6184)">
<path d="M26.1328 36.9453C27.5567 36.9453 28.7109 35.791 28.7109 34.3672C28.7109 32.9433 27.5567 31.7891 26.1328 31.7891C24.709 31.7891 23.5547 32.9433 23.5547 34.3672C23.5547 35.791 24.709 36.9453 26.1328 36.9453Z" fill="#165DFF"/>
<path d="M33.8672 36.9453C35.291 36.9453 36.4453 35.791 36.4453 34.3672C36.4453 32.9433 35.291 31.7891 33.8672 31.7891C32.4433 31.7891 31.2891 32.9433 31.2891 34.3672C31.2891 35.791 32.4433 36.9453 33.8672 36.9453Z" fill="#165DFF"/>
<path d="M44.0654 18.9732C43.4956 15.9972 40.8737 13.7422 37.7344 13.7422C37.5066 13.7422 37.278 13.7568 37.0434 13.786C34.8761 10.5032 31.2684 8.5 27.4219 8.5C21.4295 8.5 16.4829 13.1002 15.8813 18.9801C11.4375 19.5756 8 23.3586 8 27.9219C8 32.8977 12.0863 36.9453 17.1094 36.9445H18.6219C18.4775 37.3527 18.3984 37.7875 18.3984 38.2344C18.3984 40.3665 20.1335 42.1016 22.2656 42.1016H23.5547V47.3438H18.1767C17.6448 45.8433 16.2122 44.7656 14.5312 44.7656C12.3991 44.7656 10.6641 46.5007 10.6641 48.6328C10.6641 50.7649 12.3991 52.5 14.5312 52.5C16.2122 52.5 17.6448 51.4223 18.1767 49.9219H24.8438C25.5553 49.9219 26.1328 49.3444 26.1328 48.6328V47.3438H28.7109V51.2109C28.7109 51.9225 29.2884 52.5 30 52.5C30.7116 52.5 31.2891 51.9225 31.2891 51.2109V47.3438H33.8672V48.6328C33.8672 49.3444 34.4447 49.9219 35.1562 49.9219H41.8233C42.3552 51.4223 43.7878 52.5 45.4688 52.5C47.6009 52.5 49.3359 50.7649 49.3359 48.6328C49.3359 46.5007 47.6009 44.7656 45.4688 44.7656C43.7887 44.7656 42.3552 45.8433 41.8233 47.3438H36.4453C36.4453 45.6645 36.4453 43.7473 36.4453 42.1016H37.7344C39.8665 42.1016 41.6016 40.3665 41.6016 38.2344C41.6016 37.7875 41.5234 37.3527 41.3781 36.9453H42.8906C47.9137 36.9453 52 32.8977 52 27.9219C52 23.3405 48.535 19.5455 44.0654 18.9732ZM14.5312 49.9219C13.8205 49.9219 13.2422 49.3435 13.2422 48.6328C13.2422 47.9221 13.8205 47.3438 14.5312 47.3438C15.242 47.3438 15.8203 47.9221 15.8203 48.6328C15.8203 49.3435 15.242 49.9219 14.5312 49.9219ZM45.4688 47.3438C46.1795 47.3438 46.7578 47.9221 46.7578 48.6328C46.7578 49.3435 46.1795 49.9219 45.4688 49.9219C44.758 49.9219 44.1797 49.3435 44.1797 48.6328C44.1797 47.9221 44.758 47.3438 45.4688 47.3438ZM37.7344 39.5234H35.1562C34.4447 39.5234 33.8672 40.1009 33.8672 40.8125V44.7656H31.2891V40.8125C31.2891 40.1009 30.7116 39.5234 30 39.5234C29.2884 39.5234 28.7109 40.1009 28.7109 40.8125V44.7656H26.1328V40.8125C26.1328 40.1009 25.5553 39.5234 24.8438 39.5234H22.2656C21.5549 39.5234 20.9766 38.9451 20.9766 38.2344C20.9766 37.7256 21.2816 37.2633 21.7534 37.057C22.0955 36.9075 22.3559 36.617 22.4667 36.2613C22.5776 35.9055 22.5303 35.5188 22.3344 35.2008C21.4466 33.7553 20.9766 32.1294 20.9766 30.5C20.9766 25.5242 25.0242 21.4766 30 21.4766C34.9758 21.4766 39.0234 25.5242 39.0234 30.5C39.0234 32.1294 38.5534 33.7553 37.6648 35.2008C37.4697 35.5188 37.4216 35.9055 37.5324 36.2613C37.6433 36.617 37.9045 36.9075 38.2457 37.057C38.7175 37.2633 39.0226 37.7256 39.0226 38.2344C39.0234 38.9451 38.4451 39.5234 37.7344 39.5234ZM42.8906 34.3672H40.9149C41.367 33.1202 41.6016 31.8131 41.6016 30.5C41.6016 24.1028 36.3972 18.8984 30 18.8984C23.6028 18.8984 18.3984 24.1028 18.3984 30.5C18.3984 31.8131 18.633 33.1202 19.0851 34.3672H17.1094C13.5077 34.3672 10.5781 31.4762 10.5781 27.9219C10.5781 24.3675 13.5077 21.4766 17.1094 21.4766C17.8209 21.4766 18.3984 20.8991 18.3984 20.1875C18.3984 15.1645 22.4461 11.0781 27.4219 11.0781C30.6402 11.0781 33.6515 12.906 35.2817 15.8494C35.5679 16.3667 36.1703 16.6228 36.7418 16.4707C37.1242 16.3676 37.4405 16.3203 37.7344 16.3203C39.8665 16.3203 41.6016 18.0554 41.6016 20.1875C41.6016 20.8991 42.1791 21.4766 42.8906 21.4766C46.4923 21.4766 49.4219 24.3684 49.4219 27.9219C49.4219 31.4754 46.4923 34.3672 42.8906 34.3672Z" fill="black"/>
</g>
<defs>
<clipPath id="clip0_113_6184">
<rect width="44" height="44" fill="white" transform="translate(8 8.5)"/>
</clipPath>
</defs>
</svg>
