<svg width="60" height="61" viewBox="0 0 60 61" fill="none" xmlns="http://www.w3.org/2000/svg">
<path d="M42.2635 28.8472H17.7363C16.4953 28.8472 15.4912 27.843 15.4912 26.602V12.6649C15.4912 11.4239 16.4953 10.4198 17.7363 10.4198H42.2635C43.5045 10.4198 44.5086 11.4239 44.5086 12.6649V26.602C44.5086 27.843 43.5045 28.8472 42.2635 28.8472Z" stroke="#1D2129" stroke-width="3" stroke-miterlimit="10" stroke-linecap="round" stroke-linejoin="round"/>
<path d="M37.8745 43.0663H51.4957" stroke="#1D2129" stroke-width="3" stroke-miterlimit="10" stroke-linecap="round" stroke-linejoin="round"/>
<path d="M9 43.0362H22.4858" stroke="#1D2129" stroke-width="3" stroke-miterlimit="10" stroke-linecap="round" stroke-linejoin="round"/>
<path d="M30.1048 50.5839C34.2733 50.5839 37.6525 47.2047 37.6525 43.0362C37.6525 38.8677 34.2733 35.4885 30.1048 35.4885C25.9363 35.4885 22.5571 38.8677 22.5571 43.0362C22.5571 47.2047 25.9363 50.5839 30.1048 50.5839Z" stroke="#165DFF" stroke-width="3" stroke-miterlimit="10" stroke-linecap="round" stroke-linejoin="round"/>
</svg>
