<svg width="60" height="61" viewBox="0 0 60 61" fill="none" xmlns="http://www.w3.org/2000/svg">
<g clip-path="url(#clip0_113_6229)">
<path d="M30.1228 40.2166L30.1191 29.3638" stroke="#165DFF" stroke-width="3" stroke-miterlimit="2" stroke-linecap="round" stroke-linejoin="round"/>
<path d="M34.2051 32.1596L30.1193 28.3239L26.0298 32.1596" stroke="#165DFF" stroke-width="3" stroke-miterlimit="2" stroke-linecap="round" stroke-linejoin="round"/>
<path d="M30.1193 50.8731C22.9856 50.8731 17.2017 45.4433 17.2017 38.7464V29.7942C17.2017 23.0972 22.9856 17.6674 30.1193 17.6674C37.253 17.6674 43.037 23.0972 43.037 29.7942V38.7464C43.037 45.4433 37.253 50.8731 30.1193 50.8731Z" stroke="#1D2129" stroke-width="3" stroke-miterlimit="10" stroke-linecap="round" stroke-linejoin="round"/>
<path d="M43.0444 34.1188H50.4935" stroke="#1D2129" stroke-width="3" stroke-miterlimit="10" stroke-linecap="round" stroke-linejoin="round"/>
<path d="M41.7529 24.6501H50.4931" stroke="#1D2129" stroke-width="3" stroke-miterlimit="10" stroke-linecap="round" stroke-linejoin="round"/>
<path d="M42 43.5875H46.123H50.4931" stroke="#1D2129" stroke-width="3" stroke-miterlimit="10" stroke-linecap="round" stroke-linejoin="round"/>
<path d="M16.956 34.1188H9.50684" stroke="#1D2129" stroke-width="3" stroke-miterlimit="10" stroke-linecap="round" stroke-linejoin="round"/>
<path d="M18.247 24.6501H9.50684" stroke="#1D2129" stroke-width="3" stroke-miterlimit="10" stroke-linecap="round" stroke-linejoin="round"/>
<path d="M18.247 43.5875H9.50684" stroke="#1D2129" stroke-width="3" stroke-miterlimit="10" stroke-linecap="round" stroke-linejoin="round"/>
<path d="M32 17.3572L39.8204 10.1269" stroke="#1D2129" stroke-width="3" stroke-miterlimit="10" stroke-linecap="round" stroke-linejoin="round"/>
<path d="M21.6689 10.1269L25.2303 13.4427" stroke="#1D2129" stroke-width="3" stroke-miterlimit="10" stroke-linecap="round" stroke-linejoin="round"/>
</g>
<defs>
<clipPath id="clip0_113_6229">
<rect width="44" height="44" fill="white" transform="translate(8 8.5)"/>
</clipPath>
</defs>
</svg>
