<svg width="44" height="45" viewBox="0 0 44 45" fill="none" xmlns="http://www.w3.org/2000/svg">
<g clip-path="url(#clip0_290_7532)">
<path d="M36.209 15.4926H21.5806C18.3825 15.4926 15.79 18.085 15.79 21.2832V35.9116C15.79 39.1097 18.3825 41.7022 21.5806 41.7022H36.209C39.4072 41.7022 41.9997 39.1097 41.9997 35.9116V21.2826C41.9997 18.085 39.4072 15.4926 36.209 15.4926Z" fill="#165DFF"/>
<g filter="url(#filter0_b_290_7532)">
<path d="M27.5768 4.10205H9.25339C5.24717 4.10205 2 7.34922 2 11.3554V29.6794C2 33.6851 5.24717 36.9328 9.25339 36.9328H27.5774C31.583 36.9328 34.8308 33.6856 34.8308 29.6794V11.3554C34.8302 7.34922 31.583 4.10205 27.5768 4.10205Z" fill="#BEDAFF" fill-opacity="0.5"/>
</g>
<path d="M27.5765 13.0908H22.9956C22.2689 13.0908 21.6775 13.6822 21.6775 14.4089C21.6775 15.1357 22.2689 15.7271 22.9956 15.7271H24.3927L19.7669 20.3477L16.0915 17.893C15.5711 17.5472 14.8719 17.6169 14.4293 18.0584L8.32113 24.1666C8.07272 24.415 7.93612 24.7458 7.93555 25.0968C7.93497 25.8236 8.52573 26.4155 9.25251 26.4161C9.25366 26.4161 9.25482 26.4161 9.25539 26.4161C9.60178 26.4161 9.94068 26.2749 10.1845 26.0294L15.5353 20.686L19.2107 23.1407C19.7317 23.4865 20.4309 23.4173 20.8729 22.9753L26.2584 17.5898V18.9898C26.2584 19.7166 26.8497 20.3079 27.5765 20.3079C28.3033 20.3079 28.8946 19.7166 28.8946 18.9898V14.4089C28.8946 13.6822 28.3033 13.0908 27.5765 13.0908Z" fill="#165DFF"/>
</g>
<defs>
<filter id="filter0_b_290_7532" x="-2" y="0.102051" width="40.8311" height="40.8308" filterUnits="userSpaceOnUse" color-interpolation-filters="sRGB">
<feFlood flood-opacity="0" result="BackgroundImageFix"/>
<feGaussianBlur in="BackgroundImage" stdDeviation="2"/>
<feComposite in2="SourceAlpha" operator="in" result="effect1_backgroundBlur_290_7532"/>
<feBlend mode="normal" in="SourceGraphic" in2="effect1_backgroundBlur_290_7532" result="shape"/>
</filter>
<clipPath id="clip0_290_7532">
<rect width="40" height="37.6001" fill="white" transform="translate(2 4.10205)"/>
</clipPath>
</defs>
</svg>
