<svg width="80" height="80" viewBox="0 0 80 80" fill="none" xmlns="http://www.w3.org/2000/svg">
<rect x="0.666667" y="0.666667" width="78.6667" height="78.6667" rx="10" fill="#E8F3FF"/>
<g clip-path="url(#clip0_113_6402)">
<path d="M20.335 30.6778H59.665V49.3231H20.335V30.6778Z" fill="#2C3135"/>
<path d="M20.335 30.6778H59.665V49.3231H20.335V30.6778Z" fill="url(#paint0_linear_113_6402)"/>
<path d="M61.62 60.6147H18.38C17.6181 60.6147 17 59.9965 17 59.2347V45.5676C17 44.8057 17.6181 44.1876 18.38 44.1876H61.62C62.3819 44.1876 63 44.8057 63 45.5676V59.2347C63 59.9965 62.3819 60.6147 61.62 60.6147Z" fill="#40474C"/>
<path d="M61.62 60.6147H18.38C17.6181 60.6147 17 59.9965 17 59.2347V45.5676C17 44.8057 17.6181 44.1876 18.38 44.1876H61.62C62.3819 44.1876 63 44.8057 63 45.5676V59.2347C63 59.9965 62.3819 60.6147 61.62 60.6147Z" fill="url(#paint1_linear_113_6402)"/>
<path d="M23.2417 54.8664C24.6032 54.8664 25.707 53.7627 25.707 52.4011C25.707 51.0396 24.6032 49.9358 23.2417 49.9358C21.8801 49.9358 20.7764 51.0396 20.7764 52.4011C20.7764 53.7627 21.8801 54.8664 23.2417 54.8664Z" fill="#FCE34F"/>
<path d="M23.2417 54.8664C24.6032 54.8664 25.707 53.7627 25.707 52.4011C25.707 51.0396 24.6032 49.9358 23.2417 49.9358C21.8801 49.9358 20.7764 51.0396 20.7764 52.4011C20.7764 53.7627 21.8801 54.8664 23.2417 54.8664Z" fill="url(#paint2_linear_113_6402)"/>
<path d="M31.5459 54.8664C32.9074 54.8664 34.0112 53.7627 34.0112 52.4011C34.0112 51.0396 32.9074 49.9358 31.5459 49.9358C30.1843 49.9358 29.0806 51.0396 29.0806 52.4011C29.0806 53.7627 30.1843 54.8664 31.5459 54.8664Z" fill="#FCE34F"/>
<path d="M31.5459 54.8664C32.9074 54.8664 34.0112 53.7627 34.0112 52.4011C34.0112 51.0396 32.9074 49.9358 31.5459 49.9358C30.1843 49.9358 29.0806 51.0396 29.0806 52.4011C29.0806 53.7627 30.1843 54.8664 31.5459 54.8664Z" fill="url(#paint3_linear_113_6402)"/>
<path d="M61.62 35.8124H18.38C17.6181 35.8124 17 35.1942 17 34.4324V20.7653C17 20.0035 17.6181 19.3853 18.38 19.3853H61.62C62.3819 19.3853 63 20.0035 63 20.7653V34.4324C63 35.1942 62.3819 35.8124 61.62 35.8124Z" fill="#40474C"/>
<path d="M61.62 35.8124H18.38C17.6181 35.8124 17 35.1942 17 34.4324V20.7653C17 20.0035 17.6181 19.3853 18.38 19.3853H61.62C62.3819 19.3853 63 20.0035 63 20.7653V34.4324C63 35.1942 62.3819 35.8124 61.62 35.8124Z" fill="url(#paint4_linear_113_6402)"/>
<path d="M23.2417 30.0642C24.6032 30.0642 25.707 28.9604 25.707 27.5989C25.707 26.2373 24.6032 25.1335 23.2417 25.1335C21.8801 25.1335 20.7764 26.2373 20.7764 27.5989C20.7764 28.9604 21.8801 30.0642 23.2417 30.0642Z" fill="#FCE34F"/>
<path d="M23.2417 30.0642C24.6032 30.0642 25.707 28.9604 25.707 27.5989C25.707 26.2373 24.6032 25.1335 23.2417 25.1335C21.8801 25.1335 20.7764 26.2373 20.7764 27.5989C20.7764 28.9604 21.8801 30.0642 23.2417 30.0642Z" fill="url(#paint5_linear_113_6402)"/>
<path d="M31.5459 30.0642C32.9074 30.0642 34.0112 28.9604 34.0112 27.5989C34.0112 26.2373 32.9074 25.1335 31.5459 25.1335C30.1843 25.1335 29.0806 26.2373 29.0806 27.5989C29.0806 28.9604 30.1843 30.0642 31.5459 30.0642Z" fill="#FCE34F"/>
<path d="M31.5459 30.0642C32.9074 30.0642 34.0112 28.9604 34.0112 27.5989C34.0112 26.2373 32.9074 25.1335 31.5459 25.1335C30.1843 25.1335 29.0806 26.2373 29.0806 27.5989C29.0806 28.9604 30.1843 30.0642 31.5459 30.0642Z" fill="url(#paint6_linear_113_6402)"/>
</g>
<rect x="0.666667" y="0.666667" width="78.6667" height="78.6667" rx="10" stroke="url(#paint7_linear_113_6402)" stroke-width="1.33333"/>
<defs>
<linearGradient id="paint0_linear_113_6402" x1="59.5925" y1="44.6852" x2="19.5555" y2="35.7408" gradientUnits="userSpaceOnUse">
<stop stop-color="#BEDAFF"/>
<stop offset="0.9973" stop-color="white"/>
</linearGradient>
<linearGradient id="paint1_linear_113_6402" x1="58.2083" y1="57.4836" x2="52.1523" y2="36.7753" gradientUnits="userSpaceOnUse">
<stop stop-color="#165DFF"/>
<stop offset="1" stop-color="#6AA1FF"/>
</linearGradient>
<linearGradient id="paint2_linear_113_6402" x1="23.2417" y1="54.8666" x2="23.2417" y2="49.9367" gradientUnits="userSpaceOnUse">
<stop stop-color="#BEDAFF"/>
<stop offset="0.9973" stop-color="white"/>
</linearGradient>
<linearGradient id="paint3_linear_113_6402" x1="31.5459" y1="54.8666" x2="31.5459" y2="49.9367" gradientUnits="userSpaceOnUse">
<stop stop-color="#BEDAFF"/>
<stop offset="0.9973" stop-color="white"/>
</linearGradient>
<linearGradient id="paint4_linear_113_6402" x1="58.2083" y1="32.6813" x2="52.1523" y2="11.973" gradientUnits="userSpaceOnUse">
<stop stop-color="#165DFF"/>
<stop offset="1" stop-color="#6AA1FF"/>
</linearGradient>
<linearGradient id="paint5_linear_113_6402" x1="23.2417" y1="30.0643" x2="23.2417" y2="25.1344" gradientUnits="userSpaceOnUse">
<stop stop-color="#BEDAFF"/>
<stop offset="0.9973" stop-color="white"/>
</linearGradient>
<linearGradient id="paint6_linear_113_6402" x1="31.5459" y1="30.0643" x2="31.5459" y2="25.1344" gradientUnits="userSpaceOnUse">
<stop stop-color="#BEDAFF"/>
<stop offset="0.9973" stop-color="white"/>
</linearGradient>
<linearGradient id="paint7_linear_113_6402" x1="40" y1="0" x2="40" y2="80" gradientUnits="userSpaceOnUse">
<stop stop-color="#BEDAFF"/>
<stop offset="1" stop-color="white"/>
</linearGradient>
<clipPath id="clip0_113_6402">
<rect width="46" height="41.2293" fill="white" transform="translate(17 19.3853)"/>
</clipPath>
</defs>
</svg>
