<svg width="80" height="80" viewBox="0 0 80 80" fill="none" xmlns="http://www.w3.org/2000/svg">
<rect x="0.666667" y="0.666667" width="78.6667" height="78.6667" rx="10" fill="#E8F3FF"/>
<g clip-path="url(#clip0_113_6377)">
<path d="M38.562 19.9735C39.0919 19.5346 39.1655 18.7502 38.7266 18.2203C38.4499 17.8865 38.0204 17.7207 37.5908 17.7826C25.6322 19.8323 16.9593 30.3027 17.1718 42.4341C17.1765 43.4543 17.2477 44.4734 17.3854 45.4842C17.4589 46.0468 17.9048 46.4881 18.4686 46.5581C18.52 46.5616 18.5713 46.5616 18.6227 46.5581C19.134 46.5581 19.5927 46.2464 19.7806 45.7714C21.751 40.8898 24.319 36.2721 27.4251 32.0233C30.6246 27.5608 34.3645 23.5127 38.562 19.9735Z" fill="#2196F3"/>
<path d="M38.562 19.9735C39.0919 19.5346 39.1655 18.7502 38.7266 18.2203C38.4499 17.8865 38.0204 17.7207 37.5908 17.7826C25.6322 19.8323 16.9593 30.3027 17.1718 42.4341C17.1765 43.4543 17.2477 44.4734 17.3854 45.4842C17.4589 46.0468 17.9048 46.4881 18.4686 46.5581C18.52 46.5616 18.5713 46.5616 18.6227 46.5581C19.134 46.5581 19.5927 46.2464 19.7806 45.7714C21.751 40.8898 24.319 36.2721 27.4251 32.0233C30.6246 27.5608 34.3645 23.5127 38.562 19.9735Z" fill="url(#paint0_linear_113_6377)"/>
<path d="M64.1767 38.5121C62.9464 29.5697 56.9081 22.0244 48.4536 18.8646C48.0322 18.7117 47.5618 18.7981 47.221 19.0887C44.9273 21.0801 42.7725 23.2256 40.7718 25.5111C40.3154 26.0247 40.3621 26.8126 40.8757 27.269C41.0753 27.4452 41.3251 27.5538 41.5912 27.5783C46.0385 27.9822 49.9162 31.9579 51.3846 37.4441H32.0675C31.6589 37.4441 31.2772 37.6437 31.0438 37.9798C29.4469 40.2805 27.9365 42.5871 26.5614 44.8329C24.4218 48.204 22.6476 51.7933 21.2679 55.5402C21.143 55.9219 21.2095 56.3398 21.4476 56.6632C21.4686 56.6935 21.4908 56.7227 21.5153 56.7507C25.7782 63.2886 33.0305 67.2573 40.8337 67.3238C50.7426 67.2153 59.5263 60.9237 62.8168 51.5762C63.0585 50.933 62.734 50.214 62.0896 49.9724C61.9496 49.9198 61.8013 49.893 61.6507 49.893H51.3169C50.8442 49.893 50.4111 50.1615 50.201 50.5852C48.638 54.4559 44.9973 57.0892 40.8325 57.3635C36.042 57.3635 31.89 53.3248 30.3212 47.4032H62.9429C63.5674 47.409 64.0997 46.9526 64.1884 46.3352C64.3857 45.0407 64.4895 43.7333 64.5 42.4225C64.486 41.1128 64.3775 39.8066 64.1767 38.5121Z" fill="#2196F3"/>
<path d="M64.1767 38.5121C62.9464 29.5697 56.9081 22.0244 48.4536 18.8646C48.0322 18.7117 47.5618 18.7981 47.221 19.0887C44.9273 21.0801 42.7725 23.2256 40.7718 25.5111C40.3154 26.0247 40.3621 26.8126 40.8757 27.269C41.0753 27.4452 41.3251 27.5538 41.5912 27.5783C46.0385 27.9822 49.9162 31.9579 51.3846 37.4441H32.0675C31.6589 37.4441 31.2772 37.6437 31.0438 37.9798C29.4469 40.2805 27.9365 42.5871 26.5614 44.8329C24.4218 48.204 22.6476 51.7933 21.2679 55.5402C21.143 55.9219 21.2095 56.3398 21.4476 56.6632C21.4686 56.6935 21.4908 56.7227 21.5153 56.7507C25.7782 63.2886 33.0305 67.2573 40.8337 67.3238C50.7426 67.2153 59.5263 60.9237 62.8168 51.5762C63.0585 50.933 62.734 50.214 62.0896 49.9724C61.9496 49.9198 61.8013 49.893 61.6507 49.893H51.3169C50.8442 49.893 50.4111 50.1615 50.201 50.5852C48.638 54.4559 44.9973 57.0892 40.8325 57.3635C36.042 57.3635 31.89 53.3248 30.3212 47.4032H62.9429C63.5674 47.409 64.0997 46.9526 64.1884 46.3352C64.3857 45.0407 64.4895 43.7333 64.5 42.4225C64.486 41.1128 64.3775 39.8066 64.1767 38.5121Z" fill="url(#paint1_linear_113_6377)"/>
<path d="M54.8612 13.1272C51.103 10.3662 43.9418 12.7632 36.1697 19.376C32.1592 22.8179 28.5856 26.755 25.5304 31.0954C22.5622 35.2324 20.1093 39.728 18.2275 44.4794C18.2125 44.5187 18.1996 44.5581 18.1888 44.5985C14.524 53.9493 14.6109 61.7655 18.4164 64.5287C19.6638 65.4118 21.1291 65.9212 22.646 65.9999C22.9025 66.0021 23.1591 65.9769 23.4114 65.9255C24.0984 65.8097 24.7028 65.3954 25.0667 64.7899C25.3887 64.2412 25.2159 63.5307 24.6791 63.1974C23.9739 62.7591 21.828 61.4201 23.8848 55.2391C25.1042 51.8955 26.664 48.6919 28.5383 45.6784C29.7911 43.6082 31.1576 41.4812 32.5982 39.3684L34.2171 37.0501C36.451 33.8815 38.8406 30.8308 41.3783 27.9092C43.1485 25.8489 45.0539 23.9142 47.0828 22.1195C51.4089 18.3442 53.3144 18.424 53.9305 18.6218C54.5467 18.8196 54.975 19.5082 55.2295 20.6483C55.3508 21.2221 55.8768 21.6112 56.45 21.5511C57.0168 21.4975 57.4591 21.0275 57.487 20.4482C57.6555 16.133 56.1537 14.0901 54.8612 13.1272Z" fill="#FFC107"/>
<path d="M54.8612 13.1272C51.103 10.3662 43.9418 12.7632 36.1697 19.376C32.1592 22.8179 28.5856 26.755 25.5304 31.0954C22.5622 35.2324 20.1093 39.728 18.2275 44.4794C18.2125 44.5187 18.1996 44.5581 18.1888 44.5985C14.524 53.9493 14.6109 61.7655 18.4164 64.5287C19.6638 65.4118 21.1291 65.9212 22.646 65.9999C22.9025 66.0021 23.1591 65.9769 23.4114 65.9255C24.0984 65.8097 24.7028 65.3954 25.0667 64.7899C25.3887 64.2412 25.2159 63.5307 24.6791 63.1974C23.9739 62.7591 21.828 61.4201 23.8848 55.2391C25.1042 51.8955 26.664 48.6919 28.5383 45.6784C29.7911 43.6082 31.1576 41.4812 32.5982 39.3684L34.2171 37.0501C36.451 33.8815 38.8406 30.8308 41.3783 27.9092C43.1485 25.8489 45.0539 23.9142 47.0828 22.1195C51.4089 18.3442 53.3144 18.424 53.9305 18.6218C54.5467 18.8196 54.975 19.5082 55.2295 20.6483C55.3508 21.2221 55.8768 21.6112 56.45 21.5511C57.0168 21.4975 57.4591 21.0275 57.487 20.4482C57.6555 16.133 56.1537 14.0901 54.8612 13.1272Z" fill="url(#paint2_linear_113_6377)"/>
</g>
<rect x="0.666667" y="0.666667" width="78.6667" height="78.6667" rx="10" stroke="url(#paint3_linear_113_6377)" stroke-width="1.33333"/>
<defs>
<linearGradient id="paint0_linear_113_6377" x1="36.7376" y1="41.073" x2="17.0955" y2="22.8742" gradientUnits="userSpaceOnUse">
<stop stop-color="#165DFF"/>
<stop offset="1" stop-color="#6AA1FF"/>
</linearGradient>
<linearGradient id="paint1_linear_113_6377" x1="59.9903" y1="58.0731" x2="26.9038" y2="22.0323" gradientUnits="userSpaceOnUse">
<stop stop-color="#165DFF"/>
<stop offset="1" stop-color="#6AA1FF"/>
</linearGradient>
<linearGradient id="paint2_linear_113_6377" x1="36.5" y1="66.0013" x2="36.5" y2="12.0092" gradientUnits="userSpaceOnUse">
<stop stop-color="#BEDAFF"/>
<stop offset="0.9973" stop-color="white"/>
</linearGradient>
<linearGradient id="paint3_linear_113_6377" x1="40" y1="0" x2="40" y2="80" gradientUnits="userSpaceOnUse">
<stop stop-color="#BEDAFF"/>
<stop offset="1" stop-color="white"/>
</linearGradient>
<clipPath id="clip0_113_6377">
<rect width="49" height="56" fill="white" transform="translate(15.5 12)"/>
</clipPath>
</defs>
</svg>
