<svg width="80" height="80" viewBox="0 0 80 80" fill="none" xmlns="http://www.w3.org/2000/svg">
<rect x="0.666667" y="0.666667" width="78.6667" height="78.6667" rx="10" fill="#E8F3FF"/>
<g clip-path="url(#clip0_113_6419)">
<circle cx="40" cy="40" r="12.375" fill="#D9D9D9"/>
<circle cx="40" cy="40" r="12.375" fill="url(#paint0_linear_113_6419)"/>
<path d="M65.6496 37.2998H62.545C61.897 37.2998 61.3566 36.8138 61.249 36.1658C60.682 33.0613 59.4671 30.1719 57.7395 27.6875C57.3611 27.147 57.4155 26.4181 57.8749 25.9599L59.8455 23.9893C60.6011 23.2338 60.601 22.3693 60.0619 21.8568L58.1445 19.9394C57.6041 19.399 56.7675 19.399 56.2271 19.9394L54.0401 22.1529C53.5807 22.6123 52.8517 22.6655 52.3125 22.2883C49.8281 20.5608 46.94 19.318 43.8342 18.7788C43.1862 18.6434 42.7002 18.1042 42.7002 17.4562V14.6744C42.7002 13.5936 42.1054 13 41.3498 13H38.6502C37.8934 13 37.2998 13.5936 37.2998 14.3504V17.455C37.2998 18.103 36.8138 18.6434 36.1658 18.751C33.0613 19.318 30.1719 20.5329 27.6875 22.2605C27.147 22.6655 26.4459 22.6111 25.9599 22.1529L23.7729 19.9659C23.2325 19.4255 22.3959 19.4255 21.8555 19.9659L19.9659 21.8555C19.4255 22.3959 19.4255 23.2325 19.9659 23.7729L22.1529 25.9599C22.6123 26.4193 22.6655 27.1483 22.2883 27.6875C20.5608 30.1719 19.318 33.06 18.7788 36.1658C18.6434 36.8138 18.1042 37.2998 17.4562 37.2998H14.3504C13.5936 37.2998 13 37.8934 13 38.6502V41.3498C13 42.1054 13.5936 42.7002 14.3504 42.7002H17.455C18.103 42.7002 18.6434 43.1862 18.751 43.8342C19.318 46.9387 20.5329 49.8281 22.2605 52.3125C22.6389 52.853 22.5845 53.5819 22.1251 54.0401L19.9381 56.2271C19.3977 56.7675 19.3977 57.6041 19.9381 58.1445L21.8555 60.0619C22.3959 60.6023 23.2325 60.6023 23.7729 60.0619L25.9599 57.8749C26.4193 57.4155 27.1483 57.3623 27.6875 57.7395C30.1719 59.4671 33.06 60.7099 36.1658 61.249C36.8138 61.3566 37.2998 61.897 37.2998 62.545V65.6496C37.2998 66.4052 37.8934 67 38.6502 67H41.3498C42.1054 67 42.7002 66.4064 42.7002 65.6496V62.545C42.7002 61.897 43.1862 61.3566 43.8342 61.249C46.9387 60.682 49.8281 59.4671 52.3125 57.7395C52.853 57.3611 53.5819 57.4155 54.0401 57.8749L56.2271 60.0619C56.7675 60.6023 57.6041 60.6023 58.1445 60.0619L60.0619 58.1445C60.6023 57.6041 60.6023 56.7675 60.0619 56.2271L57.8749 54.0401C57.4155 53.5807 57.3623 52.8517 57.7395 52.3125C59.4671 49.8281 60.7099 46.94 61.249 43.8342C61.3566 43.1862 61.897 42.7002 62.545 42.7002H65.6496C66.4052 42.7002 67 42.1066 67 41.3498V38.6502C67 37.8934 66.4052 37.2998 65.6496 37.2998ZM55.7942 43.6988C54.4717 49.6383 49.6649 54.4451 43.7253 55.7677C31.8994 58.4141 21.5859 48.0993 24.2045 36.3012C25.5271 30.3617 30.3339 25.5549 36.2734 24.2323C48.0993 21.5859 58.4141 31.8994 55.7942 43.6988Z" fill="url(#paint1_linear_113_6419)"/>
<path d="M65.6496 37.2998H62.545C61.897 37.2998 61.3566 36.8138 61.249 36.1658C60.682 33.0613 59.4671 30.1719 57.7395 27.6875C57.3611 27.147 57.4155 26.4181 57.8749 25.9599L59.8455 23.9893C60.6011 23.2338 60.601 22.3693 60.0619 21.8568L58.1445 19.9394C57.6041 19.399 56.7675 19.399 56.2271 19.9394L54.0401 22.1529C53.5807 22.6123 52.8517 22.6655 52.3125 22.2883C49.8281 20.5608 46.94 19.318 43.8342 18.7788C43.1862 18.6434 42.7002 18.1042 42.7002 17.4562V14.6744C42.7002 13.5936 42.1054 13 41.3498 13H38.6502C37.8934 13 37.2998 13.5936 37.2998 14.3504V17.455C37.2998 18.103 36.8138 18.6434 36.1658 18.751C33.0613 19.318 30.1719 20.5329 27.6875 22.2605C27.147 22.6655 26.4459 22.6111 25.9599 22.1529L23.7729 19.9659C23.2325 19.4255 22.3959 19.4255 21.8555 19.9659L19.9659 21.8555C19.4255 22.3959 19.4255 23.2325 19.9659 23.7729L22.1529 25.9599C22.6123 26.4193 22.6655 27.1483 22.2883 27.6875C20.5608 30.1719 19.318 33.06 18.7788 36.1658C18.6434 36.8138 18.1042 37.2998 17.4562 37.2998H14.3504C13.5936 37.2998 13 37.8934 13 38.6502V41.3498C13 42.1054 13.5936 42.7002 14.3504 42.7002H17.455C18.103 42.7002 18.6434 43.1862 18.751 43.8342C19.318 46.9387 20.5329 49.8281 22.2605 52.3125C22.6389 52.853 22.5845 53.5819 22.1251 54.0401L19.9381 56.2271C19.3977 56.7675 19.3977 57.6041 19.9381 58.1445L21.8555 60.0619C22.3959 60.6023 23.2325 60.6023 23.7729 60.0619L25.9599 57.8749C26.4193 57.4155 27.1483 57.3623 27.6875 57.7395C30.1719 59.4671 33.06 60.7099 36.1658 61.249C36.8138 61.3566 37.2998 61.897 37.2998 62.545V65.6496C37.2998 66.4052 37.8934 67 38.6502 67H41.3498C42.1054 67 42.7002 66.4064 42.7002 65.6496V62.545C42.7002 61.897 43.1862 61.3566 43.8342 61.249C46.9387 60.682 49.8281 59.4671 52.3125 57.7395C52.853 57.3611 53.5819 57.4155 54.0401 57.8749L56.2271 60.0619C56.7675 60.6023 57.6041 60.6023 58.1445 60.0619L60.0619 58.1445C60.6023 57.6041 60.6023 56.7675 60.0619 56.2271L57.8749 54.0401C57.4155 53.5807 57.3623 52.8517 57.7395 52.3125C59.4671 49.8281 60.7099 46.94 61.249 43.8342C61.3566 43.1862 61.897 42.7002 62.545 42.7002H65.6496C66.4052 42.7002 67 42.1066 67 41.3498V38.6502C67 37.8934 66.4052 37.2998 65.6496 37.2998ZM55.7942 43.6988C54.4717 49.6383 49.6649 54.4451 43.7253 55.7677C31.8994 58.4141 21.5859 48.0993 24.2045 36.3012C25.5271 30.3617 30.3339 25.5549 36.2734 24.2323C48.0993 21.5859 58.4141 31.8994 55.7942 43.6988Z" fill="url(#paint2_linear_113_6419)"/>
<path d="M38.6851 38.1106C37.44 36.8672 35.4288 36.8672 34.1838 38.1106C32.9387 39.354 32.9387 41.3625 34.1838 42.6059L37.3757 45.7936C37.9503 46.4317 38.7808 46.75 39.6099 46.75H39.8328C40.7591 46.6857 41.6211 46.2075 42.1628 45.4752L51.74 32.7231C52.7935 31.3198 52.5061 29.3113 51.101 28.2592C49.6958 27.2071 47.6846 27.494 46.6311 28.8973L39.2567 38.7173L38.6851 38.1106Z" fill="white"/>
<path d="M38.6851 38.1106C37.44 36.8672 35.4288 36.8672 34.1838 38.1106C32.9387 39.354 32.9387 41.3625 34.1838 42.6059L37.3757 45.7936C37.9503 46.4317 38.7808 46.75 39.6099 46.75H39.8328C40.7591 46.6857 41.6211 46.2075 42.1628 45.4752L51.74 32.7231C52.7935 31.3198 52.5061 29.3113 51.101 28.2592C49.6958 27.2071 47.6846 27.494 46.6311 28.8973L39.2567 38.7173L38.6851 38.1106Z" fill="url(#paint3_linear_113_6419)"/>
</g>
<rect x="0.666667" y="0.666667" width="78.6667" height="78.6667" rx="10" stroke="url(#paint4_linear_113_6419)" stroke-width="1.33333"/>
<defs>
<linearGradient id="paint0_linear_113_6419" x1="49.7969" y1="47.6575" x2="33.1949" y2="27.3845" gradientUnits="userSpaceOnUse">
<stop stop-color="#165DFF"/>
<stop offset="1" stop-color="#6AA1FF"/>
</linearGradient>
<linearGradient id="paint1_linear_113_6419" x1="10.1655" y1="10.308" x2="69.9619" y2="69.8235" gradientUnits="userSpaceOnUse">
<stop stop-color="#FDC830"/>
<stop offset="1" stop-color="#F37335"/>
</linearGradient>
<linearGradient id="paint2_linear_113_6419" x1="61.375" y1="56.7073" x2="25.1525" y2="12.4752" gradientUnits="userSpaceOnUse">
<stop stop-color="#165DFF"/>
<stop offset="1" stop-color="#6AA1FF"/>
</linearGradient>
<linearGradient id="paint3_linear_113_6419" x1="52.3398" y1="41.9928" x2="32.126" y2="39.852" gradientUnits="userSpaceOnUse">
<stop stop-color="#BEDAFF"/>
<stop offset="0.9973" stop-color="white"/>
</linearGradient>
<linearGradient id="paint4_linear_113_6419" x1="40" y1="0" x2="40" y2="80" gradientUnits="userSpaceOnUse">
<stop stop-color="#BEDAFF"/>
<stop offset="1" stop-color="white"/>
</linearGradient>
<clipPath id="clip0_113_6419">
<rect width="54" height="54" fill="white" transform="translate(13 13)"/>
</clipPath>
</defs>
</svg>
