<svg width="44" height="45" viewBox="0 0 44 45" fill="none" xmlns="http://www.w3.org/2000/svg">
<g clip-path="url(#clip0_113_6660)">
<path d="M39.5156 13.8906C38.6955 13.8906 38.0312 13.2264 38.0312 12.4062C38.0312 9.13246 35.3675 6.46875 32.0938 6.46875H11.9062C8.63246 6.46875 5.96875 9.13246 5.96875 12.4062C5.96875 13.2264 5.30449 13.8906 4.48438 13.8906C3.66426 13.8906 3 13.2264 3 12.4062C3 7.4952 6.9952 3.5 11.9062 3.5H32.0938C37.0048 3.5 41 7.4952 41 12.4062C41 13.2264 40.3357 13.8906 39.5156 13.8906Z" fill="#1D2129"/>
<path d="M41 32.5938C40.9221 30.6247 38.1092 30.6255 38.0312 32.5938C38.0312 35.8675 35.3675 38.5312 32.0938 38.5312H11.9062C8.63246 38.5312 5.96875 35.8675 5.96875 32.5938C5.96875 31.7736 5.30449 31.1094 4.48438 31.1094C3.66426 31.1094 3 31.7736 3 32.5938C3 37.5048 6.9952 41.5 11.9062 41.5H32.0938C37.0048 41.5 41 37.5048 41 32.5938Z" fill="#1D2129"/>
<path d="M7.26758 16.1914C4.9141 16.1914 3 18.1055 3 20.459V24.541C3.23527 30.2039 11.3021 30.1995 11.5352 24.541V20.459C11.5352 18.1055 9.62105 16.1914 7.26758 16.1914ZM8.56641 24.541C8.49516 26.2644 6.04 26.2629 5.96875 24.541V20.459C6.04 18.7356 8.49516 18.7371 8.56641 20.459V24.541Z" fill="#165DFF"/>
<path d="M31.1084 26.2866C30.8226 25.52 29.9684 25.1296 29.2002 25.4138C28.8803 25.5326 27.8657 25.8398 27.0196 25.8398C26.2982 25.8398 25.7045 25.2839 25.6429 24.5781H26.9217C29.1623 24.5781 31.0557 22.6306 31.0557 20.3254C31.0557 18.0461 29.1779 16.1914 26.8987 16.1914C24.6194 16.1914 22.6689 18.0461 22.6689 20.3254V24.4579C22.6689 26.8566 24.6202 28.8079 27.0189 28.8079C28.5604 28.8079 30.073 28.2564 30.24 28.1933C31.0074 27.9068 31.3941 27.0533 31.1084 26.2866ZM25.6377 20.3254C25.6689 18.8165 28.0201 18.7423 28.0869 20.3254C28.0869 20.9971 27.531 21.6094 26.9217 21.6094H25.6377V20.3254Z" fill="#1D2129"/>
<path d="M41 17.6758V26.6102C40.9978 28.9259 37.9066 29.7504 36.9684 27.4096L35.4336 23.2667V27.3242C35.3549 29.294 32.5428 29.2925 32.4648 27.3242V18.3905C32.4648 17.2973 33.1796 16.4059 34.203 16.2233C35.1909 16.0467 36.1342 16.6093 36.4964 17.5912L38.0312 21.7333V17.6758C38.1099 15.706 40.9221 15.7075 41 17.6758Z" fill="#165DFF"/>
<path d="M17.1758 16.1914C14.8008 16.1914 12.9453 18.0461 12.9453 20.3254V27.3242C13.024 29.294 15.8361 29.2925 15.9141 27.3242V24.5781H17.198C19.4387 24.5781 21.332 22.6306 21.332 20.3254C21.332 18.0461 19.4558 16.1914 17.1758 16.1914ZM17.198 21.6094H15.9141V20.3254C15.9452 18.818 18.2965 18.7416 18.3633 20.3254C18.3633 20.9978 17.8081 21.6094 17.198 21.6094Z" fill="#165DFF"/>
</g>
<defs>
<clipPath id="clip0_113_6660">
<rect width="38" height="38" fill="white" transform="translate(3 3.5)"/>
</clipPath>
</defs>
</svg>
