<svg width="44" height="45" viewBox="0 0 44 45" fill="none" xmlns="http://www.w3.org/2000/svg">
<path d="M5.02344 16.7371V8.65067C5.02344 7.03338 6.33365 5.72318 7.95093 5.72318H16.2319" stroke="black" stroke-width="2.5" stroke-miterlimit="10" stroke-linecap="round"/>
<path d="M27.7681 5.72318H36.049C37.6663 5.72318 38.9765 7.03338 38.9765 8.65067V16.7269" stroke="black" stroke-width="2.5" stroke-miterlimit="10" stroke-linecap="round"/>
<path d="M5.02344 28.2628V36.3391C5.02344 37.9563 6.33365 39.2665 7.95093 39.2665H16.2319" stroke="black" stroke-width="2.5" stroke-miterlimit="10" stroke-linecap="round"/>
<path d="M38.9765 28.2628V36.3391C38.9765 37.9563 37.6663 39.2665 36.049 39.2665H27.7681" stroke="black" stroke-width="2.5" stroke-miterlimit="10" stroke-linecap="round"/>
<path d="M14.9323 10.3908L8.30957 21.8551H21.5549L14.9323 10.3908Z" stroke="#165DFF" stroke-width="2.5" stroke-miterlimit="10" stroke-linecap="round" stroke-linejoin="round"/>
<path d="M21.9131 29.6069C25.7516 29.6069 28.8634 26.4952 28.8634 22.6567C28.8634 18.8182 25.7516 15.7064 21.9131 15.7064C18.0746 15.7064 14.9629 18.8182 14.9629 22.6567C14.9629 26.4952 18.0746 29.6069 21.9131 29.6069Z" stroke="black" stroke-width="2.5" stroke-miterlimit="10" stroke-linecap="round" stroke-linejoin="round"/>
<path d="M34.5136 25.4479H21.9131V34.5682H34.5136V25.4479Z" stroke="#165DFF" stroke-width="2.5" stroke-miterlimit="10" stroke-linecap="round" stroke-linejoin="round"/>
</svg>
